<svg xmlns="http://www.w3.org/2000/svg" width="330" height="430" fill="none" viewBox="0 0 330 430">
  <g clip-path="url(#clip)">
    <rect width="330" height="430" fill="url(#grid)"/>
    <path fill="#fcfcfc" stroke="#ededed" stroke-width="1.2" d="m-66.5 360.7 231-135.6 231 136.9-231 135.6z" opacity=".8"/>

    <circle cx="258.5" cy="108.5" r="2.5" fill="#525252"/>
    <circle cx="73" cy="168" r="1.5" fill="#13c575"/>
    <circle cx="283" cy="243" r="3.8" fill="#13c575"/>
    <circle cx="57" cy="263" r="2" fill="#e2e2e2"/>
    <circle cx="246" cy="319" r="1.2" fill="#13c575"/>
    <circle cx="294" cy="178" r="2" fill="#b2b2b2"/>

    <path stroke="#ededed" stroke-width=".8" d="M105 335V99m120 236V99m-60 270V133"/>
    <path stroke="#d9d9d9" stroke-dasharray=".6 3" stroke-linecap="round" stroke-width="1" d="m102 120 126 72M228 120l-126 72M102 310l126-72M228 310l-126-72"/>

    <g filter="url(#softShadow)">
      <path fill="#fff" stroke="#d9d9d9" stroke-width="1.2" d="M91.5 86.5c0-4.4 3.6-8 8-8h131c4.4 0 8 3.6 8 8v16c0 4.4-3.6 8-8 8h-131c-4.4 0-8-3.6-8-8z"/>
      <path stroke="#ededed" stroke-width="1" d="M111 94.5h108"/>
      <path fill="#fff" stroke="#d9d9d9" stroke-width="1.2" d="M91.5 327.5c0-4.4 3.6-8 8-8h131c4.4 0 8 3.6 8 8v16c0 4.4-3.6 8-8 8h-131c-4.4 0-8-3.6-8-8z"/>
      <path stroke="#ededed" stroke-width="1" d="M111 335.5h108"/>
    </g>

    <path fill="#fff" fill-opacity=".32" stroke="#707070" stroke-width="1.15" d="M111.5 112.5h107c-4.7 36.9-20.6 65.1-47.5 84.5a10.02 10.02 0 0 0 0 16.2c26.9 19.5 42.8 48 47.5 85.3h-107c4.7-37.3 20.6-65.8 47.5-85.3a10.02 10.02 0 0 0 0-16.2c-26.9-19.4-42.8-47.6-47.5-84.5Z"/>
    <path stroke="#b2b2b2" stroke-width="1" d="M125.5 126.5c6.2 28.6 19.7 50.1 40.5 64.5M204.5 126.5c-6.2 28.6-19.7 50.1-40.5 64.5M125.5 284.5c6.2-30.5 19.7-53.2 40.5-68M204.5 284.5c-6.2-30.5-19.7-53.2-40.5-68"/>

    <g filter="url(#greenGlow)">
      <path fill="#13c575" fill-opacity=".12" stroke="#13c575" stroke-opacity=".55" stroke-width="1" d="M128 132c18.9 9.6 31.3 28.5 37.1 56.7l.9 4.3c-18.3-15.3-31-35.7-38-61Z"/>
      <path fill="#13c575" fill-opacity=".16" stroke="#13c575" stroke-opacity=".55" stroke-width="1" d="M202 132c-18.9 9.6-31.3 28.5-37.1 56.7l-.9 4.3c18.3-15.3 31-35.7 38-61Z"/>
      <path stroke="#13c575" stroke-linecap="round" stroke-width="2" d="M165 198v49"/>
      <path fill="#13c575" fill-opacity=".18" stroke="#13c575" stroke-opacity=".7" stroke-width="1" d="M124 286.5c19.1-24.7 32.8-37 41-37s21.9 12.3 41 37z"/>
      <path stroke="#13c575" stroke-linecap="round" stroke-opacity=".8" stroke-width="1" d="M144 275c7.9-7.4 14.9-11.1 21-11.1s13.1 3.7 21 11.1"/>
    </g>

    <circle cx="165" cy="207" r="2.4" fill="#13c575"/>
    <circle cx="165" cy="221" r="1.6" fill="#13c575"/>
    <circle cx="165" cy="238" r="1.2" fill="#13c575"/>
    <circle cx="154" cy="282" r="1.3" fill="#13c575"/>
    <circle cx="176" cy="282" r="1.3" fill="#13c575"/>

    <path stroke="#707070" stroke-dasharray=".5 2" stroke-width="1" d="m82 272 62 3.5m104-128.5-49 62m65 68-72-28"/>
    <circle cx="82" cy="272" r="2.5" fill="#13c575"/>
    <circle cx="248" cy="147" r="2.5" fill="#13c575"/>
    <circle cx="264" cy="277" r="2.5" fill="#13c575"/>
  </g>

  <defs>
    <pattern id="grid" width="14" height="14" patternUnits="userSpaceOnUse">
      <path stroke="#f3f3f3" stroke-width=".5" d="M14 0H0v14"/>
    </pattern>
    <filter id="softShadow" width="190" height="310" x="70" y="60" color-interpolation-filters="sRGB" filterUnits="userSpaceOnUse">
      <feDropShadow dx="0" dy="8" stdDeviation="12" flood-color="#ededed" flood-opacity=".8"/>
    </filter>
    <filter id="greenGlow" width="112" height="176" x="109" y="122" color-interpolation-filters="sRGB" filterUnits="userSpaceOnUse">
      <feGaussianBlur in="SourceGraphic" result="blur" stdDeviation=".25"/>
      <feColorMatrix in="blur" result="glow" values="0 0 0 0 0.0745 0 0 0 0 0.7725 0 0 0 0 0.4588 0 0 0 .7 0"/>
      <feBlend in="SourceGraphic" in2="glow"/>
    </filter>
    <clipPath id="clip">
      <path fill="#fff" d="M0 0h330v430H0z"/>
    </clipPath>
  </defs>
</svg>
