<svg width="101" height="96" viewBox="0 0 101 96" fill="none" xmlns="http://www.w3.org/2000/svg">
<g clip-path="url(#clip0_488_6012)">
<path d="M66.8401 77.1314L64.8885 75.1793C64.3324 74.6231 63.5781 74.3106 62.7916 74.3106C62.005 74.3106 61.2507 74.6231 60.6945 75.1793L58.7428 77.1314C58.1867 77.6875 57.4323 77.9999 56.6457 77.9999C55.8593 77.9999 55.1049 77.6875 54.5487 77.1314L52.5971 75.1797C52.0409 74.6236 51.2867 74.3112 50.5001 74.3112C49.7135 74.3112 48.9592 74.6236 48.403 75.1797L46.4515 77.1314C45.8953 77.6875 45.1409 77.9999 44.3544 77.9999C43.5679 77.9999 42.8135 77.6875 42.2574 77.1314L40.3057 75.1797C39.7496 74.6236 38.9953 74.3112 38.2087 74.3112C37.4222 74.3112 36.6678 74.6236 36.1117 75.1797L34.1601 77.1314C33.604 77.6875 32.8496 77.9999 32.063 77.9999C31.2765 77.9999 30.5222 77.6875 29.966 77.1314L21.8687 69.0341C21.3126 68.4779 21.0001 67.7235 21.0001 66.937C21.0001 66.1505 21.3126 65.3962 21.8687 64.84L23.8203 62.8883C24.0957 62.613 24.3142 62.286 24.4632 61.9262C24.6123 61.5664 24.689 61.1809 24.689 60.7914C24.689 60.402 24.6123 60.0163 24.4632 59.6565C24.3142 59.2967 24.0957 58.9698 23.8203 58.6944L21.8687 56.7427C21.5933 56.4673 21.3749 56.1404 21.2258 55.7806C21.0768 55.4208 21.0001 55.0351 21.0001 54.6457C21.0001 54.2562 21.0768 53.8707 21.2258 53.5109C21.3749 53.1511 21.5933 52.8241 21.8687 52.5487L23.8204 50.597C24.3766 50.0408 24.689 49.2866 24.689 48.5C24.689 47.7135 24.3766 46.9592 23.8204 46.403L21.8687 44.4514C21.3126 43.8951 21.0001 43.1408 21.0001 42.3543C21.0001 41.5677 21.3126 40.8134 21.8687 40.2573L23.8203 38.3057C24.3765 37.7496 24.6889 36.9953 24.6889 36.2087C24.6889 35.4222 24.3765 34.6678 23.8203 34.1117L21.8686 32.16C21.3124 31.6037 21 30.8495 21 30.0629C21 29.2764 21.3124 28.5221 21.8686 27.9659L29.9659 19.8686C30.5221 19.3124 31.2764 19 32.0629 19C32.8495 19 33.6037 19.3124 34.16 19.8686L36.1116 21.8202C36.6677 22.3764 37.4221 22.6888 38.2086 22.6888C38.9951 22.6888 39.7495 22.3764 40.3056 21.8202L42.2573 19.8686C42.8134 19.3124 43.5677 19 44.3543 19C45.1408 19 45.8951 19.3124 46.4514 19.8686L48.4029 21.8202C48.9591 22.3764 49.7134 22.6888 50.5 22.6888C51.2865 22.6888 52.0408 22.3764 52.597 21.8202L54.5486 19.8686C55.1048 19.3124 55.8591 19 56.6456 19C57.4322 19 58.1865 19.3124 58.7427 19.8686L60.6943 21.8202C61.2504 22.3764 62.0048 22.6888 62.7914 22.6888C63.5778 22.6888 64.3322 22.3764 64.8883 21.8202L66.84 19.8686C67.3961 19.3124 68.1504 19 68.937 19C69.7235 19 70.4778 19.3124 71.0341 19.8686L79.1313 27.9654C79.4066 28.2408 79.6251 28.5677 79.7741 28.9275C79.9231 29.2873 79.9999 29.673 79.9999 30.0624C79.9999 30.4518 79.9231 30.8375 79.7741 31.1973C79.6251 31.5571 79.4066 31.884 79.1313 32.1594L77.1796 34.1111C76.9042 34.3865 76.6857 34.7134 76.5367 35.0732C76.3876 35.433 76.3109 35.8186 76.3109 36.2081C76.3109 36.5975 76.3876 36.9832 76.5367 37.343C76.6857 37.7028 76.9042 38.0297 77.1796 38.305L79.1313 40.2564C79.6874 40.8125 79.9998 41.5668 79.9998 42.3533C79.9998 43.1399 79.6874 43.8942 79.1313 44.4504L77.1796 46.402C76.6234 46.9581 76.3109 47.7125 76.3109 48.4991C76.3109 49.2855 76.6234 50.0399 77.1796 50.5961L79.1314 52.5478C79.6875 53.104 79.9999 53.8582 79.9999 54.6448C79.9999 55.4314 79.6875 56.1857 79.1314 56.7419L77.1797 58.6933C76.6235 59.2495 76.3112 60.0039 76.3112 60.7904C76.3112 61.5769 76.6235 62.3313 77.1797 62.8874L79.1315 64.8392C79.6876 65.3953 80 66.1497 80 66.9362C80 67.7227 79.6876 68.477 79.1315 69.0332L75.0827 73.0818L71.0342 77.1314C70.478 77.6875 69.7236 77.9999 68.9371 77.9999C68.1506 77.9999 67.3963 77.6875 66.8401 77.1314Z" fill="#A1A1AA"/>
<path d="M32.9494 30.1543C34.7214 30.1543 35.005 29.924 36.8831 29.924C40.9232 29.924 43.2268 32.6528 43.2268 36.1258V42.3276H39.169V35.9132C39.169 34.407 38.0527 33.5565 36.8831 33.5565C35.7135 33.5565 34.5975 34.407 34.5975 35.9132V42.3276H30.5391V29.924C31.3322 30.085 32.1402 30.1622 32.9494 30.1543Z" fill="#09090B"/>
<path d="M58.2637 29.9062H70.9332V33.6805H68.8246C67.5665 33.6805 66.6273 34.6373 66.6273 35.8955V42.3277H62.5695V35.8955C62.5695 34.6196 61.6482 33.6805 60.3724 33.6805H58.2637V29.9062Z" fill="#09090B"/>
<path d="M58.2637 43.7885H70.9332V47.5627H68.8246C67.5665 47.5627 66.6273 48.5196 66.6273 49.7777V56.2096H62.5695V49.7775C62.5695 48.5016 61.6482 47.5625 60.3724 47.5625H58.2637V43.7885Z" fill="#09090B"/>
<path d="M44.096 61.6884C44.0857 62.7855 44.3754 63.8646 44.9338 64.8091C45.5055 65.7602 46.3136 66.5471 47.2796 67.0934C48.2455 67.6397 49.3363 67.9268 50.446 67.9268C51.5556 67.9268 52.6465 67.6397 53.6124 67.0934C54.5783 66.5471 55.3864 65.7602 55.9582 64.8091C56.5165 63.8646 56.8062 62.7855 56.796 61.6884H44.096Z" fill="#09090B"/>
<path d="M52.6031 36.126C52.6031 34.9566 51.6992 33.8933 50.459 33.8933C49.2362 33.8933 48.2972 34.9035 48.2972 36.126C48.2972 37.2602 49.1653 38.3233 50.459 38.3233C50.7444 38.3208 51.0263 38.2619 51.2888 38.1499C51.5513 38.0379 51.7891 37.8752 51.9883 37.6709C52.1876 37.4667 52.3445 37.2251 52.4501 36.9599C52.5555 36.6948 52.6075 36.4114 52.6031 36.126ZM50.4589 29.9065C52.3371 29.9065 52.603 30.1368 54.3926 30.1368C55.2018 30.1448 56.0095 30.0675 56.8025 29.9065V42.3274C56.0095 42.1663 55.2018 42.0891 54.3926 42.0968C52.6031 42.0968 52.3371 42.3272 50.459 42.3272C46.8264 42.3272 44.1152 39.5275 44.1152 36.1253C44.1152 32.5461 47.0034 29.9065 50.4589 29.9065Z" fill="#09090B"/>
<path d="M52.6032 50.0083C52.6032 48.8387 51.6994 47.7756 50.4591 47.7756C49.2363 47.7756 48.2973 48.7855 48.2973 50.0083C48.2973 51.1423 49.1654 52.2055 50.4591 52.2055C50.7445 52.203 51.0264 52.144 51.2889 52.0321C51.5514 51.9201 51.7892 51.7574 51.9884 51.5532C52.1877 51.3489 52.3446 51.1072 52.4502 50.8422C52.5557 50.577 52.6076 50.2936 52.6032 50.0083ZM50.459 43.7888C52.3372 43.7888 52.6031 44.0191 54.3927 44.0191C55.2019 44.0269 56.0096 43.9498 56.8026 43.7888V56.2099C56.0096 56.0489 55.2019 55.9716 54.3926 55.9795C52.6031 55.9795 52.3371 56.2099 50.459 56.2099C46.8264 56.2099 44.1152 53.4102 44.1152 50.0081C44.1152 46.4288 47.0035 43.7888 50.459 43.7888Z" fill="#09090B"/>
<path d="M37.2862 43.781C35.4345 43.7885 34.9589 43.9927 33.1792 43.9927C32.2949 43.9938 31.4118 43.9228 30.5391 43.7803V51.4221V56.9862H34.5969V54.8831C35.4689 55.0129 36.2273 55.2109 37.3888 55.2109C40.7316 55.2109 43.2263 52.6347 43.2263 49.504C43.2263 46.2153 40.6021 43.7886 37.2862 43.781ZM36.7466 51.8377C36.4612 51.8352 36.1792 51.7763 35.9167 51.6643C35.6542 51.5524 35.4165 51.3896 35.2172 51.1854C35.018 50.9812 34.8611 50.7395 34.7555 50.4744C34.65 50.2092 34.598 49.9259 34.6025 49.6405C34.6025 48.4711 35.5063 47.4078 36.7466 47.4078C37.9693 47.4078 38.9085 48.4178 38.9085 49.6405C38.9085 50.7747 38.0402 51.8377 36.7466 51.8377Z" fill="#09090B"/>
</g>
<defs>
<clipPath id="clip0_488_6012">
<rect width="59" height="59" fill="white" transform="translate(21 19)"/>
</clipPath>
</defs>
</svg>
