<svg width="163" height="96" viewBox="0 0 163 96" fill="none" xmlns="http://www.w3.org/2000/svg">
<g clip-path="url(#clip0_488_5986)">
<path d="M25.5147 31.8901C25.69 31.8879 25.8652 31.8857 26.0458 31.8835C26.4171 31.8802 26.7884 31.8786 27.1597 31.8787C27.7235 31.8773 28.2864 31.8654 28.8501 31.853C32.1251 31.819 32.1251 31.819 33.3163 32.9669C33.416 33.0801 33.5156 33.1933 33.6183 33.3099C33.8638 33.5375 33.8638 33.5375 34.1142 33.7696C36.6553 36.5858 38.7851 39.7709 40.9636 42.8662C41.326 43.3809 41.6895 43.8949 42.0531 44.4088C42.312 44.7752 42.5708 45.1416 42.8296 45.508C42.9421 45.6671 43.0547 45.8263 43.1706 45.9902C44.5429 47.9372 45.8875 49.9032 47.2362 51.8663C47.2565 49.775 47.2721 47.6838 47.2817 45.5925C47.2863 44.6214 47.2925 43.6504 47.3024 42.6794C47.312 41.7423 47.3172 40.8053 47.3195 39.8682C47.3211 39.5106 47.3243 39.153 47.3291 38.7955C47.3354 38.2947 47.3363 37.7943 47.3359 37.2935C47.3388 36.8659 47.3388 36.8659 47.3418 36.4297C47.2179 35.5872 47.033 35.3431 46.3576 34.8381C46.1266 34.7391 45.8955 34.64 45.6575 34.5379C45.0397 34.1832 45.0397 34.1832 44.8064 33.5419C44.8201 32.8733 44.8201 32.8733 45.0517 32.4012C45.6905 31.8015 46.1923 31.894 47.0577 31.8995C47.2112 31.8997 47.3647 31.8999 47.5229 31.9001C47.8471 31.9014 48.1713 31.9048 48.4955 31.9102C48.9915 31.9182 49.4873 31.9192 49.9834 31.9191C52.4103 31.9356 52.4103 31.9356 53.1665 32.4367C53.3587 32.8324 53.3587 32.8324 53.3862 33.3099C53.0487 34.182 52.6472 34.4484 51.8334 34.824C51.2521 35.1802 51.0132 35.3554 50.8081 36.0104C50.749 36.6872 50.746 37.3453 50.7609 38.0245C50.7596 38.2806 50.7582 38.5366 50.7568 38.8004C50.7543 39.647 50.7641 40.4931 50.7736 41.3397C50.7747 41.9277 50.7729 42.5158 50.7711 43.1039C50.7683 44.4943 50.7739 45.8845 50.783 47.2749C50.799 49.7645 50.8018 52.254 50.8001 54.7436C50.7998 55.7576 50.8059 56.7714 50.8135 57.7854C50.815 58.316 50.8163 58.8465 50.8175 59.3771C50.8206 59.6184 50.8237 59.8598 50.8268 60.1085C50.8248 62.1922 50.8248 62.1922 50.0915 63.0001C49.099 63.3349 48.2381 63.2845 47.2362 63.0001C46.433 62.304 45.8856 61.4866 45.3216 60.5991C44.9327 59.9961 44.5133 59.4169 44.0939 58.8347C43.7572 58.3665 43.4247 57.8955 43.093 57.4238C42.397 56.4375 41.6879 55.4612 40.9763 54.486C39.9417 53.0669 38.9198 51.6395 37.9056 50.2059C37.1074 49.0794 36.2987 47.9609 35.4853 46.8452C33.839 44.5865 32.223 42.3071 30.614 40.0221C30.4084 39.7302 30.4084 39.7302 30.1987 39.4324C30.095 39.2851 29.9912 39.1378 29.8844 38.986C29.864 41.5611 29.8484 44.1362 29.8389 46.7114C29.8343 47.9072 29.828 49.1029 29.8181 50.2986C29.8086 51.4522 29.8033 52.6058 29.801 53.7594C29.7994 54.1999 29.7962 54.6403 29.7915 55.0807C29.7851 55.697 29.7842 56.3131 29.7846 56.9294C29.7815 57.112 29.7783 57.2947 29.7751 57.4828C29.7808 58.2847 29.8045 58.7489 30.304 59.3952C30.7249 59.698 31.0882 59.913 31.5729 60.0938C32.3004 60.3804 32.3004 60.3804 32.5201 60.5987C32.5291 61.108 32.5294 61.6175 32.5201 62.1268C31.0334 62.9602 29.5811 62.8715 27.9076 62.85C27.6341 62.8507 27.3606 62.8514 27.0788 62.8521C23.7858 62.8329 23.7859 62.8329 23.0754 62.1268C22.9931 61.39 22.9931 61.39 23.0754 60.5987C23.78 59.986 24.6837 59.7427 25.5636 59.4517C25.9756 59.3152 25.9756 59.3152 26.1504 58.8522C26.172 58.5439 26.1801 58.2346 26.1813 57.9256C26.1825 57.7312 26.1838 57.5369 26.1851 57.3366C26.1853 57.1228 26.1856 56.909 26.1858 56.6888C26.1869 56.464 26.188 56.2393 26.1891 56.0078C26.1924 55.262 26.1938 54.5163 26.1951 53.7705C26.1963 53.2539 26.1976 52.7373 26.1989 52.2206C26.2012 51.1366 26.2024 50.0525 26.2032 48.9684C26.2044 47.5769 26.2097 46.1855 26.2159 44.7941C26.22 43.7268 26.2212 42.6595 26.2215 41.5922C26.2222 41.0791 26.224 40.566 26.2268 40.0528C26.2306 39.3362 26.2302 38.6197 26.2287 37.903C26.2308 37.6897 26.2328 37.4763 26.2349 37.2565C26.233 36.9641 26.233 36.9641 26.2312 36.6657C26.2316 36.4115 26.2316 36.4115 26.2321 36.1521C26.1283 35.5921 25.9345 35.4069 25.4915 35.0564C24.952 34.7995 24.952 34.7995 24.3658 34.5925C23.3134 34.2014 23.3134 34.2014 23.0754 33.9649C22.9752 32.8193 22.9752 32.8193 23.2971 32.2918C23.9841 31.8335 24.7138 31.8935 25.5147 31.8901Z" fill="#A1A1AA"/>
<path d="M83.0367 42.2606C83.66 43.0504 83.7787 43.6578 83.7836 44.6473C83.788 45.031 83.788 45.031 83.7925 45.4225C83.7925 45.6972 83.7925 45.9719 83.7926 46.255C83.797 46.6898 83.8014 47.1246 83.806 47.5595C83.8116 48.1678 83.8144 48.7762 83.8171 49.3846C83.8219 50.4455 83.8288 51.5063 83.8393 52.5672C83.8446 53.1311 83.8479 53.6951 83.8489 54.259C83.8515 56.698 83.8515 56.698 84.6703 58.9613C85.5023 59.7552 86.7254 59.5783 87.8028 59.5676C89.1384 59.4561 90.0418 58.9643 90.9301 57.9789C91.5129 57.1363 91.6294 56.5177 91.6347 55.5107C91.6361 55.327 91.6375 55.1434 91.6389 54.9542C91.6391 54.7574 91.6394 54.5607 91.6396 54.358C91.6404 54.154 91.6411 53.95 91.6419 53.7398C91.643 53.3086 91.6435 52.8773 91.6434 52.4461C91.6439 51.7883 91.6479 51.1306 91.6521 50.4728C91.6527 50.0532 91.6532 49.6337 91.6534 49.2141C91.6557 48.9204 91.6557 48.9204 91.6582 48.6207C91.6544 47.5879 91.6141 46.7068 91.1635 45.7536C90.937 45.605 90.7104 45.4564 90.4771 45.3033C89.8456 44.8803 89.8456 44.8803 89.6809 44.3345C89.8812 43.6707 90.1826 43.4842 90.7591 43.1219C91.4813 42.7533 92.2409 42.5926 93.0304 42.4243C93.1915 42.3866 93.3526 42.3489 93.5186 42.3101C94.4268 42.1066 95.2796 41.9544 96.2152 42.0423C96.9659 42.6392 97.3776 43.0687 97.5331 44.0071C97.5531 44.5016 97.5606 44.9967 97.5608 45.4917C97.5612 45.6391 97.5616 45.7866 97.562 45.9384C97.5629 46.2577 97.5634 46.5769 97.5634 46.8961C97.5642 47.5754 97.5689 48.2547 97.5734 48.934C97.5817 50.1978 97.5886 51.4615 97.5881 52.7253C97.588 53.6054 97.5931 54.4854 97.6017 55.3654C97.604 55.7003 97.6043 56.0351 97.6027 56.3699C97.6006 56.8388 97.6052 57.3071 97.6114 57.7759C97.6126 58.1755 97.6126 58.1755 97.6138 58.5832C97.7914 59.4853 98.1565 59.7942 98.851 60.3803C99.1438 60.6714 99.4367 60.9625 99.7295 61.2536C99.3177 62.3178 99.3177 62.3178 99.0706 62.5634C98.3328 62.6535 97.5889 62.6764 96.8467 62.7135C96.6406 62.7266 96.4345 62.7397 96.2221 62.7532C95.0165 62.8144 94.0517 62.7807 92.9206 62.3451C92.413 61.8232 92.1444 61.2441 91.8224 60.5986C91.6919 60.6988 91.5613 60.799 91.4269 60.9022C89.3263 62.4478 87.5894 63.0714 84.986 63.1092C84.8026 63.1133 84.6191 63.1173 84.4301 63.1215C82.5907 63.1029 81.0083 62.4569 79.6477 61.2177C78.0193 59.3255 77.9557 57.2081 77.9463 54.839C77.9412 54.3498 77.9359 53.8606 77.9304 53.3714C77.9227 52.6029 77.9162 51.8345 77.9133 51.066C77.9099 50.3224 77.9011 49.579 77.8914 48.8355C77.8918 48.6053 77.8922 48.3752 77.8926 48.1381C77.8966 46.9087 77.8966 46.9087 77.3498 45.8475C77.197 45.7444 77.0441 45.6414 76.8867 45.5352C76.3788 45.0986 76.3788 45.0986 76.0081 44.662C75.9807 44.2254 75.9807 44.2254 76.2277 43.7888C77.3196 42.8463 78.5743 42.5769 79.9617 42.2606C80.1927 42.2066 80.4238 42.1525 80.6618 42.0969C81.527 42.0204 82.1828 42.0658 83.0367 42.2606Z" fill="#A1A1AA"/>
<path d="M136.13 44.4446C138.012 46.0245 139.564 48.0847 139.924 50.5564C140.207 54.14 139.547 56.5996 137.453 59.5481C135.19 61.849 132.236 63.0013 129.029 63.0639C125.146 63.0906 122.196 62.2376 119.286 59.5498C117.074 57.1828 116.696 54.4893 116.785 51.3853C116.93 48.723 118.365 46.4579 120.277 44.6442C124.813 41.1135 131.515 41.0732 136.13 44.4446ZM124.371 46.6678C123.681 47.6155 123.282 48.5497 123.012 49.6832C122.971 49.8484 122.931 50.0136 122.89 50.1838C122.446 52.8624 122.641 55.9684 124.23 58.2519C125.158 59.3631 126.199 60.2882 127.687 60.4273C129.458 60.4937 130.784 60.0104 132.097 58.8198C133.734 56.9787 134.103 54.455 134.049 52.0761C133.84 49.6201 133.333 47.5618 131.454 45.8901C129.207 44.0437 126.189 44.5186 124.371 46.6678Z" fill="#A1A1AA"/>
<path d="M72.714 43.7887C73.3455 44.3482 73.3455 44.3482 73.8122 44.8803C73.9345 45.0154 74.0569 45.1504 74.1829 45.2896C75.0145 46.6279 75.0181 47.9734 74.6908 49.4648C74.094 51.1563 72.586 52.3064 71.0255 53.0942C68.2709 54.2555 64.9465 54.9734 61.9515 54.9362C61.7431 54.9342 61.5347 54.9322 61.32 54.9302C61.166 54.9277 61.012 54.9251 60.8533 54.9225C61.3613 56.7329 61.9248 58.079 63.6126 59.0431C65.2592 59.8998 66.9718 59.9564 68.7604 59.4798C70.2349 58.9905 71.5704 58.2533 72.6591 57.1466C73.2649 56.5612 73.6343 56.4688 74.4712 56.4507C74.7973 56.6668 74.7973 56.6668 75.1301 56.8873C75.2476 57.7546 75.196 58.2788 74.8144 59.0704C72.9553 61.2336 70.1325 62.755 67.2738 63.0662C66.6421 63.0952 66.0158 63.1021 65.3834 63.0955C65.0502 63.093 65.0502 63.093 64.7102 63.0905C63.0754 63.0547 61.671 62.8652 60.1944 62.1268C60.0047 62.0342 59.815 61.9416 59.6195 61.8462C57.1294 60.4958 55.6093 58.6124 54.6793 55.9791C54.4354 54.934 54.4112 53.9585 54.415 52.8895C54.4115 52.6961 54.4079 52.5026 54.4043 52.3032C54.4024 49.661 55.3524 47.0605 57.2017 45.1259C61.0718 41.6069 68.3466 40.651 72.714 43.7887ZM63.2694 45.3169C62.9908 45.4993 62.9908 45.4993 62.7065 45.6853C61.215 47.0918 60.4998 48.9492 60.3746 50.9768C60.3731 51.4936 60.3836 52.0053 60.414 52.5211C63.0959 52.3501 66.013 51.8755 68.0492 49.9773C68.9613 48.9149 69.0662 48.1578 69.059 46.7956C68.9368 45.8581 68.5778 45.5061 67.8819 44.8803C66.5512 44.219 64.4536 44.493 63.2694 45.3169Z" fill="#A1A1AA"/>
<path d="M106.759 42.2605C107.866 43.3605 108.005 44.9295 108.297 46.4084C108.371 46.2686 108.446 46.1287 108.523 45.9846C109.569 44.1301 110.814 42.6745 112.909 42.0422C114.029 41.8655 114.923 42.0057 115.879 42.6272C116.484 43.1634 116.66 43.6745 116.863 44.4436C116.921 45.5043 116.79 46.1976 116.176 47.077C115.375 47.6139 114.959 47.6161 114.007 47.5C113.79 47.4234 113.572 47.3469 113.348 47.268C112.501 47.0047 112.005 47.0351 111.152 47.2817C109.94 48.3465 109.295 49.8697 109.125 51.4649C109.058 52.5683 109.06 53.6708 109.073 54.7757C109.079 55.364 109.077 55.9519 109.074 56.5402C109.076 56.9151 109.078 57.2901 109.08 57.665C109.079 57.8403 109.079 58.0157 109.078 58.1963C109.083 59.117 109.083 59.117 109.474 59.9266C109.952 60.2389 110.435 60.5361 110.932 60.8169C110.876 61.3284 110.802 61.8382 110.713 62.345C110.04 62.6794 109.327 62.6249 108.588 62.6478C108.42 62.6533 108.253 62.6589 108.08 62.6647C107.726 62.676 107.371 62.6868 107.016 62.6971C106.475 62.7133 105.934 62.7331 105.394 62.7531C105.049 62.7637 104.704 62.7741 104.359 62.7842C104.198 62.7906 104.037 62.7969 103.871 62.8034C102.972 62.8253 102.292 62.7574 101.488 62.345C101.268 62.1267 101.268 62.1267 101.158 61.5264C101.268 60.8169 101.268 60.8169 101.604 60.5107C101.88 60.3262 102.161 60.1495 102.448 59.982C102.876 59.7273 102.876 59.7273 103.025 59.0704C103.047 58.7493 103.058 58.4272 103.061 58.1054C103.064 57.8134 103.064 57.8134 103.067 57.5155C103.068 57.3054 103.069 57.0952 103.07 56.8788C103.071 56.6615 103.072 56.4441 103.074 56.2202C103.076 55.7596 103.077 55.299 103.078 54.8384C103.08 54.1384 103.087 53.4385 103.094 52.7386C103.095 52.2903 103.096 51.842 103.097 51.3937C103.1 51.1863 103.103 50.9788 103.106 50.765C103.101 49.4483 102.952 48.2607 102.366 47.0633C101.893 46.6148 101.893 46.6148 101.337 46.3675C100.411 45.8232 100.411 45.8232 100.184 45.0849C100.496 44.1119 101.233 43.5979 102.12 43.1382C102.559 42.9477 103.001 42.7786 103.451 42.6153C103.6 42.5559 103.748 42.4965 103.902 42.4353C104.927 42.0544 105.67 41.9829 106.759 42.2605Z" fill="#A1A1AA"/>
<path d="M141.682 38.7676C142.299 39.1592 142.673 39.4266 143 40.0774C143.128 41.6252 143.128 41.6252 142.588 42.4652C141.884 43.1449 141.373 43.2231 140.387 43.2088C139.533 43.0702 139.18 42.6811 138.607 42.0422C138.307 41.2167 138.34 40.8597 138.648 40.0365C139.43 38.8307 140.234 38.5021 141.682 38.7676ZM139.266 40.0774C139.027 40.5919 139.027 40.5919 139.046 41.169C139.297 41.6674 139.527 42.0837 139.925 42.4789C141.062 42.5769 141.062 42.5769 142.121 42.2605C142.479 41.5487 142.486 40.8541 142.341 40.0774C141.858 39.4871 141.559 39.4345 140.803 39.3406C140.065 39.4324 139.771 39.538 139.266 40.0774Z" fill="#A1A1AA"/>
<path d="M139.926 39.8591C140.438 39.8499 140.951 39.8502 141.463 39.8591C141.683 40.0774 141.683 40.0774 141.704 40.5285C141.702 40.7084 141.699 40.8882 141.697 41.0735C141.695 41.2539 141.693 41.4342 141.691 41.6201C141.688 41.7594 141.686 41.8987 141.683 42.0422C141.556 42.0017 141.429 41.9612 141.299 41.9194C140.738 41.775 140.738 41.775 139.926 42.0422C139.926 41.3218 139.926 40.6014 139.926 39.8591ZM140.585 40.2957C140.585 40.4398 140.585 40.5839 140.585 40.7324C140.73 40.7324 140.875 40.7324 141.024 40.7324C141.024 40.5883 141.024 40.4442 141.024 40.2957C140.879 40.2957 140.734 40.2957 140.585 40.2957Z" fill="#A1A1AA"/>
</g>
<defs>
<clipPath id="clip0_488_5986">
<rect width="123" height="31" fill="white" transform="translate(20 32)"/>
</clipPath>
</defs>
</svg>
