<svg width="163" height="96" viewBox="0 0 163 96" fill="none" xmlns="http://www.w3.org/2000/svg">
<g clip-path="url(#clip0_488_6040)">
<path d="M33.1513 41.1008H43.0066V43.2816H35.4998V47.8527H42.3775V49.9496H35.4998V54.9821H43.0066V57.1628H33.1513V41.1008ZM49.4649 51.8787L51.8134 51.4174C52.1489 54.1433 53.4909 55.3595 56.1749 55.3595C58.1879 55.3595 59.4879 54.4369 59.4879 53.053C59.4879 51.669 58.5234 50.7883 55.3781 49.7818C51.5618 48.5237 50.2198 47.3075 50.2198 45.0849C50.2198 42.8622 52.3586 40.7234 55.462 40.7234C58.5653 40.7234 60.8719 42.5686 61.3751 45.4204L59.0686 45.9236C58.5653 43.9106 57.3491 42.9041 55.462 42.9041C53.5748 42.9041 52.5683 43.7429 52.5683 45.0849C52.5683 46.4269 53.449 46.7624 56.1749 47.643C60.2848 49.027 61.8364 50.4528 61.8364 53.011C61.8364 55.5692 59.5299 57.4983 56.133 57.4983C52.736 57.4983 49.8843 55.5273 49.4649 51.8787ZM68.9658 41.1008H71.3562V57.2048H68.9658V41.1008ZM79.6598 41.1008H84.8181C88.9279 41.1008 91.7797 44.0784 91.7797 49.1109C91.7797 54.1433 88.9279 57.1628 84.7342 57.1628H79.6179L79.6598 41.1008ZM84.6503 54.9821C87.5859 54.9821 89.3892 53.3046 89.3892 49.1109C89.3892 44.9171 87.5859 43.2816 84.7342 43.2816H82.0083V54.9821H84.6503ZM99.1606 41.1008H109.016V43.2816H101.551V47.8527H108.387V49.9496H101.551V54.9821H109.016V57.1628H99.1606V41.1008ZM116.648 41.1008H119.291L126.001 53.3046H126.042V41.1008H128.391V57.2048H125.791L119.081 44.9591H119.039V57.2048H116.648V41.1008ZM140.511 43.2816H135.604V41.1008H147.724V43.2816H142.859V57.2048H140.511V43.2816ZM22.5831 50.7464L26.0639 57.2048H23.3799L20.0669 50.9142H16.7958V57.2048H14.4473V41.1008H20.5282C23.8832 41.1008 25.8962 42.9461 25.8962 46.0075C25.9359 47.0503 25.6421 48.0787 25.0574 48.9431C24.4309 49.7865 23.5481 50.4045 22.5412 50.7045L22.5831 50.7464ZM20.3185 48.7334C22.4573 48.7334 23.5896 47.8108 23.5896 46.0075C23.5896 44.2042 22.4573 43.3235 20.3185 43.3235H16.8377V48.7334H20.3185Z" fill="#A1A1AA"/>
</g>
<defs>
<clipPath id="clip0_488_6040">
<rect width="133.277" height="16.7749" fill="white" transform="translate(14.4492 40.7234)"/>
</clipPath>
</defs>
</svg>
