<svg width="161" height="96" viewBox="0 0 161 96" fill="none" xmlns="http://www.w3.org/2000/svg">
<g clip-path="url(#clip0_488_6007)">
<path fill-rule="evenodd" clip-rule="evenodd" d="M134.614 45.7704C135.067 44.5452 135.667 43.932 136.414 43.932C137.135 43.932 137.665 44.6604 138.005 46.116C138.345 47.5704 138.503 49.4328 138.476 51.7032H133.734C133.866 48.9744 134.159 46.9956 134.614 45.7704ZM138.556 61.6668C137.235 61.6668 136.118 61.086 135.204 59.9232C134.29 58.7604 133.834 56.8068 133.834 54.0636C133.834 53.3676 133.847 52.8516 133.873 52.518H144.459C144.459 46.1256 141.876 42.93 136.714 42.93C134.66 42.93 132.843 43.3476 131.262 44.1828C129.681 45.0192 128.438 46.314 127.531 48.0684C126.623 49.8228 126.17 52.0236 126.17 54.6684C126.17 58.7364 127.033 61.6992 128.762 63.558C130.488 65.4168 132.787 66.3468 135.655 66.3468C137.188 66.3468 138.535 65.9988 139.696 65.3028C140.822 64.6391 141.792 63.7222 142.537 62.6184C143.266 61.534 143.833 60.3399 144.217 59.0772L143.516 58.806C142.197 60.714 140.543 61.6668 138.556 61.6668ZM121.707 63.6312C121.56 63.1848 121.487 62.5656 121.487 61.7712V43.6152C120.062 43.9536 118.579 44.1384 117.056 44.1384C115.535 44.1374 114.019 43.955 112.537 43.5948C112.299 43.5783 112.061 43.5583 111.823 43.5348V44.4336C112.662 44.4336 113.256 44.73 113.604 45.3216C113.95 45.9132 114.123 46.8708 114.123 48.1932V61.7724C114.123 62.5656 114.05 63.1848 113.904 63.6312C113.756 64.0776 113.516 64.3908 113.184 64.5708C112.85 64.752 112.396 64.8432 111.823 64.8432V65.7408C114.97 65.6292 117.018 65.5728 117.965 65.5728C118.913 65.5728 120.853 65.6292 123.787 65.7408V64.8432C123.214 64.8432 122.761 64.752 122.427 64.5708C122.094 64.3908 121.853 64.0776 121.707 63.6312ZM81.3885 63.6312C81.2414 63.1848 81.169 62.5656 81.169 61.7712V50.1792C81.169 48.744 81.0713 47.592 80.8782 46.7208C80.6851 45.8508 80.3816 45.1584 79.9679 44.6424C79.061 43.5012 77.5197 42.93 75.3473 42.93C72.2382 42.93 70.0647 44.0028 68.8234 46.146V43.4076C65.6671 44.3031 62.3484 44.3748 59.1594 43.6164V44.4336C59.9996 44.4336 60.5938 44.73 60.9409 45.3216C61.2869 45.9132 61.4604 46.8708 61.4604 48.1932V61.7724C61.4604 62.5656 61.3869 63.1848 61.2409 63.6312C61.0938 64.0776 60.8535 64.3908 60.5202 64.5708C60.1869 64.752 59.7329 64.8432 59.1594 64.8432V65.7408C62.3075 65.6292 64.3546 65.5728 65.3028 65.5728C66.1419 65.5728 67.9499 65.6292 70.7245 65.7408V64.8432C70.244 64.8432 69.867 64.752 69.5935 64.5708C69.3199 64.3908 69.1234 64.0776 69.0039 63.6312C68.8832 63.1848 68.8234 62.5656 68.8234 61.7712V48.2352C68.8234 47.6508 68.9636 47.1252 69.2441 46.6584C69.5245 46.1916 69.8912 45.8268 70.344 45.5616C70.798 45.2976 71.2773 45.1656 71.7854 45.1656C72.4785 45.1656 72.9853 45.384 73.306 45.8232C73.6255 46.2612 73.7853 46.9404 73.7853 47.8596V61.7724C73.7853 62.58 73.7255 63.2028 73.606 63.6408C73.4853 64.08 73.2922 64.3908 73.0256 64.5708C72.7578 64.752 72.3854 64.8432 71.9049 64.8432V65.7408C74.8393 65.6292 76.7806 65.5728 77.7277 65.5728C78.607 65.5728 80.515 65.6292 83.4494 65.7408V64.8432C82.8758 64.8432 82.4264 64.752 82.0988 64.5708C81.7724 64.3908 81.5356 64.0776 81.3885 63.6312ZM33.7464 53.4168C35.256 50.0177 36.7395 46.606 38.1968 43.182L41.7576 53.4168H33.7464ZM54.0239 62.148L44.3472 36.12C42.8668 36.084 41.4277 35.88 40.0427 35.5272L38.0428 40.1544L36.844 42.93C36.1084 44.6388 35.3498 46.3896 34.5648 48.2208L34.5556 48.2016L29.2615 60.426L29.2557 60.438C28.8699 61.4002 28.4198 62.3329 27.9086 63.2292C27.8372 63.3513 27.7644 63.4725 27.6903 63.5928L27.6868 63.5988C26.2305 65.9508 25.2846 65.7888 23.9306 63.1908C23.7823 62.9052 23.6387 62.616 23.464 62.3496C22.4766 60.8448 21.0686 60.5196 19.5227 61.056C18.0285 61.5732 17.2124 62.7552 17.209 64.4472C17.2044 66.6168 18.7434 68.2212 21.0043 68.4312C24.7053 68.7768 27.8236 66.6792 29.8028 62.2548C30.9936 59.5956 32.1832 56.9352 33.3659 54.2724H42.0381L44.4782 61.2912C44.8115 62.2104 44.9782 62.886 44.9782 63.318C44.9782 63.8748 44.7552 64.266 44.3081 64.488C43.861 64.71 43.1242 64.8432 42.0978 64.884V65.7408C43.5645 65.6568 45.8598 65.616 48.9804 65.616C51.9814 65.616 54.4687 65.658 56.4433 65.7408V64.884C56.0296 64.8564 55.61 64.6236 55.1836 64.1844C54.756 63.7464 54.371 63.0672 54.0239 62.148Z" fill="#A1A1AA"/>
<path fill-rule="evenodd" clip-rule="evenodd" d="M99.0936 61.0404C99.0936 61.626 98.9534 62.1516 98.6729 62.6184C98.3925 63.0852 98.0293 63.45 97.5822 63.714C97.135 63.9792 96.658 64.11 96.1523 64.11C95.2983 64.11 94.6236 63.408 94.1317 62.0016C93.6375 60.5952 93.3903 58.1376 93.3903 54.6276C93.3903 51.1596 93.7041 48.5796 94.3317 46.8876C94.9581 45.1956 95.904 44.3496 97.1718 44.3496C97.85 44.349 98.5151 44.5442 99.0936 44.9136V61.0404ZM107.367 32.1084C108.288 29.532 110.123 27.852 113.332 28.1604C117.577 28.5684 117.608 31.812 117.608 31.812C117.608 31.9824 117.585 32.1276 117.548 32.2512L117.542 32.2752C117.542 32.2812 117.54 32.2836 117.538 32.2884L117.523 32.3304C117.458 32.4978 117.352 32.6446 117.217 32.7563C117.081 32.8681 116.919 32.9409 116.748 32.9676V32.9712C115.751 33.0472 114.821 33.5252 114.155 34.3041C113.489 35.083 113.139 36.1017 113.179 37.145C113.219 38.1883 113.647 39.1743 114.371 39.8947C115.095 40.615 116.058 41.0133 117.059 41.0052C117.889 41.0045 118.697 40.7241 119.362 40.2056C120.027 39.6872 120.515 38.9584 120.752 38.1276L120.753 38.1288L120.761 38.0904C120.828 37.8486 120.873 37.6007 120.895 37.35C121.034 36.3769 121.034 35.3878 120.895 34.4148C119.608 28.35 114.968 27.2664 112.682 27.1068C110.837 27.0036 109.144 27.3744 108.009 27.7224C107.52 27.8646 107.04 28.0422 106.574 28.254V28.2564C100.283 31.1436 99.2672 39.3732 99.1143 42.648L99.0947 42.72V43.2564C99.0833 43.7376 99.0947 44.016 99.0947 44.016C98.0396 43.2924 96.6201 42.93 94.8328 42.93C92.9777 42.93 91.3709 43.362 90.01 44.2248C88.6503 45.0888 87.5963 46.3836 86.8492 48.1104C86.1021 49.8372 85.7285 51.9612 85.7285 54.4824C85.7285 57.1824 86.0883 59.418 86.8089 61.1868C87.5296 62.9556 88.5169 64.2588 89.7709 65.094C91.0237 65.928 92.4639 66.3468 94.0926 66.3468C95.2926 66.3468 96.2856 66.0888 97.0741 65.574C97.8603 65.058 98.5338 64.2432 99.0947 63.1296V66.1584C101.014 65.7684 103.389 65.574 106.218 65.574C107.057 65.574 107.905 65.616 108.758 65.6988V64.8012C107.919 64.8012 107.328 64.5048 106.988 63.9132C106.647 63.3216 106.477 62.3652 106.477 61.0404V38.9868C106.486 36.3708 106.747 33.9804 107.367 32.1084Z" fill="#A1A1AA"/>
</g>
<defs>
<clipPath id="clip0_488_6007">
<rect width="128" height="42" fill="white" transform="translate(17 27)"/>
</clipPath>
</defs>
</svg>
