<svg width="131" height="96" viewBox="0 0 131 96" fill="none" xmlns="http://www.w3.org/2000/svg">
<g clip-path="url(#clip0_488_6022)">
<path d="M97.3683 46.4874C97.5756 46.7289 97.7763 46.9761 97.9644 47.2329C98.0825 47.3925 98.0825 47.3925 98.2956 47.5798C98.6221 47.596 98.7639 47.5227 99.0277 47.3333C99.1427 47.2291 99.1427 47.2291 99.2599 47.1229C100.684 45.8807 102.301 45.0709 104.113 44.5546C104.198 44.53 104.198 44.53 104.284 44.5049C106.677 43.8455 109.585 44.2765 111.756 45.4528C113.664 46.5534 114.816 48.4078 115.421 50.4832C115.637 51.3345 115.756 52.1954 115.842 53.0682C115.848 53.1327 115.855 53.1973 115.861 53.2637C116.001 54.8136 116.014 56.3642 116.011 57.9192C116.011 58.0913 116.01 58.2633 116.01 58.4353C116.009 59.2986 116.005 60.1619 116 61.0252C116 61.1225 116 61.1225 115.999 61.2217C115.994 62.0725 115.987 62.9232 115.978 63.774C115.975 64.0241 115.973 64.2742 115.971 64.5244C115.968 64.8736 115.964 65.2227 115.959 65.5718C115.958 65.6758 115.958 65.7797 115.957 65.8868C115.955 66.03 115.955 66.03 115.952 66.1762C115.951 66.2591 115.95 66.342 115.949 66.4273C115.899 66.7687 115.754 66.9933 115.5 67.2227C115.114 67.4556 114.699 67.4252 114.26 67.4258C114.189 67.4261 114.118 67.4264 114.045 67.4267C113.895 67.4271 113.745 67.4273 113.595 67.4273C113.368 67.4275 113.14 67.429 112.912 67.4306C112.766 67.4308 112.62 67.431 112.474 67.4311C112.406 67.4317 112.339 67.4323 112.27 67.4329C111.758 67.4309 111.235 67.4089 110.821 67.0808C110.6 66.7903 110.594 66.5464 110.592 66.1935C110.592 66.0975 110.591 66.0014 110.591 65.9024C110.59 65.7441 110.59 65.7441 110.59 65.5826C110.589 65.4703 110.589 65.3581 110.588 65.2458C110.587 65.0037 110.586 64.7616 110.585 64.5195C110.584 64.1349 110.582 63.7504 110.58 63.3658C110.574 62.2721 110.569 61.1783 110.564 60.0846C110.562 59.4807 110.559 58.8769 110.555 58.273C110.553 57.9543 110.552 57.6356 110.551 57.3168C110.649 53.6763 110.649 53.6763 109.124 50.4895C108.26 49.6987 107.145 49.3946 105.999 49.4023C105.926 49.4026 105.853 49.403 105.777 49.4033C104.08 49.4326 102.541 50.0197 101.246 51.1092C101.177 51.1669 101.108 51.2247 101.037 51.2842C100.521 51.6974 100.521 51.6974 100.3 52.2929C100.307 52.6962 100.329 53.096 100.361 53.498C100.407 54.1251 100.416 54.7487 100.416 55.3772C100.416 55.4964 100.416 55.6157 100.416 55.735C100.417 56.0549 100.417 56.3749 100.417 56.6948C100.417 56.8952 100.418 57.0956 100.418 57.2959C100.419 57.9962 100.419 58.6965 100.419 59.3968C100.419 60.0479 100.42 60.699 100.421 61.3501C100.422 61.9113 100.423 62.4725 100.423 63.0337C100.423 63.3679 100.423 63.7022 100.424 64.0365C100.425 64.3502 100.425 64.664 100.424 64.9778C100.424 65.1472 100.425 65.3165 100.425 65.4859C100.421 66.6323 100.421 66.6323 100.103 67.1019C99.4817 67.5306 98.619 67.4377 97.8938 67.4336C97.7003 67.4327 97.5069 67.4336 97.3134 67.4347C97.1884 67.4346 97.0635 67.4344 96.9385 67.434C96.8817 67.4344 96.8248 67.4347 96.7663 67.4351C96.2868 67.4305 95.7921 67.3863 95.3976 67.0966C95.1234 66.7182 95.0709 66.3328 95.0708 65.8749C95.0701 65.7182 95.0701 65.7182 95.0694 65.5584C95.0697 65.4437 95.0701 65.329 95.0704 65.2143C95.0702 65.0926 95.0699 64.971 95.0695 64.8493C95.0688 64.5877 95.0686 64.326 95.0688 64.0644C95.0691 63.6492 95.0679 63.2339 95.0664 62.8187C95.0624 61.6379 95.0604 60.4572 95.0599 59.2765C95.0595 58.624 95.058 57.9716 95.0552 57.3192C95.0538 56.9748 95.053 56.6305 95.0538 56.2861C95.1143 53.2156 95.1143 53.2156 93.7243 50.5643C92.5099 49.5321 91.1509 49.3268 89.612 49.4285C87.9592 49.6259 86.5665 50.5365 85.4602 51.7368C84.9489 52.4724 84.9272 53.1697 84.9331 54.0398C84.9328 54.1739 84.9323 54.308 84.9317 54.4421C84.9307 54.7296 84.9307 55.017 84.9316 55.3045C84.9329 55.7594 84.9317 56.2143 84.9302 56.6692C84.9276 57.5524 84.9275 58.4357 84.9277 59.319C84.9278 60.4439 84.9269 61.5688 84.9236 62.6937C84.9223 63.1456 84.9223 63.5975 84.9233 64.0494C84.9237 64.3307 84.9231 64.6119 84.9222 64.8932C84.922 65.0233 84.9222 65.1534 84.9229 65.2835C84.9238 65.4616 84.9232 65.6396 84.9221 65.8177C84.9222 65.9171 84.9222 66.0166 84.9223 66.1191C84.8791 66.5086 84.7607 66.8358 84.5144 67.1482C83.9415 67.5707 82.989 67.4372 82.3093 67.4336C82.1036 67.4327 81.8979 67.4336 81.6922 67.4347C81.5596 67.4346 81.4269 67.4344 81.2942 67.434C81.2337 67.4344 81.1732 67.4347 81.1108 67.4351C80.6725 67.4311 80.1368 67.4227 79.7844 67.1361C79.3483 66.6493 79.3985 66.1184 79.3996 65.5044C79.3994 65.4219 79.3992 65.3393 79.399 65.2542C79.3984 64.9772 79.3985 64.7002 79.3986 64.4232C79.3983 64.2247 79.398 64.0262 79.3977 63.8277C79.397 63.2882 79.3968 62.7488 79.3967 62.2093C79.3967 61.8724 79.3965 61.5354 79.3963 61.1984C79.3955 60.0836 79.3951 58.9688 79.3952 57.8539C79.3952 57.7939 79.3952 57.7338 79.3952 57.6719C79.3952 57.6117 79.3952 57.5516 79.3952 57.4896C79.3953 56.5149 79.3944 55.5403 79.3933 54.5656C79.392 53.5644 79.3915 52.5631 79.3915 51.5618C79.3916 50.9999 79.3913 50.438 79.3904 49.876C79.3896 49.3475 79.3896 48.8189 79.3902 48.2904C79.3903 48.0965 79.3901 47.9026 79.3896 47.7087C79.3889 47.4438 79.3893 47.1789 79.39 46.9141C79.3896 46.8375 79.3891 46.7609 79.3887 46.6821C79.3917 46.1264 79.4139 45.6057 79.7691 45.1533C80.2692 44.7682 80.7859 44.7783 81.392 44.7804C81.47 44.7791 81.5479 44.7777 81.6282 44.7763C82.2183 44.7759 82.577 44.8536 83.008 45.2827C83.2405 45.5825 83.3617 45.9111 83.4839 46.2668C83.5061 46.3286 83.5284 46.3905 83.5513 46.4542C83.6053 46.605 83.658 46.7562 83.7105 46.9075C84.2132 46.8753 84.5105 46.6486 84.9066 46.3666C88.5431 43.8721 93.9076 43.1881 97.3683 46.4874Z" fill="#A1A1AA"/>
<path d="M16.3671 27.9864C16.4363 27.9856 16.5055 27.9848 16.5769 27.984C16.651 27.9836 16.7251 27.9833 16.8015 27.9829C16.8784 27.9824 16.9553 27.9819 17.0346 27.9814C17.1971 27.9806 17.3597 27.9801 17.5223 27.9798C17.7702 27.979 18.0181 27.9763 18.266 27.9737C18.4242 27.9731 18.5824 27.9727 18.7406 27.9724C18.8144 27.9713 18.8881 27.9703 18.9642 27.9692C19.3928 27.9708 19.6875 28.0141 20.0585 28.2521C20.4527 28.6768 20.4926 29.0103 20.4923 29.5692C20.4926 29.6356 20.4929 29.7019 20.4932 29.7702C20.4941 29.9932 20.4944 30.2161 20.4947 30.4391C20.4952 30.5986 20.4958 30.7582 20.4964 30.9177C20.4976 31.2616 20.4986 31.6055 20.4994 31.9494C20.5007 32.4928 20.5028 33.0361 20.5049 33.5794C20.5109 35.1245 20.516 36.6696 20.5203 38.2147C20.5226 39.0678 20.5256 39.9209 20.5293 40.7739C20.5315 41.3145 20.533 41.8551 20.534 42.3957C20.5347 42.7314 20.5362 43.0671 20.5379 43.4027C20.5385 43.5589 20.5388 43.7151 20.5389 43.8713C20.539 44.0837 20.5401 44.2961 20.5415 44.5086C20.5412 44.571 20.541 44.6335 20.5408 44.6978C20.5339 45.0423 20.5339 45.0423 20.733 45.3109C20.7871 45.2923 20.8413 45.2737 20.897 45.2545C24.2487 44.1142 27.4459 43.8643 30.7155 45.3975C33.3736 46.7019 35.3348 48.9712 36.3008 51.7555C36.7863 53.2498 37.0388 54.7717 37.0306 56.3403C37.0304 56.4319 37.0304 56.4319 37.0301 56.5254C37.0263 57.4333 36.9841 58.2942 36.7513 59.1764C36.7373 59.233 36.7233 59.2895 36.7089 59.3477C36.2006 61.3785 35.1976 63.1697 33.8006 64.7226C33.7271 64.8108 33.6538 64.8992 33.5809 64.9879C32.123 66.7137 29.7598 67.7141 27.5507 67.976C25.7433 68.1088 24.0701 67.9338 22.4191 67.1596C22.368 67.1358 22.3169 67.112 22.2643 67.0875C21.3533 66.6557 20.3626 66.0884 19.6777 65.3391C19.5494 65.1987 19.5494 65.1987 19.2998 65.2268C19.2681 65.3302 19.2365 65.4335 19.2039 65.54C19.1604 65.6772 19.1168 65.8144 19.0732 65.9516C19.0526 66.0196 19.032 66.0875 19.0108 66.1575C18.8462 66.6684 18.6632 67.0601 18.1919 67.3576C17.8104 67.4433 17.4343 67.4393 17.0445 67.438C16.9643 67.4393 16.8841 67.4407 16.8015 67.4421C16.2872 67.4424 15.8003 67.4013 15.3373 67.1596C15.0045 66.6827 14.9876 66.1703 14.989 65.6054C14.9888 65.5424 14.9887 65.4794 14.9885 65.4145C14.988 65.2027 14.9881 64.9909 14.9883 64.7792C14.988 64.6261 14.9878 64.473 14.9875 64.3199C14.9868 63.8987 14.9867 63.4774 14.9866 63.0562C14.9864 62.6021 14.9858 62.148 14.9852 61.6939C14.9841 60.7008 14.9836 59.7077 14.9832 58.7146C14.983 58.0946 14.9826 57.4747 14.9822 56.8548C14.9812 55.1389 14.9804 53.423 14.9801 51.7071C14.98 51.5973 14.98 51.4874 14.98 51.3743C14.98 51.2642 14.98 51.1541 14.98 51.0406C14.9799 50.8175 14.9799 50.5944 14.9798 50.3713C14.9798 50.2607 14.9798 50.15 14.9798 50.036C14.9795 48.2421 14.978 46.4483 14.976 44.6545C14.974 42.8134 14.973 40.9723 14.9729 39.1312C14.9728 38.0973 14.9723 37.0633 14.9708 36.0293C14.9695 35.149 14.969 34.2688 14.9697 33.3885C14.9701 32.9393 14.97 32.49 14.9688 32.0408C14.9677 31.6296 14.9678 31.2184 14.9689 30.8072C14.969 30.6584 14.9688 30.5096 14.968 30.3609C14.9671 30.1586 14.9677 29.9563 14.9687 29.754C14.9681 29.6963 14.9675 29.6386 14.9668 29.5792C14.9724 29.0558 15.0837 28.5888 15.4585 28.2153C15.7612 28.0313 16.0162 27.9897 16.3671 27.9864ZM20.4801 50.605C20.4536 50.7705 20.4536 50.7705 20.4564 50.963C20.4554 51.0381 20.4545 51.1132 20.4535 51.1907C20.4533 51.2733 20.4531 51.356 20.4529 51.4412C20.4521 51.5281 20.4512 51.615 20.4504 51.7046C20.4479 51.9935 20.4467 52.2824 20.4458 52.5713C20.4448 52.7721 20.4439 52.9729 20.4429 53.1737C20.4411 53.5958 20.4401 54.0178 20.4396 54.4398C20.4386 54.9788 20.4346 55.5176 20.4298 56.0566C20.4266 56.472 20.4258 56.8874 20.4255 57.3028C20.425 57.5013 20.4236 57.6999 20.4214 57.8984C20.3822 59.3755 20.3822 59.3755 20.9859 60.689C21.0764 60.8171 21.0764 60.8171 21.1687 60.9477C22.3028 62.1634 23.788 62.9513 25.4674 63.059C27.031 63.0809 28.3367 62.6348 29.5167 61.5947C30.8098 60.3219 31.614 58.5586 31.6929 56.7395C31.6973 56.6681 31.7016 56.5967 31.7061 56.5231C31.7691 54.6062 31.1436 52.6985 29.8856 51.2458C28.7173 50.0199 27.1703 49.349 25.4795 49.2404C23.9714 49.2125 21.61 49.4787 20.4801 50.605Z" fill="#A1A1AA"/>
<path d="M71.1483 47.5798C71.2414 47.6645 71.2414 47.6645 71.3363 47.7508C73.7456 50.0247 74.5967 53.286 74.6872 56.4913C74.7361 59.6124 73.4584 62.3466 71.3172 64.5881C69.2457 66.694 66.4554 67.9566 63.4886 68.024C60.6864 68.0507 58.1008 67.1355 55.973 65.3109C55.8924 65.2429 55.8119 65.1748 55.7289 65.1047C53.4699 63.1504 52.004 60.0385 51.7576 57.0756C51.7035 55.8001 51.6938 54.5363 52.0105 53.2941C52.0373 53.1875 52.064 53.0809 52.0916 52.9711C52.9319 49.8886 55.1733 47.1348 57.9379 45.5474C59.1326 44.8913 60.4423 44.4875 61.7902 44.3025C61.8714 44.2906 61.9525 44.2787 62.0362 44.2664C65.4876 43.8685 68.6779 45.2581 71.1483 47.5798ZM58.5022 51.5294C57.1396 53.201 56.8318 55.1452 56.9847 57.2437C57.1728 58.9557 58.1339 60.6097 59.4625 61.6938C60.8707 62.7671 62.4025 63.2472 64.1612 63.0187C65.5507 62.7868 66.6371 62.1012 67.6074 61.1092C67.6634 61.0541 67.7195 60.9989 67.7773 60.9421C69.0452 59.6129 69.5661 57.7268 69.5445 55.9356C69.4981 54.1795 68.8986 52.6342 67.776 51.2773C67.7324 51.2243 67.6888 51.1713 67.6439 51.1168C66.5832 49.9535 64.9638 49.373 63.4338 49.2336C61.5366 49.169 59.7218 50.0977 58.5022 51.5294Z" fill="#A1A1AA"/>
<path d="M44.2851 44.2075C44.4601 44.208 44.6351 44.2075 44.81 44.207C46.4477 44.2058 46.4477 44.2058 46.8267 44.5021C47.0952 44.7831 47.1322 44.9714 47.1328 45.3445C47.1331 45.4206 47.1335 45.4966 47.1338 45.575C47.1337 45.6587 47.1337 45.7423 47.1336 45.8285C47.1338 45.9173 47.1341 46.0061 47.1343 46.0976C47.1351 46.3966 47.1352 46.6956 47.1353 46.9947C47.1357 47.2084 47.1361 47.4222 47.1366 47.636C47.1377 48.2178 47.1382 48.7996 47.1386 49.3814C47.1388 49.7446 47.1392 50.1078 47.1396 50.471C47.1406 51.4763 47.1415 52.4817 47.1418 53.487C47.1418 53.5835 47.1418 53.5835 47.1418 53.682C47.1418 53.7788 47.1418 53.7788 47.1419 53.8775C47.1419 54.0082 47.142 54.1389 47.142 54.2696C47.142 54.3344 47.142 54.3993 47.142 54.4661C47.1424 55.517 47.1439 56.5679 47.1458 57.6188C47.1478 58.6975 47.1489 59.7761 47.149 60.8548C47.149 61.4605 47.1495 62.0663 47.1511 62.672C47.1525 63.2416 47.1526 63.8112 47.1519 64.3808C47.1518 64.5901 47.1522 64.7994 47.153 65.0087C47.1541 65.294 47.1536 65.5791 47.1527 65.8644C47.1534 65.9477 47.1541 66.031 47.1548 66.1168C47.1496 66.8364 47.1496 66.8364 46.8688 67.1596C46.2051 67.4956 45.4892 67.4473 44.7618 67.44C44.5509 67.438 44.3401 67.4383 44.1292 67.4388C43.9929 67.4384 43.8567 67.4378 43.7205 67.437C43.6585 67.4371 43.5966 67.4372 43.5328 67.4373C42.4157 67.4223 42.4157 67.4223 42.0212 67.0388C41.8518 66.7504 41.7998 66.5341 41.7993 66.2058C41.7988 66.0931 41.7988 66.0931 41.7983 65.9782C41.7984 65.8542 41.7984 65.8542 41.7985 65.7278C41.7983 65.6401 41.798 65.5524 41.7978 65.462C41.7971 65.1667 41.7969 64.8713 41.7968 64.576C41.7964 64.3648 41.796 64.1537 41.7955 63.9425C41.7944 63.3678 41.7939 62.7931 41.7935 62.2184C41.7933 61.8596 41.7929 61.5008 41.7925 61.142C41.7915 60.1487 41.7906 59.1554 41.7904 58.1621C41.7903 58.0986 41.7903 58.035 41.7903 57.9695C41.7903 57.9057 41.7903 57.842 41.7902 57.7764C41.7902 57.6472 41.7902 57.5181 41.7901 57.3889C41.7901 57.3249 41.7901 57.2608 41.7901 57.1948C41.7897 56.1567 41.7883 55.1186 41.7863 54.0805C41.7843 53.0149 41.7833 51.9492 41.7832 50.8836C41.7831 50.2852 41.7826 49.6868 41.7811 49.0885C41.7796 48.5257 41.7795 47.963 41.7802 47.4002C41.7803 47.1935 41.7799 46.9868 41.7791 46.7801C41.778 46.4982 41.7785 46.2163 41.7794 45.9344C41.7787 45.8524 41.778 45.7703 41.7773 45.6858C41.7806 45.2455 41.8136 44.9344 42.0633 44.5546C42.6479 44.0718 43.5686 44.2053 44.2851 44.2075Z" fill="#A1A1AA"/>
<path d="M46.3088 34.7173C47.0581 35.3042 47.6358 36.0407 47.7947 36.9915C47.8739 37.9555 47.7289 38.8533 47.0933 39.613C46.3942 40.3616 45.6137 40.776 44.5799 40.8741C43.6192 40.8966 42.7917 40.617 42.0829 39.9747C41.989 39.8707 41.989 39.8707 41.8932 39.7646C41.8072 39.6736 41.8072 39.6736 41.7194 39.5808C41.1786 38.7984 41.0625 37.9209 41.1345 36.9915C41.3134 36.06 41.7022 35.2992 42.4728 34.7278C43.6768 33.9673 45.0868 34.0181 46.3088 34.7173Z" fill="#A1A1AA"/>
</g>
<defs>
<clipPath id="clip0_488_6022">
<rect width="101" height="40" fill="white" transform="translate(15 28)"/>
</clipPath>
</defs>
</svg>
