<svg width="163" height="96" viewBox="0 0 163 96" fill="none" xmlns="http://www.w3.org/2000/svg">
<g clip-path="url(#clip0_488_6029)">
<path d="M92.3839 31.8262C89.6734 31.8262 86.9751 31.8262 84.2278 31.8262C84.9023 33.488 84.7919 35.2242 84.8042 36.9356C84.8165 38.6594 84.8042 40.3831 84.8042 42.1069C84.7429 42.1194 84.6938 42.1318 84.6324 42.1442C82.4738 38.6966 80.3029 35.249 78.1688 31.8386C75.8385 31.8386 73.5694 31.8386 71.374 31.8386C71.509 32.9795 71.7297 34.108 71.7543 35.2242C71.8278 38.4237 71.8524 41.6233 71.8401 44.8229C71.8278 47.6008 71.9627 50.4036 71.2637 53.1691C74.011 53.1691 76.7093 53.1691 79.3095 53.1691C79.1623 52.2266 78.9415 51.2964 78.9047 50.3663C78.8434 48.3449 78.8802 46.3359 78.8679 44.3144C78.8679 44.2029 78.8925 44.0788 78.917 43.868C79.0765 44.0664 79.1745 44.178 79.2604 44.302C81.2719 47.142 83.2833 49.9943 85.2825 52.8466C85.4665 53.1071 85.6382 53.2187 85.9693 53.2187C87.9808 53.2062 89.9923 53.2187 92.0038 53.2187C92.1386 53.2187 92.2613 53.1939 92.3226 53.1939C92.1754 52.1026 91.9424 51.0484 91.9178 49.9819C91.8443 46.2367 91.8198 42.4791 91.8198 38.7338C91.8198 37.196 91.9056 35.6458 92.0038 34.108C92.0651 33.3391 92.2491 32.5827 92.3839 31.8262Z" fill="#A1A1AA"/>
<path d="M123.941 40.0358C124.665 38.498 126.284 37.6919 128.074 37.9275C129.719 38.1384 131.018 39.3785 131.374 41.0899C131.472 41.5612 131.496 42.0572 131.533 42.3177C131.496 44.0291 131.153 45.4056 129.914 46.3606C127.695 48.0844 124.493 47.0426 123.684 44.3267C123.254 42.8633 123.292 41.4247 123.941 40.0358ZM121.415 52.338C123.267 53.3921 125.278 53.8262 127.743 53.851C128.136 53.8138 128.909 53.789 129.657 53.665C130.332 53.5533 130.994 53.3673 131.644 53.1441C134.367 52.2265 136.391 50.4902 137.641 47.8735C138.806 45.418 139.028 42.8261 138.574 40.1722C138.034 36.9478 136.427 34.4055 133.57 32.8057C130.282 30.9579 126.812 30.7347 123.267 31.9128C120.078 32.967 117.87 35.1372 116.779 38.3864C115.933 40.8791 115.908 43.4213 116.57 45.9761C117.306 48.7664 118.913 50.9118 121.415 52.338Z" fill="#A1A1AA"/>
<path d="M56.9142 45.4182C57.0982 44.5872 57.2822 43.7687 57.4538 42.9627C57.7114 41.8093 57.9445 40.656 58.2143 39.5151C58.2511 39.3663 58.4105 39.2298 58.5086 39.0934C58.5699 39.1306 58.6313 39.1678 58.6926 39.205C59.1342 41.2636 59.588 43.3099 60.0418 45.4182C58.9747 45.4182 57.969 45.4182 56.9142 45.4182ZM64.4081 37.4068C63.8439 35.5466 63.2675 33.674 62.7033 31.8262C59.87 31.8262 57.0737 31.8262 54.2649 31.8262C54.2159 31.9874 54.1668 32.1114 54.1178 32.2478C52.6459 37.0596 51.1987 41.8713 49.6901 46.6707C49.0033 48.8533 48.5862 51.1352 47.4824 53.1442C50.1807 53.1442 52.9035 53.1442 55.6632 53.1442C55.3565 52.2389 55.5528 51.4081 55.7736 50.5771C57.5888 50.5771 59.3549 50.5771 61.2437 50.5771C61.2928 51.4576 61.3419 52.3009 61.4032 53.1691C64.0279 53.1691 66.763 53.1691 69.449 53.1691C69.2405 52.7598 68.9829 52.3629 68.8481 51.9289C67.364 47.0923 65.8922 42.2434 64.4081 37.4068Z" fill="#A1A1AA"/>
<path d="M42.9312 45.8771C39.9386 42.9255 37.5346 40.6932 39.9018 38.2997C41.2386 36.9356 43.6058 37.4936 45.556 40.9908L49.8732 36.7372C46.8069 30.7225 41.0056 29.7799 36.4798 32.3222C32.506 34.5545 30.3473 41.5365 35.0939 46.8939C37.4487 49.5479 39.632 54.8433 35.5845 57.0755C30.2492 60.0147 26.2263 53.1319 27.1216 47.6752L20.2042 47.6256C18.5239 60.6471 27.5754 64.9009 34.1249 64.5536C44.2681 63.9956 48.3401 51.2097 42.9312 45.8771Z" fill="#A1A1AA"/>
<path d="M138.794 53.5781C134.195 58.7495 124.223 59.8161 116.986 53.913C112.363 50.1305 108.144 48.2083 104.857 47.2533L113.541 37.8531C113.541 37.8531 113.811 37.3942 113.811 37.1462C113.834 35.534 113.822 33.9342 113.822 32.322C113.822 32.1732 113.798 32.0244 113.798 31.8508C108.021 31.8508 102.269 31.8384 96.5043 31.8384C96.5043 34.1947 96.5043 36.5137 96.5043 38.8328C99.3621 37.9523 102.232 38.4608 105.078 38.3491C105.028 38.498 104.967 38.56 104.894 38.622C101.975 41.6603 99.0432 44.6987 96.1119 47.7246C95.8911 47.9603 95.793 48.1835 95.793 48.5059C95.8052 49.8949 95.793 51.2839 95.793 52.6729C95.793 52.834 95.8053 53.0077 95.8175 53.1565H98.8469C101.545 53.3673 106.733 54.4834 112.608 59.3199C116.594 62.6064 121.856 64.665 127.044 64.9626C127.473 64.9875 127.903 64.9998 128.332 64.9998C133.802 64.9998 138.843 63.0157 142.633 59.3448L138.794 53.5781Z" fill="#A1A1AA"/>
<path d="M103.237 58.2537H49.2344V64.9628H103.237V58.2537Z" fill="#A1A1AA"/>
</g>
<defs>
<clipPath id="clip0_488_6029">
<rect width="123" height="34" fill="white" transform="translate(20 31)"/>
</clipPath>
</defs>
</svg>
