<svg width="163" height="96" viewBox="0 0 163 96" fill="none" xmlns="http://www.w3.org/2000/svg">
<path d="M30.4644 29.1246C33.1469 30.9726 33.6775 34.719 34.4216 37.683C34.5809 38.3046 34.7495 38.9227 34.9218 39.5407C35.5942 41.9686 36.1305 44.3705 36.4836 46.8655C36.913 46.8489 36.913 46.8489 37.3511 46.8321C37.7247 46.8235 38.0984 46.8149 38.4834 46.8061C38.8546 46.795 39.2258 46.784 39.6083 46.7726C40.602 46.8655 40.602 46.8655 41.2022 47.2454C41.6642 47.9981 41.679 48.5203 41.6712 49.3999C41.6749 49.8115 41.6749 49.8115 41.6786 50.2315C41.529 51.1229 41.3048 51.3859 40.602 51.9343C39.3126 52.6148 38.2389 52.5898 36.8004 52.5679C36.8546 52.7416 36.9089 52.9152 36.9648 53.0942C39.6263 61.6582 39.6263 61.6582 39.3348 64.9231C38.7609 65.7703 38.4231 65.8606 37.434 66.1903C35.9012 66.3684 34.8532 66.3351 33.474 65.5963C32.682 64.9231 32.682 64.9231 32.3652 64.2895C32.3239 63.6951 32.301 63.0994 32.2872 62.5038C32.2768 62.1442 32.2664 61.7846 32.2556 61.4141C32.2364 60.6576 32.2183 59.9011 32.2012 59.1446C32.145 57.2679 32.0555 55.6067 31.4148 53.8351C25.673 53.5285 25.673 53.5285 20.3268 55.1023C19.9691 55.9782 19.9691 55.9782 19.8318 57.0427C19.7595 57.438 19.6872 57.8333 19.6127 58.2406C19.5755 58.4509 19.5383 58.6612 19.5 58.8779C19.2863 60.0179 19.0172 61.1432 18.7428 62.2699C18.6939 62.4835 18.6451 62.6971 18.5948 62.9172C18.3092 64.0906 18.0194 65.0064 17.1588 65.8735C16.0433 66.0432 15.414 65.9444 14.3867 65.4775C13.6119 64.8748 13.3253 64.5886 13.0403 63.6559C12.8157 61.4518 13.5689 59.6122 14.3075 57.5575C14.4361 57.1924 14.5646 56.8274 14.6971 56.4513C15.5667 54.0147 16.5261 51.6314 17.5572 49.2596C18.4643 47.152 19.1452 45.0101 19.8 42.8137C21.3466 37.6543 22.7555 33.0731 26.9796 29.4414C28.0852 28.8886 29.2579 28.9466 30.4644 29.1246Z" fill="#A1A1AA"/>
<path d="M143.246 43.6184C145.496 44.8049 146.671 46.1268 147.681 48.4496C148.569 51.426 148.88 54.4548 149.147 57.5378C149.222 58.384 149.299 59.23 149.377 60.0759C149.409 60.4446 149.441 60.8132 149.474 61.193C149.531 62.0572 149.531 62.0572 149.899 62.7056C150.08 64.9541 150.08 64.9541 149.384 66.0518C148.632 66.5072 148.632 66.5072 147.721 66.5864C146.278 66.0094 145.613 64.9665 144.83 63.656C144.726 63.3424 144.621 63.0288 144.513 62.7056C143.566 63.1534 142.722 63.6756 141.86 64.2698C138.871 66.2755 136.169 66.916 132.595 66.3835C130.764 65.9487 129.642 65.242 128.485 63.7525C126.805 60.9996 126.828 58.1352 127.406 55.0628C128.511 50.6707 130.874 46.92 134.644 44.3498C137.396 42.787 140.273 42.3859 143.246 43.6184Z" fill="#A1A1AA"/>
<path d="M99.1496 43.8894C101.289 45.2536 102.566 47.3003 103.175 49.7415C103.722 52.318 103.867 54.8959 104.028 57.5199C104.151 59.3482 104.349 60.9636 104.911 62.7056C105.056 63.8242 105.124 64.8621 104.555 65.8736C103.614 66.3755 103.113 66.3969 102.06 66.1904C100.926 65.2094 100.159 64.0553 99.5258 62.7056C98.1499 63.3531 96.915 64.1992 95.6462 65.0321C93.8458 66.1149 92.461 66.2979 90.3979 66.2894C90.1543 66.2945 89.9108 66.2996 89.6598 66.3049C87.6795 66.3066 85.9031 65.9811 84.3119 64.7401C84.1706 64.5653 84.0293 64.3905 83.8837 64.2104C83.7375 64.0389 83.5913 63.8674 83.4407 63.6907C81.9055 61.0506 82.1151 57.4467 82.5547 54.5096C83.5976 50.589 85.8883 46.9498 89.2693 44.7074C89.4507 44.5826 89.632 44.4579 89.8188 44.3293C92.5583 42.4722 96.1631 42.4993 99.1496 43.8894Z" fill="#A1A1AA"/>
<path d="M69.747 43.3807C72.6195 44.4908 73.9929 47.0449 75.2601 49.6957C76.9053 53.6211 77.7691 57.8407 77.8056 62.0917C77.8088 62.335 77.812 62.5783 77.8153 62.8289C77.8044 63.5087 77.8044 63.5087 77.667 64.6063C76.6172 65.3062 76.2906 65.3112 75.0732 65.2795C74.7877 65.2738 74.5023 65.2681 74.2082 65.2622C73.9905 65.2549 73.7729 65.2475 73.5486 65.2399C73.5264 65.004 73.5043 64.7682 73.4815 64.5251C73.0705 56.4943 73.0705 56.4943 69.747 49.3999C68.6626 48.8752 68.6626 48.8752 67.5294 49.0831C66.0771 50.1804 65.487 51.3533 65.1436 53.1127C65.1019 53.4181 65.0602 53.7235 65.0173 54.0381C64.9431 54.5471 64.9431 54.5471 64.8675 55.0664C64.7684 55.7716 64.6711 56.4769 64.5755 57.1826C64.2349 59.4947 63.8592 61.9405 62.1438 63.6559C60.9206 63.7954 59.7566 63.6539 58.727 62.9555C56.741 60.873 56.238 57.9054 55.6692 55.1815C55.2681 53.3377 54.63 51.7069 53.2734 50.3503C52.5343 50.3373 51.7949 50.3369 51.0558 50.3503C49.6741 53.6607 49.0853 57.0722 48.6018 60.6042C48.5618 60.8908 48.5218 61.1773 48.4806 61.4724C48.4034 62.0347 48.33 62.5975 48.2608 63.1609C48.2259 63.4177 48.191 63.6746 48.1551 63.9393C48.1263 64.1675 48.0975 64.3957 48.0678 64.6308C47.8451 65.3842 47.5539 65.7111 46.9374 66.1903C46.1652 66.1903 46.1652 66.1903 45.3534 65.8735C43.4911 63.9078 43.642 61.8283 43.679 59.2789C43.8444 54.9037 44.6955 48.939 47.7715 45.6639C48.734 44.8141 49.6425 44.8597 50.8739 44.8756C53.043 45.1126 55.3518 46.1173 56.7582 47.8159C57.6585 49.1586 58.4809 50.536 59.2926 51.9343C59.6087 52.4628 59.9252 52.9909 60.243 53.5183C60.3353 53.212 60.4276 52.9058 60.5227 52.5902C61.9693 47.9376 63.9699 42.5366 69.747 43.3807Z" fill="#A1A1AA"/>
<path d="M112.199 42.7471C112.986 43.2809 113.13 43.6217 113.367 44.5489C113.4 44.7907 113.433 45.0324 113.466 45.2815C113.898 44.9091 113.898 44.9091 114.337 44.5291C116.057 43.0439 117.469 42.9022 119.719 42.9476C121.601 43.1594 122.662 43.9044 123.863 45.3323C124.776 46.6012 125.381 47.4728 125.188 49.0831C124.554 49.7167 124.554 49.7167 123.327 49.8553C122.634 49.8442 122.634 49.8442 122.02 49.7167C121.824 49.4554 121.628 49.194 121.426 48.9247C120.843 48.0906 120.843 48.0906 120.073 47.9384C118.316 47.8008 117.343 48.1558 116.001 49.3009C114.574 50.654 114.071 51.7743 114.011 53.7275C114.047 55.4707 114.436 57.051 114.892 58.7257C116.184 63.8244 116.184 63.8244 115.684 65.5567C115.062 66.1681 114.63 66.4653 113.772 66.6334C112.023 66.6131 112.023 66.6131 111.347 66.103C110.869 65.4739 110.762 65.0787 110.653 64.3007C110.617 64.0507 110.58 63.8007 110.542 63.5431C110.49 63.1383 110.49 63.1383 110.437 62.7253C110.398 62.4426 110.359 62.1599 110.32 61.8686C110.202 60.9866 110.091 60.1039 109.981 59.2207C109.947 58.96 109.913 58.6992 109.878 58.4306C109.46 55.1698 109.287 51.9352 109.269 48.6475C109.266 48.3103 109.263 47.9731 109.26 47.6257C109.272 44.5571 109.272 44.5571 109.981 43.0639C110.789 42.6602 111.304 42.6598 112.199 42.7471Z" fill="#A1A1AA"/>
<path d="M141.344 47.4991C142.268 48.1705 142.614 48.9508 142.928 50.0335C143.024 50.9657 143.031 51.8888 143.027 52.8253C143.032 53.0689 143.038 53.3125 143.043 53.5635C143.045 56.2432 142.255 58.2852 140.419 60.2454C138.615 61.7779 136.456 62.296 134.122 62.1969C133.085 62.0111 132.53 61.5839 131.84 60.8047C131.054 58.4466 131.183 55.8929 132.205 53.6349C133.174 51.7161 134.246 50.079 135.959 48.7663C136.131 48.6303 136.303 48.4943 136.48 48.3542C137.955 47.3491 139.599 47.1605 141.344 47.4991Z" fill="#09090B"/>
<path d="M96.6758 47.4991C98.3383 49.1615 98.057 51.4286 98.065 53.6143C98.0227 56.1502 97.5554 57.9018 95.8269 59.8072C94.1519 61.378 92.4295 61.8471 90.1418 61.8739C89.7914 61.8829 89.441 61.8918 89.08 61.9011C87.9155 61.7236 87.564 61.4099 86.855 60.4879C86.1685 58.4284 86.1987 55.9205 87.053 53.9143C87.2926 53.4594 87.5438 53.0104 87.8054 52.5679C87.9398 52.3232 88.0741 52.0786 88.2125 51.8266C89.537 49.6094 91.2278 48.4275 93.5474 47.3605C94.7023 47.1345 95.5385 47.1986 96.6758 47.4991Z" fill="#09090B"/>
<path d="M27.2969 35.1438C29.482 36.8768 29.7329 40.0784 30.2075 42.6678C30.2637 42.959 30.3198 43.2501 30.3777 43.5501C30.8996 46.3349 30.8996 46.3349 30.7817 47.499C28.5422 48.992 25.177 48.857 22.5449 48.7662C23.0197 46.3591 23.7557 44.091 24.5645 41.7768C24.7483 41.2387 24.7483 41.2387 24.9358 40.6897C25.6052 38.761 26.3321 36.9436 27.2969 35.1438Z" fill="#09090B"/>
<path d="M51.6899 44.9647C51.899 45.1738 52.1081 45.3829 52.3235 45.5983C52.0977 45.5991 51.8718 45.5999 51.6392 45.6008C49.5945 45.6833 48.4482 45.9536 46.9837 47.4112C46.864 47.5448 46.7444 47.6783 46.6211 47.8159C47.4084 45.2393 49.1562 44.5366 51.6899 44.9647Z" fill="#A1A1AA"/>
<path d="M65.6297 43.6975C65.7343 44.0111 65.8388 44.3248 65.9465 44.6479C65.2147 45.3797 64.4829 46.1115 63.7289 46.8655C63.6244 46.5519 63.5198 46.2382 63.4121 45.9151C64.0776 44.9406 64.6433 44.3551 65.6297 43.6975Z" fill="#A1A1AA"/>
</svg>
