<svg width="106" height="96" viewBox="0 0 106 96" fill="none" xmlns="http://www.w3.org/2000/svg">
<g clip-path="url(#clip0_488_6037)">
<path d="M66.0328 47.0857V31.9086C66.0328 31.5063 65.7082 31.1771 65.3115 31.1771C64.9148 31.1771 64.5902 31.5063 64.5902 31.9086V40.5029C64.5902 44.1417 61.6869 47.0857 58.0984 47.0857C54.5098 47.0857 51.6066 44.1417 51.6066 40.5029V31.9086C51.6066 31.5063 51.282 31.1771 50.8852 31.1771C50.4885 31.1771 50.1639 31.5063 50.1639 31.9086V47.0857H44.3934V31.9086C44.3934 28.2697 47.2967 25.3257 50.8852 25.3257C54.4738 25.3257 57.377 28.2697 57.377 31.9086V40.5029C57.377 40.9051 57.7016 41.2343 58.0984 41.2343C58.4951 41.2343 58.8197 40.9051 58.8197 40.5029V31.9086C58.8197 28.2697 61.7229 25.3257 65.3115 25.3257C68.9 25.3257 71.8033 28.2697 71.8033 31.9086V47.0857H66.0328ZM41.2377 28.5257C41.2377 26.7703 39.8131 25.3257 38.082 25.3257C36.3508 25.3257 34.9262 26.7703 34.9262 28.5257C34.9262 30.2811 36.3508 31.7257 38.082 31.7257C39.8131 31.7257 41.2377 30.2811 41.2377 28.5257ZM40.9672 47.0857V33.5543H35.1967V47.0857H40.9672ZM81 67.7486V28.2514C81 21.504 75.5721 16 68.918 16H38.082C31.4279 16 26 21.504 26 28.2514V67.7486C26 74.496 31.4279 80 38.082 80H55.3934V74.1486H38.082C34.6016 74.1486 31.7705 71.2777 31.7705 67.7486V28.2514C31.7705 24.7223 34.6016 21.8514 38.082 21.8514H68.918C72.3984 21.8514 75.2295 24.7223 75.2295 28.2514V67.7486C75.2295 71.2777 72.3984 74.1486 68.918 74.1486C65.4377 74.1486 62.6066 71.2777 62.6066 67.7486V55.4971C62.6066 51.8583 59.7033 48.9143 56.1148 48.9143C52.5262 48.9143 49.623 51.8583 49.623 55.4971V64.0914C49.623 64.4937 49.2984 64.8229 48.9016 64.8229C48.5049 64.8229 48.1803 64.4937 48.1803 64.0914V55.4971C48.1803 51.8583 45.277 48.9143 41.6885 48.9143C38.1 48.9143 35.1967 51.8583 35.1967 55.4971V70.6743H40.9672V55.4971C40.9672 55.0949 41.2918 54.7657 41.6885 54.7657C42.0852 54.7657 42.4098 55.0949 42.4098 55.4971V64.0914C42.4098 67.7303 45.3131 70.6743 48.9016 70.6743C52.4902 70.6743 55.3934 67.7303 55.3934 64.0914V55.4971C55.3934 55.0949 55.718 54.7657 56.1148 54.7657C56.5115 54.7657 56.8361 55.0949 56.8361 55.4971V67.7486C56.8361 74.496 62.2639 80 68.918 80C75.5721 80 81 74.496 81 67.7486ZM72.0738 52.1143C72.0738 50.3589 70.6492 48.9143 68.918 48.9143C67.1869 48.9143 65.7623 50.3589 65.7623 52.1143C65.7623 53.8697 67.1869 55.3143 68.918 55.3143C70.6492 55.3143 72.0738 53.8697 72.0738 52.1143ZM71.8033 70.6743V57.1429H66.0328V70.6743H71.8033Z" fill="#A1A1AA"/>
</g>
<defs>
<clipPath id="clip0_488_6037">
<rect width="55" height="64" fill="white" transform="translate(26 16)"/>
</clipPath>
</defs>
</svg>
