<svg width="68" height="68" viewBox="0 0 68 68" fill="none" xmlns="http://www.w3.org/2000/svg">
<mask id="mask0_625_13373" style="mask-type:alpha" maskUnits="userSpaceOnUse" x="0" y="0" width="68" height="68">
<rect width="68" height="68" fill="#D9D9D9"/>
</mask>
<g mask="url(#mask0_625_13373)">
<path d="M31.1667 61.5548V35.6298L8.5 22.5256V45.2631C8.5 46.302 8.74792 47.2465 9.24375 48.0965C9.73958 48.9465 10.4361 49.6312 11.3333 50.1506L31.1667 61.5548ZM36.8333 61.5548L56.6667 50.1506C57.5639 49.6312 58.2604 48.9465 58.7563 48.0965C59.2521 47.2465 59.5 46.302 59.5 45.2631V22.5256L36.8333 35.6298V61.5548ZM48.0958 22.5965L56.4542 17.709L36.8333 6.44646C35.9361 5.92702 34.9917 5.6673 34 5.6673C33.0083 5.6673 32.0639 5.92702 31.1667 6.44646L25.5708 9.63397L48.0958 22.5965ZM34 30.7423L42.4292 25.9256L19.975 12.8923L11.475 17.7798L34 30.7423Z" fill="white"/>
</g>
</svg>
