<svg width="68" height="68" viewBox="0 0 68 68" fill="none" xmlns="http://www.w3.org/2000/svg">
<mask id="mask0_625_13466" style="mask-type:alpha" maskUnits="userSpaceOnUse" x="0" y="0" width="68" height="68">
<rect width="68" height="68" fill="#D9D9D9"/>
</mask>
<g mask="url(#mask0_625_13466)">
<path d="M59.5777 31.3083V53.8333C59.5777 55.3917 59.0228 56.7257 57.9131 57.8354C56.8034 58.9451 55.4693 59.5 53.911 59.5H14.2443C12.686 59.5 11.352 58.9451 10.2422 57.8354C9.13252 56.7257 8.57765 55.3917 8.57765 53.8333V31.3083C7.49154 30.3167 6.65335 29.0417 6.06307 27.4833C5.47279 25.925 5.46099 24.225 6.02765 22.3833L9.00265 12.75C9.38043 11.5222 10.0533 10.5069 11.0214 9.70417C11.9895 8.90139 13.111 8.5 14.386 8.5H53.7693C55.0443 8.5 56.154 8.88958 57.0985 9.66875C58.0429 10.4479 58.7277 11.475 59.1527 12.75L62.1277 22.3833C62.6943 24.225 62.6825 25.9014 62.0922 27.4125C61.502 28.9236 60.6638 30.2222 59.5777 31.3083ZM40.311 28.3333C41.586 28.3333 42.554 27.8965 43.2152 27.0229C43.8763 26.1493 44.136 25.1694 43.9943 24.0833L42.436 14.1667H36.911V24.65C36.911 25.6417 37.2415 26.5035 37.9027 27.2354C38.5638 27.9674 39.3665 28.3333 40.311 28.3333ZM27.561 28.3333C28.6471 28.3333 29.5325 27.9674 30.2172 27.2354C30.902 26.5035 31.2443 25.6417 31.2443 24.65V14.1667H25.7193L24.161 24.0833C23.9721 25.2167 24.22 26.2083 24.9047 27.0583C25.5895 27.9083 26.4749 28.3333 27.561 28.3333ZM14.9527 28.3333C15.8027 28.3333 16.5464 28.0264 17.1839 27.4125C17.8214 26.7986 18.211 26.0194 18.3527 25.075L19.911 14.1667H14.386L11.5527 23.6583C11.2693 24.6028 11.4228 25.6181 12.0131 26.7042C12.6033 27.7903 13.5832 28.3333 14.9527 28.3333ZM53.2027 28.3333C54.5721 28.3333 55.5638 27.7903 56.1777 26.7042C56.7915 25.6181 56.9332 24.6028 56.6027 23.6583L53.6277 14.1667H48.2443L49.8027 25.075C49.9443 26.0194 50.3339 26.7986 50.9714 27.4125C51.6089 28.0264 52.3527 28.3333 53.2027 28.3333Z" fill="white"/>
</g>
</svg>
