<svg width="68" height="68" viewBox="0 0 68 68" fill="none" xmlns="http://www.w3.org/2000/svg">
<mask id="mask0_625_13916" style="mask-type:alpha" maskUnits="userSpaceOnUse" x="0" y="0" width="68" height="68">
<rect width="68" height="68" fill="#D9D9D9"/>
</mask>
<g mask="url(#mask0_625_13916)">
<path d="M16.9948 56.6654C14.6337 56.6654 12.6267 55.839 10.974 54.1862C9.32118 52.5334 8.49479 50.5265 8.49479 48.1654H2.82812V16.9987C2.82812 15.4404 3.38299 14.1063 4.49271 12.9966C5.60243 11.8869 6.93646 11.332 8.49479 11.332H48.1615V22.6654H56.6615L65.1615 33.9987V48.1654H59.4948C59.4948 50.5265 58.6684 52.5334 57.0156 54.1862C55.3628 55.839 53.3559 56.6654 50.9948 56.6654C48.6337 56.6654 46.6267 55.839 44.974 54.1862C43.3212 52.5334 42.4948 50.5265 42.4948 48.1654H25.4948C25.4948 50.5265 24.6684 52.5334 23.0156 54.1862C21.3628 55.839 19.3559 56.6654 16.9948 56.6654ZM16.9948 50.9987C17.7976 50.9987 18.4705 50.7272 19.0135 50.1841C19.5566 49.6411 19.8281 48.9681 19.8281 48.1654C19.8281 47.3626 19.5566 46.6897 19.0135 46.1466C18.4705 45.6036 17.7976 45.332 16.9948 45.332C16.192 45.332 15.5191 45.6036 14.976 46.1466C14.433 46.6897 14.1615 47.3626 14.1615 48.1654C14.1615 48.9681 14.433 49.6411 14.976 50.1841C15.5191 50.7272 16.192 50.9987 16.9948 50.9987ZM50.9948 50.9987C51.7976 50.9987 52.4705 50.7272 53.0135 50.1841C53.5566 49.6411 53.8281 48.9681 53.8281 48.1654C53.8281 47.3626 53.5566 46.6897 53.0135 46.1466C52.4705 45.6036 51.7976 45.332 50.9948 45.332C50.192 45.332 49.5191 45.6036 48.976 46.1466C48.433 46.6897 48.1615 47.3626 48.1615 48.1654C48.1615 48.9681 48.433 49.6411 48.976 50.1841C49.5191 50.7272 50.192 50.9987 50.9948 50.9987ZM48.1615 36.832H60.2031L53.8281 28.332H48.1615V36.832Z" fill="white"/>
</g>
</svg>
