<svg width="68" height="68" viewBox="0 0 68 68" fill="none" xmlns="http://www.w3.org/2000/svg">
<mask id="mask0_625_13936" style="mask-type:alpha" maskUnits="userSpaceOnUse" x="0" y="0" width="68" height="68">
<rect width="68" height="68" fill="#D9D9D9"/>
</mask>
<g mask="url(#mask0_625_13936)">
<path d="M14.1719 45.3346V31.168C14.1719 30.3652 14.4434 29.6923 14.9865 29.1492C15.5295 28.6062 16.2024 28.3346 17.0052 28.3346C17.808 28.3346 18.4809 28.6062 19.024 29.1492C19.567 29.6923 19.8385 30.3652 19.8385 31.168V45.3346C19.8385 46.1374 19.567 46.8103 19.024 47.3534C18.4809 47.8964 17.808 48.168 17.0052 48.168C16.2024 48.168 15.5295 47.8964 14.9865 47.3534C14.4434 46.8103 14.1719 46.1374 14.1719 45.3346ZM31.1719 45.3346V31.168C31.1719 30.3652 31.4434 29.6923 31.9865 29.1492C32.5295 28.6062 33.2024 28.3346 34.0052 28.3346C34.808 28.3346 35.4809 28.6062 36.024 29.1492C36.567 29.6923 36.8385 30.3652 36.8385 31.168V45.3346C36.8385 46.1374 36.567 46.8103 36.024 47.3534C35.4809 47.8964 34.808 48.168 34.0052 48.168C33.2024 48.168 32.5295 47.8964 31.9865 47.3534C31.4434 46.8103 31.1719 46.1374 31.1719 45.3346ZM8.50521 59.5013C7.70243 59.5013 7.02951 59.2298 6.48646 58.6867C5.9434 58.1437 5.67188 57.4707 5.67188 56.668C5.67188 55.8652 5.9434 55.1923 6.48646 54.6492C7.02951 54.1062 7.70243 53.8346 8.50521 53.8346H59.5052C60.308 53.8346 60.9809 54.1062 61.524 54.6492C62.067 55.1923 62.3386 55.8652 62.3386 56.668C62.3386 57.4707 62.067 58.1437 61.524 58.6867C60.9809 59.2298 60.308 59.5013 59.5052 59.5013H8.50521ZM48.1719 45.3346V31.168C48.1719 30.3652 48.4434 29.6923 48.9865 29.1492C49.5295 28.6062 50.2024 28.3346 51.0052 28.3346C51.808 28.3346 52.4809 28.6062 53.024 29.1492C53.567 29.6923 53.8386 30.3652 53.8386 31.168V45.3346C53.8386 46.1374 53.567 46.8103 53.024 47.3534C52.4809 47.8964 51.808 48.168 51.0052 48.168C50.2024 48.168 49.5295 47.8964 48.9865 47.3534C48.4434 46.8103 48.1719 46.1374 48.1719 45.3346ZM59.5052 22.668H8.22188C7.51354 22.668 6.91146 22.42 6.41563 21.9242C5.91979 21.4284 5.67188 20.8263 5.67188 20.118V18.5596C5.67188 18.0402 5.80174 17.5916 6.06146 17.2138C6.32118 16.836 6.66354 16.5291 7.08854 16.293L31.4552 4.10964C32.258 3.73186 33.108 3.54297 34.0052 3.54297C34.9024 3.54297 35.7524 3.73186 36.5552 4.10964L60.7802 16.2221C61.2997 16.4582 61.6893 16.8124 61.949 17.2846C62.2087 17.7569 62.3386 18.2527 62.3386 18.7721V19.8346C62.3386 20.6374 62.067 21.3103 61.524 21.8534C60.9809 22.3964 60.308 22.668 59.5052 22.668Z" fill="white"/>
</g>
</svg>
