<svg width="570" height="74" viewBox="0 0 570 74" fill="none" xmlns="http://www.w3.org/2000/svg">
<path d="M31.7161 2.75378L2.37305 19.7751V53.7731L10.7494 58.6395L10.6902 24.6341L31.657 12.4717L52.6237 24.6341V58.6246L61 53.7731V19.7454L31.7161 2.75378Z" fill="white"/>
<path d="M35.8714 58.632L31.6869 61.0764L27.4803 58.6543V24.634L19.1113 29.493L19.1261 63.4984L31.6795 70.7869L44.2477 63.4984V29.493L35.8714 24.634V58.632Z" fill="white"/>
<path d="M81.5909 13.4545H91.9091L105.727 47.1818H106.273L120.091 13.4545H130.409V60H122.318V28.0227H121.886L109.023 59.8636H102.977L90.1136 27.9545H89.6818V60H81.5909V13.4545ZM146.713 60.7045C144.501 60.7045 142.508 60.3106 140.735 59.5227C138.978 58.7197 137.584 57.5379 136.554 55.9773C135.538 54.4167 135.031 52.4924 135.031 50.2045C135.031 48.2348 135.395 46.6061 136.122 45.3182C136.849 44.0303 137.842 43 139.099 42.2273C140.357 41.4545 141.773 40.8712 143.349 40.4773C144.94 40.0682 146.584 39.7727 148.281 39.5909C150.326 39.3788 151.985 39.1894 153.258 39.0227C154.531 38.8409 155.455 38.5682 156.031 38.2045C156.622 37.8258 156.917 37.2424 156.917 36.4545V36.3182C156.917 34.6061 156.41 33.2803 155.395 32.3409C154.379 31.4015 152.917 30.9318 151.008 30.9318C148.993 30.9318 147.395 31.3712 146.213 32.25C145.046 33.1288 144.258 34.1667 143.849 35.3636L136.167 34.2727C136.773 32.1515 137.773 30.3788 139.167 28.9545C140.561 27.5151 142.266 26.4394 144.281 25.7273C146.296 25 148.523 24.6364 150.963 24.6364C152.645 24.6364 154.319 24.8333 155.985 25.2273C157.652 25.6212 159.175 26.2727 160.554 27.1818C161.932 28.0758 163.038 29.2955 163.872 30.8409C164.72 32.3864 165.145 34.3182 165.145 36.6364V60H157.235V55.2045H156.963C156.463 56.1742 155.758 57.0833 154.849 57.9318C153.955 58.7652 152.826 59.4394 151.463 59.9545C150.114 60.4545 148.531 60.7045 146.713 60.7045ZM148.849 54.6591C150.501 54.6591 151.932 54.3333 153.145 53.6818C154.357 53.0152 155.288 52.1364 155.94 51.0455C156.607 49.9545 156.94 48.7652 156.94 47.4773V43.3636C156.682 43.5758 156.243 43.7727 155.622 43.9545C155.016 44.1364 154.334 44.2955 153.576 44.4318C152.819 44.5682 152.069 44.6894 151.326 44.7955C150.584 44.9015 149.94 44.9924 149.395 45.0682C148.167 45.2348 147.069 45.5076 146.099 45.8864C145.129 46.2652 144.364 46.7955 143.804 47.4773C143.243 48.1439 142.963 49.0076 142.963 50.0682C142.963 51.5833 143.516 52.7273 144.622 53.5C145.728 54.2727 147.137 54.6591 148.849 54.6591ZM186.039 73.8182C183.085 73.8182 180.547 73.4167 178.425 72.6136C176.304 71.8258 174.6 70.7652 173.312 69.4318C172.024 68.0985 171.13 66.6212 170.63 65L178.039 63.2045C178.372 63.8864 178.857 64.5606 179.494 65.2273C180.13 65.9091 180.986 66.4697 182.062 66.9091C183.153 67.3636 184.524 67.5909 186.175 67.5909C188.509 67.5909 190.441 67.0227 191.971 65.8864C193.501 64.7652 194.266 62.9167 194.266 60.3409V53.7273H193.857C193.433 54.5758 192.812 55.447 191.994 56.3409C191.191 57.2348 190.122 57.9848 188.789 58.5909C187.471 59.197 185.812 59.5 183.812 59.5C181.13 59.5 178.698 58.8712 176.516 57.6136C174.35 56.3409 172.622 54.447 171.335 51.9318C170.062 49.4015 169.425 46.2348 169.425 42.4318C169.425 38.5985 170.062 35.3636 171.335 32.7273C172.622 30.0758 174.357 28.0682 176.539 26.7045C178.721 25.3258 181.153 24.6364 183.835 24.6364C185.88 24.6364 187.562 24.9848 188.88 25.6818C190.213 26.3636 191.274 27.1894 192.062 28.1591C192.85 29.1136 193.448 30.0152 193.857 30.8636H194.312V25.0909H202.425V60.5682C202.425 63.553 201.713 66.0227 200.289 67.9773C198.865 69.9318 196.918 71.3939 194.448 72.3636C191.978 73.3333 189.175 73.8182 186.039 73.8182ZM186.107 53.0455C187.85 53.0455 189.335 52.6212 190.562 51.7727C191.789 50.9242 192.721 49.7045 193.357 48.1136C193.994 46.5227 194.312 44.6136 194.312 42.3864C194.312 40.1894 193.994 38.2652 193.357 36.6136C192.736 34.9621 191.812 33.6818 190.585 32.7727C189.372 31.8485 187.88 31.3864 186.107 31.3864C184.274 31.3864 182.744 31.8636 181.516 32.8182C180.289 33.7727 179.365 35.0833 178.744 36.75C178.122 38.4015 177.812 40.2803 177.812 42.3864C177.812 44.5227 178.122 46.3939 178.744 48C179.38 49.5909 180.312 50.8333 181.539 51.7273C182.782 52.6061 184.304 53.0455 186.107 53.0455ZM223.752 60.6818C220.252 60.6818 217.229 59.9545 214.684 58.5C212.153 57.0303 210.206 54.9545 208.843 52.2727C207.479 49.5758 206.797 46.4015 206.797 42.75C206.797 39.1591 207.479 36.0076 208.843 33.2955C210.222 30.5682 212.146 28.447 214.615 26.9318C217.085 25.4015 219.987 24.6364 223.32 24.6364C225.472 24.6364 227.502 24.9848 229.411 25.6818C231.335 26.3636 233.032 27.4242 234.502 28.8636C235.987 30.303 237.153 32.1364 238.002 34.3636C238.85 36.5758 239.275 39.2121 239.275 42.2727V44.7955H210.661V39.25H231.388C231.373 37.6742 231.032 36.2727 230.365 35.0455C229.699 33.803 228.767 32.8258 227.57 32.1136C226.388 31.4015 225.009 31.0455 223.434 31.0455C221.752 31.0455 220.275 31.4545 219.002 32.2727C217.729 33.0758 216.737 34.1364 216.025 35.4545C215.328 36.7576 214.972 38.1894 214.956 39.75V44.5909C214.956 46.6212 215.328 48.3636 216.07 49.8182C216.812 51.2576 217.85 52.3636 219.184 53.1364C220.517 53.8939 222.078 54.2727 223.865 54.2727C225.062 54.2727 226.146 54.1061 227.115 53.7727C228.085 53.4242 228.926 52.9167 229.638 52.25C230.35 51.5833 230.888 50.7576 231.252 49.7727L238.934 50.6364C238.449 52.6667 237.525 54.4394 236.161 55.9545C234.812 57.4545 233.085 58.6212 230.979 59.4545C228.873 60.2727 226.464 60.6818 223.752 60.6818ZM251.902 39.5455V60H243.675V25.0909H251.538V31.0227H251.947C252.751 29.0682 254.031 27.5152 255.788 26.3636C257.561 25.2121 259.751 24.6364 262.357 24.6364C264.766 24.6364 266.864 25.1515 268.652 26.1818C270.455 27.2121 271.849 28.7045 272.834 30.6591C273.834 32.6136 274.326 34.9848 274.311 37.7727V60H266.084V39.0455C266.084 36.7121 265.478 34.8864 264.266 33.5682C263.069 32.25 261.41 31.5909 259.288 31.5909C257.849 31.5909 256.569 31.9091 255.447 32.5455C254.341 33.1667 253.47 34.0682 252.834 35.25C252.213 36.4318 251.902 37.8636 251.902 39.5455ZM297.547 25.0909V31.4545H277.478V25.0909H297.547ZM282.433 16.7273H290.66V49.5C290.66 50.6061 290.827 51.4545 291.16 52.0455C291.509 52.6212 291.963 53.0152 292.524 53.2273C293.084 53.4394 293.706 53.5455 294.387 53.5455C294.903 53.5455 295.372 53.5076 295.797 53.4318C296.236 53.3561 296.569 53.2879 296.797 53.2273L298.183 59.6591C297.744 59.8106 297.115 59.9773 296.297 60.1591C295.494 60.3409 294.509 60.447 293.342 60.4773C291.281 60.5379 289.425 60.2273 287.774 59.5455C286.122 58.8485 284.812 57.7727 283.842 56.3182C282.887 54.8636 282.418 53.0455 282.433 50.8636V16.7273ZM316.72 60.6818C313.31 60.6818 310.356 59.9318 307.856 58.4318C305.356 56.9318 303.417 54.8333 302.038 52.1364C300.674 49.4394 299.992 46.2879 299.992 42.6818C299.992 39.0758 300.674 35.9167 302.038 33.2045C303.417 30.4924 305.356 28.3864 307.856 26.8864C310.356 25.3864 313.31 24.6364 316.72 24.6364C320.129 24.6364 323.083 25.3864 325.583 26.8864C328.083 28.3864 330.015 30.4924 331.379 33.2045C332.757 35.9167 333.447 39.0758 333.447 42.6818C333.447 46.2879 332.757 49.4394 331.379 52.1364C330.015 54.8333 328.083 56.9318 325.583 58.4318C323.083 59.9318 320.129 60.6818 316.72 60.6818ZM316.765 54.0909C318.613 54.0909 320.159 53.5833 321.401 52.5682C322.644 51.5379 323.568 50.1591 324.174 48.4318C324.795 46.7045 325.106 44.7803 325.106 42.6591C325.106 40.5227 324.795 38.5909 324.174 36.8636C323.568 35.1212 322.644 33.7348 321.401 32.7045C320.159 31.6742 318.613 31.1591 316.765 31.1591C314.871 31.1591 313.295 31.6742 312.038 32.7045C310.795 33.7348 309.863 35.1212 309.242 36.8636C308.636 38.5909 308.333 40.5227 308.333 42.6591C308.333 44.7803 308.636 46.7045 309.242 48.4318C309.863 50.1591 310.795 51.5379 312.038 52.5682C313.295 53.5833 314.871 54.0909 316.765 54.0909ZM351.548 60V13.4545H359.776V30.8636H360.117C360.541 30.0152 361.139 29.1136 361.912 28.1591C362.685 27.1894 363.73 26.3636 365.048 25.6818C366.367 24.9848 368.048 24.6364 370.094 24.6364C372.791 24.6364 375.223 25.3258 377.389 26.7045C379.571 28.0682 381.298 30.0909 382.571 32.7727C383.859 35.4394 384.503 38.7121 384.503 42.5909C384.503 46.4242 383.874 49.6818 382.617 52.3636C381.359 55.0455 379.647 57.0909 377.48 58.5C375.314 59.9091 372.859 60.6136 370.117 60.6136C368.117 60.6136 366.457 60.2803 365.139 59.6136C363.821 58.947 362.761 58.1439 361.957 57.2045C361.17 56.25 360.556 55.3485 360.117 54.5H359.639V60H351.548ZM359.617 42.5455C359.617 44.803 359.935 46.7803 360.571 48.4773C361.223 50.1742 362.154 51.5 363.367 52.4545C364.594 53.3939 366.079 53.8636 367.821 53.8636C369.639 53.8636 371.162 53.3788 372.389 52.4091C373.617 51.4242 374.541 50.0833 375.162 48.3864C375.798 46.6742 376.117 44.7273 376.117 42.5455C376.117 40.3788 375.806 38.4545 375.185 36.7727C374.564 35.0909 373.639 33.7727 372.412 32.8182C371.185 31.8636 369.654 31.3864 367.821 31.3864C366.064 31.3864 364.571 31.8485 363.344 32.7727C362.117 33.697 361.185 34.9924 360.548 36.6591C359.927 38.3258 359.617 40.2879 359.617 42.5455ZM388.937 60V25.0909H396.915V30.9091H397.278C397.915 28.8939 399.005 27.3409 400.551 26.25C402.112 25.1439 403.892 24.5909 405.892 24.5909C406.346 24.5909 406.854 24.6136 407.415 24.6591C407.99 24.6894 408.468 24.7424 408.846 24.8182V32.3864C408.498 32.2652 407.945 32.1591 407.187 32.0682C406.445 31.9621 405.725 31.9091 405.028 31.9091C403.528 31.9091 402.18 32.2348 400.983 32.8864C399.801 33.5227 398.869 34.4091 398.187 35.5455C397.505 36.6818 397.165 37.9924 397.165 39.4773V60H388.937ZM421.173 60.7045C418.961 60.7045 416.968 60.3106 415.195 59.5227C413.438 58.7197 412.044 57.5379 411.014 55.9773C409.998 54.4167 409.491 52.4924 409.491 50.2045C409.491 48.2348 409.855 46.6061 410.582 45.3182C411.309 44.0303 412.302 43 413.559 42.2273C414.817 41.4545 416.233 40.8712 417.809 40.4773C419.4 40.0682 421.044 39.7727 422.741 39.5909C424.786 39.3788 426.445 39.1894 427.718 39.0227C428.991 38.8409 429.915 38.5682 430.491 38.2045C431.082 37.8258 431.377 37.2424 431.377 36.4545V36.3182C431.377 34.6061 430.87 33.2803 429.855 32.3409C428.839 31.4015 427.377 30.9318 425.468 30.9318C423.453 30.9318 421.855 31.3712 420.673 32.25C419.506 33.1288 418.718 34.1667 418.309 35.3636L410.627 34.2727C411.233 32.1515 412.233 30.3788 413.627 28.9545C415.021 27.5151 416.726 26.4394 418.741 25.7273C420.756 25 422.983 24.6364 425.423 24.6364C427.105 24.6364 428.779 24.8333 430.445 25.2273C432.112 25.6212 433.635 26.2727 435.014 27.1818C436.392 28.0758 437.498 29.2955 438.332 30.8409C439.18 32.3864 439.605 34.3182 439.605 36.6364V60H431.695V55.2045H431.423C430.923 56.1742 430.218 57.0833 429.309 57.9318C428.415 58.7652 427.286 59.4394 425.923 59.9545C424.574 60.4545 422.991 60.7045 421.173 60.7045ZM423.309 54.6591C424.961 54.6591 426.392 54.3333 427.605 53.6818C428.817 53.0152 429.748 52.1364 430.4 51.0455C431.067 49.9545 431.4 48.7652 431.4 47.4773V43.3636C431.142 43.5758 430.703 43.7727 430.082 43.9545C429.476 44.1364 428.794 44.2955 428.036 44.4318C427.279 44.5682 426.529 44.6894 425.786 44.7955C425.044 44.9015 424.4 44.9924 423.855 45.0682C422.627 45.2348 421.529 45.5076 420.559 45.8864C419.589 46.2652 418.824 46.7955 418.264 47.4773C417.703 48.1439 417.423 49.0076 417.423 50.0682C417.423 51.5833 417.976 52.7273 419.082 53.5C420.188 54.2727 421.597 54.6591 423.309 54.6591ZM453.545 39.5455V60H445.317V25.0909H453.181V31.0227H453.59C454.393 29.0682 455.673 27.5152 457.431 26.3636C459.204 25.2121 461.393 24.6364 463.999 24.6364C466.408 24.6364 468.507 25.1515 470.295 26.1818C472.098 27.2121 473.492 28.7045 474.476 30.6591C475.476 32.6136 475.969 34.9848 475.954 37.7727V60H467.726V39.0455C467.726 36.7121 467.12 34.8864 465.908 33.5682C464.711 32.25 463.052 31.5909 460.931 31.5909C459.492 31.5909 458.211 31.9091 457.09 32.5455C455.984 33.1667 455.113 34.0682 454.476 35.25C453.855 36.4318 453.545 37.8636 453.545 39.5455ZM494.712 60.6136C491.969 60.6136 489.515 59.9091 487.348 58.5C485.182 57.0909 483.469 55.0455 482.212 52.3636C480.954 49.6818 480.325 46.4242 480.325 42.5909C480.325 38.7121 480.962 35.4394 482.235 32.7727C483.522 30.0909 485.257 28.0682 487.439 26.7045C489.621 25.3258 492.053 24.6364 494.735 24.6364C496.78 24.6364 498.462 24.9848 499.78 25.6818C501.098 26.3636 502.144 27.1894 502.916 28.1591C503.689 29.1136 504.288 30.0152 504.712 30.8636H505.053V13.4545H513.303V60H505.212V54.5H504.712C504.288 55.3485 503.674 56.25 502.871 57.2045C502.068 58.1439 501.007 58.947 499.689 59.6136C498.371 60.2803 496.712 60.6136 494.712 60.6136ZM497.007 53.8636C498.75 53.8636 500.235 53.3939 501.462 52.4545C502.689 51.5 503.621 50.1742 504.257 48.4773C504.894 46.7803 505.212 44.803 505.212 42.5455C505.212 40.2879 504.894 38.3258 504.257 36.6591C503.636 34.9924 502.712 33.697 501.485 32.7727C500.272 31.8485 498.78 31.3864 497.007 31.3864C495.174 31.3864 493.644 31.8636 492.416 32.8182C491.189 33.7727 490.265 35.0909 489.644 36.7727C489.022 38.4545 488.712 40.3788 488.712 42.5455C488.712 44.7273 489.022 46.6742 489.644 48.3864C490.28 50.0833 491.212 51.4242 492.439 52.4091C493.682 53.3788 495.204 53.8636 497.007 53.8636ZM547.101 34.3182L539.601 35.1364C539.389 34.3788 539.017 33.6667 538.487 33C537.972 32.3333 537.275 31.7955 536.396 31.3864C535.517 30.9773 534.442 30.7727 533.169 30.7727C531.457 30.7727 530.017 31.1439 528.851 31.8864C527.699 32.6288 527.131 33.5909 527.146 34.7727C527.131 35.7879 527.502 36.6136 528.26 37.25C529.033 37.8864 530.305 38.4091 532.078 38.8182L538.033 40.0909C541.336 40.803 543.79 41.9318 545.396 43.4773C547.017 45.0227 547.836 47.0455 547.851 49.5455C547.836 51.7424 547.192 53.6818 545.919 55.3636C544.661 57.0303 542.911 58.3333 540.669 59.2727C538.426 60.2121 535.851 60.6818 532.942 60.6818C528.669 60.6818 525.229 59.7879 522.623 58C520.017 56.197 518.464 53.6894 517.964 50.4773L525.987 49.7045C526.351 51.2803 527.123 52.4697 528.305 53.2727C529.487 54.0758 531.025 54.4773 532.919 54.4773C534.873 54.4773 536.442 54.0758 537.623 53.2727C538.82 52.4697 539.419 51.4773 539.419 50.2955C539.419 49.2955 539.033 48.4697 538.26 47.8182C537.502 47.1667 536.32 46.6667 534.714 46.3182L528.76 45.0682C525.411 44.3712 522.934 43.197 521.328 41.5455C519.722 39.8788 518.926 37.7727 518.942 35.2273C518.926 33.0758 519.51 31.2121 520.692 29.6364C521.889 28.0455 523.548 26.8182 525.669 25.9545C527.805 25.0758 530.267 24.6364 533.055 24.6364C537.146 24.6364 540.366 25.5076 542.714 27.25C545.078 28.9924 546.54 31.3485 547.101 34.3182Z" fill="white"/>
</svg>
