<svg width="64" height="72" viewBox="0 0 64 72" fill="none" xmlns="http://www.w3.org/2000/svg">
<path d="M31.755 24.0049C33.4259 24.0049 34.8013 23.1362 34.987 22.0138L36.6366 3.35777C36.6366 1.51379 34.4764 0 31.7604 0C29.047 0 26.8888 1.51379 26.8888 3.35809L28.5374 22.0138C28.7188 23.1359 30.0941 24.0049 31.7607 24.0049H31.755ZM21.6721 29.8321C22.5102 28.3869 22.447 26.7626 21.5636 26.041L6.22932 15.2843C4.63498 14.361 2.24447 15.4724 0.887786 17.8253C-0.473559 20.1752 -0.232249 22.7997 1.35776 23.7233L18.3373 31.6291C19.3988 32.0226 20.846 31.2653 21.6774 29.8211L21.6721 29.8321ZM41.847 29.8221C42.6838 31.2663 44.1236 32.0239 45.1861 31.6301L62.1656 23.7244C63.7656 22.801 63.993 20.1762 62.6443 17.8263C61.2809 15.4757 58.8861 14.362 57.2961 15.2853L41.9608 26.042C41.0841 26.7626 41.0188 28.3882 41.8523 29.8331L41.847 29.8221ZM31.755 47.3092C33.4259 47.3092 34.8013 48.1706 34.987 49.294L36.6366 67.9474C36.6366 69.7971 34.4764 71.3075 31.7604 71.3075C29.047 71.3075 26.8888 69.7971 26.8888 67.9474L28.5374 49.294C28.7188 48.1706 30.0941 47.3092 31.7607 47.3092H31.755ZM41.847 41.4807C42.6838 40.0325 44.1236 39.2816 45.1861 39.6797L62.1656 47.5802C63.7656 48.5045 63.993 51.1317 62.6443 53.4836C61.2809 55.8265 58.8861 56.9432 57.2961 56.0212L41.9608 45.2745C41.0841 44.5483 41.0188 42.9216 41.8523 41.4778H41.8456M21.6721 41.4788C22.5102 42.9216 22.447 44.5483 21.5636 45.2759L6.22932 56.0222C4.63498 56.9442 2.24447 55.8275 0.887786 53.4845C-0.473559 51.1326 -0.232249 48.5055 1.35776 47.5812L18.3373 39.6807C19.3988 39.2826 20.846 40.0335 21.6774 41.4821H21.6721" fill="white"/>
</svg>
