<svg width="66" height="66" viewBox="0 0 66 66" fill="none" xmlns="http://www.w3.org/2000/svg">
<path fill-rule="evenodd" clip-rule="evenodd" d="M38.1185 22.8874C36.4459 21.9222 34.514 21.4038 32.5822 21.4038C30.6503 21.4038 28.7185 21.9222 27.0458 22.8874C25.364 23.8623 23.9663 25.26 22.9914 26.9418C22.0229 28.6265 21.5115 30.535 21.5078 32.4782C21.5078 34.4117 22.0262 36.3435 22.9914 38.0162C23.9581 39.6888 25.3715 41.1039 27.0458 42.069C28.7201 43.0341 30.6503 43.5525 32.5822 43.5525C34.514 43.5525 36.4459 43.0357 38.1185 42.069C39.7912 41.1023 41.2063 39.6888 42.173 38.0162C43.1417 36.331 43.6531 34.4219 43.6565 32.4782C43.6565 30.5463 43.1397 28.6145 42.173 26.9418C41.198 25.26 39.8003 23.8623 38.1185 22.8874Z" fill="white"/>
<path fill-rule="evenodd" clip-rule="evenodd" d="M60.662 16.2537C57.827 11.3417 53.6747 7.18945 48.7644 4.35442C43.854 1.5194 38.1807 0 32.509 0C26.8374 0 21.1673 1.5194 16.2553 4.35442C11.3191 7.21532 7.21696 11.3175 4.35606 16.2537C1.5194 21.1657 0 26.8373 0 32.509C0 38.1807 1.5194 43.8524 4.35606 48.7644C7.21599 53.7013 11.3184 57.8037 16.2553 60.6636C21.2003 63.509 26.8038 65.0108 32.509 65.0197C38.1807 65.0197 43.8524 63.5003 48.7644 60.6636C53.6763 57.8286 57.827 53.6763 60.662 48.7644C63.497 43.8524 65.0164 38.1807 65.0164 32.509C65.0164 26.8373 63.497 21.164 60.662 16.2537ZM51.1364 43.259C49.251 46.5138 46.5464 49.2184 43.2916 51.1038C40.0305 52.9788 36.3359 53.9684 32.5742 53.9747C28.8361 53.9747 25.0979 52.9737 21.8585 51.1038C18.6208 49.2339 15.8836 46.4967 14.0137 43.259C12.1438 40.0213 11.1428 36.2815 11.1428 32.5433C11.1428 28.8034 12.1438 25.0636 14.0137 21.8259C15.8836 18.5882 18.6208 15.8494 21.8585 13.9811C25.1188 12.1056 28.813 11.1159 32.5742 11.1102C36.3141 11.1102 40.0522 12.1112 43.2916 13.9811C46.5461 15.867 49.2505 18.5715 51.1364 21.8259C53.0126 25.0866 54.0029 28.7814 54.0089 32.5433C54.0019 36.3045 53.0117 39.9985 51.1364 43.259Z" fill="white"/>
</svg>
