<svg width="101" height="61" viewBox="0 0 101 61" fill="none" xmlns="http://www.w3.org/2000/svg">
<path fill-rule="evenodd" clip-rule="evenodd" d="M91.2805 0.269836H9.3426C4.15716 0.269836 -0.0405584 4.5087 0.000295699 9.65298V40.9302C0.000295699 46.1155 4.19832 50.3133 9.38375 50.3133H48.192L65.9297 60.1902L61.8965 50.3133H91.2805C96.4661 50.3133 100.664 46.1155 100.664 40.9302V9.65298C100.664 4.46755 96.4661 0.269836 91.2805 0.269836ZM7.6143 7.51295C6.46198 7.59527 5.59772 8.00682 5.02157 8.78873C4.44542 9.52951 4.23966 10.476 4.36311 11.5461C6.79121 26.979 9.05468 37.3909 11.1535 42.7821C11.9766 44.7574 12.9232 45.7041 14.0344 45.6218C15.7628 45.4982 17.8205 43.1114 20.2486 38.461C21.5244 35.8269 23.4998 31.8763 26.1748 26.6084C28.397 34.3865 31.4424 40.2306 35.2699 44.1402C36.34 45.2513 37.4511 45.7452 38.521 45.6629C39.4677 45.5805 40.2083 45.0867 40.7022 44.1812C41.1137 43.3993 41.2784 42.4939 41.1961 41.4651C40.9491 37.7201 41.3197 32.4936 42.3485 25.7854C43.4183 18.8715 44.7353 13.8918 46.3403 10.9288C46.6696 10.3114 46.7929 9.69411 46.7519 8.95336C46.6696 8.00679 46.258 7.22488 45.4762 6.60757C44.6943 5.99026 43.8299 5.70219 42.8834 5.78448C41.6899 5.86679 40.7845 6.44294 40.1673 7.59527C37.6158 12.2457 35.8048 19.7769 34.735 30.23C33.171 26.2793 31.854 21.6288 30.8252 16.1553C30.3726 13.7272 29.2615 12.5749 27.4505 12.6984C26.216 12.7807 25.1871 13.6038 24.364 15.1676L15.3513 32.3289C13.8697 26.3616 12.4705 19.0773 11.1947 10.476C10.9066 8.33605 9.71314 7.34832 7.6143 7.51295ZM86.9183 10.4762C89.8404 11.0935 92.0216 12.6574 93.503 15.2501C94.82 17.4724 95.4783 20.1474 95.4783 23.3574C95.4783 27.5962 94.4084 31.4648 92.2683 35.004C89.7991 39.1195 86.5891 41.1771 82.5972 41.1771C81.8977 41.1771 81.1568 41.0948 80.3747 40.9302C77.4529 40.3129 75.2717 38.7492 73.7901 36.1564C72.4733 33.8929 71.8148 31.1768 71.8148 28.0078C71.8148 23.769 72.8849 19.9005 75.0248 16.4024C77.5352 12.287 80.7453 10.2293 84.6961 10.2293C85.3956 10.2293 86.1365 10.3116 86.9183 10.4762ZM85.19 32.7405C86.7127 31.3824 87.7415 29.3659 88.3177 26.6497C88.4823 25.7032 88.6057 24.6744 88.6057 23.6044C88.6057 22.4109 88.3587 21.1351 87.8648 19.8593C87.2476 18.2543 86.4244 17.3901 85.4367 17.1843C83.9553 16.8962 82.5149 17.7193 81.1568 19.7359C80.0457 21.2997 79.3459 22.9459 78.9756 24.6332C78.7697 25.5798 78.6874 26.6087 78.6874 27.6375C78.6874 28.8309 78.9343 30.1067 79.4282 31.3824C80.0457 32.9874 80.8686 33.8516 81.8564 34.0575C82.8852 34.2632 83.9963 33.8106 85.19 32.7405ZM67.6993 15.2501C66.2176 12.6574 63.9954 11.0935 61.1146 10.4762C60.3325 10.3116 59.5919 10.2293 58.8921 10.2293C54.9416 10.2293 51.7315 12.287 49.2211 16.4024C47.0809 19.9005 46.0111 23.769 46.0111 28.0078C46.0111 31.1768 46.6696 33.8929 47.9864 36.1564C49.468 38.7492 51.6492 40.3129 54.571 40.9302C55.3529 41.0948 56.0937 41.1771 56.7935 41.1771C60.7854 41.1771 63.9954 39.1195 66.4646 35.004C68.6048 31.4648 69.6746 27.5962 69.6746 23.3574C69.6746 20.1474 69.0161 17.4724 67.6993 15.2501ZM62.5137 26.6497C61.9378 29.3659 60.9087 31.3824 59.386 32.7405C58.1926 33.8106 57.0815 34.2632 56.0527 34.0575C55.0649 33.8516 54.2418 32.9874 53.6245 31.3824C53.1306 30.1067 52.8837 28.8309 52.8837 27.6375C52.8837 26.6087 52.966 25.5798 53.1719 24.6332C53.5422 22.9459 54.2418 21.2997 55.3529 19.7359C56.7112 17.7193 58.1516 16.8962 59.633 17.1843C60.6208 17.3901 61.4439 18.2543 62.0611 19.8593C62.555 21.1351 62.802 22.4109 62.802 23.6044C62.802 24.6744 62.7196 25.7032 62.5137 26.6497Z" fill="white"/>
</svg>
