<svg width="316" height="74" viewBox="0 0 316 74" fill="none" xmlns="http://www.w3.org/2000/svg">
<g clip-path="url(#clip0_643_11448)">
<path d="M246.752 29.1995C242.777 29.1995 239.482 30.6131 237.129 33.2307L237.6 30.8748C237.756 30.1419 237.233 29.5136 236.501 29.5136C235.769 29.5136 234.984 30.1419 234.88 30.8748L227.976 66.7364C227.819 67.4693 228.342 68.0975 229.074 68.0975C229.807 68.0975 230.591 67.4693 230.696 66.7364L233.258 53.3865C234.2 55.1141 236.397 57.4176 241.313 57.4176C245.183 57.4176 248.374 56.2135 250.884 53.91C253.499 51.5018 255.277 47.8894 256.167 43.23C257.056 38.5706 256.69 35.0107 255.016 32.6024C253.395 30.3513 250.623 29.1995 246.752 29.1995ZM241.784 54.957C235.926 54.957 233.625 50.9259 235.089 43.2824C236.553 35.5865 240.267 31.6601 246.072 31.6601C252.453 31.6601 254.807 35.4818 253.29 43.2824C251.773 51.2923 248.112 54.957 241.784 54.957ZM306.324 41.8165C302.872 40.5077 299.577 39.3036 300.204 36.0577C300.518 34.4348 301.826 31.7124 307.16 31.7124C310.142 31.7124 312.024 32.5501 313.646 34.5918C313.96 34.9583 314.326 34.9583 314.43 34.9583C315.163 34.906 315.79 34.3824 315.947 33.7019C315.999 33.3877 315.947 33.0736 315.79 32.8119V32.7595C314.117 30.4036 311.397 29.1995 307.631 29.1995C302.192 29.1995 298.269 31.8172 297.485 36.0577C296.491 41.1359 300.989 42.8112 304.964 44.3294C308.363 45.6383 311.606 46.8424 311.031 49.9312C310.194 54.3288 305.591 54.957 302.924 54.957C299.263 54.957 297.014 53.9623 295.34 51.6065C295.131 51.3447 294.87 51.24 294.556 51.24C293.824 51.2923 293.196 51.8159 293.039 52.4965C292.987 52.8106 293.039 53.1247 293.196 53.3865C294.294 55.4282 297.589 57.5223 302.453 57.5223C308.625 57.5223 312.861 54.6953 313.75 49.9835C314.692 44.9053 310.246 43.23 306.324 41.8165ZM298.06 22.0796H295.183L295.759 19.2002C295.916 18.4672 295.393 17.839 294.66 17.839C293.928 17.839 293.196 18.4672 293.039 19.2002L292.464 22.0796H289.587C288.855 22.0796 288.123 22.7078 287.966 23.4407C287.809 24.1737 288.332 24.8019 289.064 24.8019H291.941L291.365 27.6813C291.208 28.4142 291.731 29.0425 292.464 29.0425C293.196 29.0425 293.928 28.4142 294.085 27.6813L294.66 24.8019H297.537C298.269 24.8019 299.001 24.1737 299.158 23.4407C299.315 22.8649 298.949 22.2366 298.321 22.0796C298.269 22.1319 298.165 22.0796 298.06 22.0796ZM68.6659 49.9312C70.078 50.6641 72.5885 51.6588 74.9944 51.6065C77.191 51.6065 78.3416 50.4023 78.3416 48.9888C78.3416 47.5753 77.5048 46.633 75.1513 45.2718C72.2224 43.5965 70.0257 41.2406 70.0257 38.1518C70.0257 32.7072 74.6805 28.833 81.4797 28.833C84.4609 28.833 86.7622 29.4089 88.0174 30.1419L86.2392 35.6389C84.7224 34.9583 83.1011 34.5918 81.4274 34.5918C79.2308 34.5918 77.8186 35.5866 77.8186 37.1571C77.8186 38.4136 78.8124 39.3036 80.7998 40.3506C83.8333 42.0783 86.3438 44.4341 86.3438 47.7847C86.3438 53.9623 81.3228 57.47 74.3667 57.4176C71.1764 57.3652 68.1952 56.5276 66.7307 55.4806C66.783 55.4806 68.6659 49.9312 68.6659 49.9312ZM87.9128 57.2082L95.4442 17.839H103.185L100.204 33.0736L100.308 32.9689C102.4 30.5083 105.068 28.7807 108.52 28.7807C112.547 28.7807 114.848 31.3983 114.848 35.7436C114.848 37.1048 114.639 39.2512 114.273 40.9789L111.239 57.1558H103.499L106.428 41.45C106.637 40.403 106.741 38.9895 106.741 37.9424C106.741 36.2671 106.061 35.0107 104.335 35.0107C101.877 35.0107 99.2099 38.3089 98.2162 43.4395L95.6534 57.1558L87.9128 57.2082ZM142.882 39.6177C142.882 49.2506 136.71 57.4176 127.557 57.4176C120.601 57.4176 116.888 52.6012 116.888 46.5806C116.888 37.2095 123.059 28.7807 132.369 28.7807C139.639 28.7807 142.882 34.0683 142.882 39.6177ZM124.838 46.4235C124.838 49.2506 125.936 51.5018 128.603 51.5018C132.683 51.5018 134.984 44.1724 134.984 39.4083C134.984 37.1048 134.095 34.7489 131.323 34.7489C127.139 34.6966 124.838 41.9736 124.838 46.4235ZM141.051 68.1499L146.438 39.7748C147.066 36.5813 147.693 32.4454 148.007 29.5136H154.859L154.388 33.9113H154.493C156.585 30.9795 159.618 29.0425 162.704 29.0425C168.352 29.0425 170.654 33.5971 170.654 38.7801C170.654 48.2035 164.691 57.5223 155.591 57.5223C153.708 57.5223 151.93 57.2082 151.041 56.4753H150.884L148.739 68.1499H141.051ZM152.087 50.4547C152.924 51.1353 153.865 51.5541 155.277 51.5541C159.618 51.5541 162.599 44.4341 162.599 39.4083C162.599 37.3142 161.867 35.1154 159.513 35.1154C156.794 35.1154 154.283 38.3089 153.394 43.1777L152.087 50.4547ZM170.915 57.2082L176.145 29.5136H183.938L178.656 57.2082H170.915ZM180.957 26.6342C178.76 26.6342 177.296 24.7496 177.296 22.446C177.296 19.9331 179.283 17.7867 181.742 17.7867C184.095 17.7867 185.612 19.619 185.612 21.8702C185.56 24.7495 183.468 26.5819 181.062 26.5819C181.062 26.6342 180.957 26.6342 180.957 26.6342ZM185.403 57.2082L189.482 35.3248H185.873L186.972 29.5136H190.581L190.79 28.1001C191.417 24.8542 192.62 21.5037 195.288 19.3049C197.38 17.5249 200.099 16.6872 202.871 16.6872C204.754 16.6872 206.166 16.949 207.055 17.3678L205.539 23.4407C204.754 23.179 203.917 23.0219 203.081 23.0219C200.518 23.0219 198.949 25.4825 198.478 28.1525L198.217 29.566H203.604L202.558 35.3771H197.223L193.143 57.2605L185.403 57.2082ZM213.279 29.5136L214.535 41.9212C214.796 44.12 215.005 46.2665 215.215 48.4653H215.319C215.947 46.9994 216.522 44.853 217.62 41.8689L222.328 29.5136H230.434L220.968 49.7741C217.62 56.737 214.325 61.8152 210.821 65.1134C208.049 67.6787 204.807 68.9875 203.237 69.3017L201.093 62.7052C202.401 62.234 204.022 61.5535 205.486 60.5064C207.265 59.2499 208.781 57.5747 209.723 55.847C209.932 55.4282 209.984 55.1664 209.88 54.6429L205.225 29.4613C205.12 29.5136 213.279 29.5136 213.279 29.5136ZM291.731 32.1313C290.999 32.1313 290.267 32.7595 290.11 33.4924L287.495 47.1041C286.083 54.0147 281.847 54.957 277.819 54.957C270.654 54.957 270.445 50.8735 271.229 46.8424L274.315 30.8748C274.472 30.1419 273.949 29.5136 273.217 29.5136C272.485 29.5136 271.752 30.1419 271.595 30.8748L268.51 46.8424C267.882 50.0882 268.091 52.4441 269.19 54.1717C270.549 56.3182 273.269 57.4176 277.349 57.4176C281.428 57.4176 284.566 56.3182 286.763 54.1717C288.489 52.4441 289.639 50.0359 290.267 46.8424L292.83 33.4401C292.987 32.7595 292.464 32.1313 291.731 32.1313ZM266.993 17.8913C266.261 17.8913 265.476 18.5196 265.372 19.2525L258.363 55.7423C258.206 56.4753 258.729 57.1035 259.462 57.1035C260.194 57.1035 260.926 56.4753 261.083 55.7423L268.091 19.2525C268.248 18.5196 267.725 17.8913 266.993 17.8913ZM40.2662 12.1326L38.3833 12.7084C38.1741 11.9231 37.8603 11.1902 37.4942 10.4573C36.1344 7.892 34.1992 6.53083 31.8457 6.53083C31.6888 6.53083 31.5319 6.53082 31.375 6.58317C31.3227 6.47846 31.218 6.42611 31.1657 6.32141C30.1197 5.222 28.8122 4.69849 27.2431 4.69849C24.1574 4.80319 21.1239 7.002 18.6657 10.9284C16.9398 13.7031 15.5799 17.1584 15.2138 19.8808L9.19914 21.7654C7.4209 22.3413 7.36859 22.3937 7.15939 24.069C7.00248 25.3254 2.34766 61.2917 2.34766 61.2917L40.8938 67.9405V12.0802C40.58 12.0802 40.4231 12.0802 40.2662 12.1326ZM31.375 14.9073L24.8896 16.949C25.5172 14.5408 26.7201 12.1326 28.1846 10.562C28.7076 9.98609 29.4921 9.30551 30.3812 8.93904C31.218 10.719 31.375 13.1796 31.375 14.9073ZM27.1908 6.79259C27.8185 6.74024 28.4984 6.94965 29.0214 7.26376C28.1323 7.73494 27.3477 8.36317 26.6678 9.09611C24.7327 11.1902 23.2159 14.4361 22.6406 17.5772L17.2536 19.2525C18.3519 14.3314 22.4314 6.94965 27.1908 6.79259ZM21.2285 34.8536C21.4377 38.1518 30.0674 38.8324 30.5381 46.5283C30.9042 52.6012 27.3477 56.737 22.1699 57.0511C15.946 57.47 12.5464 53.8053 12.5464 53.8053L13.854 48.2035C13.854 48.2035 17.3059 50.8212 20.0255 50.6118C21.8038 50.507 22.4837 49.0412 22.3791 47.9941C22.1176 43.7012 15.1092 43.963 14.6385 36.9477C14.2724 31.0319 18.1427 25.0113 26.7201 24.4878C30.0151 24.2784 31.6888 25.116 31.6888 25.116L29.7536 32.4454C29.7536 32.4454 27.557 31.4507 24.9942 31.6077C21.2285 31.8695 21.1762 34.2777 21.2285 34.8536ZM33.4147 14.279C33.4147 12.7084 33.2055 10.562 32.4733 8.67728C34.7745 9.0961 35.9252 11.7661 36.4482 13.3367C36.3959 13.3367 33.4147 14.279 33.4147 14.279ZM41.9921 67.8358L57.9964 63.857C57.9964 63.857 51.0926 17.2631 51.0926 16.949C51.0403 16.6872 50.8311 16.4778 50.5173 16.4255C50.3081 16.4255 45.8101 16.3208 45.8101 16.3208C45.8101 16.3208 43.0905 13.6508 42.0444 12.6561V67.8358H41.9921Z" fill="white"/>
</g>
<defs>
<clipPath id="clip0_643_11448">
<rect width="315.968" height="74" fill="white"/>
</clipPath>
</defs>
</svg>
