<svg width="142" height="74" viewBox="0 0 142 74" fill="none" xmlns="http://www.w3.org/2000/svg">
<rect x="0.261719" y="13.5381" width="126.598" height="60.4838" transform="rotate(-5 0.261719 13.5381)" fill="#51F7E2"/>
<path d="M1.40909 13.4545H10.9318L22.3182 34.0455H22.7727L34.1591 13.4545H43.6818L26.75 42.6364V60H18.3409V42.6364L1.40909 13.4545ZM55.457 60.6818C52.048 60.6818 49.0934 59.9318 46.5934 58.4318C44.0934 56.9318 42.154 54.8333 40.7752 52.1364C39.4116 49.4394 38.7298 46.2879 38.7298 42.6818C38.7298 39.0758 39.4116 35.9167 40.7752 33.2045C42.154 30.4924 44.0934 28.3864 46.5934 26.8864C49.0934 25.3864 52.048 24.6364 55.457 24.6364C58.8661 24.6364 61.8207 25.3864 64.3207 26.8864C66.8207 28.3864 68.7525 30.4924 70.1161 33.2045C71.4949 35.9167 72.1843 39.0758 72.1843 42.6818C72.1843 46.2879 71.4949 49.4394 70.1161 52.1364C68.7525 54.8333 66.8207 56.9318 64.3207 58.4318C61.8207 59.9318 58.8661 60.6818 55.457 60.6818ZM55.5025 54.0909C57.351 54.0909 58.8964 53.5833 60.1389 52.5682C61.3813 51.5379 62.3055 50.1591 62.9116 48.4318C63.5328 46.7045 63.8434 44.7803 63.8434 42.6591C63.8434 40.5227 63.5328 38.5909 62.9116 36.8636C62.3055 35.1212 61.3813 33.7348 60.1389 32.7045C58.8964 31.6742 57.351 31.1591 55.5025 31.1591C53.6086 31.1591 52.0328 31.6742 50.7752 32.7045C49.5328 33.7348 48.601 35.1212 47.9798 36.8636C47.3737 38.5909 47.0707 40.5227 47.0707 42.6591C47.0707 44.7803 47.3737 46.7045 47.9798 48.4318C48.601 50.1591 49.5328 51.5379 50.7752 52.5682C52.0328 53.5833 53.6086 54.0909 55.5025 54.0909ZM98.8573 45.3182V25.0909H107.085V60H99.1073V53.7955H98.7436C97.9558 55.75 96.6603 57.3485 94.8573 58.5909C93.0694 59.8333 90.8648 60.4545 88.2436 60.4545C85.9558 60.4545 83.933 59.947 82.1755 58.9318C80.433 57.9015 79.0694 56.4091 78.0845 54.4545C77.0997 52.4848 76.6073 50.1061 76.6073 47.3182V25.0909H84.8345V46.0455C84.8345 48.2576 85.4406 50.0152 86.6527 51.3182C87.8648 52.6212 89.4558 53.2727 91.4255 53.2727C92.6376 53.2727 93.8118 52.9773 94.9482 52.3864C96.0845 51.7955 97.0164 50.9167 97.7436 49.75C98.4861 48.5682 98.8573 47.0909 98.8573 45.3182ZM118.053 60.5C116.674 60.5 115.492 60.0152 114.507 59.0455C113.523 58.0758 113.038 56.8939 113.053 55.5C113.038 54.1364 113.523 52.9697 114.507 52C115.492 51.0303 116.674 50.5455 118.053 50.5455C119.386 50.5455 120.545 51.0303 121.53 52C122.53 52.9697 123.038 54.1364 123.053 55.5C123.038 56.4242 122.795 57.2652 122.326 58.0227C121.871 58.7803 121.265 59.3864 120.507 59.8409C119.765 60.2803 118.947 60.5 118.053 60.5Z" fill="#181A4E"/>
</svg>
