<svg width="215" height="63" viewBox="0 0 215 63" fill="none" xmlns="http://www.w3.org/2000/svg">
<path d="M74.027 46.0488L74.5636 54.4877H74.698C74.9761 53.6254 75.284 52.7252 75.7149 51.8812L78.6345 46.0488H83.3764L84.0923 54.4877H84.229C84.476 53.6609 84.7541 52.7974 85.1333 51.9923L87.9816 46.0488H94.4172L85.7146 60.1884H80.319L79.8433 52.4996H79.6399C79.4331 53.2326 79.2515 53.9437 78.9149 54.6377L76.1412 60.1884H70.8788L67.6133 46.0488H74.027Z" fill="white"/>
<path d="M93.9662 46.0488H99.9272L99.0207 50.8116H102.814L103.721 46.0488H109.682L106.987 60.1884H101.026L101.961 55.2756H98.1658L97.2305 60.1884H91.2695L93.9662 46.0488Z" fill="white"/>
<path d="M127.142 53.1558C126.276 57.6942 121.533 60.4129 116.343 60.4129C111.149 60.4129 107.443 57.6931 108.309 53.1558C109.157 48.7114 113.953 45.8232 119.124 45.8232C124.294 45.8232 127.987 48.7114 127.142 53.1558ZM114.528 53.2303C114.219 54.8427 115.318 55.9501 117.192 55.9501C119.068 55.9501 120.588 54.8427 120.897 53.2303C121.182 51.7289 120.203 50.475 118.239 50.475C116.271 50.475 114.813 51.7301 114.528 53.2303ZM128.497 46.0488H134.685L132.853 55.6501H138.048L137.182 60.1873H125.801L128.497 46.0488ZM152.685 55.1244L152.961 55.3328C153.931 56.044 155.152 56.6269 156.576 56.6269C157.186 56.6269 158.196 56.4185 158.317 55.7829C158.439 55.1473 157.637 55.0901 157.093 54.995L155.885 54.8072C153.535 54.4499 151.731 53.2681 152.151 51.0579C152.793 47.7013 156.829 45.8255 160.533 45.8255C162.475 45.8255 164.187 46.2217 165.694 47.0635L163.333 50.6834C162.386 50.0845 161.278 49.6138 159.946 49.6138C159.404 49.6138 158.581 49.781 158.473 50.3616C158.371 50.8861 159.124 50.9617 159.581 51.0556L160.933 51.3178C163.457 51.808 165.133 52.968 164.678 55.3683C164.033 58.7443 160.011 60.4129 156.33 60.4129C154.187 60.4129 151.795 59.925 150.03 59.1188L152.685 55.1244Z" fill="white"/>
<path d="M173.942 55.0683L173.695 52.5741C173.629 51.974 173.633 51.3556 173.637 50.7544H173.41L171.461 55.0683H173.942ZM168.556 60.1884H162.008L170.621 46.0488H177.462L180.84 60.1884H174.292L174.064 58.426H169.391L168.556 60.1884Z" fill="white"/>
<path d="M183.02 46.0488H189.207L187.376 55.6501H192.57L191.704 60.1873H180.324L183.02 46.0488ZM195.548 46.0488H206.999L206.262 49.9127H201.044L200.786 51.2629H205.549L204.85 54.9389H200.086L199.823 56.3257H205.221L204.482 60.1884H192.853L195.548 46.0488Z" fill="white"/>
<path d="M111.602 20.6369L119.414 20.3449L112.859 41.8744H126.876L133.429 20.3449L141.065 20.6369L144.175 10.415H114.711L111.602 20.6369ZM82.5795 26.2266C80.6193 36.3202 69.8807 42.3725 58.1149 42.3725C46.3515 42.3725 37.9592 36.3225 39.9194 26.2266C41.8382 16.3368 52.702 9.91455 64.4161 9.91455C76.129 9.91455 84.4994 16.3391 82.5795 26.2266ZM54.0038 26.3938C53.3087 29.9816 55.7986 32.4438 60.043 32.4438C64.2874 32.4438 67.7321 29.9828 68.4295 26.3938C69.0764 23.0567 66.8566 20.2624 62.4065 20.2624C57.9552 20.2602 54.6518 23.0567 54.0038 26.3938Z" fill="white"/>
<path d="M78.2235 39.4938C82.2232 41.2848 87.6396 42.3728 92.4999 42.3728C100.837 42.3728 109.946 38.6601 111.404 31.1499C112.44 25.8099 108.647 23.223 102.922 22.1385L99.865 21.5544C98.8309 21.3437 97.1235 21.1788 97.3498 20.0084C97.6014 18.7155 99.4651 18.3388 100.693 18.3388C103.71 18.3388 106.22 19.382 108.364 20.7173L113.712 12.6655C110.289 10.7886 106.419 9.9148 102.019 9.9148C93.6305 9.9148 84.4821 14.0867 83.0344 21.5544C82.0784 26.4776 86.1712 29.1058 91.4899 29.8983L94.2234 30.314C95.462 30.5258 97.2797 30.6484 97.004 32.0661C96.7282 33.4838 94.4405 33.943 93.0571 33.943C89.8331 33.943 87.0674 32.6501 84.8694 31.0652L84.2431 30.606L78.2235 39.4938ZM171.459 11.2077C168.656 10.3729 165.469 9.9148 162.296 9.9148C150.992 9.9148 140.719 17.2577 138.937 26.4364C137.194 35.4066 144.437 42.3739 155.434 42.3739C157.94 42.3739 163.229 41.9983 165.653 41.1222L168.347 29.3577C165.745 31.1511 162.972 32.278 159.749 32.278C155.556 32.278 152.441 29.6074 153.114 26.1466C153.778 22.7248 157.734 20.0142 161.927 20.0142C165.098 20.0142 167.627 21.4743 169.548 23.1875L171.459 11.2077ZM193.902 9.9148C182.19 9.9148 171.326 16.337 169.405 26.2257C167.446 36.3205 175.838 42.3728 187.604 42.3728C199.366 42.3728 210.108 36.3228 212.066 26.2257C213.983 16.3393 205.613 9.9148 193.902 9.9148ZM191.893 20.2604C196.343 20.2604 198.565 23.0535 197.914 26.3917C197.219 29.9796 193.773 32.4417 189.527 32.4417C185.282 32.4417 182.793 29.9807 183.489 26.3917C184.137 23.0569 187.443 20.2604 191.893 20.2604ZM43.5317 4.14767C40.033 3.13877 36.0632 2.58447 32.1072 2.58447C18.0078 2.58447 5.19302 11.4597 2.972 22.5542C0.801537 33.3968 9.83269 41.8162 23.5483 41.8162C26.6747 41.8162 33.2746 41.3627 36.293 40.3057L39.6504 26.0825C36.4102 28.2526 32.9472 29.6142 28.9279 29.6142C23.6965 29.6142 19.8129 26.386 20.6517 22.1981C21.4801 18.0639 26.4116 14.7841 31.6407 14.7841C35.5944 14.7841 38.7507 16.55 41.1441 18.617L43.5317 4.14767Z" fill="white"/>
<path d="M203.44 40.3448C203.651 39.2454 204.879 38.3613 206.216 38.3613C207.542 38.3613 208.443 39.2466 208.234 40.3448C208.02 41.4499 206.786 42.334 205.458 42.334C204.122 42.334 203.232 41.4465 203.44 40.3448ZM207.608 40.3448C207.775 39.4607 207.14 38.8801 206.115 38.8801C205.074 38.8801 204.232 39.4607 204.066 40.3448C203.899 41.2289 204.516 41.8152 205.558 41.8152C206.583 41.8152 207.44 41.23 207.608 40.3448ZM206.755 41.3823H206.136L205.745 40.5017H205.341L205.173 41.3823H204.647L205.043 39.3038H206.258C206.794 39.3038 207.084 39.4515 206.992 39.9405C206.922 40.2967 206.641 40.4799 206.319 40.5051L206.755 41.3823ZM205.988 40.1043C206.251 40.1043 206.477 40.1043 206.521 39.8833C206.555 39.7001 206.328 39.7001 206.065 39.7001H205.495L205.42 40.1043H205.988Z" fill="white"/>
<path d="M3.95117 60.2113H69.5511L69.5465 60.1884H69.4913L68.6641 56.5925H3.95117V60.2113ZM3.95117 55.0717H68.3113L67.4737 51.4541H3.95117V55.0717ZM3.95117 49.9104H67.0968L66.8142 48.5923L66.2328 46.0763H3.95117V49.9104ZM141.028 46.0488H152.477L151.739 49.9127H146.524L146.265 51.2629H151.029L150.33 54.9389H145.567L145.302 56.3257H150.699L149.963 60.1884H138.331L141.028 46.0488Z" fill="white"/>
</svg>
