<svg width="12" height="8" viewBox="0 0 12 8" fill="none" xmlns="http://www.w3.org/2000/svg">
<path d="M5.99995 4.69998L9.89995 0.799976C10.0833 0.616642 10.3166 0.524975 10.6 0.524975C10.8833 0.524975 11.1166 0.616642 11.3 0.799975C11.4833 0.983309 11.575 1.21664 11.575 1.49998C11.575 1.78331 11.4833 2.01664 11.3 2.19998L6.69995 6.79998C6.49995 6.99998 6.26662 7.09998 5.99995 7.09998C5.73328 7.09998 5.49995 6.99998 5.29995 6.79998L0.699951 2.19998C0.516617 2.01664 0.42495 1.78331 0.42495 1.49998C0.42495 1.21664 0.516617 0.98331 0.699951 0.799976C0.883284 0.616643 1.11662 0.524976 1.39995 0.524976C1.68328 0.524976 1.91662 0.616643 2.09995 0.799976L5.99995 4.69998Z" fill="#71717A"/>
</svg>
