<svg width="109" height="40" viewBox="0 0 109 40" fill="none" xmlns="http://www.w3.org/2000/svg">
<path d="M62.9097 9.3519C63.4391 9.61658 63.7399 10.0256 63.8121 10.5791C63.9083 11.1325 63.776 11.6378 63.4151 12.095C63.1504 12.4559 62.8015 12.6604 62.3684 12.7085C61.9593 12.7567 61.5503 12.6724 61.1412 12.4559C60.4434 12.095 59.7095 11.8062 58.9395 11.5897C58.1696 11.3731 57.3515 11.2648 56.4852 11.2648C55.1137 11.2648 53.8745 11.4934 52.7677 11.9506C51.6849 12.3837 50.7465 13.0213 49.9524 13.8635C49.1584 14.6816 48.5448 15.6561 48.1117 16.787C47.7026 17.9179 47.4981 19.1691 47.4981 20.5407C47.4981 22.0566 47.7267 23.404 48.1839 24.5831C48.6411 25.738 49.2667 26.7246 50.0607 27.5427C50.8788 28.3367 51.8293 28.9383 52.912 29.3473C54.0189 29.7323 55.21 29.9248 56.4852 29.9248C57.3033 29.9248 58.0974 29.8286 58.8674 29.6361C59.6614 29.4436 60.4073 29.1548 61.1051 28.7698C61.5382 28.5533 61.9593 28.4811 62.3684 28.5533C62.8015 28.6014 63.1504 28.8059 63.4151 29.1669C63.8241 29.6722 63.9685 30.1895 63.8482 30.7188C63.7519 31.2241 63.4511 31.6091 62.9458 31.8738C62.3443 32.2107 61.6826 32.4994 60.9607 32.74C60.2389 32.9807 59.505 33.1732 58.7591 33.3175C58.0132 33.4619 57.2552 33.5341 56.4852 33.5341C54.7528 33.5341 53.1166 33.2453 51.5766 32.6679C50.0366 32.0904 48.6651 31.2482 47.462 30.1414C46.2589 29.0345 45.3085 27.675 44.6107 26.0629C43.937 24.4507 43.6001 22.61 43.6001 20.5407C43.6001 18.6879 43.9129 16.9795 44.5385 15.4155C45.1882 13.8274 46.0905 12.4679 47.2455 11.337C48.4245 10.182 49.796 9.29175 51.3601 8.66614C52.9241 8.01647 54.6325 7.69163 56.4852 7.69163C57.6402 7.69163 58.7591 7.836 59.8419 8.12475C60.9487 8.41349 61.9713 8.82254 62.9097 9.3519Z" fill="white"/>
<path d="M67.1594 33.1732C66.63 33.1732 66.1969 33.0047 65.8601 32.6679C65.5232 32.3069 65.3548 31.8618 65.3548 31.3324V16.0291C65.3548 15.4997 65.5232 15.0666 65.8601 14.7297C66.1969 14.3688 66.63 14.1883 67.1594 14.1883C67.6647 14.1883 68.0858 14.3688 68.4226 14.7297C68.7836 15.0666 68.964 15.4997 68.964 16.0291V20.0715L68.6031 18.5195C68.7956 17.8457 69.0843 17.2201 69.4693 16.6426C69.8784 16.0652 70.3596 15.5599 70.913 15.1268C71.4665 14.6936 72.08 14.3568 72.7538 14.1162C73.4516 13.8755 74.1734 13.7552 74.9193 13.7552C75.545 13.7552 76.0864 13.9237 76.5435 14.2605C77.0007 14.5974 77.2293 15.0185 77.2293 15.5238C77.2293 16.1734 77.0609 16.6547 76.724 16.9675C76.3871 17.2562 76.0142 17.4006 75.6051 17.4006C75.2442 17.4006 74.8953 17.3284 74.5584 17.184C74.2216 17.0156 73.8245 16.9314 73.3674 16.9314C72.8621 16.9314 72.3447 17.0637 71.8154 17.3284C71.286 17.5931 70.8048 17.9901 70.3717 18.5195C69.9385 19.0248 69.5896 19.6263 69.325 20.3241C69.0843 21.0219 68.964 21.8039 68.964 22.6702V31.3324C68.964 31.8618 68.7836 32.3069 68.4226 32.6679C68.0858 33.0047 67.6647 33.1732 67.1594 33.1732Z" fill="white"/>
<path d="M77.156 30.2135C76.9394 29.8767 76.8432 29.4917 76.8672 29.0586C76.8913 28.6014 77.1439 28.2164 77.6252 27.9036C77.9621 27.6871 78.3109 27.6028 78.6719 27.651C79.0569 27.675 79.4178 27.8555 79.7547 28.1924C80.4284 28.9383 81.1743 29.5278 81.9924 29.9609C82.8346 30.394 83.8452 30.6106 85.0242 30.6106C85.5054 30.5865 85.9987 30.5143 86.504 30.394C87.0093 30.2496 87.4424 30.009 87.8034 29.6722C88.1643 29.3112 88.3447 28.7939 88.3447 28.1202C88.3447 27.5186 88.1523 27.0374 87.7673 26.6765C87.3823 26.3155 86.877 26.0268 86.2514 25.8102C85.6258 25.5696 84.952 25.353 84.2302 25.1606C83.4602 24.944 82.6782 24.7034 81.8841 24.4387C81.1142 24.174 80.4164 23.8372 79.7908 23.4281C79.1651 22.995 78.6478 22.4416 78.2388 21.7678C77.8538 21.0941 77.6613 20.264 77.6613 19.2774C77.6613 18.1465 77.9741 17.172 78.5997 16.3539C79.2494 15.5358 80.0795 14.8982 81.0901 14.441C82.1248 13.9838 83.2436 13.7552 84.4467 13.7552C85.1445 13.7552 85.8784 13.8515 86.6484 14.044C87.4184 14.2124 88.1643 14.4891 88.8861 14.8741C89.608 15.2591 90.2336 15.7644 90.763 16.39C91.0036 16.7028 91.1359 17.0758 91.16 17.5089C91.2081 17.942 91.0156 18.327 90.5825 18.6638C90.2938 18.9045 89.9449 19.0127 89.5358 18.9887C89.1268 18.9646 88.7899 18.8323 88.5252 18.5917C88.068 18.0142 87.4785 17.569 86.7567 17.2562C86.0348 16.9194 85.2167 16.7509 84.3024 16.7509C83.8452 16.7509 83.3639 16.8231 82.8586 16.9675C82.3774 17.0878 81.9683 17.3164 81.6315 17.6532C81.2946 17.9901 81.1262 18.4834 81.1262 19.1331C81.1262 19.7346 81.3187 20.2158 81.7037 20.5768C82.1127 20.9377 82.6421 21.2385 83.2918 21.4791C83.9414 21.7197 84.6512 21.9363 85.4212 22.1288C86.1671 22.3213 86.901 22.5498 87.6229 22.8145C88.3688 23.0792 89.0305 23.4281 89.608 23.8612C90.2095 24.2703 90.6908 24.8117 91.0517 25.4854C91.4367 26.1351 91.6292 26.9652 91.6292 27.9758C91.6292 29.1548 91.2803 30.1654 90.5825 31.0076C89.9088 31.8257 89.0425 32.4513 87.9838 32.8844C86.9492 33.3175 85.8543 33.5341 84.6994 33.5341C83.3278 33.5341 81.9563 33.2935 80.5848 32.8122C79.2373 32.3069 78.0944 31.4407 77.156 30.2135Z" fill="white"/>
<path d="M93.0924 14.4049H101.574C102.055 14.4049 102.452 14.5733 102.765 14.9102C103.102 15.223 103.271 15.62 103.271 16.1013C103.271 16.5584 103.102 16.9434 102.765 17.2562C102.452 17.569 102.055 17.7254 101.574 17.7254H93.0924C92.6111 17.7254 92.2021 17.569 91.8652 17.2562C91.5524 16.9194 91.396 16.5223 91.396 16.0652C91.396 15.5839 91.5524 15.1869 91.8652 14.8741C92.2021 14.5613 92.6111 14.4049 93.0924 14.4049ZM96.8821 9.71283C97.4115 9.71283 97.8446 9.89329 98.1814 10.2542C98.5183 10.5911 98.6867 11.0242 98.6867 11.5536V28.3006C98.6867 28.7337 98.7589 29.0826 98.9033 29.3473C99.0477 29.612 99.2402 29.7925 99.4808 29.8887C99.7455 29.985 100.01 30.0331 100.275 30.0331C100.54 30.0331 100.768 29.985 100.961 29.8887C101.177 29.7925 101.43 29.7443 101.719 29.7443C102.007 29.7443 102.272 29.8767 102.513 30.1414C102.753 30.406 102.874 30.767 102.874 31.2241C102.874 31.8016 102.561 32.2708 101.935 32.6318C101.309 32.9927 100.636 33.1732 99.9139 33.1732C99.5048 33.1732 99.0236 33.1371 98.4702 33.0649C97.9168 32.9927 97.3754 32.8122 96.846 32.5235C96.3407 32.2347 95.9196 31.7776 95.5828 31.152C95.2459 30.5023 95.0775 29.6 95.0775 28.445V11.5536C95.0775 11.0242 95.2459 10.5911 95.5828 10.2542C95.9437 9.89329 96.3768 9.71283 96.8821 9.71283Z" fill="white"/>
<path d="M109 31.3324C109 31.8618 108.82 32.3069 108.459 32.6679C108.122 33.0047 107.701 33.1732 107.195 33.1732C106.69 33.1732 106.257 33.0047 105.896 32.6679C105.559 32.3069 105.391 31.8618 105.391 31.3324V8.30521C105.391 7.77585 105.571 7.34274 105.932 7.00587C106.293 6.64494 106.726 6.46448 107.231 6.46448C107.761 6.46448 108.182 6.64494 108.495 7.00587C108.832 7.34274 109 7.77585 109 8.30521V31.3324Z" fill="white"/>
<path d="M18.2072 1.52233C19.3727 0.849384 20.8088 0.849383 21.9744 1.52233L35.5144 9.33967C36.68 10.0126 37.398 11.2563 37.398 12.6022V28.2369C37.398 29.5827 36.68 30.8264 35.5144 31.4993L21.9744 39.3167C20.8088 39.9896 19.3727 39.9896 18.2072 39.3167L4.66713 31.4993C3.50156 30.8264 2.78354 29.5827 2.78354 28.2369V12.6022C2.78354 11.2563 3.50156 10.0126 4.66713 9.33967L18.2072 1.52233Z" fill="url(#paint0_linear_2027_3112)" stroke="#4E63F8" stroke-width="0.183765"/>
<path d="M16.7191 9.9494C16.7191 10.5278 16.2502 10.9967 15.6718 10.9967C15.0934 10.9967 14.6245 10.5278 14.6245 9.9494C14.6245 9.37099 15.0934 8.9021 15.6718 8.9021C16.0054 8.9021 16.3026 9.05807 16.4944 9.30107C16.6351 9.4794 16.7191 9.70459 16.7191 9.9494Z" fill="white"/>
<path d="M21.2574 8.84391C21.2574 9.39019 20.7885 9.83303 20.2101 9.83303C19.6317 9.83303 19.1628 9.39019 19.1628 8.84391C19.1628 8.29764 19.6317 7.8548 20.2101 7.8548C20.5437 7.8548 20.8409 8.0021 21.0327 8.2316C21.1734 8.40002 21.2574 8.6127 21.2574 8.84391Z" fill="white"/>
<ellipse cx="13.2282" cy="12.2186" rx="0.698199" ry="0.640016" fill="white"/>
<circle cx="17.941" cy="8.844" r="0.640016" fill="white"/>
<circle cx="10.7843" cy="18.2114" r="0.814565" fill="white"/>
<ellipse cx="26.2031" cy="18.2114" rx="0.872749" ry="0.814565" fill="white"/>
<ellipse cx="30.8576" cy="18.3278" rx="0.872749" ry="0.814565" fill="white"/>
<circle cx="28.4723" cy="24.0297" r="0.814565" fill="white"/>
<ellipse cx="17.941" cy="18.2114" rx="0.756382" ry="0.814565" fill="white"/>
<circle cx="15.6718" cy="30.0809" r="1.0473" fill="white"/>
<path d="M16.3701 8.2039C16.3701 8.3967 15.3135 8.553 15.1098 8.553C14.9061 8.553 14.741 8.3967 14.741 8.2039C14.741 8.01109 14.9061 7.8548 15.1098 7.8548C15.3135 7.8548 16.3701 8.01109 16.3701 8.2039Z" fill="white"/>
<path d="M13.6936 10.5895C13.6936 10.8144 12.9209 10.9968 12.7404 10.9968C12.5599 10.9968 12.4136 10.8144 12.4136 10.5895C12.4136 10.3645 12.5599 10.1822 12.7404 10.1822C12.9209 10.1822 13.6936 10.3645 13.6936 10.5895Z" fill="white"/>
<path d="M15.4391 11.7985C15.4391 11.9843 15.2567 12.7422 15.0318 12.7422C14.8069 12.7422 14.6245 11.9843 14.6245 11.7985C14.6245 11.6128 14.8069 11.4622 15.0318 11.4622C15.2567 11.4622 15.4391 11.6128 15.4391 11.7985Z" fill="white"/>
<path d="M15.3306 11.8056C15.3306 12 15.173 12.7933 14.9785 12.7933C14.7841 12.7933 14.6265 12 14.6265 11.8056C14.6265 11.6112 14.7841 11.4536 14.9785 11.4536C15.173 11.4536 15.3306 11.6112 15.3306 11.8056Z" fill="white"/>
<path d="M15.3301 12.979C15.3301 13.1735 15.1725 13.3311 14.978 13.3311C14.7836 13.3311 14.626 13.1735 14.626 12.979C14.626 12.7846 14.7836 12.0989 14.978 12.0989C15.1725 12.0989 15.3301 12.7846 15.3301 12.979Z" fill="white"/>
<path d="M10.7927 12.9988C10.7927 13.1932 10.6351 13.9865 10.4407 13.9865C10.2462 13.9865 10.0886 13.1932 10.0886 12.9988C10.0886 12.8044 10.2462 12.6467 10.4407 12.6467C10.6351 12.6467 10.7927 12.8044 10.7927 12.9988Z" fill="white"/>
<path d="M10.7925 14.1723C10.7925 14.3668 10.6349 14.5244 10.4404 14.5244C10.246 14.5244 10.0884 14.3668 10.0884 14.1723C10.0884 13.9779 10.246 13.2922 10.4404 13.2922C10.6349 13.2922 10.7925 13.9779 10.7925 14.1723Z" fill="white"/>
<path d="M23.6035 10.6322C23.6035 10.8266 23.4459 11.6199 23.2515 11.6199C23.057 11.6199 22.8994 10.8266 22.8994 10.6322C22.8994 10.4377 23.057 10.2801 23.2515 10.2801C23.4459 10.2801 23.6035 10.4377 23.6035 10.6322Z" fill="white"/>
<path d="M23.6035 11.8057C23.6035 12.0001 23.4459 12.1577 23.2515 12.1577C23.057 12.1577 22.8994 12.0001 22.8994 11.8057C22.8994 11.6113 23.057 10.9255 23.2515 10.9255C23.4459 10.9255 23.6035 11.6113 23.6035 11.8057Z" fill="white"/>
<path d="M23.6035 9.53694C23.6035 9.73137 23.4459 10.5247 23.2515 10.5247C23.057 10.5247 22.8994 9.73137 22.8994 9.53694C22.8994 9.3425 23.057 9.18488 23.2515 9.18488C23.4459 9.18488 23.6035 9.3425 23.6035 9.53694Z" fill="white"/>
<path d="M23.6035 10.7105C23.6035 10.9049 23.4459 11.0625 23.2515 11.0625C23.057 11.0625 22.8994 10.9049 22.8994 10.7105C22.8994 10.516 23.057 9.83032 23.2515 9.83032C23.4459 9.83032 23.6035 10.516 23.6035 10.7105Z" fill="white"/>
<path d="M19.9851 18.9447C19.9851 19.1391 19.8275 19.9324 19.6331 19.9324C19.4386 19.9324 19.281 19.1391 19.281 18.9447C19.281 18.7503 19.4386 18.5927 19.6331 18.5927C19.8275 18.5927 19.9851 18.7503 19.9851 18.9447Z" fill="white"/>
<path d="M19.9851 20.1182C19.9851 20.3127 19.8275 20.4703 19.6331 20.4703C19.4386 20.4703 19.281 20.3127 19.281 20.1182C19.281 19.9238 19.4386 19.2381 19.6331 19.2381C19.8275 19.2381 19.9851 19.9238 19.9851 20.1182Z" fill="white"/>
<path d="M24.7383 10.6322C24.7383 10.8266 24.5807 11.6199 24.3862 11.6199C24.1918 11.6199 24.0342 10.8266 24.0342 10.6322C24.0342 10.4377 24.1918 10.2801 24.3862 10.2801C24.5807 10.2801 24.7383 10.4377 24.7383 10.6322Z" fill="white"/>
<path d="M24.7381 11.8057C24.7381 12.0001 24.5804 12.1577 24.386 12.1577C24.1916 12.1577 24.0339 12.0001 24.0339 11.8057C24.0339 11.6113 24.1916 10.9255 24.386 10.9255C24.5804 10.9255 24.7381 11.6113 24.7381 11.8057Z" fill="white"/>
<path d="M21.1199 18.9447C21.1199 19.1391 20.9623 19.9324 20.7678 19.9324C20.5734 19.9324 20.4158 19.1391 20.4158 18.9447C20.4158 18.7503 20.5734 18.5927 20.7678 18.5927C20.9623 18.5927 21.1199 18.7503 21.1199 18.9447Z" fill="white"/>
<path d="M21.1196 20.1182C21.1196 20.3127 20.962 20.4703 20.7676 20.4703C20.5732 20.4703 20.4155 20.3127 20.4155 20.1182C20.4155 19.9238 20.5732 19.2381 20.7676 19.2381C20.962 19.2381 21.1196 19.9238 21.1196 20.1182Z" fill="white"/>
<path d="M22.4104 9.53694C22.4104 9.73137 22.2528 10.5247 22.0584 10.5247C21.8639 10.5247 21.7063 9.73137 21.7063 9.53694C21.7063 9.3425 21.8639 9.18488 22.0584 9.18488C22.2528 9.18488 22.4104 9.3425 22.4104 9.53694Z" fill="white"/>
<path d="M22.4104 10.7105C22.4104 10.9049 22.2528 11.0625 22.0584 11.0625C21.8639 11.0625 21.7063 10.9049 21.7063 10.7105C21.7063 10.516 21.8639 9.83032 22.0584 9.83032C22.2528 9.83032 22.4104 10.516 22.4104 10.7105Z" fill="white"/>
<path d="M19.0071 10.6749C19.0071 10.8389 18.8495 11.5083 18.655 11.5083C18.4606 11.5083 18.303 10.8389 18.303 10.6749C18.303 10.5108 18.4606 10.3778 18.655 10.3778C18.8495 10.3778 19.0071 10.5108 19.0071 10.6749Z" fill="white"/>
<path d="M19.0071 11.6651C19.0071 11.8292 18.8495 11.9622 18.655 11.9622C18.4606 11.9622 18.303 11.8292 18.303 11.6651C18.303 11.5011 18.4606 10.9225 18.655 10.9225C18.8495 10.9225 19.0071 11.5011 19.0071 11.6651Z" fill="white"/>
<path d="M16.6028 8.2039C16.6028 8.3967 16.4595 8.553 16.2828 8.553C16.106 8.553 15.3228 8.3967 15.3228 8.2039C15.3228 8.01109 16.106 7.8548 16.2828 7.8548C16.4595 7.8548 16.6028 8.01109 16.6028 8.2039Z" fill="white"/>
<path d="M14.2753 10.5313C14.2753 10.7241 14.1134 10.8804 13.9136 10.8804C13.7139 10.8804 12.8789 10.7241 12.8789 10.5313C12.8789 10.3385 13.7139 10.1822 13.9136 10.1822C14.1134 10.1822 14.2753 10.3385 14.2753 10.5313Z" fill="white"/>
<path d="M14.2753 10.5313C14.2753 10.7241 14.1134 10.8804 13.9136 10.8804C13.7139 10.8804 12.8789 10.7241 12.8789 10.5313C12.8789 10.3385 13.7139 10.1822 13.9136 10.1822C14.1134 10.1822 14.2753 10.3385 14.2753 10.5313Z" fill="white"/>
<circle cx="16.2536" cy="11.8113" r="0.3491" fill="white"/>
<ellipse cx="17.4755" cy="11.8113" rx="0.290916" ry="0.3491" fill="white"/>
<circle cx="22.072" cy="11.8113" r="0.3491" fill="white"/>
<circle cx="27.8901" cy="11.8113" r="0.3491" fill="white"/>
<ellipse cx="25.6212" cy="12.8586" rx="0.290916" ry="0.3491" fill="white"/>
<ellipse cx="25.6212" cy="15.4186" rx="0.290916" ry="0.3491" fill="white"/>
<circle cx="26.785" cy="14.0804" r="0.407283" fill="white"/>
<circle cx="29.0539" cy="11.8113" r="0.3491" fill="white"/>
<circle cx="29.0539" cy="16.5823" r="0.3491" fill="white"/>
<circle cx="28.0068" cy="22.4006" r="0.3491" fill="white"/>
<circle cx="30.2757" cy="25.8335" r="0.407283" fill="white"/>
<ellipse cx="31.4978" cy="25.8335" rx="0.3491" ry="0.407283" fill="white"/>
<ellipse cx="26.785" cy="23.5061" rx="0.407283" ry="0.290916" fill="white"/>
<ellipse cx="26.785" cy="24.6116" rx="0.407283" ry="0.3491" fill="white"/>
<circle cx="26.785" cy="27.1135" r="0.407283" fill="white"/>
<circle cx="26.785" cy="25.8335" r="0.407283" fill="white"/>
<circle cx="26.785" cy="30.6045" r="0.407283" fill="white"/>
<circle cx="28.0068" cy="29.3827" r="0.3491" fill="white"/>
<circle cx="25.6212" cy="23.5061" r="0.290916" fill="white"/>
<circle cx="24.3994" cy="31.71" r="0.3491" fill="white"/>
<ellipse cx="25.6212" cy="28.219" rx="0.290916" ry="0.3491" fill="white"/>
<ellipse cx="25.6212" cy="27.1135" rx="0.290916" ry="0.407283" fill="white"/>
<circle cx="24.3994" cy="28.219" r="0.3491" fill="white"/>
<circle cx="23.2356" cy="29.3827" r="0.3491" fill="white"/>
<circle cx="29.0539" cy="12.8586" r="0.3491" fill="white"/>
<circle cx="30.2757" cy="14.0804" r="0.407283" fill="white"/>
<ellipse cx="30.2757" cy="15.3023" rx="0.407283" ry="0.3491" fill="white"/>
<circle cx="31.7304" cy="15.3023" r="0.3491" fill="white"/>
<circle cx="32.5449" cy="19.9569" r="0.3491" fill="white"/>
<circle cx="32.5449" cy="21.1206" r="0.3491" fill="white"/>
<circle cx="32.5449" cy="22.2843" r="0.3491" fill="white"/>
<circle cx="22.072" cy="8.2039" r="0.3491" fill="white"/>
<circle cx="26.785" cy="10.5895" r="0.407283" fill="white"/>
<ellipse cx="28.0068" cy="10.5895" rx="0.3491" ry="0.407283" fill="white"/>
<ellipse cx="11.4826" cy="11.7531" rx="0.3491" ry="0.290916" fill="white"/>
<ellipse cx="11.4826" cy="14.1968" rx="0.3491" ry="0.407283" fill="white"/>
<circle cx="11.4826" cy="16.6987" r="0.3491" fill="white"/>
<circle cx="12.53" cy="16.5823" r="0.3491" fill="white"/>
<circle cx="12.6462" cy="26.008" r="0.3491" fill="white"/>
<ellipse cx="11.4826" cy="23.5061" rx="0.3491" ry="0.290916" fill="white"/>
<ellipse cx="12.53" cy="23.5061" rx="0.3491" ry="0.290916" fill="white"/>
<circle cx="11.4826" cy="22.4006" r="0.3491" fill="white"/>
<circle cx="7.99168" cy="16.6987" r="0.3491" fill="white"/>
<circle cx="9.15525" cy="26.008" r="0.3491" fill="white"/>
<circle cx="11.4826" cy="28.219" r="0.3491" fill="white"/>
<circle cx="9.15525" cy="24.6116" r="0.3491" fill="white"/>
<ellipse cx="15.1482" cy="18.7933" rx="0.407283" ry="0.3491" fill="white"/>
<ellipse cx="15.1482" cy="17.746" rx="0.407283" ry="0.3491" fill="white"/>
<circle cx="16.2536" cy="16.466" r="0.3491" fill="white"/>
<ellipse cx="18.4646" cy="14.0804" rx="0.3491" ry="0.407283" fill="white"/>
<ellipse cx="22.072" cy="15.3605" rx="0.3491" ry="0.407283" fill="white"/>
<ellipse cx="22.072" cy="14.0804" rx="0.3491" ry="0.407283" fill="white"/>
<ellipse cx="23.2356" cy="15.3605" rx="0.3491" ry="0.407283" fill="white"/>
<circle cx="24.2829" cy="16.466" r="0.3491" fill="white"/>
<circle cx="13.8682" cy="14.0804" r="0.407283" fill="white"/>
<ellipse cx="15.1482" cy="19.9569" rx="0.407283" ry="0.3491" fill="white"/>
<ellipse cx="15.1482" cy="21.1206" rx="0.407283" ry="0.3491" fill="white"/>
<ellipse cx="15.1482" cy="28.219" rx="0.407283" ry="0.3491" fill="white"/>
<circle cx="16.2536" cy="28.219" r="0.3491" fill="white"/>
<ellipse cx="17.359" cy="28.219" rx="0.290916" ry="0.3491" fill="white"/>
<ellipse cx="17.4172" cy="29.3245" rx="0.3491" ry="0.290916" fill="white"/>
<circle cx="16.2536" cy="22.2843" r="0.3491" fill="white"/>
<ellipse cx="15.1482" cy="22.2843" rx="0.407283" ry="0.3491" fill="white"/>
<circle cx="16.2536" cy="23.4479" r="0.3491" fill="white"/>
<circle cx="16.2536" cy="24.6116" r="0.3491" fill="white"/>
<ellipse cx="12.588" cy="24.6116" rx="0.290916" ry="0.3491" fill="white"/>
<ellipse cx="15.1482" cy="23.4479" rx="0.407283" ry="0.3491" fill="white"/>
<circle cx="15.1482" cy="26.9971" r="0.407283" fill="white"/>
<circle cx="13.7518" cy="25.8335" r="0.407283" fill="white"/>
<ellipse cx="17.301" cy="23.5061" rx="0.3491" ry="0.290916" fill="white"/>
<ellipse cx="18.581" cy="25.8335" rx="0.3491" ry="0.407283" fill="white"/>
<ellipse cx="22.072" cy="25.8335" rx="0.3491" ry="0.407283" fill="white"/>
<ellipse cx="23.1774" cy="25.8335" rx="0.290916" ry="0.407283" fill="white"/>
<circle cx="24.2829" cy="19.9569" r="0.3491" fill="white"/>
<circle cx="22.072" cy="22.2843" r="0.3491" fill="white"/>
<circle cx="21.0246" cy="16.466" r="0.3491" fill="white"/>
<path d="M12.9953 15.3543C12.9953 15.5826 12.839 15.7677 12.6462 15.7677C12.4534 15.7677 12.2971 15.5826 12.2971 15.3543C12.2971 15.126 12.4534 14.0222 12.6462 14.0222C12.839 14.0222 12.9953 15.126 12.9953 15.3543Z" fill="white"/>
<path d="M24.3015 18.4442C24.4842 18.4442 24.6322 18.6005 24.6322 18.7933C24.6322 18.9861 24.4842 19.1424 24.3015 19.1424C24.1189 19.1424 23.2358 18.9861 23.2358 18.7933C23.2358 18.6005 24.1189 18.4442 24.3015 18.4442Z" fill="white"/>
<path d="M19.9775 22.2751C19.9775 22.473 19.8212 22.6334 19.6284 22.6334C19.4356 22.6334 19.2793 22.473 19.2793 22.2751C19.2793 22.0772 19.4356 21.1206 19.6284 21.1206C19.8212 21.1206 19.9775 22.0772 19.9775 22.2751Z" fill="white"/>
<path d="M31.8469 22.2751C31.8469 22.473 31.6906 22.6334 31.4978 22.6334C31.305 22.6334 31.1487 22.473 31.1487 22.2751C31.1487 22.0772 31.305 21.1206 31.4978 21.1206C31.6906 21.1206 31.8469 22.0772 31.8469 22.2751Z" fill="white"/>
<path d="M25.5109 22.6334C25.2826 22.6334 25.0975 22.4771 25.0975 22.2843C25.0975 22.0915 25.2826 21.9352 25.5109 21.9352C25.7392 21.9352 26.843 22.0915 26.843 22.2843C26.843 22.4771 25.7392 22.6334 25.5109 22.6334Z" fill="white"/>
<path d="M18.4555 24.2624C18.6534 24.2624 18.8138 24.4187 18.8138 24.6115C18.8138 24.8043 18.6534 24.9606 18.4555 24.9606C18.2576 24.9606 17.301 24.8043 17.301 24.6115C17.301 24.4187 18.2576 24.2624 18.4555 24.2624Z" fill="white"/>
<path d="M9.42336 20.0792C9.42336 20.2736 9.26574 21.2038 9.0713 21.2038C8.87686 21.2038 8.71924 20.2736 8.71924 20.0792C8.71924 19.8847 8.87686 19.7271 9.0713 19.7271C9.26574 19.7271 9.42336 19.8847 9.42336 20.0792Z" fill="white"/>
<path d="M9.42336 21.2137C9.42336 21.4081 9.26574 21.5658 9.0713 21.5658C8.87686 21.5658 8.71924 21.4081 8.71924 21.2137C8.71924 21.0193 8.87686 20.0793 9.0713 20.0793C9.26574 20.0793 9.42336 21.0193 9.42336 21.2137Z" fill="white"/>
<path d="M10.6951 27.0421C10.6951 27.2366 10.5375 28.1668 10.343 28.1668C10.1486 28.1668 9.99097 27.2366 9.99097 27.0421C9.99097 26.8477 10.1486 26.6901 10.343 26.6901C10.5375 26.6901 10.6951 26.8477 10.6951 27.0421Z" fill="white"/>
<path d="M10.6948 28.1765C10.6948 28.3709 10.5372 28.5285 10.3428 28.5285C10.1483 28.5285 9.99072 28.3709 9.99072 28.1765C9.99072 27.982 10.1483 27.0421 10.3428 27.0421C10.5372 27.0421 10.6948 27.982 10.6948 28.1765Z" fill="white"/>
<path d="M8.23024 20.0792C8.23024 20.2736 8.07262 21.2038 7.87818 21.2038C7.68375 21.2038 7.52612 20.2736 7.52612 20.0792C7.52612 19.8847 7.68375 19.7271 7.87818 19.7271C8.07262 19.7271 8.23024 19.8847 8.23024 20.0792Z" fill="white"/>
<path d="M8.23024 21.2137C8.23024 21.4081 8.07262 21.5658 7.87818 21.5658C7.68375 21.5658 7.52612 21.4081 7.52612 21.2137C7.52612 21.0193 7.68375 20.0793 7.87818 20.0793C8.07262 20.0793 8.23024 21.0193 8.23024 21.2137Z" fill="white"/>
<path d="M16.5821 17.5951C16.5821 17.7895 16.4244 18.7197 16.23 18.7197C16.0356 18.7197 15.8779 17.7895 15.8779 17.5951C15.8779 17.4007 16.0356 17.243 16.23 17.243C16.4244 17.243 16.5821 17.4007 16.5821 17.5951Z" fill="white"/>
<path d="M16.5818 18.7294C16.5818 18.9239 16.4242 19.0815 16.2297 19.0815C16.0353 19.0815 15.8777 18.9239 15.8777 18.7294C15.8777 18.535 16.0353 17.595 16.2297 17.595C16.4242 17.595 16.5818 18.535 16.5818 18.7294Z" fill="white"/>
<path d="M16.5821 19.9617C16.5821 20.1562 16.4244 21.0864 16.23 21.0864C16.0356 21.0864 15.8779 20.1562 15.8779 19.9617C15.8779 19.7673 16.0356 19.6097 16.23 19.6097C16.4244 19.6097 16.5821 19.7673 16.5821 19.9617Z" fill="white"/>
<path d="M16.5818 21.0963C16.5818 21.2907 16.4242 21.4483 16.2297 21.4483C16.0353 21.4483 15.8777 21.2907 15.8777 21.0963C15.8777 20.9018 16.0353 19.9619 16.2297 19.9619C16.4242 19.9619 16.5818 20.9018 16.5818 21.0963Z" fill="white"/>
<path d="M17.4033 16.0693C17.5978 16.0693 18.528 16.2269 18.528 16.4213C18.528 16.6158 17.5978 16.7734 17.4033 16.7734C17.2089 16.7734 17.0513 16.6158 17.0513 16.4213C17.0513 16.2269 17.2089 16.0693 17.4033 16.0693Z" fill="white"/>
<path d="M18.5377 16.0696C18.7322 16.0696 18.8898 16.2272 18.8898 16.4217C18.8898 16.6161 18.7322 16.7737 18.5377 16.7737C18.3433 16.7737 17.4033 16.6161 17.4033 16.4217C17.4033 16.2272 18.3433 16.0696 18.5377 16.0696Z" fill="white"/>
<path d="M17.4033 20.7442C17.5978 20.7442 18.528 20.9018 18.528 21.0962C18.528 21.2907 17.5978 21.4483 17.4033 21.4483C17.2089 21.4483 17.0513 21.2907 17.0513 21.0962C17.0513 20.9018 17.2089 20.7442 17.4033 20.7442Z" fill="white"/>
<path d="M18.5377 20.7442C18.7322 20.7442 18.8898 20.9019 18.8898 21.0963C18.8898 21.2907 18.7322 21.4484 18.5377 21.4484C18.3433 21.4484 17.4033 21.2907 17.4033 21.0963C17.4033 20.9019 18.3433 20.7442 18.5377 20.7442Z" fill="white"/>
<path d="M17.4033 19.6291C17.5978 19.6291 18.528 19.7868 18.528 19.9812C18.528 20.1756 17.5978 20.3333 17.4033 20.3333C17.2089 20.3333 17.0513 20.1756 17.0513 19.9812C17.0513 19.7868 17.2089 19.6291 17.4033 19.6291Z" fill="white"/>
<path d="M18.5377 19.6292C18.7322 19.6292 18.8898 19.7868 18.8898 19.9813C18.8898 20.1757 18.7322 20.3333 18.5377 20.3333C18.3433 20.3333 17.4033 20.1757 17.4033 19.9813C17.4033 19.7868 18.3433 19.6292 18.5377 19.6292Z" fill="white"/>
<path d="M15.0955 20.7245C15.2899 20.7245 16.2201 20.8822 16.2201 21.0766C16.2201 21.271 15.2899 21.4286 15.0955 21.4286C14.901 21.4286 14.7434 21.271 14.7434 21.0766C14.7434 20.8822 14.901 20.7245 15.0955 20.7245Z" fill="white"/>
<path d="M16.2299 20.7247C16.4243 20.7247 16.5819 20.8823 16.5819 21.0768C16.5819 21.2712 16.4243 21.4288 16.2299 21.4288C16.0354 21.4288 15.0955 21.2712 15.0955 21.0768C15.0955 20.8823 16.0354 20.7247 16.2299 20.7247Z" fill="white"/>
<path d="M19.7122 19.7662C19.8963 19.7662 20.7771 19.9238 20.7771 20.1182C20.7771 20.3127 19.8963 20.4703 19.7122 20.4703C19.5281 20.4703 19.3789 20.3127 19.3789 20.1182C19.3789 19.9238 19.5281 19.7662 19.7122 19.7662Z" fill="white"/>
<path d="M20.7862 19.7663C20.9703 19.7663 21.1196 19.9239 21.1196 20.1183C21.1196 20.3128 20.9703 20.4704 20.7862 20.4704C20.6021 20.4704 19.7122 20.3128 19.7122 20.1183C19.7122 19.9239 20.6021 19.7663 20.7862 19.7663Z" fill="white"/>
<path d="M19.7122 24.3623C19.8963 24.3623 20.7771 24.52 20.7771 24.7144C20.7771 24.9088 19.8963 25.0665 19.7122 25.0665C19.5281 25.0665 19.3789 24.9088 19.3789 24.7144C19.3789 24.52 19.5281 24.3623 19.7122 24.3623Z" fill="white"/>
<path d="M20.7862 24.3625C20.9703 24.3625 21.1196 24.5201 21.1196 24.7145C21.1196 24.909 20.9703 25.0666 20.7862 25.0666C20.6021 25.0666 19.7122 24.909 19.7122 24.7145C19.7122 24.5201 20.6021 24.3625 20.7862 24.3625Z" fill="white"/>
<path d="M19.7122 25.4576C19.8963 25.4576 20.7771 25.6152 20.7771 25.8096C20.7771 26.0041 19.8963 26.1617 19.7122 26.1617C19.5281 26.1617 19.3789 26.0041 19.3789 25.8096C19.3789 25.6152 19.5281 25.4576 19.7122 25.4576Z" fill="white"/>
<path d="M20.7862 25.4578C20.9703 25.4578 21.1196 25.6154 21.1196 25.8099C21.1196 26.0043 20.9703 26.1619 20.7862 26.1619C20.6021 26.1619 19.7122 26.0043 19.7122 25.8099C19.7122 25.6154 20.6021 25.4578 20.7862 25.4578Z" fill="white"/>
<path d="M24.4649 29.0371C24.649 29.0371 25.5297 29.1947 25.5297 29.3892C25.5297 29.5836 24.649 29.7412 24.4649 29.7412C24.2808 29.7412 24.1316 29.5836 24.1316 29.3892C24.1316 29.1947 24.2808 29.0371 24.4649 29.0371Z" fill="white"/>
<path d="M25.5392 29.0371C25.7233 29.0371 25.8725 29.1947 25.8725 29.3892C25.8725 29.5836 25.7233 29.7412 25.5392 29.7412C25.3551 29.7412 24.4651 29.5836 24.4651 29.3892C24.4651 29.1947 25.3551 29.0371 25.5392 29.0371Z" fill="white"/>
<path d="M24.4649 30.2495C24.649 30.2495 25.5297 30.4071 25.5297 30.6016C25.5297 30.796 24.649 30.9536 24.4649 30.9536C24.2808 30.9536 24.1316 30.796 24.1316 30.6016C24.1316 30.4071 24.2808 30.2495 24.4649 30.2495Z" fill="white"/>
<path d="M25.5392 30.2496C25.7233 30.2496 25.8725 30.4072 25.8725 30.6017C25.8725 30.7961 25.7233 30.9537 25.5392 30.9537C25.3551 30.9537 24.4651 30.7961 24.4651 30.6017C24.4651 30.4072 25.3551 30.2496 25.5392 30.2496Z" fill="white"/>
<path d="M22.0985 24.3623C22.2826 24.3623 23.1633 24.52 23.1633 24.7144C23.1633 24.9088 22.2826 25.0665 22.0985 25.0665C21.9144 25.0665 21.7651 24.9088 21.7651 24.7144C21.7651 24.52 21.9144 24.3623 22.0985 24.3623Z" fill="white"/>
<path d="M23.1725 24.3625C23.3566 24.3625 23.5058 24.5201 23.5058 24.7145C23.5058 24.909 23.3566 25.0666 23.1725 25.0666C22.9884 25.0666 22.0984 24.909 22.0984 24.7145C22.0984 24.5201 22.9884 24.3625 23.1725 24.3625Z" fill="white"/>
<path d="M23.3306 24.3623C23.5147 24.3623 24.3955 24.52 24.3955 24.7144C24.3955 24.9088 23.5147 25.0665 23.3306 25.0665C23.1466 25.0665 22.9973 24.9088 22.9973 24.7144C22.9973 24.52 23.1466 24.3623 23.3306 24.3623Z" fill="white"/>
<path d="M24.4046 24.3625C24.5887 24.3625 24.738 24.5201 24.738 24.7145C24.738 24.909 24.5887 25.0666 24.4046 25.0666C24.2205 25.0666 23.3306 24.909 23.3306 24.7145C23.3306 24.5201 24.2205 24.3625 24.4046 24.3625Z" fill="white"/>
<path d="M20.9444 20.7832C21.1285 20.7832 22.0092 20.9408 22.0092 21.1352C22.0092 21.3297 21.1285 21.4873 20.9444 21.4873C20.7603 21.4873 20.6111 21.3297 20.6111 21.1352C20.6111 20.9408 20.7603 20.7832 20.9444 20.7832Z" fill="white"/>
<path d="M22.0184 20.7833C22.2025 20.7833 22.3517 20.9409 22.3517 21.1354C22.3517 21.3298 22.2025 21.4874 22.0184 21.4874C21.8343 21.4874 20.9443 21.3298 20.9443 21.1354C20.9443 20.9409 21.8343 20.7833 22.0184 20.7833Z" fill="white"/>
<path d="M22.1571 20.7832C22.3412 20.7832 23.2219 20.9408 23.2219 21.1352C23.2219 21.3297 22.3412 21.4873 22.1571 21.4873C21.973 21.4873 21.8237 21.3297 21.8237 21.1352C21.8237 20.9408 21.973 20.7832 22.1571 20.7832Z" fill="white"/>
<path d="M23.2311 20.7833C23.4152 20.7833 23.5644 20.9409 23.5644 21.1354C23.5644 21.3298 23.4152 21.4874 23.2311 21.4874C23.047 21.4874 22.157 21.3298 22.157 21.1354C22.157 20.9409 23.047 20.7833 23.2311 20.7833Z" fill="white"/>
<path d="M23.2718 20.7832C23.4559 20.7832 24.3366 20.9408 24.3366 21.1352C24.3366 21.3297 23.4559 21.4873 23.2718 21.4873C23.0877 21.4873 22.9385 21.3297 22.9385 21.1352C22.9385 20.9408 23.0877 20.7832 23.2718 20.7832Z" fill="white"/>
<path d="M24.3458 20.7833C24.5299 20.7833 24.6791 20.9409 24.6791 21.1354C24.6791 21.3298 24.5299 21.4874 24.3458 21.4874C24.1617 21.4874 23.2717 21.3298 23.2717 21.1354C23.2717 20.9409 24.1617 20.7833 24.3458 20.7833Z" fill="white"/>
<path d="M25.9312 20.0996C25.9312 20.2837 25.7735 21.1644 25.5791 21.1644C25.3847 21.1644 25.2271 20.2837 25.2271 20.0996C25.2271 19.9155 25.3847 19.7662 25.5791 19.7662C25.7735 19.7662 25.9312 19.9155 25.9312 20.0996Z" fill="white"/>
<path d="M25.9312 21.1736C25.9312 21.3577 25.7735 21.507 25.5791 21.507C25.3847 21.507 25.2271 21.3577 25.2271 21.1736C25.2271 20.9895 25.3847 20.0995 25.5791 20.0995C25.7735 20.0995 25.9312 20.9895 25.9312 21.1736Z" fill="white"/>
<path d="M25.9705 23.542C25.9705 23.726 25.8129 24.6068 25.6184 24.6068C25.424 24.6068 25.2664 23.726 25.2664 23.542C25.2664 23.3579 25.424 23.2086 25.6184 23.2086C25.8129 23.2086 25.9705 23.3579 25.9705 23.542Z" fill="white"/>
<path d="M25.9702 24.616C25.9702 24.8001 25.8126 24.9493 25.6182 24.9493C25.4237 24.9493 25.2661 24.8001 25.2661 24.616C25.2661 24.4319 25.4237 23.5419 25.6182 23.5419C25.8126 23.5419 25.9702 24.4319 25.9702 24.616Z" fill="white"/>
<path d="M27.0852 28.1381C27.0852 28.3222 26.9276 29.203 26.7332 29.203C26.5387 29.203 26.3811 28.3222 26.3811 28.1381C26.3811 27.954 26.5387 27.8048 26.7332 27.8048C26.9276 27.8048 27.0852 27.954 27.0852 28.1381Z" fill="white"/>
<path d="M27.085 29.2121C27.085 29.3962 26.9274 29.5455 26.7329 29.5455C26.5385 29.5455 26.3809 29.3962 26.3809 29.2121C26.3809 29.028 26.5385 28.1381 26.7329 28.1381C26.9274 28.1381 27.085 29.028 27.085 29.2121Z" fill="white"/>
<path d="M28.2783 17.6938C28.2783 17.8779 28.1207 18.7586 27.9263 18.7586C27.7318 18.7586 27.5742 17.8779 27.5742 17.6938C27.5742 17.5097 27.7318 17.3605 27.9263 17.3605C28.1207 17.3605 28.2783 17.5097 28.2783 17.6938Z" fill="white"/>
<path d="M28.2781 18.7679C28.2781 18.952 28.1205 19.1013 27.926 19.1013C27.7316 19.1013 27.574 18.952 27.574 18.7679C27.574 18.5838 27.7316 17.6938 27.926 17.6938C28.1205 17.6938 28.2781 18.5838 28.2781 18.7679Z" fill="white"/>
<path d="M29.4321 17.6938C29.4321 17.8779 29.2745 18.7586 29.0801 18.7586C28.8857 18.7586 28.728 17.8779 28.728 17.6938C28.728 17.5097 28.8857 17.3605 29.0801 17.3605C29.2745 17.3605 29.4321 17.5097 29.4321 17.6938Z" fill="white"/>
<path d="M29.4321 18.7679C29.4321 18.952 29.2745 19.1013 29.0801 19.1013C28.8857 19.1013 28.728 18.952 28.728 18.7679C28.728 18.5838 28.8857 17.6938 29.0801 17.6938C29.2745 17.6938 29.4321 18.5838 29.4321 18.7679Z" fill="white"/>
<path d="M29.3931 18.9455C29.3931 19.1296 29.2355 20.0103 29.041 20.0103C28.8466 20.0103 28.689 19.1296 28.689 18.9455C28.689 18.7614 28.8466 18.6122 29.041 18.6122C29.2355 18.6122 29.3931 18.7614 29.3931 18.9455Z" fill="white"/>
<path d="M29.3931 20.0196C29.3931 20.2037 29.2355 20.353 29.041 20.353C28.8466 20.353 28.689 20.2037 28.689 20.0196C28.689 19.8355 28.8466 18.9456 29.041 18.9456C29.2355 18.9456 29.3931 19.8355 29.3931 20.0196Z" fill="white"/>
<path d="M24.6987 21.1167C24.6987 21.3008 24.5411 22.1815 24.3467 22.1815C24.1523 22.1815 23.9946 21.3008 23.9946 21.1167C23.9946 20.9326 24.1523 20.7833 24.3467 20.7833C24.5411 20.7833 24.6987 20.9326 24.6987 21.1167Z" fill="white"/>
<path d="M24.6987 22.1907C24.6987 22.3748 24.5411 22.524 24.3467 22.524C24.1523 22.524 23.9946 22.3748 23.9946 22.1907C23.9946 22.0066 24.1523 21.1166 24.3467 21.1166C24.5411 21.1166 24.6987 22.0066 24.6987 22.1907Z" fill="white"/>
<path d="M28.2586 20.1582C28.2586 20.3423 28.1009 21.223 27.9065 21.223C27.7121 21.223 27.5544 20.3423 27.5544 20.1582C27.5544 19.9741 27.7121 19.8248 27.9065 19.8248C28.1009 19.8248 28.2586 19.9741 28.2586 20.1582Z" fill="white"/>
<path d="M28.2586 21.2322C28.2586 21.4163 28.1009 21.5656 27.9065 21.5656C27.7121 21.5656 27.5544 21.4163 27.5544 21.2322C27.5544 21.0481 27.7121 20.1581 27.9065 20.1581C28.1009 20.1581 28.2586 21.0481 28.2586 21.2322Z" fill="white"/>
<path d="M19.7505 13.8987C19.9449 13.8987 20.8751 14.0563 20.8751 14.2507C20.8751 14.4452 19.9449 14.6028 19.7505 14.6028C19.5561 14.6028 19.3984 14.4452 19.3984 14.2507C19.3984 14.0563 19.5561 13.8987 19.7505 13.8987Z" fill="white"/>
<path d="M20.8849 13.8987C21.0793 13.8987 21.237 14.0563 21.237 14.2507C21.237 14.4452 21.0793 14.6028 20.8849 14.6028C20.6905 14.6028 19.7505 14.4452 19.7505 14.2507C19.7505 14.0563 20.6905 13.8987 20.8849 13.8987Z" fill="white"/>
<path d="M17.5208 10.2801C17.7152 10.2801 18.6454 10.4377 18.6454 10.6321C18.6454 10.8266 17.7152 10.9842 17.5208 10.9842C17.3263 10.9842 17.1687 10.8266 17.1687 10.6321C17.1687 10.4377 17.3263 10.2801 17.5208 10.2801Z" fill="white"/>
<path d="M18.6552 10.2801C18.8496 10.2801 19.0072 10.4377 19.0072 10.6321C19.0072 10.8266 18.8496 10.9842 18.6552 10.9842C18.4607 10.9842 17.5208 10.8266 17.5208 10.6321C17.5208 10.4377 18.4607 10.2801 18.6552 10.2801Z" fill="white"/>
<path d="M18.6355 11.336C18.8299 11.336 19.7601 11.4937 19.7601 11.6881C19.7601 11.8825 18.8299 12.0402 18.6355 12.0402C18.4411 12.0402 18.2834 11.8825 18.2834 11.6881C18.2834 11.4937 18.4411 11.336 18.6355 11.336Z" fill="white"/>
<path d="M19.7699 11.3362C19.9644 11.3362 20.122 11.4938 20.122 11.6883C20.122 11.8827 19.9644 12.0403 19.7699 12.0403C19.5755 12.0403 18.6355 11.8827 18.6355 11.6883C18.6355 11.4938 19.5755 11.3362 19.7699 11.3362Z" fill="white"/>
<path d="M19.8482 10.2801C20.0426 10.2801 20.9728 10.4377 20.9728 10.6321C20.9728 10.8266 20.0426 10.9842 19.8482 10.9842C19.6537 10.9842 19.4961 10.8266 19.4961 10.6321C19.4961 10.4377 19.6537 10.2801 19.8482 10.2801Z" fill="white"/>
<path d="M20.9826 10.2801C21.177 10.2801 21.3346 10.4377 21.3346 10.6321C21.3346 10.8266 21.177 10.9842 20.9826 10.9842C20.7881 10.9842 19.8481 10.8266 19.8481 10.6321C19.8481 10.4377 20.7881 10.2801 20.9826 10.2801Z" fill="white"/>
<path d="M9.1692 14.9936C9.36364 14.9936 10.2938 15.1513 10.2938 15.3457C10.2938 15.5401 9.36364 15.6978 9.1692 15.6978C8.97476 15.6978 8.81714 15.5401 8.81714 15.3457C8.81714 15.1513 8.97476 14.9936 9.1692 14.9936Z" fill="white"/>
<path d="M10.3036 14.9938C10.498 14.9938 10.6557 15.1514 10.6557 15.3459C10.6557 15.5403 10.498 15.6979 10.3036 15.6979C10.1092 15.6979 9.16919 15.5403 9.16919 15.3459C9.16919 15.1514 10.1092 14.9938 10.3036 14.9938Z" fill="white"/>
<path d="M10.3428 24.3623C10.5372 24.3623 11.4674 24.52 11.4674 24.7144C11.4674 24.9088 10.5372 25.0665 10.3428 25.0665C10.1483 25.0665 9.99072 24.9088 9.99072 24.7144C9.99072 24.52 10.1483 24.3623 10.3428 24.3623Z" fill="white"/>
<path d="M11.4774 24.3625C11.6719 24.3625 11.8295 24.5201 11.8295 24.7145C11.8295 24.909 11.6719 25.0666 11.4774 25.0666C11.283 25.0666 10.343 24.909 10.343 24.7145C10.343 24.5201 11.283 24.3625 11.4774 24.3625Z" fill="white"/>
<path d="M10.3621 19.7076C10.5565 19.7076 11.4867 19.8652 11.4867 20.0596C11.4867 20.2541 10.5565 20.4117 10.3621 20.4117C10.1676 20.4117 10.01 20.2541 10.01 20.0596C10.01 19.8652 10.1676 19.7076 10.3621 19.7076Z" fill="white"/>
<path d="M11.4965 19.7076C11.6909 19.7076 11.8485 19.8652 11.8485 20.0597C11.8485 20.2541 11.6909 20.4117 11.4965 20.4117C11.302 20.4117 10.3621 20.2541 10.3621 20.0597C10.3621 19.8652 11.302 19.7076 11.4965 19.7076Z" fill="white"/>
<path d="M9.1692 16.167C9.36364 16.167 10.2938 16.3247 10.2938 16.5191C10.2938 16.7135 9.36364 16.8712 9.1692 16.8712C8.97476 16.8712 8.81714 16.7135 8.81714 16.5191C8.81714 16.3247 8.97476 16.167 9.1692 16.167Z" fill="white"/>
<path d="M10.3036 16.1672C10.498 16.1672 10.6557 16.3248 10.6557 16.5193C10.6557 16.7137 10.498 16.8713 10.3036 16.8713C10.1092 16.8713 9.16919 16.7137 9.16919 16.5193C9.16919 16.3248 10.1092 16.1672 10.3036 16.1672Z" fill="white"/>
<path d="M10.3428 25.5362C10.5372 25.5362 11.4674 25.6938 11.4674 25.8882C11.4674 26.0827 10.5372 26.2403 10.3428 26.2403C10.1483 26.2403 9.99072 26.0827 9.99072 25.8882C9.99072 25.6938 10.1483 25.5362 10.3428 25.5362Z" fill="white"/>
<path d="M11.4774 25.5362C11.6719 25.5362 11.8295 25.6938 11.8295 25.8882C11.8295 26.0827 11.6719 26.2403 11.4774 26.2403C11.283 26.2403 10.343 26.0827 10.343 25.8882C10.343 25.6938 11.283 25.5362 11.4774 25.5362Z" fill="white"/>
<path d="M10.3428 26.6704C10.5372 26.6704 11.4674 26.828 11.4674 27.0225C11.4674 27.2169 10.5372 27.3745 10.3428 27.3745C10.1483 27.3745 9.99072 27.2169 9.99072 27.0225C9.99072 26.828 10.1483 26.6704 10.3428 26.6704Z" fill="white"/>
<path d="M11.4774 26.6705C11.6719 26.6705 11.8295 26.8281 11.8295 27.0226C11.8295 27.217 11.6719 27.3746 11.4774 27.3746C11.283 27.3746 10.343 27.217 10.343 27.0226C10.343 26.8281 11.283 26.6705 11.4774 26.6705Z" fill="white"/>
<path d="M10.3621 20.8809C10.5565 20.8809 11.4867 21.0385 11.4867 21.233C11.4867 21.4274 10.5565 21.585 10.3621 21.585C10.1676 21.585 10.01 21.4274 10.01 21.233C10.01 21.0385 10.1676 20.8809 10.3621 20.8809Z" fill="white"/>
<path d="M11.4965 20.8811C11.6909 20.8811 11.8485 21.0387 11.8485 21.2331C11.8485 21.4276 11.6909 21.5852 11.4965 21.5852C11.302 21.5852 10.3621 21.4276 10.3621 21.2331C10.3621 21.0387 11.302 20.8811 11.4965 20.8811Z" fill="white"/>
<path d="M8.09352 17.243C8.28795 17.243 9.21815 17.4006 9.21815 17.5951C9.21815 17.7895 8.28795 17.9471 8.09352 17.9471C7.89908 17.9471 7.74146 17.7895 7.74146 17.5951C7.74146 17.4006 7.89908 17.243 8.09352 17.243Z" fill="white"/>
<path d="M9.22792 17.243C9.42236 17.243 9.57998 17.4006 9.57998 17.5951C9.57998 17.7895 9.42236 17.9471 9.22792 17.9471C9.03348 17.9471 8.09351 17.7895 8.09351 17.5951C8.09351 17.4006 9.03348 17.243 9.22792 17.243Z" fill="white"/>
<path d="M9.28639 21.9568C9.48082 21.9568 10.411 22.1144 10.411 22.3088C10.411 22.5033 9.48082 22.6609 9.28639 22.6609C9.09195 22.6609 8.93433 22.5033 8.93433 22.3088C8.93433 22.1144 9.09195 21.9568 9.28639 21.9568Z" fill="white"/>
<path d="M10.4208 21.9567C10.6152 21.9567 10.7729 22.1143 10.7729 22.3088C10.7729 22.5032 10.6152 22.6608 10.4208 22.6608C10.2264 22.6608 9.28638 22.5032 9.28638 22.3088C9.28638 22.1143 10.2264 21.9567 10.4208 21.9567Z" fill="white"/>
<path d="M8.09352 18.4752C8.28795 18.4752 9.21815 18.6328 9.21815 18.8273C9.21815 19.0217 8.28795 19.1793 8.09352 19.1793C7.89908 19.1793 7.74146 19.0217 7.74146 18.8273C7.74146 18.6328 7.89908 18.4752 8.09352 18.4752Z" fill="white"/>
<path d="M9.22792 18.4753C9.42236 18.4753 9.57998 18.6329 9.57998 18.8273C9.57998 19.0218 9.42236 19.1794 9.22792 19.1794C9.03348 19.1794 8.09351 19.0218 8.09351 18.8273C8.09351 18.6329 9.03348 18.4753 9.22792 18.4753Z" fill="white"/>
<path d="M9.28639 23.189C9.48082 23.189 10.411 23.3466 10.411 23.5411C10.411 23.7355 9.48082 23.8931 9.28639 23.8931C9.09195 23.8931 8.93433 23.7355 8.93433 23.5411C8.93433 23.3466 9.09195 23.189 9.28639 23.189Z" fill="white"/>
<path d="M10.4208 23.1892C10.6152 23.1892 10.7729 23.3468 10.7729 23.5413C10.7729 23.7357 10.6152 23.8933 10.4208 23.8933C10.2264 23.8933 9.28638 23.7357 9.28638 23.5413C9.28638 23.3468 10.2264 23.1892 10.4208 23.1892Z" fill="white"/>
<path d="M23.2515 9.08702C23.4459 9.08702 24.3761 9.24464 24.3761 9.43908C24.3761 9.63351 23.4459 9.79114 23.2515 9.79114C23.057 9.79114 22.8994 9.63351 22.8994 9.43908C22.8994 9.24464 23.057 9.08702 23.2515 9.08702Z" fill="white"/>
<path d="M24.3859 9.08708C24.5803 9.08708 24.7379 9.2447 24.7379 9.43914C24.7379 9.63358 24.5803 9.7912 24.3859 9.7912C24.1914 9.7912 23.2515 9.63358 23.2515 9.43914C23.2515 9.2447 24.1914 9.08708 24.3859 9.08708Z" fill="white"/>
<path d="M19.6331 17.3995C19.8275 17.3995 20.7577 17.5571 20.7577 17.7516C20.7577 17.946 19.8275 18.1036 19.6331 18.1036C19.4386 18.1036 19.281 17.946 19.281 17.7516C19.281 17.5571 19.4386 17.3995 19.6331 17.3995Z" fill="white"/>
<path d="M20.7677 17.3997C20.9622 17.3997 21.1198 17.5573 21.1198 17.7518C21.1198 17.9462 20.9622 18.1038 20.7677 18.1038C20.5733 18.1038 19.6333 17.9462 19.6333 17.7518C19.6333 17.5573 20.5733 17.3997 20.7677 17.3997Z" fill="white"/>
<path d="M18.5379 23.2085C18.7323 23.2085 19.6625 23.3661 19.6625 23.5605C19.6625 23.755 18.7323 23.9126 18.5379 23.9126C18.3434 23.9126 18.1858 23.755 18.1858 23.5605C18.1858 23.3661 18.3434 23.2085 18.5379 23.2085Z" fill="white"/>
<path d="M19.6723 23.2087C19.8667 23.2087 20.0243 23.3663 20.0243 23.5607C20.0243 23.7552 19.8667 23.9128 19.6723 23.9128C19.4778 23.9128 18.5378 23.7552 18.5378 23.5607C18.5378 23.3663 19.4778 23.2087 19.6723 23.2087Z" fill="white"/>
<path d="M19.7114 14.9743C19.9059 14.9743 20.8361 15.132 20.8361 15.3264C20.8361 15.5208 19.9059 15.6785 19.7114 15.6785C19.517 15.6785 19.3594 15.5208 19.3594 15.3264C19.3594 15.132 19.517 14.9743 19.7114 14.9743Z" fill="white"/>
<path d="M20.8458 14.9743C21.0403 14.9743 21.1979 15.132 21.1979 15.3264C21.1979 15.5208 21.0403 15.6785 20.8458 15.6785C20.6514 15.6785 19.7114 15.5208 19.7114 15.3264C19.7114 15.132 20.6514 14.9743 20.8458 14.9743Z" fill="white"/>
<path d="M17.4424 14.9743C17.6368 14.9743 18.567 15.1319 18.567 15.3263C18.567 15.5208 17.6368 15.6784 17.4424 15.6784C17.248 15.6784 17.0903 15.5208 17.0903 15.3263C17.0903 15.1319 17.248 14.9743 17.4424 14.9743Z" fill="white"/>
<path d="M18.5768 14.9742C18.7712 14.9742 18.9289 15.1318 18.9289 15.3263C18.9289 15.5207 18.7712 15.6783 18.5768 15.6783C18.3824 15.6783 17.4424 15.5207 17.4424 15.3263C17.4424 15.1318 18.3824 14.9742 18.5768 14.9742Z" fill="white"/>
<path d="M25.5791 11.4537C25.7735 11.4537 26.7037 11.6113 26.7037 11.8058C26.7037 12.0002 25.7735 12.1578 25.5791 12.1578C25.3847 12.1578 25.2271 12.0002 25.2271 11.8058C25.2271 11.6113 25.3847 11.4537 25.5791 11.4537Z" fill="white"/>
<path d="M26.7135 11.4537C26.908 11.4537 27.0656 11.6113 27.0656 11.8057C27.0656 12.0002 26.908 12.1578 26.7135 12.1578C26.5191 12.1578 25.5791 12.0002 25.5791 11.8057C25.5791 11.6113 26.5191 11.4537 26.7135 11.4537Z" fill="white"/>
<path d="M26.7915 12.5879C26.986 12.5879 27.9162 12.7456 27.9162 12.94C27.9162 13.1344 26.986 13.2921 26.7915 13.2921C26.5971 13.2921 26.4395 13.1344 26.4395 12.94C26.4395 12.7456 26.5971 12.5879 26.7915 12.5879Z" fill="white"/>
<path d="M27.9262 12.588C28.1206 12.588 28.2782 12.7456 28.2782 12.9401C28.2782 13.1345 28.1206 13.2921 27.9262 13.2921C27.7317 13.2921 26.7917 13.1345 26.7917 12.9401C26.7917 12.7456 27.7317 12.588 27.9262 12.588Z" fill="white"/>
<path d="M30.2732 16.05C30.4676 16.05 31.3978 16.2077 31.3978 16.4021C31.3978 16.5965 30.4676 16.7542 30.2732 16.7542C30.0788 16.7542 29.9211 16.5965 29.9211 16.4021C29.9211 16.2077 30.0788 16.05 30.2732 16.05Z" fill="white"/>
<path d="M31.4076 16.0501C31.602 16.0501 31.7597 16.2077 31.7597 16.4022C31.7597 16.5966 31.602 16.7542 31.4076 16.7542C31.2132 16.7542 30.2732 16.5966 30.2732 16.4022C30.2732 16.2077 31.2132 16.0501 31.4076 16.0501Z" fill="white"/>
<path d="M30.2732 19.7466C30.4676 19.7466 31.3978 19.9042 31.3978 20.0986C31.3978 20.2931 30.4676 20.4507 30.2732 20.4507C30.0788 20.4507 29.9211 20.2931 29.9211 20.0986C29.9211 19.9042 30.0788 19.7466 30.2732 19.7466Z" fill="white"/>
<path d="M31.4076 19.7467C31.602 19.7467 31.7597 19.9044 31.7597 20.0988C31.7597 20.2932 31.602 20.4509 31.4076 20.4509C31.2132 20.4509 30.2732 20.2932 30.2732 20.0988C30.2732 19.9044 31.2132 19.7467 31.4076 19.7467Z" fill="white"/>
<path d="M29.2171 21.9372C29.4115 21.9372 30.3417 22.0948 30.3417 22.2892C30.3417 22.4837 29.4115 22.6413 29.2171 22.6413C29.0226 22.6413 28.865 22.4837 28.865 22.2892C28.865 22.0948 29.0226 21.9372 29.2171 21.9372Z" fill="white"/>
<path d="M30.3515 21.9372C30.5459 21.9372 30.7035 22.0949 30.7035 22.2893C30.7035 22.4837 30.5459 22.6414 30.3515 22.6414C30.157 22.6414 29.217 22.4837 29.217 22.2893C29.217 22.0949 30.157 21.9372 30.3515 21.9372Z" fill="white"/>
<path d="M27.8479 27.8439C28.0423 27.8439 28.9725 28.0015 28.9725 28.1959C28.9725 28.3904 28.0423 28.548 27.8479 28.548C27.6535 28.548 27.4958 28.3904 27.4958 28.1959C27.4958 28.0015 27.6535 27.8439 27.8479 27.8439Z" fill="white"/>
<path d="M28.9823 27.844C29.1768 27.844 29.3344 28.0016 29.3344 28.196C29.3344 28.3905 29.1768 28.5481 28.9823 28.5481C28.7879 28.5481 27.8479 28.3905 27.8479 28.196C27.8479 28.0016 28.7879 27.844 28.9823 27.844Z" fill="white"/>
<path d="M30.2339 23.189C30.4283 23.189 31.3585 23.3466 31.3585 23.5411C31.3585 23.7355 30.4283 23.8931 30.2339 23.8931C30.0395 23.8931 29.8818 23.7355 29.8818 23.5411C29.8818 23.3466 30.0395 23.189 30.2339 23.189Z" fill="white"/>
<path d="M31.3685 23.1892C31.563 23.1892 31.7206 23.3468 31.7206 23.5413C31.7206 23.7357 31.563 23.8933 31.3685 23.8933C31.1741 23.8933 30.2341 23.7357 30.2341 23.5413C30.2341 23.3468 31.1741 23.1892 31.3685 23.1892Z" fill="white"/>
<path d="M30.2339 24.2646C30.4283 24.2646 31.3585 24.4222 31.3585 24.6166C31.3585 24.8111 30.4283 24.9687 30.2339 24.9687C30.0395 24.9687 29.8818 24.8111 29.8818 24.6166C29.8818 24.4222 30.0395 24.2646 30.2339 24.2646Z" fill="white"/>
<path d="M31.3685 24.2648C31.563 24.2648 31.7206 24.4224 31.7206 24.6168C31.7206 24.8112 31.563 24.9689 31.3685 24.9689C31.1741 24.9689 30.2341 24.8112 30.2341 24.6168C30.2341 24.4224 31.1741 24.2648 31.3685 24.2648Z" fill="white"/>
<path d="M29.1389 26.6899C29.3334 26.6899 30.2636 26.8475 30.2636 27.0419C30.2636 27.2364 29.3334 27.394 29.1389 27.394C28.9445 27.394 28.7869 27.2364 28.7869 27.0419C28.7869 26.8475 28.9445 26.6899 29.1389 26.6899Z" fill="white"/>
<path d="M30.2733 26.69C30.4678 26.69 30.6254 26.8476 30.6254 27.042C30.6254 27.2365 30.4678 27.3941 30.2733 27.3941C30.0789 27.3941 29.1389 27.2365 29.1389 27.042C29.1389 26.8476 30.0789 26.69 30.2733 26.69Z" fill="white"/>
<path d="M23.2515 17.2822C23.4459 17.2822 24.3761 17.4398 24.3761 17.6343C24.3761 17.8287 23.4459 17.9863 23.2515 17.9863C23.057 17.9863 22.8994 17.8287 22.8994 17.6343C22.8994 17.4398 23.057 17.2822 23.2515 17.2822Z" fill="white"/>
<path d="M24.3859 17.2824C24.5803 17.2824 24.7379 17.44 24.7379 17.6345C24.7379 17.8289 24.5803 17.9865 24.3859 17.9865C24.1914 17.9865 23.2515 17.8289 23.2515 17.6345C23.2515 17.44 24.1914 17.2824 24.3859 17.2824Z" fill="white"/>
<path d="M25.9312 9.45869C25.9312 9.65313 25.7735 10.5833 25.5791 10.5833C25.3847 10.5833 25.2271 9.65313 25.2271 9.45869C25.2271 9.26425 25.3847 9.10663 25.5791 9.10663C25.7735 9.10663 25.9312 9.26425 25.9312 9.45869Z" fill="white"/>
<path d="M25.9312 10.5931C25.9312 10.7875 25.7735 10.9452 25.5791 10.9452C25.3847 10.9452 25.2271 10.7875 25.2271 10.5931C25.2271 10.3987 25.3847 9.45868 25.5791 9.45868C25.7735 9.45868 25.9312 10.3987 25.9312 10.5931Z" fill="white"/>
<path d="M28.2976 14.0354C28.2976 14.2298 28.14 15.16 27.9456 15.16C27.7511 15.16 27.5935 14.2298 27.5935 14.0354C27.5935 13.841 27.7511 13.6833 27.9456 13.6833C28.14 13.6833 28.2976 13.841 28.2976 14.0354Z" fill="white"/>
<path d="M28.2976 15.1698C28.2976 15.3643 28.14 15.5219 27.9456 15.5219C27.7511 15.5219 27.5935 15.3643 27.5935 15.1698C27.5935 14.9754 27.7511 14.0354 27.9456 14.0354C28.14 14.0354 28.2976 14.9754 28.2976 15.1698Z" fill="white"/>
<path d="M28.2976 15.3264C28.2976 15.5209 28.14 16.4511 27.9456 16.4511C27.7511 16.4511 27.5935 15.5209 27.5935 15.3264C27.5935 15.132 27.7511 14.9744 27.9456 14.9744C28.14 14.9744 28.2976 15.132 28.2976 15.3264Z" fill="white"/>
<path d="M28.2976 16.4608C28.2976 16.6552 28.14 16.8128 27.9456 16.8128C27.7511 16.8128 27.5935 16.6552 27.5935 16.4608C27.5935 16.2663 27.7511 15.3264 27.9456 15.3264C28.14 15.3264 28.2976 16.2663 28.2976 16.4608Z" fill="white"/>
<path d="M27.1633 15.3264C27.1633 15.5209 27.0057 16.4511 26.8113 16.4511C26.6169 16.4511 26.4592 15.5209 26.4592 15.3264C26.4592 15.132 26.6169 14.9744 26.8113 14.9744C27.0057 14.9744 27.1633 15.132 27.1633 15.3264Z" fill="white"/>
<path d="M27.1633 16.4608C27.1633 16.6552 27.0057 16.8128 26.8113 16.8128C26.6169 16.8128 26.4592 16.6552 26.4592 16.4608C26.4592 16.2663 26.6169 15.3264 26.8113 15.3264C27.0057 15.3264 27.1633 16.2663 27.1633 16.4608Z" fill="white"/>
<path d="M29.3931 14.0354C29.3931 14.2298 29.2355 15.16 29.041 15.16C28.8466 15.16 28.689 14.2298 28.689 14.0354C28.689 13.841 28.8466 13.6833 29.041 13.6833C29.2355 13.6833 29.3931 13.841 29.3931 14.0354Z" fill="white"/>
<path d="M29.3931 15.1698C29.3931 15.3643 29.2355 15.5219 29.041 15.5219C28.8466 15.5219 28.689 15.3643 28.689 15.1698C28.689 14.9754 28.8466 14.0354 29.041 14.0354C29.2355 14.0354 29.3931 14.9754 29.3931 15.1698Z" fill="white"/>
<path d="M32.8743 17.6343C32.8743 17.8287 32.7167 18.7589 32.5222 18.7589C32.3278 18.7589 32.1702 17.8287 32.1702 17.6343C32.1702 17.4398 32.3278 17.2822 32.5222 17.2822C32.7167 17.2822 32.8743 17.4398 32.8743 17.6343Z" fill="white"/>
<path d="M32.8745 18.7688C32.8745 18.9632 32.7169 19.1208 32.5225 19.1208C32.328 19.1208 32.1704 18.9632 32.1704 18.7688C32.1704 18.5743 32.328 17.6343 32.5225 17.6343C32.7169 17.6343 32.8745 18.5743 32.8745 18.7688Z" fill="white"/>
<path d="M22.45 16.4216C22.45 16.6161 22.2923 17.5463 22.0979 17.5463C21.9035 17.5463 21.7458 16.6161 21.7458 16.4216C21.7458 16.2272 21.9035 16.0696 22.0979 16.0696C22.2923 16.0696 22.45 16.2272 22.45 16.4216Z" fill="white"/>
<path d="M22.4497 17.556C22.4497 17.7505 22.2921 17.9081 22.0977 17.9081C21.9032 17.9081 21.7456 17.7505 21.7456 17.556C21.7456 17.3616 21.9032 16.4216 22.0977 16.4216C22.2921 16.4216 22.4497 17.3616 22.4497 17.556Z" fill="white"/>
<path d="M19.8482 11.336C20.0426 11.336 20.9728 11.4937 20.9728 11.6881C20.9728 11.8825 20.0426 12.0402 19.8482 12.0402C19.6537 12.0402 19.4961 11.8825 19.4961 11.6881C19.4961 11.4937 19.6537 11.336 19.8482 11.336Z" fill="white"/>
<path d="M20.9826 11.3362C21.177 11.3362 21.3346 11.4938 21.3346 11.6883C21.3346 11.8827 21.177 12.0403 20.9826 12.0403C20.7881 12.0403 19.8481 11.8827 19.8481 11.6883C19.8481 11.4938 20.7881 11.3362 20.9826 11.3362Z" fill="white"/>
<path d="M22.1172 16.0693C22.3116 16.0693 23.2418 16.2269 23.2418 16.4213C23.2418 16.6158 22.3116 16.7734 22.1172 16.7734C21.9228 16.7734 21.7651 16.6158 21.7651 16.4213C21.7651 16.2269 21.9228 16.0693 22.1172 16.0693Z" fill="white"/>
<path d="M23.2516 16.0696C23.446 16.0696 23.6037 16.2272 23.6037 16.4217C23.6037 16.6161 23.446 16.7737 23.2516 16.7737C23.0572 16.7737 22.1172 16.6161 22.1172 16.4217C22.1172 16.2272 23.0572 16.0696 23.2516 16.0696Z" fill="white"/>
<path d="M25.7161 16.0693C25.9105 16.0693 26.8407 16.2269 26.8407 16.4213C26.8407 16.6158 25.9105 16.7734 25.7161 16.7734C25.5216 16.7734 25.364 16.6158 25.364 16.4213C25.364 16.2269 25.5216 16.0693 25.7161 16.0693Z" fill="white"/>
<path d="M26.8505 16.0696C27.0449 16.0696 27.2025 16.2272 27.2025 16.4217C27.2025 16.6161 27.0449 16.7737 26.8505 16.7737C26.656 16.7737 25.7161 16.6161 25.7161 16.4217C25.7161 16.2272 26.656 16.0696 26.8505 16.0696Z" fill="white"/>
<path d="M22.1074 19.7075C22.3019 19.7075 23.2321 19.8651 23.2321 20.0596C23.2321 20.254 22.3019 20.4116 22.1074 20.4116C21.913 20.4116 21.7554 20.254 21.7554 20.0596C21.7554 19.8651 21.913 19.7075 22.1074 19.7075Z" fill="white"/>
<path d="M23.2416 19.7075C23.436 19.7075 23.5937 19.8651 23.5937 20.0596C23.5937 20.254 23.436 20.4116 23.2416 20.4116C23.0472 20.4116 22.1072 20.254 22.1072 20.0596C22.1072 19.8651 23.0472 19.7075 23.2416 19.7075Z" fill="white"/>
<path d="M21.7549 20.04C21.7549 19.8455 21.9125 18.9153 22.1069 18.9153C22.3014 18.9153 22.459 19.8455 22.459 20.04C22.459 20.2344 22.3014 20.392 22.1069 20.392C21.9125 20.392 21.7549 20.2344 21.7549 20.04Z" fill="white"/>
<path d="M21.7551 18.9056C21.7551 18.7111 21.9127 18.5535 22.1072 18.5535C22.3016 18.5535 22.4592 18.7111 22.4592 18.9056C22.4592 19.1 22.3016 20.04 22.1072 20.04C21.9127 20.04 21.7551 19.1 21.7551 18.9056Z" fill="white"/>
<path d="M20.9829 23.2085C21.1774 23.2085 22.1076 23.3661 22.1076 23.5605C22.1076 23.755 21.1774 23.9126 20.9829 23.9126C20.7885 23.9126 20.6309 23.755 20.6309 23.5605C20.6309 23.3661 20.7885 23.2085 20.9829 23.2085Z" fill="white"/>
<path d="M22.1171 23.2087C22.3115 23.2087 22.4691 23.3663 22.4691 23.5607C22.4691 23.7552 22.3115 23.9128 22.1171 23.9128C21.9226 23.9128 20.9827 23.7552 20.9827 23.5607C20.9827 23.3663 21.9226 23.2087 22.1171 23.2087Z" fill="white"/>
<path d="M20.6304 23.5411C20.6304 23.3467 20.788 22.4165 20.9824 22.4165C21.1768 22.4165 21.3345 23.3467 21.3345 23.5411C21.3345 23.7356 21.1768 23.8932 20.9824 23.8932C20.788 23.8932 20.6304 23.7356 20.6304 23.5411Z" fill="white"/>
<path d="M20.6306 22.4066C20.6306 22.2122 20.7882 22.0545 20.9827 22.0545C21.1771 22.0545 21.3347 22.2122 21.3347 22.4066C21.3347 22.601 21.1771 23.541 20.9827 23.541C20.7882 23.541 20.6306 22.601 20.6306 22.4066Z" fill="white"/>
<path d="M23.2124 23.2086C23.4068 23.2086 24.337 23.3662 24.337 23.5607C24.337 23.7551 23.4068 23.9127 23.2124 23.9127C23.018 23.9127 22.8604 23.7551 22.8604 23.5607C22.8604 23.3662 23.018 23.2086 23.2124 23.2086Z" fill="white"/>
<path d="M24.3466 23.2087C24.541 23.2087 24.6986 23.3663 24.6986 23.5607C24.6986 23.7552 24.541 23.9128 24.3466 23.9128C24.1521 23.9128 23.2122 23.7552 23.2122 23.5607C23.2122 23.3663 24.1521 23.2087 24.3466 23.2087Z" fill="white"/>
<path d="M22.8598 23.5411C22.8598 23.3467 23.0175 22.4165 23.2119 22.4165C23.4063 22.4165 23.564 23.3467 23.564 23.5411C23.564 23.7356 23.4063 23.8932 23.2119 23.8932C23.0175 23.8932 22.8598 23.7356 22.8598 23.5411Z" fill="white"/>
<path d="M22.8598 22.4066C22.8598 22.2122 23.0175 22.0545 23.2119 22.0545C23.4063 22.0545 23.564 22.2122 23.564 22.4066C23.564 22.601 23.4063 23.541 23.2119 23.541C23.0175 23.541 22.8598 22.601 22.8598 22.4066Z" fill="white"/>
<ellipse cx="20.9085" cy="30.7208" rx="0.3491" ry="0.407283" transform="rotate(-180 20.9085 30.7208)" fill="white"/>
<path d="M22.8865 30.7883C22.8865 30.5904 23.0428 30.43 23.2356 30.43C23.4284 30.43 23.5847 30.5904 23.5847 30.7883C23.5847 30.9861 23.4284 31.9427 23.2356 31.9427C23.0428 31.9427 22.8865 30.9861 22.8865 30.7883Z" fill="white"/>
<path d="M22.0185 32.206C21.8344 32.206 20.9537 32.0483 20.9537 31.8539C20.9537 31.6595 21.8344 31.5018 22.0185 31.5018C22.2026 31.5018 22.3518 31.6595 22.3518 31.8539C22.3518 32.0483 22.2026 32.206 22.0185 32.206Z" fill="white"/>
<path d="M20.9445 32.2056C20.7604 32.2056 20.6111 32.048 20.6111 31.8536C20.6111 31.6591 20.7604 31.5015 20.9445 31.5015C21.1286 31.5015 22.0186 31.6591 22.0186 31.8536C22.0186 32.048 21.1286 32.2056 20.9445 32.2056Z" fill="white"/>
<path d="M20.8058 32.206C20.6217 32.206 19.741 32.0483 19.741 31.8539C19.741 31.6595 20.6217 31.5018 20.8058 31.5018C20.9899 31.5018 21.1392 31.6595 21.1392 31.8539C21.1392 32.0483 20.9899 32.206 20.8058 32.206Z" fill="white"/>
<path d="M19.7318 32.2056C19.5477 32.2056 19.3985 32.048 19.3985 31.8536C19.3985 31.6591 19.5477 31.5015 19.7318 31.5015C19.9159 31.5015 20.8059 31.6591 20.8059 31.8536C20.8059 32.048 19.9159 32.2056 19.7318 32.2056Z" fill="white"/>
<path d="M19.6911 32.206C19.507 32.206 18.6263 32.0483 18.6263 31.8539C18.6263 31.6595 19.507 31.5018 19.6911 31.5018C19.8752 31.5018 20.0244 31.6595 20.0244 31.8539C20.0244 32.0483 19.8752 32.206 19.6911 32.206Z" fill="white"/>
<path d="M18.6171 32.2056C18.433 32.2056 18.2838 32.048 18.2838 31.8536C18.2838 31.6591 18.433 31.5015 18.6171 31.5015C18.8012 31.5015 19.6912 31.6591 19.6912 31.8536C19.6912 32.048 18.8012 32.2056 18.6171 32.2056Z" fill="white"/>
<path d="M18.2641 31.8724C18.2641 31.6883 18.4218 30.8075 18.6162 30.8075C18.8106 30.8075 18.9683 31.6883 18.9683 31.8724C18.9683 32.0564 18.8106 32.2057 18.6162 32.2057C18.4218 32.2057 18.2641 32.0564 18.2641 31.8724Z" fill="white"/>
<path d="M18.2641 30.7983C18.2641 30.6142 18.4218 30.465 18.6162 30.465C18.8106 30.465 18.9683 30.6142 18.9683 30.7983C18.9683 30.9824 18.8106 31.8724 18.6162 31.8724C18.4218 31.8724 18.2641 30.9824 18.2641 30.7983Z" fill="white"/>
<path d="M17.0119 31.8724C17.0119 31.6883 17.1696 30.8075 17.364 30.8075C17.5584 30.8075 17.7161 31.6883 17.7161 31.8724C17.7161 32.0564 17.5584 32.2057 17.364 32.2057C17.1696 32.2057 17.0119 32.0564 17.0119 31.8724Z" fill="white"/>
<path d="M17.0122 30.7983C17.0122 30.6142 17.1698 30.465 17.3642 30.465C17.5587 30.465 17.7163 30.6142 17.7163 30.7983C17.7163 30.9824 17.5587 31.8724 17.3642 31.8724C17.1698 31.8724 17.0122 30.9824 17.0122 30.7983Z" fill="white"/>
<path d="M21.9797 29.7803C21.7853 29.7803 20.8551 29.6227 20.8551 29.4282C20.8551 29.2338 21.7853 29.0762 21.9797 29.0762C22.1742 29.0762 22.3318 29.2338 22.3318 29.4282C22.3318 29.6227 22.1742 29.7803 21.9797 29.7803Z" fill="white"/>
<path d="M20.8456 29.7802C20.6511 29.7802 20.4935 29.6225 20.4935 29.4281C20.4935 29.2337 20.6511 29.076 20.8456 29.076C21.04 29.076 21.98 29.2337 21.98 29.4281C21.98 29.6225 21.04 29.7802 20.8456 29.7802Z" fill="white"/>
<path d="M22.3323 29.4476C22.3323 29.6421 22.1747 30.5723 21.9802 30.5723C21.7858 30.5723 21.6282 29.6421 21.6282 29.4476C21.6282 29.2532 21.7858 29.0956 21.9802 29.0956C22.1747 29.0956 22.3323 29.2532 22.3323 29.4476Z" fill="white"/>
<path d="M22.3321 30.582C22.3321 30.7764 22.1744 30.934 21.98 30.934C21.7856 30.934 21.6279 30.7764 21.6279 30.582C21.6279 30.3875 21.7856 29.4476 21.98 29.4476C22.1744 29.4476 22.3321 30.3875 22.3321 30.582Z" fill="white"/>
<path d="M13.8633 27.4334C13.6688 27.4334 12.7386 27.2757 12.7386 27.0813C12.7386 26.8869 13.6688 26.7292 13.8633 26.7292C14.0577 26.7292 14.2153 26.8869 14.2153 27.0813C14.2153 27.2757 14.0577 27.4334 13.8633 27.4334Z" fill="white"/>
<path d="M12.7289 27.4332C12.5344 27.4332 12.3768 27.2756 12.3768 27.0812C12.3768 26.8867 12.5344 26.7291 12.7289 26.7291C12.9233 26.7291 13.8633 26.8867 13.8633 27.0812C13.8633 27.2756 12.9233 27.4332 12.7289 27.4332Z" fill="white"/>
<path d="M14.2156 27.1008C14.2156 27.2952 14.058 28.2254 13.8635 28.2254C13.6691 28.2254 13.5115 27.2952 13.5115 27.1008C13.5115 26.9063 13.6691 26.7487 13.8635 26.7487C14.058 26.7487 14.2156 26.9063 14.2156 27.1008Z" fill="white"/>
<path d="M14.2154 28.2352C14.2154 28.4296 14.0577 28.5872 13.8633 28.5872C13.6689 28.5872 13.5112 28.4296 13.5112 28.2352C13.5112 28.0407 13.6689 27.1008 13.8633 27.1008C14.0577 27.1008 14.2154 28.0407 14.2154 28.2352Z" fill="white"/>
<path d="M19.7505 29.7805C19.556 29.7805 18.6258 29.6229 18.6258 29.4284C18.6258 29.234 19.556 29.0764 19.7505 29.0764C19.9449 29.0764 20.1025 29.234 20.1025 29.4284C20.1025 29.6229 19.9449 29.7805 19.7505 29.7805Z" fill="white"/>
<path d="M18.6158 29.7804C18.4214 29.7804 18.2638 29.6227 18.2638 29.4283C18.2638 29.2339 18.4214 29.0762 18.6158 29.0762C18.8103 29.0762 19.7502 29.2339 19.7502 29.4283C19.7502 29.6227 18.8103 29.7804 18.6158 29.7804Z" fill="white"/>
<path d="M20.1023 29.4479C20.1023 29.6423 19.9447 30.5725 19.7503 30.5725C19.5558 30.5725 19.3982 29.6423 19.3982 29.4479C19.3982 29.2534 19.5558 29.0958 19.7503 29.0958C19.9447 29.0958 20.1023 29.2534 20.1023 29.4479Z" fill="white"/>
<path d="M20.1023 30.5823C20.1023 30.7767 19.9447 30.9344 19.7503 30.9344C19.5558 30.9344 19.3982 30.7767 19.3982 30.5823C19.3982 30.3879 19.5558 29.4479 19.7503 29.4479C19.9447 29.4479 20.1023 30.3879 20.1023 30.5823Z" fill="white"/>
<path d="M27.1243 20.0793C27.1243 20.2737 26.9667 21.2039 26.7722 21.2039C26.5778 21.2039 26.4202 20.2737 26.4202 20.0793C26.4202 19.8849 26.5778 19.7272 26.7722 19.7272C26.9667 19.7272 27.1243 19.8849 27.1243 20.0793Z" fill="white"/>
<path d="M27.1243 21.2137C27.1243 21.4081 26.9667 21.5658 26.7722 21.5658C26.5778 21.5658 26.4202 21.4081 26.4202 21.2137C26.4202 21.0193 26.5778 20.0793 26.7722 20.0793C26.9667 20.0793 27.1243 21.0193 27.1243 21.2137Z" fill="white"/>
<path d="M26.7918 19.7272C26.9862 19.7272 27.9164 19.8848 27.9164 20.0792C27.9164 20.2737 26.9862 20.4313 26.7918 20.4313C26.5973 20.4313 26.4397 20.2737 26.4397 20.0792C26.4397 19.8848 26.5973 19.7272 26.7918 19.7272Z" fill="white"/>
<path d="M27.9262 19.7272C28.1206 19.7272 28.2782 19.8848 28.2782 20.0793C28.2782 20.2737 28.1206 20.4313 27.9262 20.4313C27.7317 20.4313 26.7917 20.2737 26.7917 20.0793C26.7917 19.8848 27.7317 19.7272 27.9262 19.7272Z" fill="white"/>
<path d="M28.239 25.9077C28.239 26.1021 28.0814 27.0323 27.887 27.0323C27.6925 27.0323 27.5349 26.1021 27.5349 25.9077C27.5349 25.7132 27.6925 25.5556 27.887 25.5556C28.0814 25.5556 28.239 25.7132 28.239 25.9077Z" fill="white"/>
<path d="M28.2388 27.0421C28.2388 27.2366 28.0812 27.3942 27.8867 27.3942C27.6923 27.3942 27.5347 27.2366 27.5347 27.0421C27.5347 26.8477 27.6923 25.9077 27.8867 25.9077C28.0812 25.9077 28.2388 26.8477 28.2388 27.0421Z" fill="white"/>
<path d="M27.9065 25.5555C28.1009 25.5555 29.0311 25.7131 29.0311 25.9076C29.0311 26.102 28.1009 26.2596 27.9065 26.2596C27.7121 26.2596 27.5544 26.102 27.5544 25.9076C27.5544 25.7131 27.7121 25.5555 27.9065 25.5555Z" fill="white"/>
<path d="M29.0409 25.5558C29.2353 25.5558 29.393 25.7134 29.393 25.9078C29.393 26.1023 29.2353 26.2599 29.0409 26.2599C28.8465 26.2599 27.9065 26.1023 27.9065 25.9078C27.9065 25.7134 28.8465 25.5558 29.0409 25.5558Z" fill="white"/>
<path d="M29.0313 20.8713C29.2257 20.8713 30.1559 21.0289 30.1559 21.2233C30.1559 21.4178 29.2257 21.5754 29.0313 21.5754C28.8368 21.5754 28.6792 21.4178 28.6792 21.2233C28.6792 21.0289 28.8368 20.8713 29.0313 20.8713Z" fill="white"/>
<path d="M30.1654 20.8713C30.3599 20.8713 30.5175 21.0289 30.5175 21.2233C30.5175 21.4178 30.3599 21.5754 30.1654 21.5754C29.971 21.5754 29.031 21.4178 29.031 21.2233C29.031 21.0289 29.971 20.8713 30.1654 20.8713Z" fill="white"/>
<path d="M28.6787 21.2037C28.6787 21.0093 28.8363 20.0791 29.0308 20.0791C29.2252 20.0791 29.3828 21.0093 29.3828 21.2037C29.3828 21.3982 29.2252 21.5558 29.0308 21.5558C28.8363 21.5558 28.6787 21.3982 28.6787 21.2037Z" fill="white"/>
<path d="M28.6789 20.0693C28.6789 19.8749 28.8366 19.7173 29.031 19.7173C29.2254 19.7173 29.3831 19.8749 29.3831 20.0693C29.3831 20.2638 29.2254 21.2037 29.031 21.2037C28.8366 21.2037 28.6789 20.2638 28.6789 20.0693Z" fill="white"/>
<path d="M18.655 16.0693C18.8495 16.0693 19.7797 16.2269 19.7797 16.4213C19.7797 16.6158 18.8495 16.7734 18.655 16.7734C18.4606 16.7734 18.303 16.6158 18.303 16.4213C18.303 16.2269 18.4606 16.0693 18.655 16.0693Z" fill="white"/>
<path d="M19.7894 16.0696C19.9839 16.0696 20.1415 16.2272 20.1415 16.4217C20.1415 16.6161 19.9839 16.7737 19.7894 16.7737C19.595 16.7737 18.655 16.6161 18.655 16.4217C18.655 16.2272 19.595 16.0696 19.7894 16.0696Z" fill="white"/>
<path d="M17.4033 21.9568C17.5978 21.9568 18.528 22.1144 18.528 22.3088C18.528 22.5033 17.5978 22.6609 17.4033 22.6609C17.2089 22.6609 17.0513 22.5033 17.0513 22.3088C17.0513 22.1144 17.2089 21.9568 17.4033 21.9568Z" fill="white"/>
<path d="M18.5377 21.9567C18.7322 21.9567 18.8898 22.1143 18.8898 22.3088C18.8898 22.5032 18.7322 22.6608 18.5377 22.6608C18.3433 22.6608 17.4033 22.5032 17.4033 22.3088C17.4033 22.1143 18.3433 21.9567 18.5377 21.9567Z" fill="white"/>
<path d="M14.2755 29.3782C14.2755 29.5686 14.0932 30.5463 13.8682 30.5463C13.6433 30.5463 13.4609 29.5686 13.4609 29.3782C13.4609 29.1879 13.6433 29.0336 13.8682 29.0336C14.0932 29.0336 14.2755 29.1879 14.2755 29.3782Z" fill="white"/>
<path d="M13.1116 29.3826C13.1116 29.6397 12.9132 29.848 12.6684 29.848C12.4236 29.848 11.5989 29.6397 11.5989 29.3826C11.5989 29.1255 12.4236 28.9171 12.6684 28.9171C12.9132 28.9171 13.1116 29.1255 13.1116 29.3826Z" fill="white"/>
<circle cx="12.6462" cy="30.5463" r="0.3491" fill="white"/>
<path d="M12.6463 29.3827C12.6463 29.5755 11.6686 29.7318 11.4782 29.7318C11.2879 29.7318 11.1335 29.5755 11.1335 29.3827C11.1335 29.1899 11.2879 29.0336 11.4782 29.0336C11.6686 29.0336 12.6463 29.1899 12.6463 29.3827Z" fill="white"/>
<path d="M14.2755 30.5463C14.2755 30.7391 14.0932 30.8954 13.8682 30.8954C13.6433 30.8954 13.4609 30.7391 13.4609 30.5463C13.4609 30.3535 13.6433 29.499 13.8682 29.499C14.0932 29.499 14.2755 30.3535 14.2755 30.5463Z" fill="white"/>
<path d="M14.2755 30.5463C14.2755 30.7391 14.0932 30.8954 13.8682 30.8954C13.6433 30.8954 13.4609 30.7391 13.4609 30.5463C13.4609 30.3535 13.6433 29.499 13.8682 29.499C14.0932 29.499 14.2755 30.3535 14.2755 30.5463Z" fill="white"/>
<path d="M14.2755 30.5463C14.2755 30.7391 14.0932 30.8954 13.8682 30.8954C13.6433 30.8954 13.4609 30.7391 13.4609 30.5463C13.4609 30.3535 13.6433 29.499 13.8682 29.499C14.0932 29.499 14.2755 30.3535 14.2755 30.5463Z" fill="white"/>
<ellipse cx="13.8682" cy="9.36759" rx="0.407283" ry="0.3491" fill="white"/>
<circle cx="19.6284" cy="32.8736" r="0.3491" fill="white"/>
<circle cx="20.9084" cy="32.8736" r="0.3491" fill="white"/>
<path d="M22.1702 33.2227C21.9875 33.2227 21.8394 33.0664 21.8394 32.8736C21.8394 32.6808 21.9875 32.5245 22.1702 32.5245C22.3528 32.5245 23.2358 32.6808 23.2358 32.8736C23.2358 33.0664 22.3528 33.2227 22.1702 33.2227Z" fill="white"/>
<defs>
<linearGradient id="paint0_linear_2027_3112" x1="9.13217" y1="5.03901" x2="30.3765" y2="44.067" gradientUnits="userSpaceOnUse">
<stop stop-color="#4E63F8"/>
<stop offset="1" stop-color="#00A298" stop-opacity="0.8"/>
</linearGradient>
</defs>
</svg>
