<svg width="112" height="40" viewBox="0 0 112 40" fill="none" xmlns="http://www.w3.org/2000/svg">
<g clip-path="url(#clip0_2027_2499)">
<path d="M63.9097 9.35202C64.4391 9.6167 64.7399 10.0258 64.8121 10.5792C64.9083 11.1326 64.776 11.6379 64.4151 12.0951C64.1504 12.456 63.8015 12.6605 63.3684 12.7087C62.9593 12.7568 62.5503 12.6726 62.1412 12.456C61.4434 12.0951 60.7095 11.8063 59.9395 11.5898C59.1696 11.3732 58.3515 11.2649 57.4852 11.2649C56.1137 11.2649 54.8745 11.4935 53.7677 11.9507C52.6849 12.3838 51.7465 13.0215 50.9524 13.8636C50.1584 14.6817 49.5448 15.6562 49.1117 16.7871C48.7026 17.9181 48.4981 19.1693 48.4981 20.5408C48.4981 22.0567 48.7267 23.4042 49.1839 24.5832C49.6411 25.7382 50.2667 26.7247 51.0607 27.5428C51.8788 28.3368 52.8293 28.9384 53.912 29.3474C55.0189 29.7324 56.21 29.9249 57.4852 29.9249C58.3033 29.9249 59.0974 29.8287 59.8674 29.6362C60.6614 29.4437 61.4073 29.1549 62.1051 28.77C62.5382 28.5534 62.9593 28.4812 63.3684 28.5534C63.8015 28.6015 64.1504 28.8061 64.4151 29.167C64.8241 29.6723 64.9685 30.1896 64.8482 30.719C64.7519 31.2243 64.4511 31.6093 63.9458 31.8739C63.3443 32.2108 62.6826 32.4995 61.9607 32.7402C61.2389 32.9808 60.505 33.1733 59.7591 33.3177C59.0132 33.462 58.2552 33.5342 57.4852 33.5342C55.7528 33.5342 54.1166 33.2455 52.5766 32.668C51.0366 32.0905 49.6651 31.2483 48.462 30.1415C47.2589 29.0346 46.3085 27.6751 45.6107 26.063C44.937 24.4509 44.6001 22.6101 44.6001 20.5408C44.6001 18.688 44.9129 16.9796 45.5385 15.4156C46.1882 13.8275 47.0905 12.468 48.2455 11.3371C49.4245 10.1822 50.796 9.29187 52.3601 8.66626C53.9241 8.01659 55.6325 7.69175 57.4852 7.69175C58.6402 7.69175 59.7591 7.83613 60.8419 8.12487C61.9487 8.41361 62.9713 8.82266 63.9097 9.35202Z" fill="white"/>
<path d="M68.1594 33.1733C67.63 33.1733 67.1969 33.0048 66.8601 32.668C66.5232 32.3071 66.3548 31.8619 66.3548 31.3325V16.0292C66.3548 15.4998 66.5232 15.0667 66.8601 14.7299C67.1969 14.3689 67.63 14.1885 68.1594 14.1885C68.6647 14.1885 69.0858 14.3689 69.4226 14.7299C69.7836 15.0667 69.964 15.4998 69.964 16.0292V20.0716L69.6031 18.5196C69.7956 17.8459 70.0843 17.2203 70.4693 16.6428C70.8784 16.0653 71.3596 15.56 71.913 15.1269C72.4665 14.6938 73.08 14.3569 73.7538 14.1163C74.4516 13.8757 75.1734 13.7553 75.9193 13.7553C76.545 13.7553 77.0864 13.9238 77.5435 14.2606C78.0007 14.5975 78.2293 15.0186 78.2293 15.5239C78.2293 16.1736 78.0609 16.6548 77.724 16.9676C77.3871 17.2564 77.0142 17.4007 76.6051 17.4007C76.2442 17.4007 75.8953 17.3285 75.5584 17.1842C75.2216 17.0157 74.8245 16.9315 74.3674 16.9315C73.8621 16.9315 73.3447 17.0639 72.8154 17.3285C72.286 17.5932 71.8048 17.9902 71.3717 18.5196C70.9385 19.0249 70.5896 19.6264 70.325 20.3242C70.0843 21.022 69.964 21.804 69.964 22.6703V31.3325C69.964 31.8619 69.7836 32.3071 69.4226 32.668C69.0858 33.0048 68.6647 33.1733 68.1594 33.1733Z" fill="white"/>
<path d="M78.156 30.2137C77.9394 29.8768 77.8432 29.4918 77.8672 29.0587C77.8913 28.6015 78.1439 28.2165 78.6252 27.9037C78.9621 27.6872 79.3109 27.603 79.6719 27.6511C80.0569 27.6751 80.4178 27.8556 80.7547 28.1925C81.4284 28.9384 82.1743 29.5279 82.9924 29.961C83.8346 30.3941 84.8452 30.6107 86.0242 30.6107C86.5054 30.5866 86.9987 30.5144 87.504 30.3941C88.0093 30.2498 88.4424 30.0091 88.8034 29.6723C89.1643 29.3113 89.3447 28.794 89.3447 28.1203C89.3447 27.5187 89.1523 27.0375 88.7673 26.6766C88.3823 26.3156 87.877 26.0269 87.2514 25.8103C86.6258 25.5697 85.952 25.3532 85.2302 25.1607C84.4602 24.9441 83.6782 24.7035 82.8841 24.4388C82.1142 24.1741 81.4164 23.8373 80.7908 23.4282C80.1651 22.9951 79.6478 22.4417 79.2388 21.768C78.8538 21.0942 78.6613 20.2641 78.6613 19.2775C78.6613 18.1466 78.9741 17.1721 79.5997 16.354C80.2494 15.5359 81.0795 14.8983 82.0901 14.4411C83.1248 13.9839 84.2436 13.7553 85.4467 13.7553C86.1445 13.7553 86.8784 13.8516 87.6484 14.0441C88.4184 14.2125 89.1643 14.4892 89.8861 14.8742C90.608 15.2592 91.2336 15.7645 91.763 16.3901C92.0036 16.7029 92.1359 17.0759 92.16 17.509C92.2081 17.9421 92.0156 18.3271 91.5825 18.664C91.2938 18.9046 90.9449 19.0129 90.5358 18.9888C90.1268 18.9647 89.7899 18.8324 89.5252 18.5918C89.068 18.0143 88.4785 17.5692 87.7567 17.2564C87.0348 16.9195 86.2167 16.7511 85.3024 16.7511C84.8452 16.7511 84.3639 16.8232 83.8586 16.9676C83.3774 17.0879 82.9683 17.3165 82.6315 17.6534C82.2946 17.9902 82.1262 18.4835 82.1262 19.1332C82.1262 19.7347 82.3187 20.216 82.7037 20.5769C83.1127 20.9378 83.6421 21.2386 84.2918 21.4792C84.9414 21.7198 85.6512 21.9364 86.4212 22.1289C87.1671 22.3214 87.901 22.55 88.6229 22.8146C89.3688 23.0793 90.0305 23.4282 90.608 23.8613C91.2095 24.2704 91.6908 24.8118 92.0517 25.4855C92.4367 26.1352 92.6292 26.9653 92.6292 27.9759C92.6292 29.1549 92.2803 30.1655 91.5825 31.0077C90.9088 31.8258 90.0425 32.4514 88.9838 32.8845C87.9492 33.3177 86.8543 33.5342 85.6994 33.5342C84.3278 33.5342 82.9563 33.2936 81.5848 32.8124C80.2373 32.3071 79.0944 31.4408 78.156 30.2137Z" fill="white"/>
<path d="M94.0924 14.405H102.574C103.055 14.405 103.452 14.5735 103.765 14.9103C104.102 15.2231 104.271 15.6201 104.271 16.1014C104.271 16.5586 104.102 16.9435 103.765 17.2564C103.452 17.5692 103.055 17.7256 102.574 17.7256H94.0924C93.6111 17.7256 93.2021 17.5692 92.8652 17.2564C92.5524 16.9195 92.396 16.5225 92.396 16.0653C92.396 15.584 92.5524 15.187 92.8652 14.8742C93.2021 14.5614 93.6111 14.405 94.0924 14.405ZM97.8821 9.71295C98.4115 9.71295 98.8446 9.89342 99.1814 10.2543C99.5183 10.5912 99.6867 11.0243 99.6867 11.5537V28.3008C99.6867 28.7339 99.7589 29.0828 99.9033 29.3474C100.048 29.6121 100.24 29.7926 100.481 29.8888C100.745 29.9851 101.01 30.0332 101.275 30.0332C101.54 30.0332 101.768 29.9851 101.961 29.8888C102.177 29.7926 102.43 29.7445 102.719 29.7445C103.007 29.7445 103.272 29.8768 103.513 30.1415C103.753 30.4062 103.874 30.7671 103.874 31.2243C103.874 31.8018 103.561 32.271 102.935 32.6319C102.309 32.9928 101.636 33.1733 100.914 33.1733C100.505 33.1733 100.024 33.1372 99.4702 33.065C98.9168 32.9928 98.3754 32.8124 97.846 32.5236C97.3407 32.2349 96.9196 31.7777 96.5828 31.1521C96.2459 30.5024 96.0775 29.6001 96.0775 28.4451V11.5537C96.0775 11.0243 96.2459 10.5912 96.5828 10.2543C96.9437 9.89342 97.3768 9.71295 97.8821 9.71295Z" fill="white"/>
<path d="M110 31.3325C110 31.8619 109.82 32.3071 109.459 32.668C109.122 33.0048 108.701 33.1733 108.195 33.1733C107.69 33.1733 107.257 33.0048 106.896 32.668C106.559 32.3071 106.391 31.8619 106.391 31.3325V8.30533C106.391 7.77597 106.571 7.34286 106.932 7.00599C107.293 6.64506 107.726 6.4646 108.231 6.4646C108.761 6.4646 109.182 6.64506 109.495 7.00599C109.832 7.34286 110 7.77597 110 8.30533V31.3325Z" fill="white"/>
<path d="M19.2072 1.52245C20.3727 0.849506 21.8088 0.849505 22.9744 1.52245L36.5144 9.3398C37.68 10.0127 38.398 11.2564 38.398 12.6023V28.237C38.398 29.5829 37.68 30.8265 36.5144 31.4995L22.9744 39.3168C21.8088 39.9897 20.3727 39.9898 19.2072 39.3168L5.66713 31.4995C4.50156 30.8265 3.78354 29.5829 3.78354 28.237V12.6023C3.78354 11.2564 4.50156 10.0127 5.66713 9.3398L19.2072 1.52245Z" fill="url(#paint0_linear_2027_2499)" stroke="#4E63F8" stroke-width="0.183765"/>
<path d="M17.7191 9.9494C17.7191 10.5278 17.2502 10.9967 16.6718 10.9967C16.0934 10.9967 15.6245 10.5278 15.6245 9.9494C15.6245 9.37099 16.0934 8.9021 16.6718 8.9021C17.0054 8.9021 17.3026 9.05807 17.4944 9.30107C17.6351 9.4794 17.7191 9.70459 17.7191 9.9494Z" fill="white"/>
<path d="M22.2574 8.8441C22.2574 9.39037 21.7885 9.83321 21.2101 9.83321C20.6317 9.83321 20.1628 9.39037 20.1628 8.8441C20.1628 8.29782 20.6317 7.85498 21.2101 7.85498C21.5437 7.85498 21.8409 8.00229 22.0327 8.23179C22.1734 8.4002 22.2574 8.61289 22.2574 8.8441Z" fill="white"/>
<ellipse cx="14.2282" cy="12.2186" rx="0.698199" ry="0.640016" fill="white"/>
<circle cx="18.941" cy="8.84412" r="0.640016" fill="white"/>
<circle cx="11.7843" cy="18.2115" r="0.814565" fill="white"/>
<ellipse cx="27.2031" cy="18.2115" rx="0.872749" ry="0.814565" fill="white"/>
<ellipse cx="31.8576" cy="18.328" rx="0.872749" ry="0.814565" fill="white"/>
<circle cx="29.4723" cy="24.0299" r="0.814565" fill="white"/>
<ellipse cx="18.941" cy="18.2115" rx="0.756382" ry="0.814565" fill="white"/>
<circle cx="16.6718" cy="30.081" r="1.0473" fill="white"/>
<path d="M17.3701 8.20408C17.3701 8.39688 16.3135 8.55318 16.1098 8.55318C15.9061 8.55318 15.741 8.39688 15.741 8.20408C15.741 8.01128 15.9061 7.85498 16.1098 7.85498C16.3135 7.85498 17.3701 8.01128 17.3701 8.20408Z" fill="white"/>
<path d="M14.6936 10.5897C14.6936 10.8146 13.9209 10.9969 13.7404 10.9969C13.5599 10.9969 13.4136 10.8146 13.4136 10.5897C13.4136 10.3647 13.5599 10.1824 13.7404 10.1824C13.9209 10.1824 14.6936 10.3647 14.6936 10.5897Z" fill="white"/>
<path d="M16.4391 11.7988C16.4391 11.9845 16.2567 12.7424 16.0318 12.7424C15.8069 12.7424 15.6245 11.9845 15.6245 11.7988C15.6245 11.613 15.8069 11.4624 16.0318 11.4624C16.2567 11.4624 16.4391 11.613 16.4391 11.7988Z" fill="white"/>
<path d="M16.3306 11.8057C16.3306 12.0001 16.173 12.7934 15.9785 12.7934C15.7841 12.7934 15.6265 12.0001 15.6265 11.8057C15.6265 11.6112 15.7841 11.4536 15.9785 11.4536C16.173 11.4536 16.3306 11.6112 16.3306 11.8057Z" fill="white"/>
<path d="M16.3301 12.979C16.3301 13.1735 16.1725 13.3311 15.978 13.3311C15.7836 13.3311 15.626 13.1735 15.626 12.979C15.626 12.7846 15.7836 12.0989 15.978 12.0989C16.1725 12.0989 16.3301 12.7846 16.3301 12.979Z" fill="white"/>
<path d="M11.7927 12.9988C11.7927 13.1932 11.6351 13.9865 11.4407 13.9865C11.2462 13.9865 11.0886 13.1932 11.0886 12.9988C11.0886 12.8044 11.2462 12.6467 11.4407 12.6467C11.6351 12.6467 11.7927 12.8044 11.7927 12.9988Z" fill="white"/>
<path d="M11.7925 14.1724C11.7925 14.3668 11.6349 14.5244 11.4404 14.5244C11.246 14.5244 11.0884 14.3668 11.0884 14.1724C11.0884 13.9779 11.246 13.2922 11.4404 13.2922C11.6349 13.2922 11.7925 13.9779 11.7925 14.1724Z" fill="white"/>
<path d="M24.6035 10.6323C24.6035 10.8268 24.4459 11.6201 24.2515 11.6201C24.057 11.6201 23.8994 10.8268 23.8994 10.6323C23.8994 10.4379 24.057 10.2803 24.2515 10.2803C24.4459 10.2803 24.6035 10.4379 24.6035 10.6323Z" fill="white"/>
<path d="M24.6035 11.8059C24.6035 12.0004 24.4459 12.158 24.2515 12.158C24.057 12.158 23.8994 12.0004 23.8994 11.8059C23.8994 11.6115 24.057 10.9258 24.2515 10.9258C24.4459 10.9258 24.6035 11.6115 24.6035 11.8059Z" fill="white"/>
<path d="M24.6035 9.53712C24.6035 9.73156 24.4459 10.5248 24.2515 10.5248C24.057 10.5248 23.8994 9.73156 23.8994 9.53712C23.8994 9.34268 24.057 9.18506 24.2515 9.18506C24.4459 9.18506 24.6035 9.34268 24.6035 9.53712Z" fill="white"/>
<path d="M24.6035 10.7107C24.6035 10.9052 24.4459 11.0628 24.2515 11.0628C24.057 11.0628 23.8994 10.9052 23.8994 10.7107C23.8994 10.5163 24.057 9.83057 24.2515 9.83057C24.4459 9.83057 24.6035 10.5163 24.6035 10.7107Z" fill="white"/>
<path d="M20.9851 18.9448C20.9851 19.1393 20.8275 19.9326 20.6331 19.9326C20.4386 19.9326 20.281 19.1393 20.281 18.9448C20.281 18.7504 20.4386 18.5928 20.6331 18.5928C20.8275 18.5928 20.9851 18.7504 20.9851 18.9448Z" fill="white"/>
<path d="M20.9851 20.1184C20.9851 20.3129 20.8275 20.4705 20.6331 20.4705C20.4386 20.4705 20.281 20.3129 20.281 20.1184C20.281 19.924 20.4386 19.2383 20.6331 19.2383C20.8275 19.2383 20.9851 19.924 20.9851 20.1184Z" fill="white"/>
<path d="M25.7383 10.6323C25.7383 10.8268 25.5807 11.6201 25.3862 11.6201C25.1918 11.6201 25.0342 10.8268 25.0342 10.6323C25.0342 10.4379 25.1918 10.2803 25.3862 10.2803C25.5807 10.2803 25.7383 10.4379 25.7383 10.6323Z" fill="white"/>
<path d="M25.7381 11.8059C25.7381 12.0004 25.5804 12.158 25.386 12.158C25.1916 12.158 25.0339 12.0004 25.0339 11.8059C25.0339 11.6115 25.1916 10.9258 25.386 10.9258C25.5804 10.9258 25.7381 11.6115 25.7381 11.8059Z" fill="white"/>
<path d="M22.1199 18.9448C22.1199 19.1393 21.9623 19.9326 21.7678 19.9326C21.5734 19.9326 21.4158 19.1393 21.4158 18.9448C21.4158 18.7504 21.5734 18.5928 21.7678 18.5928C21.9623 18.5928 22.1199 18.7504 22.1199 18.9448Z" fill="white"/>
<path d="M22.1196 20.1184C22.1196 20.3129 21.962 20.4705 21.7676 20.4705C21.5732 20.4705 21.4155 20.3129 21.4155 20.1184C21.4155 19.924 21.5732 19.2383 21.7676 19.2383C21.962 19.2383 22.1196 19.924 22.1196 20.1184Z" fill="white"/>
<path d="M23.4104 9.53712C23.4104 9.73156 23.2528 10.5248 23.0584 10.5248C22.8639 10.5248 22.7063 9.73156 22.7063 9.53712C22.7063 9.34268 22.8639 9.18506 23.0584 9.18506C23.2528 9.18506 23.4104 9.34268 23.4104 9.53712Z" fill="white"/>
<path d="M23.4104 10.7107C23.4104 10.9052 23.2528 11.0628 23.0584 11.0628C22.8639 11.0628 22.7063 10.9052 22.7063 10.7107C22.7063 10.5163 22.8639 9.83057 23.0584 9.83057C23.2528 9.83057 23.4104 10.5163 23.4104 10.7107Z" fill="white"/>
<path d="M20.0071 10.675C20.0071 10.839 19.8495 11.5084 19.655 11.5084C19.4606 11.5084 19.303 10.839 19.303 10.675C19.303 10.5109 19.4606 10.3779 19.655 10.3779C19.8495 10.3779 20.0071 10.5109 20.0071 10.675Z" fill="white"/>
<path d="M20.0071 11.6652C20.0071 11.8293 19.8495 11.9623 19.655 11.9623C19.4606 11.9623 19.303 11.8293 19.303 11.6652C19.303 11.5012 19.4606 10.9226 19.655 10.9226C19.8495 10.9226 20.0071 11.5012 20.0071 11.6652Z" fill="white"/>
<path d="M17.6028 8.20408C17.6028 8.39688 17.4595 8.55318 17.2828 8.55318C17.106 8.55318 16.3228 8.39688 16.3228 8.20408C16.3228 8.01128 17.106 7.85498 17.2828 7.85498C17.4595 7.85498 17.6028 8.01128 17.6028 8.20408Z" fill="white"/>
<path d="M15.2753 10.5315C15.2753 10.7243 15.1134 10.8806 14.9136 10.8806C14.7139 10.8806 13.8789 10.7243 13.8789 10.5315C13.8789 10.3387 14.7139 10.1824 14.9136 10.1824C15.1134 10.1824 15.2753 10.3387 15.2753 10.5315Z" fill="white"/>
<path d="M15.2753 10.5315C15.2753 10.7243 15.1134 10.8806 14.9136 10.8806C14.7139 10.8806 13.8789 10.7243 13.8789 10.5315C13.8789 10.3387 14.7139 10.1824 14.9136 10.1824C15.1134 10.1824 15.2753 10.3387 15.2753 10.5315Z" fill="white"/>
<circle cx="17.2536" cy="11.8115" r="0.3491" fill="white"/>
<ellipse cx="18.4755" cy="11.8115" rx="0.290916" ry="0.3491" fill="white"/>
<circle cx="23.072" cy="11.8115" r="0.3491" fill="white"/>
<circle cx="28.8901" cy="11.8115" r="0.3491" fill="white"/>
<ellipse cx="26.6212" cy="12.8586" rx="0.290916" ry="0.3491" fill="white"/>
<ellipse cx="26.6212" cy="15.4187" rx="0.290916" ry="0.3491" fill="white"/>
<circle cx="27.785" cy="14.0806" r="0.407283" fill="white"/>
<circle cx="30.0539" cy="11.8115" r="0.3491" fill="white"/>
<circle cx="30.0539" cy="16.5825" r="0.3491" fill="white"/>
<circle cx="29.0068" cy="22.4006" r="0.3491" fill="white"/>
<circle cx="31.2757" cy="25.8336" r="0.407283" fill="white"/>
<ellipse cx="32.4978" cy="25.8336" rx="0.3491" ry="0.407283" fill="white"/>
<ellipse cx="27.785" cy="23.5062" rx="0.407283" ry="0.290916" fill="white"/>
<ellipse cx="27.785" cy="24.6118" rx="0.407283" ry="0.3491" fill="white"/>
<circle cx="27.785" cy="27.1136" r="0.407283" fill="white"/>
<circle cx="27.785" cy="25.8336" r="0.407283" fill="white"/>
<circle cx="27.785" cy="30.6045" r="0.407283" fill="white"/>
<circle cx="29.0068" cy="29.3828" r="0.3491" fill="white"/>
<circle cx="26.6212" cy="23.5062" r="0.290916" fill="white"/>
<circle cx="25.3994" cy="31.7102" r="0.3491" fill="white"/>
<ellipse cx="26.6212" cy="28.219" rx="0.290916" ry="0.3491" fill="white"/>
<ellipse cx="26.6212" cy="27.1136" rx="0.290916" ry="0.407283" fill="white"/>
<circle cx="25.3994" cy="28.219" r="0.3491" fill="white"/>
<circle cx="24.2356" cy="29.3828" r="0.3491" fill="white"/>
<circle cx="30.0539" cy="12.8586" r="0.3491" fill="white"/>
<circle cx="31.2757" cy="14.0806" r="0.407283" fill="white"/>
<ellipse cx="31.2757" cy="15.3025" rx="0.407283" ry="0.3491" fill="white"/>
<circle cx="32.7304" cy="15.3025" r="0.3491" fill="white"/>
<circle cx="33.5449" cy="19.957" r="0.3491" fill="white"/>
<circle cx="33.5449" cy="21.1206" r="0.3491" fill="white"/>
<circle cx="33.5449" cy="22.2844" r="0.3491" fill="white"/>
<circle cx="23.072" cy="8.20408" r="0.3491" fill="white"/>
<circle cx="27.785" cy="10.5897" r="0.407283" fill="white"/>
<ellipse cx="29.0068" cy="10.5897" rx="0.3491" ry="0.407283" fill="white"/>
<ellipse cx="12.4826" cy="11.7533" rx="0.3491" ry="0.290916" fill="white"/>
<ellipse cx="12.4826" cy="14.1968" rx="0.3491" ry="0.407283" fill="white"/>
<circle cx="12.4826" cy="16.6987" r="0.3491" fill="white"/>
<circle cx="13.53" cy="16.5825" r="0.3491" fill="white"/>
<circle cx="13.6462" cy="26.008" r="0.3491" fill="white"/>
<ellipse cx="12.4826" cy="23.5062" rx="0.3491" ry="0.290916" fill="white"/>
<ellipse cx="13.53" cy="23.5062" rx="0.3491" ry="0.290916" fill="white"/>
<circle cx="12.4826" cy="22.4006" r="0.3491" fill="white"/>
<circle cx="8.99168" cy="16.6987" r="0.3491" fill="white"/>
<circle cx="10.1553" cy="26.008" r="0.3491" fill="white"/>
<circle cx="12.4826" cy="28.219" r="0.3491" fill="white"/>
<circle cx="10.1553" cy="24.6118" r="0.3491" fill="white"/>
<ellipse cx="16.1482" cy="18.7934" rx="0.407283" ry="0.3491" fill="white"/>
<ellipse cx="16.1482" cy="17.7461" rx="0.407283" ry="0.3491" fill="white"/>
<circle cx="17.2536" cy="16.466" r="0.3491" fill="white"/>
<ellipse cx="19.4646" cy="14.0806" rx="0.3491" ry="0.407283" fill="white"/>
<ellipse cx="23.072" cy="15.3607" rx="0.3491" ry="0.407283" fill="white"/>
<ellipse cx="23.072" cy="14.0806" rx="0.3491" ry="0.407283" fill="white"/>
<ellipse cx="24.2356" cy="15.3607" rx="0.3491" ry="0.407283" fill="white"/>
<circle cx="25.2829" cy="16.466" r="0.3491" fill="white"/>
<circle cx="14.8682" cy="14.0806" r="0.407283" fill="white"/>
<ellipse cx="16.1482" cy="19.957" rx="0.407283" ry="0.3491" fill="white"/>
<ellipse cx="16.1482" cy="21.1206" rx="0.407283" ry="0.3491" fill="white"/>
<ellipse cx="16.1482" cy="28.219" rx="0.407283" ry="0.3491" fill="white"/>
<circle cx="17.2536" cy="28.219" r="0.3491" fill="white"/>
<ellipse cx="18.359" cy="28.219" rx="0.290916" ry="0.3491" fill="white"/>
<ellipse cx="18.4172" cy="29.3246" rx="0.3491" ry="0.290916" fill="white"/>
<circle cx="17.2536" cy="22.2844" r="0.3491" fill="white"/>
<ellipse cx="16.1482" cy="22.2844" rx="0.407283" ry="0.3491" fill="white"/>
<circle cx="17.2536" cy="23.448" r="0.3491" fill="white"/>
<circle cx="17.2536" cy="24.6118" r="0.3491" fill="white"/>
<ellipse cx="13.588" cy="24.6118" rx="0.290916" ry="0.3491" fill="white"/>
<ellipse cx="16.1482" cy="23.448" rx="0.407283" ry="0.3491" fill="white"/>
<circle cx="16.1482" cy="26.9971" r="0.407283" fill="white"/>
<circle cx="14.7518" cy="25.8336" r="0.407283" fill="white"/>
<ellipse cx="18.301" cy="23.5062" rx="0.3491" ry="0.290916" fill="white"/>
<ellipse cx="19.581" cy="25.8336" rx="0.3491" ry="0.407283" fill="white"/>
<ellipse cx="23.072" cy="25.8336" rx="0.3491" ry="0.407283" fill="white"/>
<ellipse cx="24.1774" cy="25.8336" rx="0.290916" ry="0.407283" fill="white"/>
<circle cx="25.2829" cy="19.957" r="0.3491" fill="white"/>
<circle cx="23.072" cy="22.2844" r="0.3491" fill="white"/>
<circle cx="22.0246" cy="16.466" r="0.3491" fill="white"/>
<path d="M13.9953 15.3546C13.9953 15.5829 13.839 15.768 13.6462 15.768C13.4534 15.768 13.2971 15.5829 13.2971 15.3546C13.2971 15.1262 13.4534 14.0225 13.6462 14.0225C13.839 14.0225 13.9953 15.1262 13.9953 15.3546Z" fill="white"/>
<path d="M25.3015 18.4444C25.4842 18.4444 25.6322 18.6007 25.6322 18.7935C25.6322 18.9863 25.4842 19.1426 25.3015 19.1426C25.1189 19.1426 24.2358 18.9863 24.2358 18.7935C24.2358 18.6007 25.1189 18.4444 25.3015 18.4444Z" fill="white"/>
<path d="M20.9775 22.2753C20.9775 22.4732 20.8212 22.6336 20.6284 22.6336C20.4356 22.6336 20.2793 22.4732 20.2793 22.2753C20.2793 22.0775 20.4356 21.1208 20.6284 21.1208C20.8212 21.1208 20.9775 22.0775 20.9775 22.2753Z" fill="white"/>
<path d="M32.8469 22.2753C32.8469 22.4732 32.6906 22.6336 32.4978 22.6336C32.305 22.6336 32.1487 22.4732 32.1487 22.2753C32.1487 22.0775 32.305 21.1208 32.4978 21.1208C32.6906 21.1208 32.8469 22.0775 32.8469 22.2753Z" fill="white"/>
<path d="M26.5109 22.6335C26.2826 22.6335 26.0975 22.4772 26.0975 22.2844C26.0975 22.0916 26.2826 21.9353 26.5109 21.9353C26.7392 21.9353 27.843 22.0916 27.843 22.2844C27.843 22.4772 26.7392 22.6335 26.5109 22.6335Z" fill="white"/>
<path d="M19.4555 24.2625C19.6534 24.2625 19.8138 24.4188 19.8138 24.6116C19.8138 24.8044 19.6534 24.9607 19.4555 24.9607C19.2576 24.9607 18.301 24.8044 18.301 24.6116C18.301 24.4188 19.2576 24.2625 19.4555 24.2625Z" fill="white"/>
<path d="M10.4234 20.0794C10.4234 20.2738 10.2657 21.204 10.0713 21.204C9.87686 21.204 9.71924 20.2738 9.71924 20.0794C9.71924 19.8849 9.87686 19.7273 10.0713 19.7273C10.2657 19.7273 10.4234 19.8849 10.4234 20.0794Z" fill="white"/>
<path d="M10.4234 21.2138C10.4234 21.4082 10.2657 21.5658 10.0713 21.5658C9.87686 21.5658 9.71924 21.4082 9.71924 21.2138C9.71924 21.0193 9.87686 20.0793 10.0713 20.0793C10.2657 20.0793 10.4234 21.0193 10.4234 21.2138Z" fill="white"/>
<path d="M11.6951 27.0422C11.6951 27.2367 11.5375 28.1669 11.343 28.1669C11.1486 28.1669 10.991 27.2367 10.991 27.0422C10.991 26.8478 11.1486 26.6902 11.343 26.6902C11.5375 26.6902 11.6951 26.8478 11.6951 27.0422Z" fill="white"/>
<path d="M11.6948 28.1767C11.6948 28.3711 11.5372 28.5287 11.3428 28.5287C11.1483 28.5287 10.9907 28.3711 10.9907 28.1767C10.9907 27.9822 11.1483 27.0422 11.3428 27.0422C11.5372 27.0422 11.6948 27.9822 11.6948 28.1767Z" fill="white"/>
<path d="M9.23024 20.0794C9.23024 20.2738 9.07262 21.204 8.87818 21.204C8.68375 21.204 8.52612 20.2738 8.52612 20.0794C8.52612 19.8849 8.68375 19.7273 8.87818 19.7273C9.07262 19.7273 9.23024 19.8849 9.23024 20.0794Z" fill="white"/>
<path d="M9.23024 21.2138C9.23024 21.4082 9.07262 21.5658 8.87818 21.5658C8.68375 21.5658 8.52612 21.4082 8.52612 21.2138C8.52612 21.0193 8.68375 20.0793 8.87818 20.0793C9.07262 20.0793 9.23024 21.0193 9.23024 21.2138Z" fill="white"/>
<path d="M17.5821 17.5952C17.5821 17.7897 17.4244 18.7199 17.23 18.7199C17.0356 18.7199 16.8779 17.7897 16.8779 17.5952C16.8779 17.4008 17.0356 17.2432 17.23 17.2432C17.4244 17.2432 17.5821 17.4008 17.5821 17.5952Z" fill="white"/>
<path d="M17.5818 18.7296C17.5818 18.9241 17.4242 19.0817 17.2297 19.0817C17.0353 19.0817 16.8777 18.9241 16.8777 18.7296C16.8777 18.5352 17.0353 17.5952 17.2297 17.5952C17.4242 17.5952 17.5818 18.5352 17.5818 18.7296Z" fill="white"/>
<path d="M17.5821 19.9619C17.5821 20.1564 17.4244 21.0866 17.23 21.0866C17.0356 21.0866 16.8779 20.1564 16.8779 19.9619C16.8779 19.7675 17.0356 19.6099 17.23 19.6099C17.4244 19.6099 17.5821 19.7675 17.5821 19.9619Z" fill="white"/>
<path d="M17.5818 21.0963C17.5818 21.2908 17.4242 21.4484 17.2297 21.4484C17.0353 21.4484 16.8777 21.2908 16.8777 21.0963C16.8777 20.9019 17.0353 19.9619 17.2297 19.9619C17.4242 19.9619 17.5818 20.9019 17.5818 21.0963Z" fill="white"/>
<path d="M18.4033 16.0696C18.5978 16.0696 19.528 16.2272 19.528 16.4216C19.528 16.6161 18.5978 16.7737 18.4033 16.7737C18.2089 16.7737 18.0513 16.6161 18.0513 16.4216C18.0513 16.2272 18.2089 16.0696 18.4033 16.0696Z" fill="white"/>
<path d="M19.5377 16.0698C19.7322 16.0698 19.8898 16.2274 19.8898 16.4219C19.8898 16.6163 19.7322 16.7739 19.5377 16.7739C19.3433 16.7739 18.4033 16.6163 18.4033 16.4219C18.4033 16.2274 19.3433 16.0698 19.5377 16.0698Z" fill="white"/>
<path d="M18.4033 20.7444C18.5978 20.7444 19.528 20.902 19.528 21.0964C19.528 21.2909 18.5978 21.4485 18.4033 21.4485C18.2089 21.4485 18.0513 21.2909 18.0513 21.0964C18.0513 20.902 18.2089 20.7444 18.4033 20.7444Z" fill="white"/>
<path d="M19.5377 20.7444C19.7322 20.7444 19.8898 20.902 19.8898 21.0964C19.8898 21.2909 19.7322 21.4485 19.5377 21.4485C19.3433 21.4485 18.4033 21.2909 18.4033 21.0964C18.4033 20.902 19.3433 20.7444 19.5377 20.7444Z" fill="white"/>
<path d="M18.4033 19.6291C18.5978 19.6291 19.528 19.7868 19.528 19.9812C19.528 20.1756 18.5978 20.3333 18.4033 20.3333C18.2089 20.3333 18.0513 20.1756 18.0513 19.9812C18.0513 19.7868 18.2089 19.6291 18.4033 19.6291Z" fill="white"/>
<path d="M19.5377 19.6294C19.7322 19.6294 19.8898 19.787 19.8898 19.9814C19.8898 20.1759 19.7322 20.3335 19.5377 20.3335C19.3433 20.3335 18.4033 20.1759 18.4033 19.9814C18.4033 19.787 19.3433 19.6294 19.5377 19.6294Z" fill="white"/>
<path d="M16.0955 20.7246C16.2899 20.7246 17.2201 20.8822 17.2201 21.0767C17.2201 21.2711 16.2899 21.4287 16.0955 21.4287C15.901 21.4287 15.7434 21.2711 15.7434 21.0767C15.7434 20.8822 15.901 20.7246 16.0955 20.7246Z" fill="white"/>
<path d="M17.2299 20.7248C17.4243 20.7248 17.5819 20.8825 17.5819 21.0769C17.5819 21.2713 17.4243 21.429 17.2299 21.429C17.0354 21.429 16.0955 21.2713 16.0955 21.0769C16.0955 20.8825 17.0354 20.7248 17.2299 20.7248Z" fill="white"/>
<path d="M20.7122 19.7661C20.8963 19.7661 21.7771 19.9237 21.7771 20.1182C21.7771 20.3126 20.8963 20.4702 20.7122 20.4702C20.5281 20.4702 20.3789 20.3126 20.3789 20.1182C20.3789 19.9237 20.5281 19.7661 20.7122 19.7661Z" fill="white"/>
<path d="M21.7862 19.7663C21.9703 19.7663 22.1196 19.924 22.1196 20.1184C22.1196 20.3128 21.9703 20.4705 21.7862 20.4705C21.6021 20.4705 20.7122 20.3128 20.7122 20.1184C20.7122 19.924 21.6021 19.7663 21.7862 19.7663Z" fill="white"/>
<path d="M20.7122 24.3625C20.8963 24.3625 21.7771 24.5202 21.7771 24.7146C21.7771 24.909 20.8963 25.0667 20.7122 25.0667C20.5281 25.0667 20.3789 24.909 20.3789 24.7146C20.3789 24.5202 20.5281 24.3625 20.7122 24.3625Z" fill="white"/>
<path d="M21.7862 24.3625C21.9703 24.3625 22.1196 24.5202 22.1196 24.7146C22.1196 24.909 21.9703 25.0667 21.7862 25.0667C21.6021 25.0667 20.7122 24.909 20.7122 24.7146C20.7122 24.5202 21.6021 24.3625 21.7862 24.3625Z" fill="white"/>
<path d="M20.7122 25.4577C20.8963 25.4577 21.7771 25.6154 21.7771 25.8098C21.7771 26.0042 20.8963 26.1619 20.7122 26.1619C20.5281 26.1619 20.3789 26.0042 20.3789 25.8098C20.3789 25.6154 20.5281 25.4577 20.7122 25.4577Z" fill="white"/>
<path d="M21.7862 25.458C21.9703 25.458 22.1196 25.6156 22.1196 25.81C22.1196 26.0045 21.9703 26.1621 21.7862 26.1621C21.6021 26.1621 20.7122 26.0045 20.7122 25.81C20.7122 25.6156 21.6021 25.458 21.7862 25.458Z" fill="white"/>
<path d="M25.4649 29.0371C25.649 29.0371 26.5297 29.1947 26.5297 29.3892C26.5297 29.5836 25.649 29.7412 25.4649 29.7412C25.2808 29.7412 25.1316 29.5836 25.1316 29.3892C25.1316 29.1947 25.2808 29.0371 25.4649 29.0371Z" fill="white"/>
<path d="M26.5392 29.0371C26.7233 29.0371 26.8725 29.1947 26.8725 29.3892C26.8725 29.5836 26.7233 29.7412 26.5392 29.7412C26.3551 29.7412 25.4651 29.5836 25.4651 29.3892C25.4651 29.1947 26.3551 29.0371 26.5392 29.0371Z" fill="white"/>
<path d="M25.4649 30.2495C25.649 30.2495 26.5297 30.4071 26.5297 30.6016C26.5297 30.796 25.649 30.9536 25.4649 30.9536C25.2808 30.9536 25.1316 30.796 25.1316 30.6016C25.1316 30.4071 25.2808 30.2495 25.4649 30.2495Z" fill="white"/>
<path d="M26.5392 30.2497C26.7233 30.2497 26.8725 30.4074 26.8725 30.6018C26.8725 30.7962 26.7233 30.9539 26.5392 30.9539C26.3551 30.9539 25.4651 30.7962 25.4651 30.6018C25.4651 30.4074 26.3551 30.2497 26.5392 30.2497Z" fill="white"/>
<path d="M23.0985 24.3625C23.2826 24.3625 24.1633 24.5202 24.1633 24.7146C24.1633 24.909 23.2826 25.0667 23.0985 25.0667C22.9144 25.0667 22.7651 24.909 22.7651 24.7146C22.7651 24.5202 22.9144 24.3625 23.0985 24.3625Z" fill="white"/>
<path d="M24.1725 24.3625C24.3566 24.3625 24.5058 24.5202 24.5058 24.7146C24.5058 24.909 24.3566 25.0667 24.1725 25.0667C23.9884 25.0667 23.0984 24.909 23.0984 24.7146C23.0984 24.5202 23.9884 24.3625 24.1725 24.3625Z" fill="white"/>
<path d="M24.3306 24.3625C24.5147 24.3625 25.3955 24.5202 25.3955 24.7146C25.3955 24.909 24.5147 25.0667 24.3306 25.0667C24.1466 25.0667 23.9973 24.909 23.9973 24.7146C23.9973 24.5202 24.1466 24.3625 24.3306 24.3625Z" fill="white"/>
<path d="M25.4046 24.3625C25.5887 24.3625 25.738 24.5202 25.738 24.7146C25.738 24.909 25.5887 25.0667 25.4046 25.0667C25.2205 25.0667 24.3306 24.909 24.3306 24.7146C24.3306 24.5202 25.2205 24.3625 25.4046 24.3625Z" fill="white"/>
<path d="M21.9444 20.7832C22.1285 20.7832 23.0092 20.9408 23.0092 21.1352C23.0092 21.3297 22.1285 21.4873 21.9444 21.4873C21.7603 21.4873 21.6111 21.3297 21.6111 21.1352C21.6111 20.9408 21.7603 20.7832 21.9444 20.7832Z" fill="white"/>
<path d="M23.0184 20.7834C23.2025 20.7834 23.3517 20.9411 23.3517 21.1355C23.3517 21.3299 23.2025 21.4875 23.0184 21.4875C22.8343 21.4875 21.9443 21.3299 21.9443 21.1355C21.9443 20.9411 22.8343 20.7834 23.0184 20.7834Z" fill="white"/>
<path d="M23.1571 20.7832C23.3412 20.7832 24.2219 20.9408 24.2219 21.1352C24.2219 21.3297 23.3412 21.4873 23.1571 21.4873C22.973 21.4873 22.8237 21.3297 22.8237 21.1352C22.8237 20.9408 22.973 20.7832 23.1571 20.7832Z" fill="white"/>
<path d="M24.2311 20.7834C24.4152 20.7834 24.5644 20.9411 24.5644 21.1355C24.5644 21.3299 24.4152 21.4875 24.2311 21.4875C24.047 21.4875 23.157 21.3299 23.157 21.1355C23.157 20.9411 24.047 20.7834 24.2311 20.7834Z" fill="white"/>
<path d="M24.2718 20.7832C24.4559 20.7832 25.3366 20.9408 25.3366 21.1352C25.3366 21.3297 24.4559 21.4873 24.2718 21.4873C24.0877 21.4873 23.9385 21.3297 23.9385 21.1352C23.9385 20.9408 24.0877 20.7832 24.2718 20.7832Z" fill="white"/>
<path d="M25.3458 20.7834C25.5299 20.7834 25.6791 20.9411 25.6791 21.1355C25.6791 21.3299 25.5299 21.4875 25.3458 21.4875C25.1617 21.4875 24.2717 21.3299 24.2717 21.1355C24.2717 20.9411 25.1617 20.7834 25.3458 20.7834Z" fill="white"/>
<path d="M26.9312 20.0997C26.9312 20.2838 26.7735 21.1645 26.5791 21.1645C26.3847 21.1645 26.2271 20.2838 26.2271 20.0997C26.2271 19.9156 26.3847 19.7664 26.5791 19.7664C26.7735 19.7664 26.9312 19.9156 26.9312 20.0997Z" fill="white"/>
<path d="M26.9312 21.1737C26.9312 21.3578 26.7735 21.507 26.5791 21.507C26.3847 21.507 26.2271 21.3578 26.2271 21.1737C26.2271 20.9896 26.3847 20.0996 26.5791 20.0996C26.7735 20.0996 26.9312 20.9896 26.9312 21.1737Z" fill="white"/>
<path d="M26.9705 23.5421C26.9705 23.7262 26.8129 24.6069 26.6184 24.6069C26.424 24.6069 26.2664 23.7262 26.2664 23.5421C26.2664 23.358 26.424 23.2087 26.6184 23.2087C26.8129 23.2087 26.9705 23.358 26.9705 23.5421Z" fill="white"/>
<path d="M26.9702 24.6161C26.9702 24.8002 26.8126 24.9494 26.6182 24.9494C26.4237 24.9494 26.2661 24.8002 26.2661 24.6161C26.2661 24.432 26.4237 23.542 26.6182 23.542C26.8126 23.542 26.9702 24.432 26.9702 24.6161Z" fill="white"/>
<path d="M28.0852 28.1383C28.0852 28.3224 27.9276 29.2031 27.7332 29.2031C27.5387 29.2031 27.3811 28.3224 27.3811 28.1383C27.3811 27.9542 27.5387 27.8049 27.7332 27.8049C27.9276 27.8049 28.0852 27.9542 28.0852 28.1383Z" fill="white"/>
<path d="M28.085 29.2123C28.085 29.3964 27.9274 29.5456 27.7329 29.5456C27.5385 29.5456 27.3809 29.3964 27.3809 29.2123C27.3809 29.0282 27.5385 28.1382 27.7329 28.1382C27.9274 28.1382 28.085 29.0282 28.085 29.2123Z" fill="white"/>
<path d="M29.2783 17.6939C29.2783 17.878 29.1207 18.7587 28.9263 18.7587C28.7318 18.7587 28.5742 17.878 28.5742 17.6939C28.5742 17.5098 28.7318 17.3606 28.9263 17.3606C29.1207 17.3606 29.2783 17.5098 29.2783 17.6939Z" fill="white"/>
<path d="M29.2781 18.7682C29.2781 18.9523 29.1205 19.1015 28.926 19.1015C28.7316 19.1015 28.574 18.9523 28.574 18.7682C28.574 18.5841 28.7316 17.6941 28.926 17.6941C29.1205 17.6941 29.2781 18.5841 29.2781 18.7682Z" fill="white"/>
<path d="M30.4321 17.6939C30.4321 17.878 30.2745 18.7587 30.0801 18.7587C29.8857 18.7587 29.728 17.878 29.728 17.6939C29.728 17.5098 29.8857 17.3606 30.0801 17.3606C30.2745 17.3606 30.4321 17.5098 30.4321 17.6939Z" fill="white"/>
<path d="M30.4321 18.7682C30.4321 18.9523 30.2745 19.1015 30.0801 19.1015C29.8857 19.1015 29.728 18.9523 29.728 18.7682C29.728 18.5841 29.8857 17.6941 30.0801 17.6941C30.2745 17.6941 30.4321 18.5841 30.4321 18.7682Z" fill="white"/>
<path d="M30.3931 18.9456C30.3931 19.1297 30.2355 20.0105 30.041 20.0105C29.8466 20.0105 29.689 19.1297 29.689 18.9456C29.689 18.7615 29.8466 18.6123 30.041 18.6123C30.2355 18.6123 30.3931 18.7615 30.3931 18.9456Z" fill="white"/>
<path d="M30.3931 20.0199C30.3931 20.204 30.2355 20.3532 30.041 20.3532C29.8466 20.3532 29.689 20.204 29.689 20.0199C29.689 19.8358 29.8466 18.9458 30.041 18.9458C30.2355 18.9458 30.3931 19.8358 30.3931 20.0199Z" fill="white"/>
<path d="M25.6987 21.1168C25.6987 21.3009 25.5411 22.1816 25.3467 22.1816C25.1523 22.1816 24.9946 21.3009 24.9946 21.1168C24.9946 20.9327 25.1523 20.7834 25.3467 20.7834C25.5411 20.7834 25.6987 20.9327 25.6987 21.1168Z" fill="white"/>
<path d="M25.6987 22.1908C25.6987 22.3749 25.5411 22.5241 25.3467 22.5241C25.1523 22.5241 24.9946 22.3749 24.9946 22.1908C24.9946 22.0067 25.1523 21.1167 25.3467 21.1167C25.5411 21.1167 25.6987 22.0067 25.6987 22.1908Z" fill="white"/>
<path d="M29.2586 20.1583C29.2586 20.3424 29.1009 21.2231 28.9065 21.2231C28.7121 21.2231 28.5544 20.3424 28.5544 20.1583C28.5544 19.9742 28.7121 19.825 28.9065 19.825C29.1009 19.825 29.2586 19.9742 29.2586 20.1583Z" fill="white"/>
<path d="M29.2586 21.2323C29.2586 21.4164 29.1009 21.5656 28.9065 21.5656C28.7121 21.5656 28.5544 21.4164 28.5544 21.2323C28.5544 21.0482 28.7121 20.1582 28.9065 20.1582C29.1009 20.1582 29.2586 21.0482 29.2586 21.2323Z" fill="white"/>
<path d="M20.7505 13.8987C20.9449 13.8987 21.8751 14.0563 21.8751 14.2507C21.8751 14.4452 20.9449 14.6028 20.7505 14.6028C20.5561 14.6028 20.3984 14.4452 20.3984 14.2507C20.3984 14.0563 20.5561 13.8987 20.7505 13.8987Z" fill="white"/>
<path d="M21.8849 13.8987C22.0793 13.8987 22.237 14.0563 22.237 14.2507C22.237 14.4452 22.0793 14.6028 21.8849 14.6028C21.6905 14.6028 20.7505 14.4452 20.7505 14.2507C20.7505 14.0563 21.6905 13.8987 21.8849 13.8987Z" fill="white"/>
<path d="M18.5208 10.2803C18.7152 10.2803 19.6454 10.4379 19.6454 10.6323C19.6454 10.8268 18.7152 10.9844 18.5208 10.9844C18.3263 10.9844 18.1687 10.8268 18.1687 10.6323C18.1687 10.4379 18.3263 10.2803 18.5208 10.2803Z" fill="white"/>
<path d="M19.6552 10.2803C19.8496 10.2803 20.0072 10.4379 20.0072 10.6323C20.0072 10.8268 19.8496 10.9844 19.6552 10.9844C19.4607 10.9844 18.5208 10.8268 18.5208 10.6323C18.5208 10.4379 19.4607 10.2803 19.6552 10.2803Z" fill="white"/>
<path d="M19.6355 11.3362C19.8299 11.3362 20.7601 11.4938 20.7601 11.6882C20.7601 11.8827 19.8299 12.0403 19.6355 12.0403C19.4411 12.0403 19.2834 11.8827 19.2834 11.6882C19.2834 11.4938 19.4411 11.3362 19.6355 11.3362Z" fill="white"/>
<path d="M20.7699 11.3364C20.9644 11.3364 21.122 11.494 21.122 11.6885C21.122 11.8829 20.9644 12.0405 20.7699 12.0405C20.5755 12.0405 19.6355 11.8829 19.6355 11.6885C19.6355 11.494 20.5755 11.3364 20.7699 11.3364Z" fill="white"/>
<path d="M20.8482 10.2803C21.0426 10.2803 21.9728 10.4379 21.9728 10.6323C21.9728 10.8268 21.0426 10.9844 20.8482 10.9844C20.6537 10.9844 20.4961 10.8268 20.4961 10.6323C20.4961 10.4379 20.6537 10.2803 20.8482 10.2803Z" fill="white"/>
<path d="M21.9826 10.2803C22.177 10.2803 22.3346 10.4379 22.3346 10.6323C22.3346 10.8268 22.177 10.9844 21.9826 10.9844C21.7881 10.9844 20.8481 10.8268 20.8481 10.6323C20.8481 10.4379 21.7881 10.2803 21.9826 10.2803Z" fill="white"/>
<path d="M10.1692 14.9936C10.3636 14.9936 11.2938 15.1513 11.2938 15.3457C11.2938 15.5401 10.3636 15.6978 10.1692 15.6978C9.97476 15.6978 9.81714 15.5401 9.81714 15.3457C9.81714 15.1513 9.97476 14.9936 10.1692 14.9936Z" fill="white"/>
<path d="M11.3036 14.9939C11.498 14.9939 11.6557 15.1515 11.6557 15.3459C11.6557 15.5404 11.498 15.698 11.3036 15.698C11.1092 15.698 10.1692 15.5404 10.1692 15.3459C10.1692 15.1515 11.1092 14.9939 11.3036 14.9939Z" fill="white"/>
<path d="M11.3428 24.3625C11.5372 24.3625 12.4674 24.5202 12.4674 24.7146C12.4674 24.909 11.5372 25.0667 11.3428 25.0667C11.1483 25.0667 10.9907 24.909 10.9907 24.7146C10.9907 24.5202 11.1483 24.3625 11.3428 24.3625Z" fill="white"/>
<path d="M12.4774 24.3625C12.6719 24.3625 12.8295 24.5202 12.8295 24.7146C12.8295 24.909 12.6719 25.0667 12.4774 25.0667C12.283 25.0667 11.343 24.909 11.343 24.7146C11.343 24.5202 12.283 24.3625 12.4774 24.3625Z" fill="white"/>
<path d="M11.3621 19.7077C11.5565 19.7077 12.4867 19.8654 12.4867 20.0598C12.4867 20.2542 11.5565 20.4119 11.3621 20.4119C11.1676 20.4119 11.01 20.2542 11.01 20.0598C11.01 19.8654 11.1676 19.7077 11.3621 19.7077Z" fill="white"/>
<path d="M12.4965 19.7077C12.6909 19.7077 12.8485 19.8654 12.8485 20.0598C12.8485 20.2542 12.6909 20.4119 12.4965 20.4119C12.302 20.4119 11.3621 20.2542 11.3621 20.0598C11.3621 19.8654 12.302 19.7077 12.4965 19.7077Z" fill="white"/>
<path d="M10.1692 16.1672C10.3636 16.1672 11.2938 16.3248 11.2938 16.5193C11.2938 16.7137 10.3636 16.8713 10.1692 16.8713C9.97476 16.8713 9.81714 16.7137 9.81714 16.5193C9.81714 16.3248 9.97476 16.1672 10.1692 16.1672Z" fill="white"/>
<path d="M11.3036 16.1675C11.498 16.1675 11.6557 16.3251 11.6557 16.5195C11.6557 16.714 11.498 16.8716 11.3036 16.8716C11.1092 16.8716 10.1692 16.714 10.1692 16.5195C10.1692 16.3251 11.1092 16.1675 11.3036 16.1675Z" fill="white"/>
<path d="M11.3428 25.5364C11.5372 25.5364 12.4674 25.694 12.4674 25.8884C12.4674 26.0829 11.5372 26.2405 11.3428 26.2405C11.1483 26.2405 10.9907 26.0829 10.9907 25.8884C10.9907 25.694 11.1483 25.5364 11.3428 25.5364Z" fill="white"/>
<path d="M12.4774 25.5364C12.6719 25.5364 12.8295 25.694 12.8295 25.8884C12.8295 26.0829 12.6719 26.2405 12.4774 26.2405C12.283 26.2405 11.343 26.0829 11.343 25.8884C11.343 25.694 12.283 25.5364 12.4774 25.5364Z" fill="white"/>
<path d="M11.3428 26.6704C11.5372 26.6704 12.4674 26.828 12.4674 27.0225C12.4674 27.2169 11.5372 27.3745 11.3428 27.3745C11.1483 27.3745 10.9907 27.2169 10.9907 27.0225C10.9907 26.828 11.1483 26.6704 11.3428 26.6704Z" fill="white"/>
<path d="M12.4774 26.6706C12.6719 26.6706 12.8295 26.8283 12.8295 27.0227C12.8295 27.2171 12.6719 27.3748 12.4774 27.3748C12.283 27.3748 11.343 27.2171 11.343 27.0227C11.343 26.8283 12.283 26.6706 12.4774 26.6706Z" fill="white"/>
<path d="M11.3621 20.8808C11.5565 20.8808 12.4867 21.0385 12.4867 21.2329C12.4867 21.4273 11.5565 21.585 11.3621 21.585C11.1676 21.585 11.01 21.4273 11.01 21.2329C11.01 21.0385 11.1676 20.8808 11.3621 20.8808Z" fill="white"/>
<path d="M12.4965 20.8811C12.6909 20.8811 12.8485 21.0387 12.8485 21.2331C12.8485 21.4276 12.6909 21.5852 12.4965 21.5852C12.302 21.5852 11.3621 21.4276 11.3621 21.2331C11.3621 21.0387 12.302 20.8811 12.4965 20.8811Z" fill="white"/>
<path d="M9.09352 17.2431C9.28795 17.2431 10.2182 17.4008 10.2182 17.5952C10.2182 17.7896 9.28795 17.9473 9.09352 17.9473C8.89908 17.9473 8.74146 17.7896 8.74146 17.5952C8.74146 17.4008 8.89908 17.2431 9.09352 17.2431Z" fill="white"/>
<path d="M10.2279 17.2431C10.4224 17.2431 10.58 17.4008 10.58 17.5952C10.58 17.7896 10.4224 17.9473 10.2279 17.9473C10.0335 17.9473 9.09351 17.7896 9.09351 17.5952C9.09351 17.4008 10.0335 17.2431 10.2279 17.2431Z" fill="white"/>
<path d="M10.2864 21.9568C10.4808 21.9568 11.411 22.1144 11.411 22.3088C11.411 22.5033 10.4808 22.6609 10.2864 22.6609C10.0919 22.6609 9.93433 22.5033 9.93433 22.3088C9.93433 22.1144 10.0919 21.9568 10.2864 21.9568Z" fill="white"/>
<path d="M11.4208 21.9568C11.6152 21.9568 11.7729 22.1144 11.7729 22.3088C11.7729 22.5033 11.6152 22.6609 11.4208 22.6609C11.2264 22.6609 10.2864 22.5033 10.2864 22.3088C10.2864 22.1144 11.2264 21.9568 11.4208 21.9568Z" fill="white"/>
<path d="M9.09352 18.4753C9.28795 18.4753 10.2182 18.6329 10.2182 18.8274C10.2182 19.0218 9.28795 19.1794 9.09352 19.1794C8.89908 19.1794 8.74146 19.0218 8.74146 18.8274C8.74146 18.6329 8.89908 18.4753 9.09352 18.4753Z" fill="white"/>
<path d="M10.2279 18.4753C10.4224 18.4753 10.58 18.6329 10.58 18.8274C10.58 19.0218 10.4224 19.1794 10.2279 19.1794C10.0335 19.1794 9.09351 19.0218 9.09351 18.8274C9.09351 18.6329 10.0335 18.4753 10.2279 18.4753Z" fill="white"/>
<path d="M10.2864 23.1889C10.4808 23.1889 11.411 23.3466 11.411 23.541C11.411 23.7354 10.4808 23.8931 10.2864 23.8931C10.0919 23.8931 9.93433 23.7354 9.93433 23.541C9.93433 23.3466 10.0919 23.1889 10.2864 23.1889Z" fill="white"/>
<path d="M11.4208 23.1892C11.6152 23.1892 11.7729 23.3468 11.7729 23.5413C11.7729 23.7357 11.6152 23.8933 11.4208 23.8933C11.2264 23.8933 10.2864 23.7357 10.2864 23.5413C10.2864 23.3468 11.2264 23.1892 11.4208 23.1892Z" fill="white"/>
<path d="M24.2515 9.08714C24.4459 9.08714 25.3761 9.24476 25.3761 9.4392C25.3761 9.63364 24.4459 9.79126 24.2515 9.79126C24.057 9.79126 23.8994 9.63364 23.8994 9.4392C23.8994 9.24476 24.057 9.08714 24.2515 9.08714Z" fill="white"/>
<path d="M25.3859 9.08714C25.5803 9.08714 25.7379 9.24476 25.7379 9.4392C25.7379 9.63364 25.5803 9.79126 25.3859 9.79126C25.1914 9.79126 24.2515 9.63364 24.2515 9.4392C24.2515 9.24476 25.1914 9.08714 25.3859 9.08714Z" fill="white"/>
<path d="M20.6331 17.3994C20.8275 17.3994 21.7577 17.557 21.7577 17.7515C21.7577 17.9459 20.8275 18.1035 20.6331 18.1035C20.4386 18.1035 20.281 17.9459 20.281 17.7515C20.281 17.557 20.4386 17.3994 20.6331 17.3994Z" fill="white"/>
<path d="M21.7677 17.3996C21.9622 17.3996 22.1198 17.5573 22.1198 17.7517C22.1198 17.9461 21.9622 18.1038 21.7677 18.1038C21.5733 18.1038 20.6333 17.9461 20.6333 17.7517C20.6333 17.5573 21.5733 17.3996 21.7677 17.3996Z" fill="white"/>
<path d="M19.5379 23.2085C19.7323 23.2085 20.6625 23.3661 20.6625 23.5605C20.6625 23.755 19.7323 23.9126 19.5379 23.9126C19.3434 23.9126 19.1858 23.755 19.1858 23.5605C19.1858 23.3661 19.3434 23.2085 19.5379 23.2085Z" fill="white"/>
<path d="M20.6723 23.2087C20.8667 23.2087 21.0243 23.3663 21.0243 23.5608C21.0243 23.7552 20.8667 23.9128 20.6723 23.9128C20.4778 23.9128 19.5378 23.7552 19.5378 23.5608C19.5378 23.3663 20.4778 23.2087 20.6723 23.2087Z" fill="white"/>
<path d="M20.7114 14.9743C20.9059 14.9743 21.8361 15.132 21.8361 15.3264C21.8361 15.5208 20.9059 15.6785 20.7114 15.6785C20.517 15.6785 20.3594 15.5208 20.3594 15.3264C20.3594 15.132 20.517 14.9743 20.7114 14.9743Z" fill="white"/>
<path d="M21.8458 14.9743C22.0403 14.9743 22.1979 15.132 22.1979 15.3264C22.1979 15.5208 22.0403 15.6785 21.8458 15.6785C21.6514 15.6785 20.7114 15.5208 20.7114 15.3264C20.7114 15.132 21.6514 14.9743 21.8458 14.9743Z" fill="white"/>
<path d="M18.4424 14.9743C18.6368 14.9743 19.567 15.132 19.567 15.3264C19.567 15.5208 18.6368 15.6785 18.4424 15.6785C18.248 15.6785 18.0903 15.5208 18.0903 15.3264C18.0903 15.132 18.248 14.9743 18.4424 14.9743Z" fill="white"/>
<path d="M19.5768 14.9743C19.7712 14.9743 19.9289 15.132 19.9289 15.3264C19.9289 15.5208 19.7712 15.6785 19.5768 15.6785C19.3824 15.6785 18.4424 15.5208 18.4424 15.3264C18.4424 15.132 19.3824 14.9743 19.5768 14.9743Z" fill="white"/>
<path d="M26.5791 11.4538C26.7735 11.4538 27.7037 11.6115 27.7037 11.8059C27.7037 12.0003 26.7735 12.158 26.5791 12.158C26.3847 12.158 26.2271 12.0003 26.2271 11.8059C26.2271 11.6115 26.3847 11.4538 26.5791 11.4538Z" fill="white"/>
<path d="M27.7135 11.4538C27.908 11.4538 28.0656 11.6115 28.0656 11.8059C28.0656 12.0003 27.908 12.158 27.7135 12.158C27.5191 12.158 26.5791 12.0003 26.5791 11.8059C26.5791 11.6115 27.5191 11.4538 27.7135 11.4538Z" fill="white"/>
<path d="M27.7915 12.5881C27.986 12.5881 28.9162 12.7457 28.9162 12.9402C28.9162 13.1346 27.986 13.2922 27.7915 13.2922C27.5971 13.2922 27.4395 13.1346 27.4395 12.9402C27.4395 12.7457 27.5971 12.5881 27.7915 12.5881Z" fill="white"/>
<path d="M28.9262 12.5881C29.1206 12.5881 29.2782 12.7457 29.2782 12.9402C29.2782 13.1346 29.1206 13.2922 28.9262 13.2922C28.7317 13.2922 27.7917 13.1346 27.7917 12.9402C27.7917 12.7457 28.7317 12.5881 28.9262 12.5881Z" fill="white"/>
<path d="M31.2732 16.05C31.4676 16.05 32.3978 16.2077 32.3978 16.4021C32.3978 16.5965 31.4676 16.7542 31.2732 16.7542C31.0788 16.7542 30.9211 16.5965 30.9211 16.4021C30.9211 16.2077 31.0788 16.05 31.2732 16.05Z" fill="white"/>
<path d="M32.4076 16.05C32.602 16.05 32.7597 16.2077 32.7597 16.4021C32.7597 16.5965 32.602 16.7542 32.4076 16.7542C32.2132 16.7542 31.2732 16.5965 31.2732 16.4021C31.2732 16.2077 32.2132 16.05 32.4076 16.05Z" fill="white"/>
<path d="M31.2732 19.7466C31.4676 19.7466 32.3978 19.9042 32.3978 20.0986C32.3978 20.2931 31.4676 20.4507 31.2732 20.4507C31.0788 20.4507 30.9211 20.2931 30.9211 20.0986C30.9211 19.9042 31.0788 19.7466 31.2732 19.7466Z" fill="white"/>
<path d="M32.4076 19.7468C32.602 19.7468 32.7597 19.9044 32.7597 20.0989C32.7597 20.2933 32.602 20.4509 32.4076 20.4509C32.2132 20.4509 31.2732 20.2933 31.2732 20.0989C31.2732 19.9044 32.2132 19.7468 32.4076 19.7468Z" fill="white"/>
<path d="M30.2171 21.9372C30.4115 21.9372 31.3417 22.0949 31.3417 22.2893C31.3417 22.4837 30.4115 22.6414 30.2171 22.6414C30.0226 22.6414 29.865 22.4837 29.865 22.2893C29.865 22.0949 30.0226 21.9372 30.2171 21.9372Z" fill="white"/>
<path d="M31.3515 21.9372C31.5459 21.9372 31.7035 22.0949 31.7035 22.2893C31.7035 22.4837 31.5459 22.6414 31.3515 22.6414C31.157 22.6414 30.217 22.4837 30.217 22.2893C30.217 22.0949 31.157 21.9372 31.3515 21.9372Z" fill="white"/>
<path d="M28.8479 27.844C29.0423 27.844 29.9725 28.0016 29.9725 28.196C29.9725 28.3905 29.0423 28.5481 28.8479 28.5481C28.6535 28.5481 28.4958 28.3905 28.4958 28.196C28.4958 28.0016 28.6535 27.844 28.8479 27.844Z" fill="white"/>
<path d="M29.9823 27.844C30.1768 27.844 30.3344 28.0016 30.3344 28.196C30.3344 28.3905 30.1768 28.5481 29.9823 28.5481C29.7879 28.5481 28.8479 28.3905 28.8479 28.196C28.8479 28.0016 29.7879 27.844 29.9823 27.844Z" fill="white"/>
<path d="M31.2339 23.1889C31.4283 23.1889 32.3585 23.3466 32.3585 23.541C32.3585 23.7354 31.4283 23.8931 31.2339 23.8931C31.0395 23.8931 30.8818 23.7354 30.8818 23.541C30.8818 23.3466 31.0395 23.1889 31.2339 23.1889Z" fill="white"/>
<path d="M32.3685 23.1892C32.563 23.1892 32.7206 23.3468 32.7206 23.5413C32.7206 23.7357 32.563 23.8933 32.3685 23.8933C32.1741 23.8933 31.2341 23.7357 31.2341 23.5413C31.2341 23.3468 32.1741 23.1892 32.3685 23.1892Z" fill="white"/>
<path d="M31.2339 24.2646C31.4283 24.2646 32.3585 24.4223 32.3585 24.6167C32.3585 24.8111 31.4283 24.9688 31.2339 24.9688C31.0395 24.9688 30.8818 24.8111 30.8818 24.6167C30.8818 24.4223 31.0395 24.2646 31.2339 24.2646Z" fill="white"/>
<path d="M32.3685 24.2649C32.563 24.2649 32.7206 24.4225 32.7206 24.6169C32.7206 24.8114 32.563 24.969 32.3685 24.969C32.1741 24.969 31.2341 24.8114 31.2341 24.6169C31.2341 24.4225 32.1741 24.2649 32.3685 24.2649Z" fill="white"/>
<path d="M30.1389 26.6899C30.3334 26.6899 31.2636 26.8475 31.2636 27.042C31.2636 27.2364 30.3334 27.394 30.1389 27.394C29.9445 27.394 29.7869 27.2364 29.7869 27.042C29.7869 26.8475 29.9445 26.6899 30.1389 26.6899Z" fill="white"/>
<path d="M31.2733 26.6902C31.4678 26.6902 31.6254 26.8478 31.6254 27.0422C31.6254 27.2367 31.4678 27.3943 31.2733 27.3943C31.0789 27.3943 30.1389 27.2367 30.1389 27.0422C30.1389 26.8478 31.0789 26.6902 31.2733 26.6902Z" fill="white"/>
<path d="M24.2515 17.2825C24.4459 17.2825 25.3761 17.4401 25.3761 17.6345C25.3761 17.8289 24.4459 17.9866 24.2515 17.9866C24.057 17.9866 23.8994 17.8289 23.8994 17.6345C23.8994 17.4401 24.057 17.2825 24.2515 17.2825Z" fill="white"/>
<path d="M25.3859 17.2825C25.5803 17.2825 25.7379 17.4401 25.7379 17.6345C25.7379 17.8289 25.5803 17.9866 25.3859 17.9866C25.1914 17.9866 24.2515 17.8289 24.2515 17.6345C24.2515 17.4401 25.1914 17.2825 25.3859 17.2825Z" fill="white"/>
<path d="M26.9312 9.45875C26.9312 9.65319 26.7735 10.5834 26.5791 10.5834C26.3847 10.5834 26.2271 9.65319 26.2271 9.45875C26.2271 9.26431 26.3847 9.10669 26.5791 9.10669C26.7735 9.10669 26.9312 9.26431 26.9312 9.45875Z" fill="white"/>
<path d="M26.9312 10.5932C26.9312 10.7876 26.7735 10.9452 26.5791 10.9452C26.3847 10.9452 26.2271 10.7876 26.2271 10.5932C26.2271 10.3987 26.3847 9.45874 26.5791 9.45874C26.7735 9.45874 26.9312 10.3987 26.9312 10.5932Z" fill="white"/>
<path d="M29.2976 14.0354C29.2976 14.2298 29.14 15.16 28.9456 15.16C28.7511 15.16 28.5935 14.2298 28.5935 14.0354C28.5935 13.841 28.7511 13.6833 28.9456 13.6833C29.14 13.6833 29.2976 13.841 29.2976 14.0354Z" fill="white"/>
<path d="M29.2976 15.1698C29.2976 15.3643 29.14 15.5219 28.9456 15.5219C28.7511 15.5219 28.5935 15.3643 28.5935 15.1698C28.5935 14.9754 28.7511 14.0354 28.9456 14.0354C29.14 14.0354 29.2976 14.9754 29.2976 15.1698Z" fill="white"/>
<path d="M29.2976 15.3264C29.2976 15.5209 29.14 16.4511 28.9456 16.4511C28.7511 16.4511 28.5935 15.5209 28.5935 15.3264C28.5935 15.132 28.7511 14.9744 28.9456 14.9744C29.14 14.9744 29.2976 15.132 29.2976 15.3264Z" fill="white"/>
<path d="M29.2976 16.4608C29.2976 16.6553 29.14 16.8129 28.9456 16.8129C28.7511 16.8129 28.5935 16.6553 28.5935 16.4608C28.5935 16.2664 28.7511 15.3264 28.9456 15.3264C29.14 15.3264 29.2976 16.2664 29.2976 16.4608Z" fill="white"/>
<path d="M28.1633 15.3264C28.1633 15.5209 28.0057 16.4511 27.8113 16.4511C27.6169 16.4511 27.4592 15.5209 27.4592 15.3264C27.4592 15.132 27.6169 14.9744 27.8113 14.9744C28.0057 14.9744 28.1633 15.132 28.1633 15.3264Z" fill="white"/>
<path d="M28.1633 16.4608C28.1633 16.6553 28.0057 16.8129 27.8113 16.8129C27.6169 16.8129 27.4592 16.6553 27.4592 16.4608C27.4592 16.2664 27.6169 15.3264 27.8113 15.3264C28.0057 15.3264 28.1633 16.2664 28.1633 16.4608Z" fill="white"/>
<path d="M30.3931 14.0354C30.3931 14.2298 30.2355 15.16 30.041 15.16C29.8466 15.16 29.689 14.2298 29.689 14.0354C29.689 13.841 29.8466 13.6833 30.041 13.6833C30.2355 13.6833 30.3931 13.841 30.3931 14.0354Z" fill="white"/>
<path d="M30.3931 15.1698C30.3931 15.3643 30.2355 15.5219 30.041 15.5219C29.8466 15.5219 29.689 15.3643 29.689 15.1698C29.689 14.9754 29.8466 14.0354 30.041 14.0354C30.2355 14.0354 30.3931 14.9754 30.3931 15.1698Z" fill="white"/>
<path d="M33.8743 17.6345C33.8743 17.829 33.7167 18.7592 33.5222 18.7592C33.3278 18.7592 33.1702 17.829 33.1702 17.6345C33.1702 17.4401 33.3278 17.2825 33.5222 17.2825C33.7167 17.2825 33.8743 17.4401 33.8743 17.6345Z" fill="white"/>
<path d="M33.8745 18.7689C33.8745 18.9634 33.7169 19.121 33.5225 19.121C33.328 19.121 33.1704 18.9634 33.1704 18.7689C33.1704 18.5745 33.328 17.6345 33.5225 17.6345C33.7169 17.6345 33.8745 18.5745 33.8745 18.7689Z" fill="white"/>
<path d="M23.45 16.4216C23.45 16.6161 23.2923 17.5463 23.0979 17.5463C22.9035 17.5463 22.7458 16.6161 22.7458 16.4216C22.7458 16.2272 22.9035 16.0696 23.0979 16.0696C23.2923 16.0696 23.45 16.2272 23.45 16.4216Z" fill="white"/>
<path d="M23.4497 17.556C23.4497 17.7505 23.2921 17.9081 23.0977 17.9081C22.9032 17.9081 22.7456 17.7505 22.7456 17.556C22.7456 17.3616 22.9032 16.4216 23.0977 16.4216C23.2921 16.4216 23.4497 17.3616 23.4497 17.556Z" fill="white"/>
<path d="M20.8482 11.3362C21.0426 11.3362 21.9728 11.4938 21.9728 11.6882C21.9728 11.8827 21.0426 12.0403 20.8482 12.0403C20.6537 12.0403 20.4961 11.8827 20.4961 11.6882C20.4961 11.4938 20.6537 11.3362 20.8482 11.3362Z" fill="white"/>
<path d="M21.9826 11.3364C22.177 11.3364 22.3346 11.494 22.3346 11.6885C22.3346 11.8829 22.177 12.0405 21.9826 12.0405C21.7881 12.0405 20.8481 11.8829 20.8481 11.6885C20.8481 11.494 21.7881 11.3364 21.9826 11.3364Z" fill="white"/>
<path d="M23.1172 16.0696C23.3116 16.0696 24.2418 16.2272 24.2418 16.4216C24.2418 16.6161 23.3116 16.7737 23.1172 16.7737C22.9228 16.7737 22.7651 16.6161 22.7651 16.4216C22.7651 16.2272 22.9228 16.0696 23.1172 16.0696Z" fill="white"/>
<path d="M24.2516 16.0698C24.446 16.0698 24.6037 16.2274 24.6037 16.4219C24.6037 16.6163 24.446 16.7739 24.2516 16.7739C24.0572 16.7739 23.1172 16.6163 23.1172 16.4219C23.1172 16.2274 24.0572 16.0698 24.2516 16.0698Z" fill="white"/>
<path d="M26.7161 16.0696C26.9105 16.0696 27.8407 16.2272 27.8407 16.4216C27.8407 16.6161 26.9105 16.7737 26.7161 16.7737C26.5216 16.7737 26.364 16.6161 26.364 16.4216C26.364 16.2272 26.5216 16.0696 26.7161 16.0696Z" fill="white"/>
<path d="M27.8505 16.0698C28.0449 16.0698 28.2025 16.2274 28.2025 16.4219C28.2025 16.6163 28.0449 16.7739 27.8505 16.7739C27.656 16.7739 26.7161 16.6163 26.7161 16.4219C26.7161 16.2274 27.656 16.0698 27.8505 16.0698Z" fill="white"/>
<path d="M23.1074 19.7075C23.3019 19.7075 24.2321 19.8651 24.2321 20.0596C24.2321 20.254 23.3019 20.4116 23.1074 20.4116C22.913 20.4116 22.7554 20.254 22.7554 20.0596C22.7554 19.8651 22.913 19.7075 23.1074 19.7075Z" fill="white"/>
<path d="M24.2416 19.7075C24.436 19.7075 24.5937 19.8651 24.5937 20.0596C24.5937 20.254 24.436 20.4116 24.2416 20.4116C24.0472 20.4116 23.1072 20.254 23.1072 20.0596C23.1072 19.8651 24.0472 19.7075 24.2416 19.7075Z" fill="white"/>
<path d="M22.7549 20.04C22.7549 19.8456 22.9125 18.9154 23.1069 18.9154C23.3014 18.9154 23.459 19.8456 23.459 20.04C23.459 20.2345 23.3014 20.3921 23.1069 20.3921C22.9125 20.3921 22.7549 20.2345 22.7549 20.04Z" fill="white"/>
<path d="M22.7551 18.9056C22.7551 18.7112 22.9127 18.5536 23.1072 18.5536C23.3016 18.5536 23.4592 18.7112 23.4592 18.9056C23.4592 19.1001 23.3016 20.04 23.1072 20.04C22.9127 20.04 22.7551 19.1001 22.7551 18.9056Z" fill="white"/>
<path d="M21.9829 23.2085C22.1774 23.2085 23.1076 23.3661 23.1076 23.5605C23.1076 23.755 22.1774 23.9126 21.9829 23.9126C21.7885 23.9126 21.6309 23.755 21.6309 23.5605C21.6309 23.3661 21.7885 23.2085 21.9829 23.2085Z" fill="white"/>
<path d="M23.1171 23.2087C23.3115 23.2087 23.4691 23.3663 23.4691 23.5608C23.4691 23.7552 23.3115 23.9128 23.1171 23.9128C22.9226 23.9128 21.9827 23.7552 21.9827 23.5608C21.9827 23.3663 22.9226 23.2087 23.1171 23.2087Z" fill="white"/>
<path d="M21.6304 23.5413C21.6304 23.3468 21.788 22.4166 21.9824 22.4166C22.1768 22.4166 22.3345 23.3468 22.3345 23.5413C22.3345 23.7357 22.1768 23.8933 21.9824 23.8933C21.788 23.8933 21.6304 23.7357 21.6304 23.5413Z" fill="white"/>
<path d="M21.6306 22.4068C21.6306 22.2124 21.7882 22.0548 21.9827 22.0548C22.1771 22.0548 22.3347 22.2124 22.3347 22.4068C22.3347 22.6013 22.1771 23.5413 21.9827 23.5413C21.7882 23.5413 21.6306 22.6013 21.6306 22.4068Z" fill="white"/>
<path d="M24.2124 23.2087C24.4068 23.2087 25.337 23.3663 25.337 23.5608C25.337 23.7552 24.4068 23.9128 24.2124 23.9128C24.018 23.9128 23.8604 23.7552 23.8604 23.5608C23.8604 23.3663 24.018 23.2087 24.2124 23.2087Z" fill="white"/>
<path d="M25.3466 23.2087C25.541 23.2087 25.6986 23.3663 25.6986 23.5608C25.6986 23.7552 25.541 23.9128 25.3466 23.9128C25.1521 23.9128 24.2122 23.7552 24.2122 23.5608C24.2122 23.3663 25.1521 23.2087 25.3466 23.2087Z" fill="white"/>
<path d="M23.8598 23.5413C23.8598 23.3468 24.0175 22.4166 24.2119 22.4166C24.4063 22.4166 24.564 23.3468 24.564 23.5413C24.564 23.7357 24.4063 23.8933 24.2119 23.8933C24.0175 23.8933 23.8598 23.7357 23.8598 23.5413Z" fill="white"/>
<path d="M23.8598 22.4068C23.8598 22.2124 24.0175 22.0548 24.2119 22.0548C24.4063 22.0548 24.564 22.2124 24.564 22.4068C24.564 22.6013 24.4063 23.5413 24.2119 23.5413C24.0175 23.5413 23.8598 22.6013 23.8598 22.4068Z" fill="white"/>
<ellipse cx="21.9085" cy="30.7209" rx="0.3491" ry="0.407283" transform="rotate(-180 21.9085 30.7209)" fill="white"/>
<path d="M23.8865 30.7884C23.8865 30.5905 24.0428 30.4301 24.2356 30.4301C24.4284 30.4301 24.5847 30.5905 24.5847 30.7884C24.5847 30.9863 24.4284 31.9429 24.2356 31.9429C24.0428 31.9429 23.8865 30.9863 23.8865 30.7884Z" fill="white"/>
<path d="M23.0185 32.2061C22.8344 32.2061 21.9537 32.0485 21.9537 31.854C21.9537 31.6596 22.8344 31.502 23.0185 31.502C23.2026 31.502 23.3518 31.6596 23.3518 31.854C23.3518 32.0485 23.2026 32.2061 23.0185 32.2061Z" fill="white"/>
<path d="M21.9445 32.2058C21.7604 32.2058 21.6111 32.0482 21.6111 31.8538C21.6111 31.6593 21.7604 31.5017 21.9445 31.5017C22.1286 31.5017 23.0186 31.6593 23.0186 31.8538C23.0186 32.0482 22.1286 32.2058 21.9445 32.2058Z" fill="white"/>
<path d="M21.8058 32.2061C21.6217 32.2061 20.741 32.0485 20.741 31.854C20.741 31.6596 21.6217 31.502 21.8058 31.502C21.9899 31.502 22.1392 31.6596 22.1392 31.854C22.1392 32.0485 21.9899 32.2061 21.8058 32.2061Z" fill="white"/>
<path d="M20.7318 32.2058C20.5477 32.2058 20.3985 32.0482 20.3985 31.8538C20.3985 31.6593 20.5477 31.5017 20.7318 31.5017C20.9159 31.5017 21.8059 31.6593 21.8059 31.8538C21.8059 32.0482 20.9159 32.2058 20.7318 32.2058Z" fill="white"/>
<path d="M20.6911 32.2061C20.507 32.2061 19.6263 32.0485 19.6263 31.854C19.6263 31.6596 20.507 31.502 20.6911 31.502C20.8752 31.502 21.0244 31.6596 21.0244 31.854C21.0244 32.0485 20.8752 32.2061 20.6911 32.2061Z" fill="white"/>
<path d="M19.6171 32.2058C19.433 32.2058 19.2838 32.0482 19.2838 31.8538C19.2838 31.6593 19.433 31.5017 19.6171 31.5017C19.8012 31.5017 20.6912 31.6593 20.6912 31.8538C20.6912 32.0482 19.8012 32.2058 19.6171 32.2058Z" fill="white"/>
<path d="M19.2641 31.8725C19.2641 31.6884 19.4218 30.8077 19.6162 30.8077C19.8106 30.8077 19.9683 31.6884 19.9683 31.8725C19.9683 32.0566 19.8106 32.2058 19.6162 32.2058C19.4218 32.2058 19.2641 32.0566 19.2641 31.8725Z" fill="white"/>
<path d="M19.2641 30.7985C19.2641 30.6144 19.4218 30.4651 19.6162 30.4651C19.8106 30.4651 19.9683 30.6144 19.9683 30.7985C19.9683 30.9826 19.8106 31.8726 19.6162 31.8726C19.4218 31.8726 19.2641 30.9826 19.2641 30.7985Z" fill="white"/>
<path d="M18.0119 31.8725C18.0119 31.6884 18.1696 30.8077 18.364 30.8077C18.5584 30.8077 18.7161 31.6884 18.7161 31.8725C18.7161 32.0566 18.5584 32.2058 18.364 32.2058C18.1696 32.2058 18.0119 32.0566 18.0119 31.8725Z" fill="white"/>
<path d="M18.0122 30.7985C18.0122 30.6144 18.1698 30.4651 18.3642 30.4651C18.5587 30.4651 18.7163 30.6144 18.7163 30.7985C18.7163 30.9826 18.5587 31.8726 18.3642 31.8726C18.1698 31.8726 18.0122 30.9826 18.0122 30.7985Z" fill="white"/>
<path d="M22.9797 29.7805C22.7853 29.7805 21.8551 29.6229 21.8551 29.4285C21.8551 29.234 22.7853 29.0764 22.9797 29.0764C23.1742 29.0764 23.3318 29.234 23.3318 29.4285C23.3318 29.6229 23.1742 29.7805 22.9797 29.7805Z" fill="white"/>
<path d="M21.8456 29.7805C21.6511 29.7805 21.4935 29.6229 21.4935 29.4285C21.4935 29.234 21.6511 29.0764 21.8456 29.0764C22.04 29.0764 22.98 29.234 22.98 29.4285C22.98 29.6229 22.04 29.7805 21.8456 29.7805Z" fill="white"/>
<path d="M23.3323 29.448C23.3323 29.6424 23.1747 30.5726 22.9802 30.5726C22.7858 30.5726 22.6282 29.6424 22.6282 29.448C22.6282 29.2536 22.7858 29.0959 22.9802 29.0959C23.1747 29.0959 23.3323 29.2536 23.3323 29.448Z" fill="white"/>
<path d="M23.3321 30.5824C23.3321 30.7769 23.1744 30.9345 22.98 30.9345C22.7856 30.9345 22.6279 30.7769 22.6279 30.5824C22.6279 30.388 22.7856 29.448 22.98 29.448C23.1744 29.448 23.3321 30.388 23.3321 30.5824Z" fill="white"/>
<path d="M14.8633 27.4334C14.6688 27.4334 13.7386 27.2757 13.7386 27.0813C13.7386 26.8869 14.6688 26.7292 14.8633 26.7292C15.0577 26.7292 15.2153 26.8869 15.2153 27.0813C15.2153 27.2757 15.0577 27.4334 14.8633 27.4334Z" fill="white"/>
<path d="M13.7289 27.4334C13.5344 27.4334 13.3768 27.2757 13.3768 27.0813C13.3768 26.8869 13.5344 26.7292 13.7289 26.7292C13.9233 26.7292 14.8633 26.8869 14.8633 27.0813C14.8633 27.2757 13.9233 27.4334 13.7289 27.4334Z" fill="white"/>
<path d="M15.2156 27.1008C15.2156 27.2953 15.058 28.2255 14.8635 28.2255C14.6691 28.2255 14.5115 27.2953 14.5115 27.1008C14.5115 26.9064 14.6691 26.7488 14.8635 26.7488C15.058 26.7488 15.2156 26.9064 15.2156 27.1008Z" fill="white"/>
<path d="M15.2154 28.2352C15.2154 28.4297 15.0577 28.5873 14.8633 28.5873C14.6689 28.5873 14.5112 28.4297 14.5112 28.2352C14.5112 28.0408 14.6689 27.1008 14.8633 27.1008C15.0577 27.1008 15.2154 28.0408 15.2154 28.2352Z" fill="white"/>
<path d="M20.7505 29.7805C20.556 29.7805 19.6258 29.6229 19.6258 29.4285C19.6258 29.234 20.556 29.0764 20.7505 29.0764C20.9449 29.0764 21.1025 29.234 21.1025 29.4285C21.1025 29.6229 20.9449 29.7805 20.7505 29.7805Z" fill="white"/>
<path d="M19.6158 29.7805C19.4214 29.7805 19.2638 29.6229 19.2638 29.4285C19.2638 29.234 19.4214 29.0764 19.6158 29.0764C19.8103 29.0764 20.7502 29.234 20.7502 29.4285C20.7502 29.6229 19.8103 29.7805 19.6158 29.7805Z" fill="white"/>
<path d="M21.1023 29.448C21.1023 29.6424 20.9447 30.5726 20.7503 30.5726C20.5558 30.5726 20.3982 29.6424 20.3982 29.448C20.3982 29.2536 20.5558 29.0959 20.7503 29.0959C20.9447 29.0959 21.1023 29.2536 21.1023 29.448Z" fill="white"/>
<path d="M21.1023 30.5824C21.1023 30.7769 20.9447 30.9345 20.7503 30.9345C20.5558 30.9345 20.3982 30.7769 20.3982 30.5824C20.3982 30.388 20.5558 29.448 20.7503 29.448C20.9447 29.448 21.1023 30.388 21.1023 30.5824Z" fill="white"/>
<path d="M28.1243 20.0794C28.1243 20.2738 27.9667 21.204 27.7722 21.204C27.5778 21.204 27.4202 20.2738 27.4202 20.0794C27.4202 19.8849 27.5778 19.7273 27.7722 19.7273C27.9667 19.7273 28.1243 19.8849 28.1243 20.0794Z" fill="white"/>
<path d="M28.1243 21.2138C28.1243 21.4082 27.9667 21.5658 27.7722 21.5658C27.5778 21.5658 27.4202 21.4082 27.4202 21.2138C27.4202 21.0193 27.5778 20.0793 27.7722 20.0793C27.9667 20.0793 28.1243 21.0193 28.1243 21.2138Z" fill="white"/>
<path d="M27.7918 19.7273C27.9862 19.7273 28.9164 19.8849 28.9164 20.0793C28.9164 20.2738 27.9862 20.4314 27.7918 20.4314C27.5973 20.4314 27.4397 20.2738 27.4397 20.0793C27.4397 19.8849 27.5973 19.7273 27.7918 19.7273Z" fill="white"/>
<path d="M28.9262 19.7273C29.1206 19.7273 29.2782 19.8849 29.2782 20.0793C29.2782 20.2738 29.1206 20.4314 28.9262 20.4314C28.7317 20.4314 27.7917 20.2738 27.7917 20.0793C27.7917 19.8849 28.7317 19.7273 28.9262 19.7273Z" fill="white"/>
<path d="M29.239 25.908C29.239 26.1024 29.0814 27.0326 28.887 27.0326C28.6925 27.0326 28.5349 26.1024 28.5349 25.908C28.5349 25.7135 28.6925 25.5559 28.887 25.5559C29.0814 25.5559 29.239 25.7135 29.239 25.908Z" fill="white"/>
<path d="M29.2388 27.0424C29.2388 27.2368 29.0812 27.3944 28.8867 27.3944C28.6923 27.3944 28.5347 27.2368 28.5347 27.0424C28.5347 26.8479 28.6923 25.908 28.8867 25.908C29.0812 25.908 29.2388 26.8479 29.2388 27.0424Z" fill="white"/>
<path d="M28.9065 25.5556C29.1009 25.5556 30.0311 25.7133 30.0311 25.9077C30.0311 26.1021 29.1009 26.2598 28.9065 26.2598C28.7121 26.2598 28.5544 26.1021 28.5544 25.9077C28.5544 25.7133 28.7121 25.5556 28.9065 25.5556Z" fill="white"/>
<path d="M30.0409 25.5559C30.2353 25.5559 30.393 25.7135 30.393 25.9079C30.393 26.1024 30.2353 26.26 30.0409 26.26C29.8465 26.26 28.9065 26.1024 28.9065 25.9079C28.9065 25.7135 29.8465 25.5559 30.0409 25.5559Z" fill="white"/>
<path d="M30.0313 20.8713C30.2257 20.8713 31.1559 21.0289 31.1559 21.2234C31.1559 21.4178 30.2257 21.5754 30.0313 21.5754C29.8368 21.5754 29.6792 21.4178 29.6792 21.2234C29.6792 21.0289 29.8368 20.8713 30.0313 20.8713Z" fill="white"/>
<path d="M31.1654 20.8713C31.3599 20.8713 31.5175 21.0289 31.5175 21.2234C31.5175 21.4178 31.3599 21.5754 31.1654 21.5754C30.971 21.5754 30.031 21.4178 30.031 21.2234C30.031 21.0289 30.971 20.8713 31.1654 20.8713Z" fill="white"/>
<path d="M29.6787 21.2038C29.6787 21.0094 29.8363 20.0792 30.0308 20.0792C30.2252 20.0792 30.3828 21.0094 30.3828 21.2038C30.3828 21.3983 30.2252 21.5559 30.0308 21.5559C29.8363 21.5559 29.6787 21.3983 29.6787 21.2038Z" fill="white"/>
<path d="M29.6789 20.0694C29.6789 19.875 29.8366 19.7174 30.031 19.7174C30.2254 19.7174 30.3831 19.875 30.3831 20.0694C30.3831 20.2639 30.2254 21.2039 30.031 21.2039C29.8366 21.2039 29.6789 20.2639 29.6789 20.0694Z" fill="white"/>
<path d="M19.655 16.0696C19.8495 16.0696 20.7797 16.2272 20.7797 16.4216C20.7797 16.6161 19.8495 16.7737 19.655 16.7737C19.4606 16.7737 19.303 16.6161 19.303 16.4216C19.303 16.2272 19.4606 16.0696 19.655 16.0696Z" fill="white"/>
<path d="M20.7894 16.0698C20.9839 16.0698 21.1415 16.2274 21.1415 16.4219C21.1415 16.6163 20.9839 16.7739 20.7894 16.7739C20.595 16.7739 19.655 16.6163 19.655 16.4219C19.655 16.2274 20.595 16.0698 20.7894 16.0698Z" fill="white"/>
<path d="M18.4033 21.9568C18.5978 21.9568 19.528 22.1144 19.528 22.3088C19.528 22.5033 18.5978 22.6609 18.4033 22.6609C18.2089 22.6609 18.0513 22.5033 18.0513 22.3088C18.0513 22.1144 18.2089 21.9568 18.4033 21.9568Z" fill="white"/>
<path d="M19.5377 21.9568C19.7322 21.9568 19.8898 22.1144 19.8898 22.3088C19.8898 22.5033 19.7322 22.6609 19.5377 22.6609C19.3433 22.6609 18.4033 22.5033 18.4033 22.3088C18.4033 22.1144 19.3433 21.9568 19.5377 21.9568Z" fill="white"/>
<path d="M15.2755 29.3784C15.2755 29.5687 15.0932 30.5465 14.8682 30.5465C14.6433 30.5465 14.4609 29.5687 14.4609 29.3784C14.4609 29.188 14.6433 29.0337 14.8682 29.0337C15.0932 29.0337 15.2755 29.188 15.2755 29.3784Z" fill="white"/>
<path d="M14.1116 29.3827C14.1116 29.6398 13.9132 29.8482 13.6684 29.8482C13.4236 29.8482 12.5989 29.6398 12.5989 29.3827C12.5989 29.1256 13.4236 28.9172 13.6684 28.9172C13.9132 28.9172 14.1116 29.1256 14.1116 29.3827Z" fill="white"/>
<circle cx="13.6462" cy="30.5464" r="0.3491" fill="white"/>
<path d="M13.6463 29.3828C13.6463 29.5756 12.6686 29.7319 12.4782 29.7319C12.2879 29.7319 12.1335 29.5756 12.1335 29.3828C12.1335 29.19 12.2879 29.0337 12.4782 29.0337C12.6686 29.0337 13.6463 29.19 13.6463 29.3828Z" fill="white"/>
<path d="M15.2755 30.5463C15.2755 30.7391 15.0932 30.8954 14.8682 30.8954C14.6433 30.8954 14.4609 30.7391 14.4609 30.5463C14.4609 30.3535 14.6433 29.499 14.8682 29.499C15.0932 29.499 15.2755 30.3535 15.2755 30.5463Z" fill="white"/>
<path d="M15.2755 30.5463C15.2755 30.7391 15.0932 30.8954 14.8682 30.8954C14.6433 30.8954 14.4609 30.7391 14.4609 30.5463C14.4609 30.3535 14.6433 29.499 14.8682 29.499C15.0932 29.499 15.2755 30.3535 15.2755 30.5463Z" fill="white"/>
<path d="M15.2755 30.5463C15.2755 30.7391 15.0932 30.8954 14.8682 30.8954C14.6433 30.8954 14.4609 30.7391 14.4609 30.5463C14.4609 30.3535 14.6433 29.499 14.8682 29.499C15.0932 29.499 15.2755 30.3535 15.2755 30.5463Z" fill="white"/>
<ellipse cx="14.8682" cy="9.36765" rx="0.407283" ry="0.3491" fill="white"/>
<circle cx="20.6284" cy="32.8738" r="0.3491" fill="white"/>
<circle cx="21.9084" cy="32.8738" r="0.3491" fill="white"/>
<path d="M23.1702 33.2229C22.9875 33.2229 22.8394 33.0666 22.8394 32.8738C22.8394 32.681 22.9875 32.5247 23.1702 32.5247C23.3528 32.5247 24.2358 32.681 24.2358 32.8738C24.2358 33.0666 23.3528 33.2229 23.1702 33.2229Z" fill="white"/>
</g>
<defs>
<linearGradient id="paint0_linear_2027_2499" x1="10.1322" y1="5.03913" x2="31.3765" y2="44.0671" gradientUnits="userSpaceOnUse">
<stop stop-color="#4E63F8"/>
<stop offset="1" stop-color="#00A298" stop-opacity="0.8"/>
</linearGradient>
<clipPath id="clip0_2027_2499">
<rect width="112" height="40" fill="white"/>
</clipPath>
</defs>
</svg>
