<svg width="1240" height="162" viewBox="0 0 1240 162" fill="none" xmlns="http://www.w3.org/2000/svg">
<rect y="129.74" width="32.2602" height="32.2602" fill="#4E63F8"/>
<rect x="32.2602" y="97.4795" width="32.2602" height="32.2602" fill="#4E63F8"/>
<rect x="229.854" y="97.4795" width="32.2602" height="32.2602" fill="#4E63F8"/>
<rect x="358.894" y="97.4795" width="32.2602" height="32.2602" fill="#4E63F8"/>
<rect x="262.114" y="129.74" width="32.2602" height="32.2602" fill="#4E63F8"/>
<rect x="165.333" y="97.4795" width="32.2602" height="32.2602" fill="#4E63F8"/>
<rect x="32.2602" y="32.959" width="32.2602" height="32.2602" fill="#4E63F8"/>
<rect x="64.5204" y="129.74" width="32.2602" height="32.2602" fill="#4E63F8"/>
<rect x="326.634" y="129.74" width="32.2602" height="32.2602" fill="#4E63F8"/>
<rect x="197.594" y="129.74" width="32.2602" height="32.2602" fill="#4E63F8"/>
<rect x="133.073" y="129.74" width="32.2602" height="32.2602" fill="#4E63F8"/>
<rect x="100.813" y="65.2197" width="32.2602" height="32.2602" fill="#4E63F8"/>
<rect x="325.626" y="32.959" width="32.2602" height="32.2602" fill="#4E63F8"/>
<rect x="294.374" y="65.2188" width="32.2602" height="32.2602" fill="#4E63F8"/>
<rect width="32.2602" height="32.2602" transform="matrix(-1 0 0 1 197.593 0.699219)" fill="#4E63F8"/>
<rect width="32.2602" height="32.2602" transform="matrix(-1 0 0 1 228.846 32.959)" fill="#4E63F8"/>
<rect x="391.154" y="129.74" width="32.2602" height="32.2602" fill="#4E63F8"/>
<rect x="423.415" y="97.4795" width="32.2602" height="32.2602" fill="#4E63F8"/>
<rect x="578.667" y="129.74" width="32.2602" height="32.2602" fill="#4E63F8"/>
<rect x="610.927" y="97.4795" width="32.2602" height="32.2602" fill="#4E63F8"/>
<rect x="643.188" y="129.74" width="32.2602" height="32.2602" fill="#4E63F8"/>
<rect x="701.658" y="129.74" width="32.2602" height="32.2602" fill="#4E63F8"/>
<rect x="733.919" y="97.4795" width="32.2602" height="32.2602" fill="#4E63F8"/>
<rect x="792.39" y="129.74" width="32.2602" height="32.2602" fill="#4E63F8"/>
<rect x="852.878" y="129.74" width="32.2602" height="32.2602" fill="#4E63F8"/>
<rect x="487.935" y="129.74" width="32.2602" height="32.2602" fill="#4E63F8"/>
<rect y="65.2197" width="32.2602" height="32.2602" fill="#4E63F8"/>
<rect x="1014.18" y="97.4795" width="32.2602" height="32.2602" fill="#4E63F8"/>
<rect x="1175.48" y="129.74" width="32.2602" height="32.2602" fill="#4E63F8"/>
<rect x="1143.22" y="97.4795" width="32.2602" height="32.2602" fill="#4E63F8"/>
<rect x="1046.44" y="129.74" width="32.2602" height="32.2602" fill="#4E63F8"/>
<rect x="1207.74" y="97.4795" width="32.2602" height="32.2602" fill="#4E63F8"/>
<rect x="1172.46" y="0.699219" width="32.2602" height="32.2602" fill="#4E63F8"/>
<rect x="949.658" y="97.4795" width="32.2602" height="32.2602" fill="#4E63F8"/>
<rect x="1014.18" y="32.959" width="32.2602" height="32.2602" fill="#4E63F8"/>
<rect x="1109.95" y="32.959" width="32.2602" height="32.2602" fill="#4E63F8"/>
<rect x="1110.96" y="129.74" width="32.2602" height="32.2602" fill="#4E63F8"/>
<rect x="981.919" y="129.74" width="32.2602" height="32.2602" fill="#4E63F8"/>
<rect x="917.398" y="129.74" width="32.2602" height="32.2602" fill="#4E63F8"/>
<rect x="885.138" y="65.2197" width="32.2602" height="32.2602" fill="#4E63F8"/>
<rect x="1078.7" y="65.2197" width="32.2602" height="32.2602" fill="#4E63F8"/>
</svg>
