<svg width="384" height="192" viewBox="0 0 384 192" fill="none" xmlns="http://www.w3.org/2000/svg">
<rect width="48" height="48" transform="matrix(1 -8.74228e-08 -8.74228e-08 -1 144 144)" fill="white"/>
<rect width="48" height="48" transform="matrix(1 -8.74228e-08 -8.74228e-08 -1 336 144)" fill="white"/>
<rect width="48" height="48" transform="matrix(1 -8.74228e-08 -8.74228e-08 -1 192 96)" fill="white"/>
<rect width="48" height="48" transform="matrix(1 -8.74228e-08 -8.74228e-08 -1 48 144)" fill="white"/>
<rect width="48" height="48" transform="matrix(1 -8.74228e-08 -8.74228e-08 -1 288 96)" fill="white"/>
<rect width="48" height="48" transform="matrix(1 -8.74228e-08 -8.74228e-08 -1 96 96)" fill="white"/>
<rect width="48" height="48" transform="matrix(1 -8.74228e-08 -8.74228e-08 -1 0 96)" fill="white"/>
<rect width="48" height="48" transform="matrix(1 -8.74228e-08 -8.74228e-08 -1 240 192)" fill="white"/>
<rect width="48" height="48" transform="matrix(1 -8.74228e-08 -8.74228e-08 -1 192 48)" fill="#09090B"/>
</svg>
