<svg width="244" height="162" viewBox="0 0 244 162" fill="none" xmlns="http://www.w3.org/2000/svg">
<path d="M112.812 160.875L127.689 149.304C132.835 145.302 140.04 145.302 145.186 149.304L151.314 154.07C156.46 158.072 163.665 158.072 168.811 154.07L174.869 149.359C180.047 145.331 187.306 145.359 192.453 149.427L198.618 154.299C203.556 158.202 210.469 158.403 215.625 154.793L233.188 142.5" stroke="#E4B53F" stroke-opacity="0.8" stroke-width="1.5"/>
<path d="M1.0625 57.3745L15.9389 45.804C21.0847 41.8017 28.2903 41.8017 33.4362 45.804L39.5639 50.57C44.7097 54.5723 51.9153 54.5723 57.0612 50.57L63.1185 45.8587C68.2969 41.8311 75.556 41.8593 80.7029 45.927L86.8675 50.7991C91.8055 54.7017 98.7189 54.9025 103.875 51.2932L112.45 45.2909C117.748 41.5825 124.878 41.9063 129.818 46.0796L134.497 50.0329C139.58 54.327 146.958 54.5319 152.272 50.5265L158.556 45.7887C163.834 41.8102 171.154 41.9827 176.239 46.2053L189.688 57.3745" stroke="#CE9C1B" stroke-opacity="0.5" stroke-width="1.5"/>
<path d="M54.3125 18.3745L69.1889 6.80402C74.3347 2.80171 81.5403 2.80171 86.6862 6.80402L92.8139 11.57C97.9597 15.5723 105.165 15.5723 110.311 11.57L116.369 6.85872C121.547 2.83108 128.806 2.85928 133.953 6.92704L140.118 11.7991C145.056 15.7017 151.969 15.9025 157.125 12.2932L165.7 6.29086C170.998 2.58248 178.128 2.90628 183.068 7.07955L187.747 11.0329C192.83 15.327 200.208 15.5319 205.522 11.5265L211.806 6.78867C217.084 2.81022 224.404 2.98268 229.489 7.20526L242.938 18.3745" stroke="#E4B53F" stroke-opacity="0.8" stroke-width="1.5"/>
<g filter="url(#filter0_b_2067_12142)">
<ellipse cx="109.047" cy="94.423" rx="69.7346" ry="67.5773" fill="url(#paint0_linear_2067_12142)"/>
<path d="M177.657 94.423C177.657 131.091 146.973 160.875 109.047 160.875C71.1215 160.875 40.4375 131.091 40.4375 94.423C40.4375 57.7555 71.1215 27.9707 109.047 27.9707C146.973 27.9707 177.657 57.7555 177.657 94.423Z" stroke="#CE9C1B" stroke-opacity="0.5" stroke-width="2.25"/>
</g>
<g filter="url(#filter1_b_2067_12142)">
<ellipse cx="112.076" cy="87.0768" rx="69.7346" ry="67.5773" fill="url(#paint1_linear_2067_12142)" fill-opacity="0.66"/>
<path d="M180.686 87.0768C180.686 123.744 150.002 153.529 112.076 153.529C74.1508 153.529 43.4668 123.744 43.4668 87.0768C43.4668 50.4093 74.1508 20.6245 112.076 20.6245C150.002 20.6245 180.686 50.4093 180.686 87.0768Z" stroke="#CE9C1B" stroke-opacity="0.5" stroke-width="2.25"/>
</g>
<path d="M87.0605 56.2275H95.0194M137.088 56.2275H128.75M95.0194 56.2275V69.8456C95.0194 79.16 102.57 86.7108 111.885 86.7108V86.7108C121.199 86.7108 128.75 79.16 128.75 69.8456V56.2275M95.0194 56.2275H128.75" stroke="#CE9C1B" stroke-width="2.25"/>
<path d="M137.088 117.194L129.129 117.194M87.0609 117.194L95.3987 117.194M129.129 117.194L129.129 103.576C129.129 94.2619 121.578 86.7111 112.264 86.7111V86.7111C102.949 86.7111 95.3987 94.2619 95.3987 103.576L95.3987 117.194M129.129 117.194L95.3987 117.194" stroke="#CE9C1B" stroke-width="2.25"/>
<path d="M140.193 80.3827C138.647 79.5326 138.232 78.961 138.419 78.2869C138.633 77.5136 139.521 77.1664 140.759 77.4877C141.798 77.7576 142.212 78.2757 142.234 78.9353C142.243 79.242 142.426 79.5175 142.733 79.5974L142.953 79.6544C143.436 79.7799 143.908 79.4081 143.861 78.9244C143.785 78.0074 143.26 77.1258 142.192 76.5596L142.328 76.07C142.49 75.4811 142.131 74.8784 141.524 74.7206C140.916 74.5628 140.294 74.9108 140.131 75.4997L140.002 75.9679C138.499 75.8971 137.11 76.4945 136.731 77.8639C136.278 79.5028 137.451 80.6819 139.362 81.6877C141.074 82.5887 141.268 83.3081 141.085 83.9679C140.95 84.4575 140.376 85.1448 138.757 84.7246C137.549 84.4109 137.043 83.8307 136.966 83.172C136.933 82.8668 136.739 82.6035 136.439 82.5255L136.234 82.4723C135.743 82.3449 135.265 82.7381 135.327 83.2255C135.472 84.3201 136.284 85.1547 137.32 85.6669L137.188 86.1423C137.026 86.7312 137.385 87.3339 137.992 87.4917C138.6 87.6495 139.222 87.3015 139.385 86.7126L139.512 86.2514C141.013 86.3596 142.369 85.8526 142.771 84.3981C143.329 82.3831 141.74 81.2329 140.193 80.3827Z" fill="#CE9C1B"/>
<path d="M105.581 107.721C104.547 107.711 104.169 107.533 104.068 107.14C103.952 106.688 104.303 106.268 105.026 106.094C105.633 105.947 105.995 106.098 106.198 106.428C106.292 106.581 106.465 106.671 106.644 106.628L106.773 106.597C107.055 106.529 107.187 106.211 107.022 105.977C106.717 105.532 106.193 105.227 105.485 105.23L105.412 104.944C105.324 104.6 104.965 104.391 104.61 104.477C104.255 104.563 104.04 104.91 104.129 105.254L104.199 105.527C103.414 105.902 102.881 106.585 103.086 107.385C103.332 108.343 104.272 108.623 105.537 108.612C106.67 108.603 106.978 108.916 107.077 109.302C107.151 109.588 107.058 110.094 106.113 110.322C105.407 110.493 104.98 110.336 104.75 110.022C104.644 109.876 104.469 109.795 104.293 109.837L104.174 109.866C103.887 109.935 103.758 110.266 103.931 110.497C104.323 111.014 104.98 111.217 105.655 111.195L105.727 111.472C105.815 111.816 106.173 112.025 106.528 111.939C106.883 111.854 107.099 111.507 107.01 111.162L106.941 110.893C107.736 110.538 108.278 109.91 108.06 109.06C107.757 107.883 106.615 107.731 105.581 107.721Z" fill="#CE9C1B"/>
<path d="M77.7533 67.262C75.2075 67.3612 74.2563 66.9698 73.9568 66.0127C73.6131 64.9146 74.4234 63.8404 76.1803 63.3241C77.6565 62.8902 78.5649 63.2173 79.1063 64.0042C79.3571 64.3705 79.7948 64.5719 80.2314 64.4436L80.5433 64.3519C81.2294 64.1503 81.5131 63.3519 81.0785 62.7975C80.2698 61.7371 78.9421 61.0493 77.2005 61.1431L76.983 60.448C76.7213 59.6118 75.8135 59.1416 74.9507 59.3952C74.0879 59.6488 73.6026 60.5284 73.8643 61.3646L74.0724 62.0295C72.188 63.0453 70.9636 64.7913 71.5721 66.7356C72.3004 69.0627 74.6485 69.6377 77.7602 69.4602C80.5483 69.3008 81.3455 70.0345 81.6387 70.9714C81.8563 71.6665 81.6937 72.9244 79.3962 73.5996C77.681 74.1038 76.6113 73.7691 76.0034 73.0237C75.7245 72.6766 75.2828 72.4984 74.8566 72.6237L74.5655 72.7093C73.869 72.914 73.5948 73.7426 74.0501 74.2908C75.0809 75.517 76.7221 75.9367 78.3823 75.8007L78.5936 76.4757C78.8553 77.3119 79.763 77.7821 80.6259 77.5285C81.4887 77.2749 81.974 76.3953 81.7123 75.5591L81.5074 74.9043C83.4179 73.9358 84.6729 72.3238 84.0266 70.2586C83.1312 67.3976 80.2992 67.1629 77.7533 67.262Z" fill="#CE9C1B"/>
<defs>
<filter id="filter0_b_2067_12142" x="36.3125" y="23.8457" width="145.469" height="141.155" filterUnits="userSpaceOnUse" color-interpolation-filters="sRGB">
<feFlood flood-opacity="0" result="BackgroundImageFix"/>
<feGaussianBlur in="BackgroundImageFix" stdDeviation="1.5"/>
<feComposite in2="SourceAlpha" operator="in" result="effect1_backgroundBlur_2067_12142"/>
<feBlend mode="normal" in="SourceGraphic" in2="effect1_backgroundBlur_2067_12142" result="shape"/>
</filter>
<filter id="filter1_b_2067_12142" x="39.3418" y="16.4995" width="145.469" height="141.155" filterUnits="userSpaceOnUse" color-interpolation-filters="sRGB">
<feFlood flood-opacity="0" result="BackgroundImageFix"/>
<feGaussianBlur in="BackgroundImageFix" stdDeviation="1.5"/>
<feComposite in2="SourceAlpha" operator="in" result="effect1_backgroundBlur_2067_12142"/>
<feBlend mode="normal" in="SourceGraphic" in2="effect1_backgroundBlur_2067_12142" result="shape"/>
</filter>
<linearGradient id="paint0_linear_2067_12142" x1="66.6" y1="38.9655" x2="162.375" y2="138.934" gradientUnits="userSpaceOnUse">
<stop stop-color="#D1A941" stop-opacity="0.12"/>
<stop offset="1" stop-color="#FFCE1E" stop-opacity="0"/>
</linearGradient>
<linearGradient id="paint1_linear_2067_12142" x1="69.6293" y1="31.6194" x2="165.405" y2="131.588" gradientUnits="userSpaceOnUse">
<stop stop-color="#F2C94C" stop-opacity="0.41"/>
<stop offset="1" stop-color="#F2C94C" stop-opacity="0.03"/>
</linearGradient>
</defs>
</svg>
