<svg width="64" height="64" viewBox="0 0 64 64" fill="none" xmlns="http://www.w3.org/2000/svg">
<rect x="1" y="1" width="62" height="62" rx="31" stroke="#27272A" stroke-width="2"/>
<mask id="mask0_2067_12134" style="mask-type:alpha" maskUnits="userSpaceOnUse" x="20" y="20" width="24" height="24">
<rect x="20" y="20" width="24" height="24" fill="#D9D9D9"/>
</mask>
<g mask="url(#mask0_2067_12134)">
<path d="M32 37C32.2833 37 32.5208 36.9042 32.7125 36.7125C32.9042 36.5208 33 36.2833 33 36C33 35.7167 32.9042 35.4792 32.7125 35.2875C32.5208 35.0958 32.2833 35 32 35C31.7167 35 31.4792 35.0958 31.2875 35.2875C31.0958 35.4792 31 35.7167 31 36C31 36.2833 31.0958 36.5208 31.2875 36.7125C31.4792 36.9042 31.7167 37 32 37ZM32 33C32.2833 33 32.5208 32.9042 32.7125 32.7125C32.9042 32.5208 33 32.2833 33 32V28C33 27.7167 32.9042 27.4792 32.7125 27.2875C32.5208 27.0958 32.2833 27 32 27C31.7167 27 31.4792 27.0958 31.2875 27.2875C31.0958 27.4792 31 27.7167 31 28V32C31 32.2833 31.0958 32.5208 31.2875 32.7125C31.4792 32.9042 31.7167 33 32 33ZM28.65 40H26C25.45 40 24.9792 39.8042 24.5875 39.4125C24.1958 39.0208 24 38.55 24 38V35.35L22.075 33.4C21.8917 33.2 21.75 32.9792 21.65 32.7375C21.55 32.4958 21.5 32.25 21.5 32C21.5 31.75 21.55 31.5042 21.65 31.2625C21.75 31.0208 21.8917 30.8 22.075 30.6L24 28.65V26C24 25.45 24.1958 24.9792 24.5875 24.5875C24.9792 24.1958 25.45 24 26 24H28.65L30.6 22.075C30.8 21.8917 31.0208 21.75 31.2625 21.65C31.5042 21.55 31.75 21.5 32 21.5C32.25 21.5 32.4958 21.55 32.7375 21.65C32.9792 21.75 33.2 21.8917 33.4 22.075L35.35 24H38C38.55 24 39.0208 24.1958 39.4125 24.5875C39.8042 24.9792 40 25.45 40 26V28.65L41.925 30.6C42.1083 30.8 42.25 31.0208 42.35 31.2625C42.45 31.5042 42.5 31.75 42.5 32C42.5 32.25 42.45 32.4958 42.35 32.7375C42.25 32.9792 42.1083 33.2 41.925 33.4L40 35.35V38C40 38.55 39.8042 39.0208 39.4125 39.4125C39.0208 39.8042 38.55 40 38 40H35.35L33.4 41.925C33.2 42.1083 32.9792 42.25 32.7375 42.35C32.4958 42.45 32.25 42.5 32 42.5C31.75 42.5 31.5042 42.45 31.2625 42.35C31.0208 42.25 30.8 42.1083 30.6 41.925L28.65 40Z" fill="#FAFAFA"/>
</g>
</svg>
