<svg width="65" height="64" viewBox="0 0 65 64" fill="none" xmlns="http://www.w3.org/2000/svg">
<rect x="1.5" y="1" width="62" height="62" rx="31" fill="white"/>
<rect x="1.5" y="1" width="62" height="62" rx="31" stroke="#E4E4E7" stroke-width="2"/>
<mask id="mask0_2067_12604" style="mask-type:alpha" maskUnits="userSpaceOnUse" x="20" y="20" width="25" height="24">
<rect x="20.5" y="20" width="24" height="24" fill="#D9D9D9"/>
</mask>
<g mask="url(#mask0_2067_12604)">
<path d="M31.1 33.8L28.95 31.65C28.7667 31.4667 28.5333 31.375 28.25 31.375C27.9667 31.375 27.7333 31.4667 27.55 31.65C27.3667 31.8333 27.275 32.0667 27.275 32.35C27.275 32.6333 27.3667 32.8667 27.55 33.05L30.4 35.9C30.6 36.1 30.8333 36.2 31.1 36.2C31.3667 36.2 31.6 36.1 31.8 35.9L37.45 30.25C37.6333 30.0667 37.725 29.8333 37.725 29.55C37.725 29.2667 37.6333 29.0333 37.45 28.85C37.2667 28.6667 37.0333 28.575 36.75 28.575C36.4667 28.575 36.2333 28.6667 36.05 28.85L31.1 33.8ZM32.5 42C31.1167 42 29.8167 41.7375 28.6 41.2125C27.3833 40.6875 26.325 39.975 25.425 39.075C24.525 38.175 23.8125 37.1167 23.2875 35.9C22.7625 34.6833 22.5 33.3833 22.5 32C22.5 30.6167 22.7625 29.3167 23.2875 28.1C23.8125 26.8833 24.525 25.825 25.425 24.925C26.325 24.025 27.3833 23.3125 28.6 22.7875C29.8167 22.2625 31.1167 22 32.5 22C33.8833 22 35.1833 22.2625 36.4 22.7875C37.6167 23.3125 38.675 24.025 39.575 24.925C40.475 25.825 41.1875 26.8833 41.7125 28.1C42.2375 29.3167 42.5 30.6167 42.5 32C42.5 33.3833 42.2375 34.6833 41.7125 35.9C41.1875 37.1167 40.475 38.175 39.575 39.075C38.675 39.975 37.6167 40.6875 36.4 41.2125C35.1833 41.7375 33.8833 42 32.5 42Z" fill="#3E46ED"/>
</g>
</svg>
