<svg width="336" height="192" viewBox="0 0 336 192" fill="none" xmlns="http://www.w3.org/2000/svg">
<rect width="48" height="48" transform="matrix(1 -8.74228e-08 -8.74228e-08 -1 96 48)" fill="white"/>
<rect width="48" height="48" transform="matrix(1 -8.74228e-08 -8.74228e-08 -1 96 192)" fill="#181A4E"/>
<rect width="48" height="48" transform="matrix(1 -8.74228e-08 -8.74228e-08 -1 192 95.9999)" fill="#181A4E"/>
<rect width="48" height="48" transform="matrix(1 -8.74228e-08 -8.74228e-08 -1 48 144)" fill="#181A4E"/>
<rect width="48" height="48" transform="matrix(1 -8.74228e-08 -8.74228e-08 -1 288 95.9999)" fill="#181A4E"/>
<rect width="48" height="48" transform="matrix(1 -8.74228e-08 -8.74228e-08 -1 240 144)" fill="#181A4E"/>
<rect width="48" height="48" transform="matrix(1 -8.74228e-08 -8.74228e-08 -1 96 95.9999)" fill="#181A4E"/>
<rect width="48" height="48" transform="matrix(1 -8.74228e-08 -8.74228e-08 -1 0 95.9999)" fill="#181A4E"/>
</svg>
