<svg width="64" height="64" viewBox="0 0 64 64" fill="none" xmlns="http://www.w3.org/2000/svg">
<rect x="1" y="1" width="62" height="62" rx="31" stroke="#27272A" stroke-width="2"/>
<mask id="mask0_2067_12212" style="mask-type:alpha" maskUnits="userSpaceOnUse" x="20" y="20" width="24" height="24">
<rect x="20" y="20" width="24" height="24" fill="#D9D9D9"/>
</mask>
<g mask="url(#mask0_2067_12212)">
<path d="M32 42C31.5667 42 31.175 41.8958 30.825 41.6875C30.475 41.4792 30.2 41.2 30 40.85C29.45 40.85 28.9792 40.6542 28.5875 40.2625C28.1958 39.8708 28 39.4 28 38.85V35.3C27.0167 34.65 26.2292 33.7917 25.6375 32.725C25.0458 31.6583 24.75 30.5 24.75 29.25C24.75 27.2333 25.4542 25.5208 26.8625 24.1125C28.2708 22.7042 29.9833 22 32 22C34.0167 22 35.7292 22.7042 37.1375 24.1125C38.5458 25.5208 39.25 27.2333 39.25 29.25C39.25 30.5333 38.9542 31.7 38.3625 32.75C37.7708 33.8 36.9833 34.65 36 35.3V38.85C36 39.4 35.8042 39.8708 35.4125 40.2625C35.0208 40.6542 34.55 40.85 34 40.85C33.8 41.2 33.525 41.4792 33.175 41.6875C32.825 41.8958 32.4333 42 32 42ZM30 38.85H34V37.95H30V38.85ZM30 36.95H34V36H30V36.95ZM32.75 34V31.3L34.425 29.625C34.575 29.475 34.65 29.3 34.65 29.1C34.65 28.9 34.575 28.725 34.425 28.575C34.275 28.425 34.1 28.35 33.9 28.35C33.7 28.35 33.525 28.425 33.375 28.575L32 29.95L30.625 28.575C30.475 28.425 30.3 28.35 30.1 28.35C29.9 28.35 29.725 28.425 29.575 28.575C29.425 28.725 29.35 28.9 29.35 29.1C29.35 29.3 29.425 29.475 29.575 29.625L31.25 31.3V34H32.75Z" fill="#EDF4FF"/>
</g>
</svg>
