<svg width="14" height="10" viewBox="0 0 14 10" fill="none" xmlns="http://www.w3.org/2000/svg">
<path d="M4.95855 7.625L12.021 0.5625C12.1877 0.395833 12.3822 0.3125 12.6044 0.3125C12.8266 0.3125 13.021 0.395833 13.1877 0.5625C13.3544 0.729167 13.4377 0.927083 13.4377 1.15625C13.4377 1.38542 13.3544 1.58333 13.1877 1.75L5.54188 9.41667C5.37521 9.58333 5.18077 9.66667 4.95855 9.66667C4.73632 9.66667 4.54188 9.58333 4.37521 9.41667L0.79188 5.83333C0.625213 5.66667 0.545352 5.46875 0.552297 5.23958C0.559241 5.01042 0.646047 4.8125 0.812713 4.64583C0.97938 4.47917 1.1773 4.39583 1.40646 4.39583C1.63563 4.39583 1.83355 4.47917 2.00021 4.64583L4.95855 7.625Z" fill="#00A298"/>
</svg>
