<svg width="482" height="242" viewBox="0 0 482 242" fill="none" xmlns="http://www.w3.org/2000/svg">
<rect width="64" height="64" transform="matrix(1 -8.74228e-08 -8.74228e-08 -1 192 178)" fill="#27272A"/>
<rect width="64" height="64" transform="matrix(1 -8.74228e-08 -8.74228e-08 -1 448 178)" fill="#27272A"/>
<rect width="64" height="64" transform="matrix(1 -8.74228e-08 -8.74228e-08 -1 256 114)" fill="#27272A"/>
<rect width="64" height="64" transform="matrix(1 -8.74228e-08 -8.74228e-08 -1 64 178)" fill="#27272A"/>
<rect width="64" height="64" transform="matrix(1 -8.74228e-08 -8.74228e-08 -1 384 50)" fill="#27272A"/>
<rect width="64" height="64" transform="matrix(1 -8.74228e-08 -8.74228e-08 -1 128 114)" fill="#27272A"/>
<rect width="64" height="64" transform="matrix(1 -8.74228e-08 -8.74228e-08 -1 0 114)" fill="#27272A"/>
<rect width="64" height="64" transform="matrix(1 -8.74228e-08 -8.74228e-08 -1 320 242)" fill="#27272A"/>
<rect width="64" height="64" transform="matrix(1 -8.74228e-08 -8.74228e-08 -1 64 50)" fill="#27272A"/>
</svg>
