<svg width="64" height="64" viewBox="0 0 64 64" fill="none" xmlns="http://www.w3.org/2000/svg">
<rect x="1" y="1" width="62" height="62" rx="31" fill="white"/>
<rect x="1" y="1" width="62" height="62" rx="31" stroke="#E4E4E7" stroke-width="2"/>
<mask id="mask0_353_4557" style="mask-type:alpha" maskUnits="userSpaceOnUse" x="20" y="20" width="24" height="24">
<rect x="20" y="20" width="24" height="24" fill="#D9D9D9"/>
</mask>
<g mask="url(#mask0_353_4557)">
<path d="M31 35V33H33V35H31ZM30 26H34V24H30V26ZM24 41C23.45 41 22.9792 40.8042 22.5875 40.4125C22.1958 40.0208 22 39.55 22 39V35H29V36C29 36.2833 29.0958 36.5208 29.2875 36.7125C29.4792 36.9042 29.7167 37 30 37H34C34.2833 37 34.5208 36.9042 34.7125 36.7125C34.9042 36.5208 35 36.2833 35 36V35H42V39C42 39.55 41.8042 40.0208 41.4125 40.4125C41.0208 40.8042 40.55 41 40 41H24ZM22 33V28C22 27.45 22.1958 26.9792 22.5875 26.5875C22.9792 26.1958 23.45 26 24 26H28V24C28 23.45 28.1958 22.9792 28.5875 22.5875C28.9792 22.1958 29.45 22 30 22H34C34.55 22 35.0208 22.1958 35.4125 22.5875C35.8042 22.9792 36 23.45 36 24V26H40C40.55 26 41.0208 26.1958 41.4125 26.5875C41.8042 26.9792 42 27.45 42 28V33H35V32C35 31.7167 34.9042 31.4792 34.7125 31.2875C34.5208 31.0958 34.2833 31 34 31H30C29.7167 31 29.4792 31.0958 29.2875 31.2875C29.0958 31.4792 29 31.7167 29 32V33H22Z" fill="#3E46ED"/>
</g>
</svg>
