<svg width="42" height="42" viewBox="0 0 42 42" fill="none" xmlns="http://www.w3.org/2000/svg">
<rect x="0.5" y="0.5" width="41" height="41" rx="3.5" fill="white"/>
<rect x="0.5" y="0.5" width="41" height="41" rx="3.5" stroke="#E4E4E7"/>
<mask id="mask0_544_10899" style="mask-type:alpha" maskUnits="userSpaceOnUse" x="11" y="11" width="20" height="20">
<rect x="11" y="11" width="20" height="20" fill="#D9D9D9"/>
</mask>
<g mask="url(#mask0_544_10899)">
<path d="M13.917 27.6667C13.5698 27.6667 13.2746 27.5451 13.0316 27.3021C12.7885 27.059 12.667 26.7639 12.667 26.4167C12.667 26.0695 12.7885 25.7743 13.0316 25.5313C13.2746 25.2882 13.5698 25.1667 13.917 25.1667H14.3337V16C14.3337 15.5417 14.4969 15.1493 14.8232 14.8229C15.1496 14.4965 15.542 14.3333 16.0003 14.3333H27.667C27.9031 14.3333 28.101 14.4132 28.2607 14.5729C28.4205 14.7326 28.5003 14.9306 28.5003 15.1667C28.5003 15.4028 28.4205 15.6007 28.2607 15.7604C28.101 15.9201 27.9031 16 27.667 16H16.0003V25.1667H19.7503C20.0975 25.1667 20.3927 25.2882 20.6357 25.5313C20.8788 25.7743 21.0003 26.0695 21.0003 26.4167C21.0003 26.7639 20.8788 27.059 20.6357 27.3021C20.3927 27.5451 20.0975 27.6667 19.7503 27.6667H13.917ZM23.5003 27.6667C23.2642 27.6667 23.0663 27.5868 22.9066 27.4271C22.7469 27.2674 22.667 27.0695 22.667 26.8333V18.5C22.667 18.2639 22.7469 18.066 22.9066 17.9063C23.0663 17.7465 23.2642 17.6667 23.5003 17.6667H28.5003C28.7364 17.6667 28.9344 17.7465 29.0941 17.9063C29.2538 18.066 29.3337 18.2639 29.3337 18.5V26.8333C29.3337 27.0695 29.2538 27.2674 29.0941 27.4271C28.9344 27.5868 28.7364 27.6667 28.5003 27.6667H23.5003Z" fill="#3E46ED"/>
</g>
</svg>
