<svg width="42" height="42" viewBox="0 0 42 42" fill="none" xmlns="http://www.w3.org/2000/svg">
<rect x="0.5" y="0.5" width="41" height="41" rx="3.5" stroke="#E4E4E7"/>
<mask id="mask0_545_9227" style="mask-type:alpha" maskUnits="userSpaceOnUse" x="11" y="11" width="20" height="20">
<rect x="11" y="11" width="20" height="20" fill="#D9D9D9"/>
</mask>
<g mask="url(#mask0_545_9227)">
<path d="M14.3337 28.5C13.8753 28.5 13.483 28.3368 13.1566 28.0104C12.8302 27.684 12.667 27.2917 12.667 26.8333V13.5L14.0628 14.8958L15.4378 13.5L16.8337 14.8958L18.2295 13.5L19.6045 14.8958L21.0003 13.5L22.3962 14.8958L23.7712 13.5L25.167 14.8958L26.5628 13.5L27.9378 14.8958L29.3337 13.5V26.8333C29.3337 27.2917 29.1705 27.684 28.8441 28.0104C28.5177 28.3368 28.1253 28.5 27.667 28.5H14.3337ZM14.3337 26.8333H20.167V21.8333H14.3337V26.8333ZM21.8337 26.8333H27.667V25.1667H21.8337V26.8333ZM21.8337 23.5H27.667V21.8333H21.8337V23.5ZM14.3337 20.1667H27.667V17.6667H14.3337V20.1667Z" fill="#3E46ED"/>
</g>
</svg>
