<svg width="42" height="42" viewBox="0 0 42 42" fill="none" xmlns="http://www.w3.org/2000/svg">
<rect x="0.5" y="0.5" width="41" height="41" rx="3.5" stroke="#E4E4E7"/>
<mask id="mask0_544_11502" style="mask-type:alpha" maskUnits="userSpaceOnUse" x="11" y="11" width="20" height="20">
<rect x="11" y="11" width="20" height="20" fill="#D9D9D9"/>
</mask>
<g mask="url(#mask0_544_11502)">
<path d="M20.167 23.5V21.8334H21.8337V23.5H20.167ZM19.3337 16H22.667V14.3334H19.3337V16ZM14.3337 28.5C13.8753 28.5 13.483 28.3368 13.1566 28.0104C12.8302 27.684 12.667 27.2917 12.667 26.8334V23.5H18.5003V24.3334C18.5003 24.5695 18.5802 24.7674 18.7399 24.9271C18.8996 25.0868 19.0975 25.1667 19.3337 25.1667H22.667C22.9031 25.1667 23.101 25.0868 23.2607 24.9271C23.4205 24.7674 23.5003 24.5695 23.5003 24.3334V23.5H29.3337V26.8334C29.3337 27.2917 29.1705 27.684 28.8441 28.0104C28.5177 28.3368 28.1253 28.5 27.667 28.5H14.3337ZM12.667 21.8334V17.6667C12.667 17.2084 12.8302 16.816 13.1566 16.4896C13.483 16.1632 13.8753 16 14.3337 16H17.667V14.3334C17.667 13.875 17.8302 13.4827 18.1566 13.1563C18.483 12.8299 18.8753 12.6667 19.3337 12.6667H22.667C23.1253 12.6667 23.5177 12.8299 23.8441 13.1563C24.1705 13.4827 24.3337 13.875 24.3337 14.3334V16H27.667C28.1253 16 28.5177 16.1632 28.8441 16.4896C29.1705 16.816 29.3337 17.2084 29.3337 17.6667V21.8334H23.5003V21C23.5003 20.7639 23.4205 20.566 23.2607 20.4063C23.101 20.2465 22.9031 20.1667 22.667 20.1667H19.3337C19.0975 20.1667 18.8996 20.2465 18.7399 20.4063C18.5802 20.566 18.5003 20.7639 18.5003 21V21.8334H12.667Z" fill="#3E46ED"/>
</g>
</svg>
