<svg width="42" height="42" viewBox="0 0 42 42" fill="none" xmlns="http://www.w3.org/2000/svg">
<rect x="0.5" y="0.5" width="41" height="41" rx="3.5" stroke="#E4E4E7"/>
<mask id="mask0_544_11494" style="mask-type:alpha" maskUnits="userSpaceOnUse" x="11" y="11" width="20" height="20">
<rect x="11" y="11" width="20" height="20" fill="#D9D9D9"/>
</mask>
<g mask="url(#mask0_544_11494)">
<path d="M20.9587 26C21.2503 26 21.4969 25.8993 21.6982 25.6979C21.8996 25.4965 22.0003 25.25 22.0003 24.9584C22.0003 24.6667 21.8996 24.4202 21.6982 24.2188C21.4969 24.0174 21.2503 23.9167 20.9587 23.9167C20.667 23.9167 20.4205 24.0174 20.2191 24.2188C20.0177 24.4202 19.917 24.6667 19.917 24.9584C19.917 25.25 20.0177 25.4965 20.2191 25.6979C20.4205 25.8993 20.667 26 20.9587 26ZM20.2087 22.7917H21.7503C21.7503 22.3334 21.8024 21.9722 21.9066 21.7084C22.0107 21.4445 22.3059 21.0834 22.792 20.625C23.1531 20.2639 23.4378 19.9202 23.6462 19.5938C23.8545 19.2674 23.9587 18.875 23.9587 18.4167C23.9587 17.6389 23.6739 17.0417 23.1045 16.625C22.535 16.2084 21.8614 16 21.0837 16C20.292 16 19.6496 16.2084 19.1566 16.625C18.6635 17.0417 18.3198 17.5417 18.1253 18.125L19.5003 18.6667C19.5698 18.4167 19.726 18.1459 19.9691 17.8542C20.2121 17.5625 20.5837 17.4167 21.0837 17.4167C21.5281 17.4167 21.8614 17.5382 22.0837 17.7813C22.3059 18.0243 22.417 18.2917 22.417 18.5834C22.417 18.8611 22.3337 19.1215 22.167 19.3646C22.0003 19.6077 21.792 19.8334 21.542 20.0417C20.9309 20.5834 20.5559 20.9931 20.417 21.2709C20.2781 21.5486 20.2087 22.0556 20.2087 22.7917ZM21.0003 29.3334C19.8475 29.3334 18.7642 29.1146 17.7503 28.6771C16.7364 28.2396 15.8545 27.6459 15.1045 26.8959C14.3545 26.1459 13.7607 25.2639 13.3232 24.25C12.8857 23.2361 12.667 22.1528 12.667 21C12.667 19.8472 12.8857 18.7639 13.3232 17.75C13.7607 16.7361 14.3545 15.8542 15.1045 15.1042C15.8545 14.3542 16.7364 13.7604 17.7503 13.3229C18.7642 12.8854 19.8475 12.6667 21.0003 12.6667C22.1531 12.6667 23.2364 12.8854 24.2503 13.3229C25.2642 13.7604 26.1462 14.3542 26.8962 15.1042C27.6462 15.8542 28.2399 16.7361 28.6774 17.75C29.1149 18.7639 29.3337 19.8472 29.3337 21C29.3337 22.1528 29.1149 23.2361 28.6774 24.25C28.2399 25.2639 27.6462 26.1459 26.8962 26.8959C26.1462 27.6459 25.2642 28.2396 24.2503 28.6771C23.2364 29.1146 22.1531 29.3334 21.0003 29.3334Z" fill="#3E46ED"/>
</g>
</svg>
