<svg width="42" height="42" viewBox="0 0 42 42" fill="none" xmlns="http://www.w3.org/2000/svg">
<rect x="0.5" y="0.5" width="41" height="41" rx="3.5" stroke="#E4E4E7"/>
<mask id="mask0_547_5302" style="mask-type:alpha" maskUnits="userSpaceOnUse" x="11" y="11" width="20" height="20">
<rect x="11" y="11" width="20" height="20" fill="#D9D9D9"/>
</mask>
<g mask="url(#mask0_547_5302)">
<path d="M14.3337 28.5C13.8753 28.5 13.483 28.3368 13.1566 28.0104C12.8302 27.684 12.667 27.2917 12.667 26.8333V17.6667C12.667 17.2083 12.8302 16.816 13.1566 16.4896C13.483 16.1632 13.8753 16 14.3337 16H17.667V14.3333C17.667 13.875 17.8302 13.4826 18.1566 13.1562C18.483 12.8299 18.8753 12.6667 19.3337 12.6667H22.667C23.1253 12.6667 23.5177 12.8299 23.8441 13.1562C24.1705 13.4826 24.3337 13.875 24.3337 14.3333V16H27.667C28.1253 16 28.5177 16.1632 28.8441 16.4896C29.1705 16.816 29.3337 17.2083 29.3337 17.6667V26.8333C29.3337 27.2917 29.1705 27.684 28.8441 28.0104C28.5177 28.3368 28.1253 28.5 27.667 28.5H14.3337ZM19.3337 16H22.667V14.3333H19.3337V16Z" fill="#3E46ED"/>
</g>
</svg>
