<svg width="42" height="42" viewBox="0 0 42 42" fill="none" xmlns="http://www.w3.org/2000/svg">
<rect x="0.5" y="0.5" width="41" height="41" rx="3.5" fill="white"/>
<rect x="0.5" y="0.5" width="41" height="41" rx="3.5" stroke="#E4E4E7"/>
<mask id="mask0_544_10921" style="mask-type:alpha" maskUnits="userSpaceOnUse" x="11" y="11" width="20" height="20">
<rect x="11" y="11" width="20" height="20" fill="#D9D9D9"/>
</mask>
<g mask="url(#mask0_544_10921)">
<path d="M18.9167 27.6667V26L16.4792 23.5625C16.3264 23.4097 16.2083 23.2326 16.125 23.0312C16.0417 22.8299 16 22.6181 16 22.3958V18.5C16 18.0417 16.1632 17.6493 16.4896 17.3229C16.816 16.9965 17.2083 16.8333 17.6667 16.8333H18.5L17.6667 17.6667V14.3333C17.6667 14.0972 17.7465 13.8993 17.9063 13.7396C18.066 13.5799 18.2639 13.5 18.5 13.5C18.7361 13.5 18.934 13.5799 19.0938 13.7396C19.2535 13.8993 19.3333 14.0972 19.3333 14.3333V16.8333H22.6667V14.3333C22.6667 14.0972 22.7465 13.8993 22.9062 13.7396C23.066 13.5799 23.2639 13.5 23.5 13.5C23.7361 13.5 23.934 13.5799 24.0938 13.7396C24.2535 13.8993 24.3333 14.0972 24.3333 14.3333V17.6667L23.5 16.8333H24.3333C24.7917 16.8333 25.184 16.9965 25.5104 17.3229C25.8368 17.6493 26 18.0417 26 18.5V22.3958C26 22.6181 25.9583 22.8299 25.875 23.0312C25.7917 23.2326 25.6736 23.4097 25.5208 23.5625L23.0833 26V27.6667C23.0833 27.9028 23.0035 28.1007 22.8438 28.2604C22.684 28.4201 22.4861 28.5 22.25 28.5H19.75C19.5139 28.5 19.316 28.4201 19.1562 28.2604C18.9965 28.1007 18.9167 27.9028 18.9167 27.6667Z" fill="#00A298"/>
</g>
</svg>
