<svg width="42" height="42" viewBox="0 0 42 42" fill="none" xmlns="http://www.w3.org/2000/svg">
<rect x="0.5" y="0.5" width="41" height="41" rx="3.5" stroke="#E4E4E7"/>
<mask id="mask0_544_10891" style="mask-type:alpha" maskUnits="userSpaceOnUse" x="11" y="11" width="20" height="20">
<rect x="11" y="11" width="20" height="20" fill="#D9D9D9"/>
</mask>
<g mask="url(#mask0_544_10891)">
<path d="M15.1667 28.5C14.7083 28.5 14.316 28.3368 13.9896 28.0104C13.6632 27.684 13.5 27.2917 13.5 26.8333V16.4375C13.5 16.2431 13.5312 16.0556 13.5938 15.875C13.6562 15.6944 13.75 15.5278 13.875 15.375L14.9167 14.1042C15.0694 13.9097 15.2604 13.7604 15.4896 13.6562C15.7188 13.5521 15.9583 13.5 16.2083 13.5H25.7917C26.0417 13.5 26.2812 13.5521 26.5104 13.6562C26.7396 13.7604 26.9306 13.9097 27.0833 14.1042L28.125 15.375C28.25 15.5278 28.3438 15.6944 28.4062 15.875C28.4688 16.0556 28.5 16.2431 28.5 16.4375V26.8333C28.5 27.2917 28.3368 27.684 28.0104 28.0104C27.684 28.3368 27.2917 28.5 26.8333 28.5H15.1667ZM15.5 16H26.5L25.7917 15.1667H16.2083L15.5 16ZM24.3333 17.6667H17.6667V22.9792C17.6667 23.2986 17.7986 23.5382 18.0625 23.6979C18.3264 23.8576 18.5972 23.8681 18.875 23.7292L21 22.6667L23.125 23.7292C23.4028 23.8681 23.6736 23.8576 23.9375 23.6979C24.2014 23.5382 24.3333 23.2986 24.3333 22.9792V17.6667Z" fill="#3E46ED"/>
</g>
</svg>
