<svg width="42" height="42" viewBox="0 0 42 42" fill="none" xmlns="http://www.w3.org/2000/svg">
<rect x="0.5" y="0.5" width="41" height="41" rx="3.5" stroke="#E4E4E7"/>
<mask id="mask0_545_9219" style="mask-type:alpha" maskUnits="userSpaceOnUse" x="11" y="11" width="20" height="20">
<rect x="11" y="11" width="20" height="20" fill="#D9D9D9"/>
</mask>
<g mask="url(#mask0_545_9219)">
<path d="M17.2497 29.3333C16.4441 29.3333 15.7566 29.0486 15.1872 28.4792C14.6177 27.9097 14.333 27.2222 14.333 26.4167V15.5833C14.333 14.7778 14.6177 14.0903 15.1872 13.5208C15.7566 12.9514 16.4441 12.6667 17.2497 12.6667H27.6663V25.1667C27.3191 25.1667 27.024 25.2882 26.7809 25.5312C26.5379 25.7743 26.4163 26.0694 26.4163 26.4167C26.4163 26.7639 26.5379 27.059 26.7809 27.3021C27.024 27.5451 27.3191 27.6667 27.6663 27.6667V29.3333H17.2497ZM17.6663 23.5H19.333V14.3333H17.6663V23.5ZM17.2497 27.6667H25.0205C24.9372 27.4722 24.8712 27.2743 24.8226 27.0729C24.774 26.8715 24.7497 26.6528 24.7497 26.4167C24.7497 26.1944 24.7705 25.9792 24.8122 25.7708C24.8538 25.5625 24.9233 25.3611 25.0205 25.1667H17.2497C16.8886 25.1667 16.59 25.2882 16.3538 25.5312C16.1177 25.7743 15.9997 26.0694 15.9997 26.4167C15.9997 26.7778 16.1177 27.0764 16.3538 27.3125C16.59 27.5486 16.8886 27.6667 17.2497 27.6667Z" fill="#3E46ED"/>
</g>
</svg>
