<svg width="42" height="42" viewBox="0 0 42 42" fill="none" xmlns="http://www.w3.org/2000/svg">
<rect x="0.5" y="0.5" width="41" height="41" rx="3.5" stroke="#E4E4E7"/>
<mask id="mask0_544_10882" style="mask-type:alpha" maskUnits="userSpaceOnUse" x="11" y="11" width="20" height="20">
<rect x="11" y="11" width="20" height="20" fill="#D9D9D9"/>
</mask>
<g mask="url(#mask0_544_10882)">
<path d="M15.9997 27.6666C15.3052 27.6666 14.715 27.4236 14.2288 26.9375C13.7427 26.4514 13.4997 25.8611 13.4997 25.1666H12.6663C12.4302 25.1666 12.2323 25.0868 12.0726 24.9271C11.9129 24.7673 11.833 24.5694 11.833 24.3333V16C11.833 15.5416 11.9962 15.1493 12.3226 14.8229C12.649 14.4965 13.0413 14.3333 13.4997 14.3333H23.4997C23.958 14.3333 24.3504 14.4965 24.6768 14.8229C25.0031 15.1493 25.1663 15.5416 25.1663 16V17.6666H26.833C27.0969 17.6666 27.3469 17.7257 27.583 17.8437C27.8191 17.9618 28.0136 18.125 28.1663 18.3333L29.9997 20.7708C30.0552 20.8403 30.0969 20.9166 30.1247 21C30.1525 21.0833 30.1663 21.1736 30.1663 21.2708V24.3333C30.1663 24.5694 30.0865 24.7673 29.9268 24.9271C29.767 25.0868 29.5691 25.1666 29.333 25.1666H28.4997C28.4997 25.8611 28.2566 26.4514 27.7705 26.9375C27.2844 27.4236 26.6941 27.6666 25.9997 27.6666C25.3052 27.6666 24.715 27.4236 24.2288 26.9375C23.7427 26.4514 23.4997 25.8611 23.4997 25.1666H18.4997C18.4997 25.8611 18.2566 26.4514 17.7705 26.9375C17.2844 27.4236 16.6941 27.6666 15.9997 27.6666ZM15.9997 26C16.2358 26 16.4337 25.9201 16.5934 25.7604C16.7531 25.6007 16.833 25.4028 16.833 25.1666C16.833 24.9305 16.7531 24.7326 16.5934 24.5729C16.4337 24.4132 16.2358 24.3333 15.9997 24.3333C15.7636 24.3333 15.5656 24.4132 15.4059 24.5729C15.2462 24.7326 15.1663 24.9305 15.1663 25.1666C15.1663 25.4028 15.2462 25.6007 15.4059 25.7604C15.5656 25.9201 15.7636 26 15.9997 26ZM25.9997 26C26.2358 26 26.4337 25.9201 26.5934 25.7604C26.7531 25.6007 26.833 25.4028 26.833 25.1666C26.833 24.9305 26.7531 24.7326 26.5934 24.5729C26.4337 24.4132 26.2358 24.3333 25.9997 24.3333C25.7636 24.3333 25.5656 24.4132 25.4059 24.5729C25.2462 24.7326 25.1663 24.9305 25.1663 25.1666C25.1663 25.4028 25.2462 25.6007 25.4059 25.7604C25.5656 25.9201 25.7636 26 25.9997 26ZM25.1663 21.8333H28.708L26.833 19.3333H25.1663V21.8333Z" fill="#3E46ED"/>
</g>
</svg>
