<svg width="42" height="42" viewBox="0 0 42 42" fill="none" xmlns="http://www.w3.org/2000/svg">
<rect x="0.5" y="0.5" width="41" height="41" rx="3.5" stroke="#E4E4E7"/>
<mask id="mask0_544_10874" style="mask-type:alpha" maskUnits="userSpaceOnUse" x="11" y="11" width="20" height="20">
<rect x="11" y="11" width="20" height="20" fill="#D9D9D9"/>
</mask>
<g mask="url(#mask0_544_10874)">
<path d="M15.1667 29.3333C14.7083 29.3333 14.316 29.1701 13.9896 28.8437C13.6632 28.5173 13.5 28.125 13.5 27.6666V17.6666C13.5 17.2083 13.6632 16.816 13.9896 16.4896C14.316 16.1632 14.7083 16 15.1667 16H16.8333C16.8333 14.8472 17.2396 13.8646 18.0521 13.0521C18.8646 12.2396 19.8472 11.8333 21 11.8333C22.1528 11.8333 23.1354 12.2396 23.9479 13.0521C24.7604 13.8646 25.1667 14.8472 25.1667 16H26.8333C27.2917 16 27.684 16.1632 28.0104 16.4896C28.3368 16.816 28.5 17.2083 28.5 17.6666V27.6666C28.5 28.125 28.3368 28.5173 28.0104 28.8437C27.684 29.1701 27.2917 29.3333 26.8333 29.3333H15.1667ZM18.5 16H23.5C23.5 15.3055 23.2569 14.7153 22.7708 14.2291C22.2847 13.743 21.6944 13.5 21 13.5C20.3056 13.5 19.7153 13.743 19.2292 14.2291C18.7431 14.7153 18.5 15.3055 18.5 16ZM20.9792 22.6666C22.0069 22.6666 22.9375 22.3264 23.7708 21.6458C24.6042 20.9653 25.0139 20.2014 25 19.3541C25 19.118 24.9236 18.9166 24.7708 18.75C24.6181 18.5833 24.4236 18.5 24.1875 18.5C23.9931 18.5 23.8194 18.5625 23.6667 18.6875C23.5139 18.8125 23.4028 19 23.3333 19.25C23.1806 19.7778 22.8819 20.2014 22.4375 20.5208C21.9931 20.8403 21.5069 21 20.9792 21C20.4514 21 19.9618 20.8403 19.5104 20.5208C19.059 20.2014 18.7639 19.7778 18.625 19.25C18.5556 18.9861 18.4514 18.7951 18.3125 18.6771C18.1736 18.559 18.0069 18.5 17.8125 18.5C17.5764 18.5 17.3785 18.5833 17.2188 18.75C17.059 18.9166 16.9792 19.118 16.9792 19.3541C16.9792 20.2014 17.3889 20.9653 18.2083 21.6458C19.0278 22.3264 19.9514 22.6666 20.9792 22.6666Z" fill="#3E46ED"/>
</g>
</svg>
