<svg width="42" height="42" viewBox="0 0 42 42" fill="none" xmlns="http://www.w3.org/2000/svg">
<rect x="0.5" y="0.5" width="41" height="41" rx="3.5" fill="white"/>
<rect x="0.5" y="0.5" width="41" height="41" rx="3.5" stroke="#E4E4E7"/>
<mask id="mask0_544_11519" style="mask-type:alpha" maskUnits="userSpaceOnUse" x="11" y="11" width="20" height="20">
<rect x="11" y="11" width="20" height="20" fill="#D9D9D9"/>
</mask>
<g mask="url(#mask0_544_11519)">
<path d="M21.0837 28.5C20.8475 28.5 20.6496 28.4201 20.4899 28.2604C20.3302 28.1007 20.2503 27.9028 20.2503 27.6667C20.2503 27.5694 20.2712 27.4688 20.3128 27.3646C20.3545 27.2604 20.417 27.1667 20.5003 27.0833L24.3545 23.2292L23.7503 22.625L19.917 26.4792C19.8337 26.5625 19.7434 26.625 19.6462 26.6667C19.5489 26.7083 19.4448 26.7292 19.3337 26.7292C19.0975 26.7292 18.8996 26.6493 18.7399 26.4896C18.5802 26.3299 18.5003 26.1319 18.5003 25.8958C18.5003 25.7569 18.5212 25.6424 18.5628 25.5521C18.6045 25.4618 18.66 25.3819 18.7295 25.3125L22.5837 21.4583L22.0003 20.875L18.1462 24.7083C18.0628 24.7917 17.9725 24.8542 17.8753 24.8958C17.7781 24.9375 17.667 24.9583 17.542 24.9583C17.3198 24.9583 17.1253 24.875 16.9587 24.7083C16.792 24.5417 16.7087 24.3472 16.7087 24.125C16.7087 24.0139 16.7295 23.9097 16.7712 23.8125C16.8128 23.7153 16.8753 23.625 16.9587 23.5417L20.8128 19.6875L20.2087 19.1042L16.3753 22.9583C16.3059 23.0278 16.2225 23.0833 16.1253 23.125C16.0281 23.1667 15.91 23.1875 15.7712 23.1875C15.535 23.1875 15.3371 23.1076 15.1774 22.9479C15.0177 22.7882 14.9378 22.5903 14.9378 22.3542C14.9378 22.2431 14.9587 22.1389 15.0003 22.0417C15.042 21.9444 15.1045 21.8542 15.1878 21.7708L19.8337 17.125L22.9587 20.2708C23.1114 20.4236 23.292 20.5451 23.5003 20.6354C23.7087 20.7257 23.917 20.7708 24.1253 20.7708C24.5698 20.7708 24.9587 20.6146 25.292 20.3021C25.6253 19.9896 25.792 19.5903 25.792 19.1042C25.792 18.9097 25.7573 18.7083 25.6878 18.5C25.6184 18.2917 25.4934 18.0972 25.3128 17.9167L21.5837 14.1875C21.8198 13.9653 22.0837 13.7951 22.3753 13.6771C22.667 13.559 22.9587 13.5 23.2503 13.5C23.6114 13.5 23.9448 13.559 24.2503 13.6771C24.5559 13.7951 24.8337 13.9792 25.0837 14.2292L28.6045 17.7708C28.8545 18.0208 29.0385 18.2986 29.1566 18.6042C29.2746 18.9097 29.3337 19.2639 29.3337 19.6667C29.3337 19.9444 29.2712 20.2257 29.1462 20.5104C29.0212 20.7951 28.8406 21.0556 28.6045 21.2917L21.667 28.25C21.5559 28.3611 21.4587 28.4306 21.3753 28.4583C21.292 28.4861 21.1948 28.5 21.0837 28.5ZM13.9378 21.8333L13.3962 21.2917C13.16 21.0694 12.9795 20.8056 12.8545 20.5C12.7295 20.1944 12.667 19.875 12.667 19.5417C12.667 19.1806 12.7364 18.8472 12.8753 18.5417C13.0142 18.2361 13.1878 17.9792 13.3962 17.7708L16.917 14.2292C17.1392 14.0069 17.4031 13.8299 17.7087 13.6979C18.0142 13.566 18.3128 13.5 18.6045 13.5C18.9795 13.5 19.3128 13.5521 19.6045 13.6562C19.8962 13.7604 20.1809 13.9514 20.4587 14.2292L24.7295 18.5C24.8128 18.5833 24.8753 18.6736 24.917 18.7708C24.9587 18.8681 24.9795 18.9722 24.9795 19.0833C24.9795 19.3056 24.8962 19.5 24.7295 19.6667C24.5628 19.8333 24.3684 19.9167 24.1462 19.9167C24.0212 19.9167 23.917 19.8993 23.8337 19.8646C23.7503 19.8299 23.66 19.7639 23.5628 19.6667L19.8128 15.9583L13.9378 21.8333Z" fill="#3E46ED"/>
</g>
</svg>
