<svg width="42" height="42" viewBox="0 0 42 42" fill="none" xmlns="http://www.w3.org/2000/svg">
<rect x="0.5" y="0.5" width="41" height="41" rx="3.5" fill="white"/>
<rect x="0.5" y="0.5" width="41" height="41" rx="3.5" stroke="#E4E4E7"/>
<mask id="mask0_544_10913" style="mask-type:alpha" maskUnits="userSpaceOnUse" x="11" y="11" width="20" height="20">
<rect x="11" y="11" width="20" height="20" fill="#D9D9D9"/>
</mask>
<g mask="url(#mask0_544_10913)">
<path d="M15.1876 28.5C14.7292 28.5 14.3369 28.3368 14.0105 28.0104C13.6841 27.684 13.5209 27.2917 13.5209 26.8333V20.2083C13.2014 19.9167 12.9549 19.5417 12.7813 19.0833C12.6077 18.625 12.6042 18.125 12.7709 17.5833L13.6459 14.75C13.757 14.3889 13.9549 14.0903 14.2396 13.8542C14.5244 13.6181 14.8542 13.5 15.2292 13.5H26.8126C27.1876 13.5 27.5139 13.6146 27.7917 13.8438C28.0695 14.0729 28.2709 14.375 28.3959 14.75L29.2709 17.5833C29.4376 18.125 29.4341 18.6181 29.2605 19.0625C29.0869 19.5069 28.8403 19.8889 28.5209 20.2083V26.8333C28.5209 27.2917 28.3577 27.684 28.0313 28.0104C27.7049 28.3368 27.3126 28.5 26.8542 28.5H15.1876ZM22.8542 19.3333C23.2292 19.3333 23.5139 19.2049 23.7084 18.9479C23.9028 18.691 23.9792 18.4028 23.9376 18.0833L23.4792 15.1667H21.8542V18.25C21.8542 18.5417 21.9514 18.7951 22.1459 19.0104C22.3403 19.2257 22.5764 19.3333 22.8542 19.3333ZM19.1042 19.3333C19.4237 19.3333 19.6841 19.2257 19.8855 19.0104C20.0869 18.7951 20.1876 18.5417 20.1876 18.25V15.1667H18.5626L18.1042 18.0833C18.0487 18.4167 18.1216 18.7083 18.323 18.9583C18.5244 19.2083 18.7848 19.3333 19.1042 19.3333ZM15.3959 19.3333C15.6459 19.3333 15.8646 19.2431 16.0521 19.0625C16.2396 18.8819 16.3542 18.6528 16.3959 18.375L16.8542 15.1667H15.2292L14.3959 17.9583C14.3126 18.2361 14.3577 18.5347 14.5313 18.8542C14.7049 19.1736 14.9931 19.3333 15.3959 19.3333ZM26.6459 19.3333C27.0487 19.3333 27.3403 19.1736 27.5209 18.8542C27.7014 18.5347 27.7431 18.2361 27.6459 17.9583L26.7709 15.1667H25.1876L25.6459 18.375C25.6876 18.6528 25.8021 18.8819 25.9896 19.0625C26.1771 19.2431 26.3959 19.3333 26.6459 19.3333Z" fill="#00A298"/>
</g>
</svg>
