<svg width="42" height="42" viewBox="0 0 42 42" fill="none" xmlns="http://www.w3.org/2000/svg">
<rect x="0.5" y="0.5" width="41" height="41" rx="3.5" stroke="#E4E4E7"/>
<mask id="mask0_547_5267" style="mask-type:alpha" maskUnits="userSpaceOnUse" x="11" y="11" width="20" height="20">
<rect x="11" y="11" width="20" height="20" fill="#D9D9D9"/>
</mask>
<g mask="url(#mask0_547_5267)">
<path d="M24.917 23.0834L28.0837 20.375L30.5837 20.5834L26.917 23.7709L28.0003 28.5L25.8753 27.2084L24.917 23.0834ZM22.9587 17L22.0837 14.9584L23.042 12.6667L24.9587 17.1875L22.9587 17ZM14.6045 28.5L15.9587 22.6459L11.417 18.7084L17.417 18.1875L19.7503 12.6667L22.0837 18.1875L28.0837 18.7084L23.542 22.6459L24.8962 28.5L19.7503 25.3959L14.6045 28.5Z" fill="#3E46ED"/>
</g>
</svg>
