<svg width="64" height="64" viewBox="0 0 64 64" fill="none" xmlns="http://www.w3.org/2000/svg">
<rect width="64" height="64" fill="#FFE900"/>
<path d="M41.3869 31.3429V20.4343C41.3869 20.1451 41.1567 19.9086 40.8754 19.9086C40.5941 19.9086 40.3639 20.1451 40.3639 20.4343V26.6114C40.3639 29.2269 38.3052 31.3429 35.7607 31.3429C33.2161 31.3429 31.1574 29.2269 31.1574 26.6114V20.4343C31.1574 20.1451 30.9272 19.9086 30.6459 19.9086C30.3646 19.9086 30.1344 20.1451 30.1344 20.4343V31.3429H26.0426V20.4343C26.0426 17.8189 28.1013 15.7029 30.6459 15.7029C33.1905 15.7029 35.2492 17.8189 35.2492 20.4343V26.6114C35.2492 26.9006 35.4793 27.1371 35.7607 27.1371C36.042 27.1371 36.2721 26.9006 36.2721 26.6114V20.4343C36.2721 17.8189 38.3308 15.7029 40.8754 15.7029C43.42 15.7029 45.4787 17.8189 45.4787 20.4343V31.3429H41.3869ZM23.8049 18.0029C23.8049 16.7411 22.7948 15.7029 21.5672 15.7029C20.3397 15.7029 19.3295 16.7411 19.3295 18.0029C19.3295 19.2646 20.3397 20.3029 21.5672 20.3029C22.7948 20.3029 23.8049 19.2646 23.8049 18.0029ZM23.6131 31.3429V21.6171H19.5213V31.3429H23.6131ZM52 46.1943V17.8057C52 12.956 48.1511 9 43.4328 9H21.5672C16.8489 9 13 12.956 13 17.8057V46.1943C13 51.044 16.8489 55 21.5672 55H33.8426V50.7943H21.5672C19.0993 50.7943 17.0918 48.7309 17.0918 46.1943V17.8057C17.0918 15.2691 19.0993 13.2057 21.5672 13.2057H43.4328C45.9007 13.2057 47.9082 15.2691 47.9082 17.8057V46.1943C47.9082 48.7309 45.9007 50.7943 43.4328 50.7943C40.9649 50.7943 38.9574 48.7309 38.9574 46.1943V37.3886C38.9574 34.7731 36.8987 32.6571 34.3541 32.6571C31.8095 32.6571 29.7508 34.7731 29.7508 37.3886V43.5657C29.7508 43.8549 29.5207 44.0914 29.2393 44.0914C28.958 44.0914 28.7279 43.8549 28.7279 43.5657V37.3886C28.7279 34.7731 26.6692 32.6571 24.1246 32.6571C21.58 32.6571 19.5213 34.7731 19.5213 37.3886V48.2971H23.6131V37.3886C23.6131 37.0994 23.8433 36.8629 24.1246 36.8629C24.4059 36.8629 24.6361 37.0994 24.6361 37.3886V43.5657C24.6361 46.1811 26.6948 48.2971 29.2393 48.2971C31.7839 48.2971 33.8426 46.1811 33.8426 43.5657V37.3886C33.8426 37.0994 34.0728 36.8629 34.3541 36.8629C34.6354 36.8629 34.8656 37.0994 34.8656 37.3886V46.1943C34.8656 51.044 38.7144 55 43.4328 55C48.1511 55 52 51.044 52 46.1943ZM45.6705 34.9571C45.6705 33.6954 44.6603 32.6571 43.4328 32.6571C42.2052 32.6571 41.1951 33.6954 41.1951 34.9571C41.1951 36.2189 42.2052 37.2571 43.4328 37.2571C44.6603 37.2571 45.6705 36.2189 45.6705 34.9571ZM45.4787 48.2971V38.5714H41.3869V48.2971H45.4787Z" fill="black"/>
</svg>
